<?xml version="1.0" encoding="UTF-8"?>
<svg width="512px" height="97px" viewBox="0 0 512 97" version="1.1" xmlns="http://www.w3.org/2000/svg" xmlns:xlink="http://www.w3.org/1999/xlink">
    <!-- Generator: Sketch 43.2 (39069) - http://www.bohemiancoding.com/sketch -->
    <title>bapfoodlogo</title>
    <desc>Created with Sketch.</desc>
    <defs></defs>
    <g id="Page-1" stroke="none" stroke-width="1" fill="none" fill-rule="evenodd">
        <g id="bapfoodlogo" fill-rule="nonzero">
            <g id="Group" transform="translate(128.000000, 14.000000)" fill="#F8F7FA">
                <path d="M41.1,48.4 C40.9,48.9 41.1,49.5 40.9,50.2 C40.8,50.9 40.7,51.6 40.5,52.3 C40.3,52.9 40.2,53.6 40,54.3 C39.9,54.5 39.8,54.7 39.8,55 C39.7,55.2 39.8,55.3 39.6,55.3 C39.5,55.3 39.4,55.5 39.4,55.5 C39.7,55.8 39.3,55.9 39.4,56.1 C38.8,57 38.7,58 37.9,58.8 C37.7,59 37.6,59.2 37.6,59.4 C37.5,59.7 37.3,59.8 37.1,59.9 C36.9,60 36.9,60 36.8,60.2 C36.8,60.4 36.7,60.6 36.5,60.7 C36.4,60.9 36.3,61.1 36.1,61.2 C36,61.4 35.8,61.6 35.7,61.6 C35.3,61.6 35.5,62 35.3,62 C35.1,62.1 35,62.4 34.8,62.4 C34.5,62.4 34.4,62.7 34.2,62.8 C33.8,63.1 33.3,63.2 33.1,63.6 C33,63.9 32.7,63.3 32.7,63.8 C32.7,64 32.5,64.1 32.2,64.1 C32,64.2 31.9,64.4 31.7,64.5 C31.5,64.6 31.2,64.7 31,64.8 C30.8,64.9 30.7,65.2 30.4,65 C30.4,65 30.3,65.1 30.2,65.1 C30,65.2 29.9,65.3 29.7,65.4 C29.5,65.5 29.3,65.7 29.2,65.6 C28.9,65.6 28.9,65.9 28.6,65.7 C28.5,65.6 28.4,66.1 28,66 C27.4,66.4 26.5,66.4 25.8,66.6 L25.5,66.6 C25.4,66.5 25.3,66.4 25.2,66.6 C25.1,66.7 25,66.7 24.9,66.8 C24.6,66.9 24.4,66.6 24.1,66.6 C24.1,67 23.8,66.9 23.5,67 C23.1,67 22.6,67.1 22.2,67.1 C21.8,67.2 21.4,67 21,67.3 C20.9,67.4 20.6,67.3 20.5,67.3 L14.1,67.3 C13.8,67.3 13.5,67.1 13.1,67.3 C12.9,67.4 12.5,67.3 12.1,67.3 L11.2,67.3 L10.1,67.3 C9.8,67.2 9.5,67.4 9.2,67.1 C9.1,67.1 8.9,67.3 8.8,67.3 L5.6,67.3 C5,66.9 4.2,67.2 3.5,67.1 C2.9,67.1 2.3,66.9 1.7,66.7 C1.5,66.6 1.5,66.4 1.4,66.4 C1.2,66.3 1.1,66.1 0.9,66.1 C0.7,66 1.2,65.7 0.7,65.7 C0.6,65.4 0.5,65.3 0.5,65.1 C0.4,64.9 0.4,64.7 0.6,64.6 L0.6,64.4 C0.3,64.1 0.5,63.9 0.5,63.6 C0.4,63.3 0.6,63.1 0.3,62.9 C0.1,62.7 0.6,62.6 0.3,62.5 C0.3,62.4 0.4,62.2 0.5,62.1 C0.5,61.9 0.3,61.8 0.3,61.7 C0.4,60.9 0.3,60.1 0.3,59.3 L0.3,57.7 C0.3,57.3 0.1,57 0.4,56.6 C0.5,56.5 0.3,56.2 0.3,56.1 C0.3,55.5 0.1,54.8 0.4,54.2 C0.2,53.8 0.2,53.4 0.3,53.1 C0.5,52.6 0.5,52 0.4,51.6 C0.2,51 0.2,50.5 0.3,49.9 C0.5,48.8 0.4,47.9 0.5,46.9 C0.5,46.5 0.5,46.5 0.4,46.2 C0.3,46.2 0.3,46.1 0.3,46.1 C0.4,45.3 0.1,44.6 0.4,43.9 C0.5,43.7 0.4,43.6 0.4,43.5 C0.4,43.4 0.3,43.3 0.3,43.2 C0.1,42.9 0.5,42.7 0.3,42.4 C0.2,42.1 0.2,41.8 0.4,41.6 C0.5,41.6 0.4,41.5 0.5,41.5 C0.5,41.1 0.2,40.8 0.3,40.4 C0.4,40 0.5,39.7 0.4,39.3 C0.3,39.2 0.5,39.1 0.4,39.1 C0.4,38.7 0.6,38.3 0.3,38 C0.2,37.8 0.4,37.6 0.3,37.2 C0.2,36.9 0.1,36.7 0.4,36.4 C0.5,36.3 0.5,36.2 0.4,36.1 C0.4,35.9 0.1,35.7 0.4,35.6 C0.6,35.5 0.4,35.2 0.6,35 C0.6,35 0.6,34.8 0.5,34.7 L0.5,34.3 C0.6,33.8 0.6,33.8 0.5,33.1 C0.4,32.5 0.3,31.8 0.3,31.2 C0.3,31 0.4,30.8 0.4,30.6 C0.5,30.3 0.4,30.2 0.6,30 C0.7,29.8 0.6,29.6 0.5,29.5 C0.2,29.3 0.3,29.1 0.3,28.8 L0.3,25.2 C0.3,25 0.2,24.8 0.4,24.6 C0.5,24.6 0.3,24.4 0.3,24.2 C0.3,24.1 0.5,24 0.4,24 C0.2,23.7 0.4,23.5 0.5,23.3 C0.5,22.9 0.8,22.6 0.5,22.2 C0.9,22 0.4,21.8 0.4,21.6 C0.5,21.3 0.4,21.2 0.3,21 C0.3,20.6 0.2,20.3 0.4,19.9 C0.6,19.6 0.3,19.2 0.6,18.9 C0.6,18.9 0.5,18.8 0.5,18.7 C0.6,18.4 0.1,18.3 0.3,18.1 C0.5,17.9 0.2,17.7 0.3,17.6 L0.3,12.9 C0.3,12.7 0.3,12.5 0.5,12.4 C0.2,12 0.5,11.7 0.5,11.3 C0.4,11.2 0.4,11.1 0.5,11 C0.6,10.6 0.6,9.9 0.4,9.8 C0.2,9.5 0.2,9.4 0.3,9.2 C0.5,8.9 0.4,8.9 0.3,8.8 C0.2,8.6 0.4,8.4 0.4,8.3 C0.3,8 0.4,7.8 0.5,7.5 C0.1,7.3 0.5,7.1 0.3,6.8 C0.2,6.6 0.5,6.4 0.5,6.1 C0.9,5.8 0.4,5.3 0.8,5 L0.7,4.9 C0.4,4.6 0.3,4.5 0.6,4.2 C0.7,4 0.6,3.8 0.6,3.6 L0.7,3.6 C1.2,3.6 0.8,3.2 1.1,3.1 C1.4,3 1.7,2.7 2,2.7 C2.4,2.6 2.7,2.3 3.1,2.7 L3.2,2.6 C3.2,2.5 3.2,2.2 3.4,2.4 C3.5,2.5 3.6,2.4 3.7,2.3 C4.7,2.5 5.6,2.2 6.6,2.2 C6.9,2.2 7.2,2.1 7.5,2.3 C7.6,2.4 7.9,2.3 8.1,2.5 C8.2,2.5 8.5,2.4 8.6,2.4 C9.2,2.4 9.8,2.2 10.3,2.6 C10.4,2.7 10.4,2.6 10.5,2.6 C11,2.5 11.6,2.4 12.1,2.6 C12.2,2.7 12.5,2.7 12.7,2.7 C13.3,2.7 13.9,2.6 14.5,2.9 L14.9,2.9 C15.4,2.6 16,2.7 16.5,2.7 C16.8,2.7 17.1,2.8 17.5,2.9 C17.8,2.9 18.1,2.8 18.5,3 C18.5,3 18.7,2.9 18.9,2.9 C19,2.9 19.2,3 19.3,3 C19.6,3.1 19.8,2.9 20,3.2 C20.2,3.3 20.4,2.9 20.6,3.2 C20.6,3.2 20.9,3.2 21,3.1 C21.3,2.9 21.7,3.1 22.1,3 C22.1,3 22.2,3.2 22.2,3.3 C22.3,3.4 22.5,3.4 22.5,3.3 C22.6,2.9 23,3 23.2,3.1 C23.5,3.2 23.8,3.5 24.2,3.2 C24.4,3.4 24.6,3.6 24.8,3.6 C25.1,3.7 25.4,3.2 25.7,3.5 C25.9,3.8 26.1,3.5 26.4,3.5 C27.5,3.8 28.7,4 29.7,4.5 C30,4.7 30.4,4.7 30.6,4.9 C30.6,5 30.9,5.2 31.2,5 C31.2,5 32.5,5.5 32.6,5.7 C32.9,5.9 33.2,6.1 33.5,6.2 C33.9,6.4 34.2,6.6 34.6,6.9 C34.9,7.2 35.3,7.4 35.6,7.7 C35.9,8 36.1,8.2 36.3,8.5 C36.6,8.8 36.9,9 37,9.3 C37.4,9.8 37.9,10.3 38.2,10.9 C38.4,11.4 38.7,12 39.1,12.5 C39.4,12.9 39.4,13.5 39.6,13.9 C39.7,14 39.7,14.1 39.7,14.2 L39.8,14.2 C39.8,14.3 39.8,14.3 39.7,14.3 C39.7,14.5 39.7,14.6 39.8,14.7 C40.1,15 40.1,15.3 40.2,15.6 C40.2,16 40.4,16.2 40.4,16.6 C40.4,16.7 40.5,16.8 40.5,16.9 C40.6,17.3 40.7,17.7 40.7,18 C40.7,18.4 40.7,18.7 40.8,19.1 C41,19.5 40.9,20.1 40.9,20.6 L40.9,21.7 C40.7,22.7 40.8,23.6 40.4,24.5 C40.3,24.8 40.3,25.1 40.2,25.5 C39.8,26.8 39.5,27.7 38.7,29 C38.3,29.8 37.7,30.6 37,31.3 C36.8,31.5 36.7,31.7 36.4,31.8 C36.2,31.9 36.1,32 36.1,32.1 C36,32.5 35.7,32.6 35.4,32.7 C35.3,32.7 35.2,32.9 35.1,33 C34.9,33.1 34.8,33.3 34.7,33.4 C34.8,33.5 35,33.6 35.1,33.7 C35.3,33.9 35.4,34.1 35.5,34.1 C35.8,34.1 35.9,34.3 36.1,34.4 C37,35.2 37.7,36.2 38.4,37.1 C38.4,37.2 38.4,37.2 38.5,37.3 C38.5,37.7 38.7,37.9 39,38.2 C39.2,38.5 39.4,38.8 39.3,39.2 C39.3,39.4 39.3,39.5 39.5,39.5 C39.6,39.5 39.7,39.6 39.7,39.6 C39.4,40 40,40.4 40.1,40.8 C40.2,41.2 40.2,41.6 40.4,42 C40.4,42.3 40.7,42.5 40.4,42.8 L40.4,42.9 C40.9,42.9 40.7,43.3 40.7,43.4 C40.8,43.7 40.8,44 40.9,44.3 C40.9,44.7 40.8,45 40.9,45.4 C41.3,46.1 41.1,47.3 41.1,48.4 Z M26.7,45.4 C26.6,45.4 26.5,45.6 26.5,45.4 C26.5,44.9 26.3,44.3 26.3,43.8 C26.3,43.2 26,42.7 26.1,42 C26.1,41.9 26,41.8 25.9,41.6 C25.8,41.5 25.7,41.4 25.6,41.2 C25.5,41.1 25.8,41 25.6,40.9 C25.4,40.7 25.4,40.4 25.2,40.2 C24.9,40.1 24.5,40.1 24.5,39.8 C23.8,39.6 23.4,39.2 22.7,39 C22.1,38.8 21.5,38.6 20.8,38.6 C20.1,38.4 19.4,38.4 18.7,38.4 L17.5,38.4 L15.4,38.4 C15.1,38.4 15,38.4 15,38.7 L15,41.1 C15,41.4 15,41.6 14.9,41.9 C14.8,42.3 14.5,42.5 14.9,42.9 L14.9,43.2 C14.8,43.5 14.7,44.1 14.9,44.2 C15,44.4 15,44.6 15,44.8 C15,45.8 15.1,46.7 15,47.6 C15,48.6 15.1,49.5 14.9,50.5 C14.7,51.6 14.9,52.5 14.9,53.6 C14.9,54 15.2,54.2 15.4,54.6 C15.5,54.7 15.7,54.8 15.9,54.9 C16.3,54.9 16.6,55.1 17,55.1 C17.3,55 17.7,55.2 18,55.2 C19,55.3 19.9,55 20.9,55 L21,55 C21.5,54.7 22,54.6 22.5,54.3 C23.3,54.5 23.5,53.9 23.9,53.6 C23.9,53.5 24,53.5 24,53.5 C24.4,53.4 24.7,53.1 24.7,52.8 C24.7,52.4 25.1,52.4 25.1,52 C25.4,52 25.4,51.8 25.4,51.6 C25.4,51.3 25.6,51 25.9,50.9 C26,50.8 26,50.8 26.1,50.8 C25.8,50.6 26,50.4 26.1,50.3 C26.2,50.1 26.2,49.9 26.3,49.8 C26.4,49.4 26.6,49 26.3,48.7 C26.2,48.6 26.3,48.4 26.3,48.4 C26.7,48.4 26.6,48.1 26.6,48 C26.6,47.3 26.7,46.7 26.9,46.1 C27,45.8 26.8,45.6 26.7,45.4 Z M14.8,22.3 C15,22.9 14.9,23.4 14.9,24 C15,24.3 15.1,24.6 14.9,24.9 C14.7,25.2 14.7,25.5 14.8,25.8 C14.8,26 14.9,26.2 14.9,26.4 C15,26.7 14.9,27 14.9,27.3 C14.9,27.5 14.9,27.7 15,27.7 C15.2,27.9 15.5,28 15.7,28 C16.1,28 16.5,28.2 16.9,27.9 C17.2,27.8 17.6,27.8 17.9,28 C18.1,28.1 18.2,28.1 18.4,28 C18.8,27.8 19.3,27.9 19.7,27.7 C19.9,28 20,27.9 20.2,27.7 C20.3,27.6 20.5,27.5 20.7,27.6 C20.8,27.6 20.9,27.7 21.1,27.6 C21.5,27.3 22,27.2 22.4,27 C22.5,26.9 22.6,27.2 22.7,27 C22.9,26.8 23.1,26.7 23.4,26.9 C23.4,27 23.5,26.9 23.6,26.8 C23.6,26.7 23.6,26.7 23.7,26.7 C24.1,26.6 24.6,26.7 24.6,26.1 C24.6,25.9 24.8,26.1 24.8,26.1 C24.9,26.1 25.1,26 25.1,26 C25,25.6 25.4,25.4 25.5,25 C25.5,24.7 25.6,24.6 26,24.4 C26.2,24.2 26.2,24 26.3,23.7 C26.3,23.4 26.4,23.2 26.7,22.8 C26.8,22.8 26.9,22.6 26.8,22.6 C26.8,21.9 27.1,21.1 26.6,20.5 L26.5,20.4 C26.9,20.2 26.5,20 26.5,19.8 C26.5,19.5 26.5,19.4 26.3,19.1 C26.2,19 26.1,18.8 26.2,18.6 C26.2,18.5 26.1,18.4 25.9,18.4 C25.8,18.3 25.5,18.2 25.8,18 C25.9,17.9 25.4,17.9 25.5,17.6 C25.5,17.5 25.5,17.4 25.3,17.3 C25.1,17.3 24.8,17.1 24.8,17 C24.9,16.6 24.5,16.6 24.3,16.3 C23.6,15.7 22.8,15.2 22,14.8 C20.8,14.1 19.5,13.7 18,13.7 C17.5,13.7 17,13.7 16.5,13.8 C15.9,14 15.7,14.5 15.2,14.7 C15.1,14.7 15.1,15 15.1,15.1 C15,15.3 14.9,15.4 14.8,15.5 C15,15.6 14.9,15.8 14.9,15.9 L14.9,20.1 C14.9,20.3 15,20.5 14.8,20.5 C14.8,20.6 15,20.9 14.9,20.9 C14.6,21.6 14.7,22 14.8,22.3 Z" id="Shape"></path>
                <path d="M93.3,64.5 L93.3,65.5 C93.3,65.5 93.3,65.6 93.3,65.5 C92.9,66.3 92.3,66.6 91.5,66.6 C90.7,66.8 89.8,66.9 89,67 C87.4,67.2 85.9,67 84.2,67.1 C83.8,67.1 83.4,67 83.1,67 C82.7,66.9 82.3,67.1 81.9,66.8 C81.1,66.8 80.4,66.6 79.7,66.4 C79.2,66.2 79.2,66.2 78.8,65.9 L78.9,65.8 C78.3,65.6 78.3,65.1 77.9,64.7 C77.6,64.3 77.4,63.9 77.3,63.4 C77.3,63.4 77.4,63.3 77.5,63.2 C77.4,63.1 77.3,63 77.3,62.8 C77.3,62.8 77.4,62.7 77.4,62.6 C77.3,62.5 77.2,62.3 77.1,62.2 C77,61.6 77.3,61.1 77.3,60.4 L77.4,60.3 L77.4,60.2 C77.3,60.3 77.3,60.3 77.3,60.4 C76.9,60.2 77.1,60 77.2,59.9 C77.2,59.7 77.3,59.6 77.4,59.5 C77.2,59.1 77.2,58.6 77.4,58 C77.3,58 77.2,58 77.1,57.9 C77.2,57.7 77.3,57.6 77.3,57.5 L77.3,56.9 C77.2,56.9 77.1,56.8 76.9,56.7 C77,56.5 77,56.3 77.1,56.2 C77,56.1 76.8,55.9 76.7,55.8 C76.7,55.8 76.7,55.7 76.8,55.6 C76.7,55.4 76.6,55.2 76.5,55.1 C76.5,55.1 76.5,55.1 76.6,55 C76.5,54.8 76.4,54.7 76.3,54.6 L76.3,54.5 L74.8,53.5 L74.6,53.5 C74.3,53.4 74.1,53.4 73.8,53.3 C73.7,53.2 73.4,53.2 73.2,53.1 L72.6,53.1 C72.4,53.1 72.1,53.1 71.8,53 C71.7,53 71.4,53.1 71.2,53.1 L67.1,53.1 C66.6,53.1 66.1,53.3 65.6,53.3 C65,53.3 64.5,53.2 63.9,53.3 C63.5,53.4 63,53.5 62.6,53.7 C62.2,54 62,54.3 61.9,54.8 C61.6,55.3 61.4,55.9 61.4,56.6 C61.3,56.9 61.2,57.2 61.2,57.6 C61.3,57.9 61.1,58.1 61.2,58.4 C61.2,58.6 61.3,58.8 61.2,59 C61.1,59.2 61,59.4 61.1,59.6 L61.1,60.3 L61.1,61.1 C61,61.8 61,62.5 60.9,63.2 C60.7,64.2 60.3,65.1 59.6,65.9 C59.3,66.2 59,66.3 58.6,66.4 C57.9,66.6 57.2,66.9 56.4,66.8 C55.9,67.1 55.4,66.9 54.9,67 C53.4,67.3 51.9,67 50.2,67.1 C49.8,67.2 49.4,67.1 49.1,66.9 C48.8,66.8 48.6,66.8 48.3,66.8 C47.4,66.8 46.5,66.7 45.4,66.2 L45.3,66.2 C45.1,65.9 45,65.6 44.8,65.2 C44.7,64.8 44.8,64.3 44.6,63.9 C44.7,63.5 44.9,63 45,62.6 C45.1,62.5 44.9,62.5 44.9,62.4 C45,62.3 45.1,62.2 45.2,62.1 C45.3,61.7 45.1,61.3 45.1,61 C45.1,60.6 45.2,60.3 45.2,59.9 C45.3,59.8 45.4,59.8 45.5,59.8 C45.7,59.5 45.4,59.3 45.7,59 C45.5,58.6 45.6,58.1 46.2,57.6 C46.1,57.4 46.1,57.4 46.3,56.4 C46.4,56 46.6,55.6 46.7,55.2 C46.9,55.1 47,55 47.2,54.9 C47.1,54.8 47,54.7 47,54.5 L47.4,54.5 C47.5,54.4 47.6,53.8 47.5,53.6 C47.6,53.4 47.7,53.2 47.8,53.1 C47.4,52.7 47.8,52.4 48,52 C47.8,51.4 48.5,50.9 48.5,50.1 C48.6,50.1 48.6,50.1 48.8,50 C48.9,49.5 49,48.9 49.2,48.3 C49.6,48 50.1,47.9 50.3,47.3 C50.1,47.1 50,46.9 50.4,46.9 C50.3,46.7 50.2,46.7 50.1,46.5 C50.2,46.3 50.3,46.1 50.5,45.9 C50.4,45.8 50.3,45.7 50.3,45.6 C50.9,45 51,44.3 50.9,43.5 C51,43.5 51.1,43.5 51.3,43.4 L51.3,43 C51.3,42.9 51.4,42.7 51.5,42.6 C51.4,42.5 51.3,42.4 51.3,42.4 C51.4,42 51.6,41.7 51.7,41.4 C51.5,41 51.9,40.8 51.8,40.4 L52,40.4 C52.1,40.1 52.1,40 52.2,39.7 L52.1,39.6 L52.1,39.3 C52.3,38.8 52.5,38.3 52.7,37.6 C52.8,37.3 52.9,36.9 53,36.5 C53.5,36 53.6,35.4 53.8,34.6 C53.8,34.5 53.9,34.4 54,34.3 C53.8,34 53.9,33.7 53.9,33.2 C54,33.2 54.2,33.1 54.2,33.1 C54.3,32.6 54.3,32.2 54.4,31.9 L54.6,31.9 C54.7,31.6 54.9,31.5 55,31.2 C54.9,31.1 54.8,31.1 54.6,30.9 C54.8,30.9 54.9,30.8 55,30.8 C54.7,30.4 54.9,30.1 55.1,29.9 C55.3,29.6 55.2,29.5 55,29.2 C55.3,29 55.4,28.8 55.4,28.4 C55.7,28.3 55.3,28.1 55.5,28 C55.6,27.9 55.7,27.7 55.7,27.6 C55.8,27.6 55.9,27.5 56,27.5 C56,27.1 56.1,26.7 56.1,26.3 C56.4,26.2 55.9,26 56.2,25.9 L56.2,25.7 C56.2,25.7 56.3,25.6 56.4,25.6 L56.5,25.6 C56.4,25.4 56.3,25.2 56.1,25.2 C56.3,25.1 56.4,25 56.6,25 C56.5,24.9 56.5,24.8 56.4,24.6 C56.8,24.4 56.8,24.1 56.9,23.8 C56.8,23.7 56.8,23.7 56.7,23.7 C56.7,23.6 56.8,23.6 56.8,23.6 C56.8,23.7 56.8,23.7 56.9,23.7 C56.9,23.5 57,23.3 57.1,23.1 C57.1,22.9 57,22.8 57,22.7 C57.1,22.6 57.3,22.5 57.4,22.5 C57.2,22.1 57.3,22.1 57.7,21.6 C57.7,21.2 57.6,20.9 57.7,20.4 L57.7,20.2 C57.7,19.8 58.1,19.8 58,19.5 C58.2,19.3 58.3,19.2 58.5,19.1 C58.2,18.9 58.3,18.7 58.3,18.5 C58.4,18.4 58.5,18.3 58.6,18.2 C58.5,18 58.5,17.9 58.3,17.8 C58.4,17.7 58.5,17.7 58.6,17.7 C58.7,17.3 58.8,16.8 58.9,16.5 C59,16.4 59,16.4 59.1,16.4 C59.2,15.9 59.3,15.3 59.4,14.7 C59.5,14.8 59.4,14.7 59.3,14.6 C59.4,14.3 59.4,14.2 59.5,14 C59.6,13.7 59.7,13.6 59.6,13.3 C60,13.2 59.6,12.9 60,12.8 C60.3,12.8 60,12.4 60.3,12.3 C60.2,12.1 60.1,11.9 60.1,11.9 C60.4,11.5 60.2,10.8 60.8,10.4 L60.8,9.3 C60.9,9 61.3,8.8 61,8.4 C61.1,8.2 61.1,8.1 61.2,8 C60.9,7.6 61.4,7.2 61.3,6.8 C61.2,6.4 61.5,5.9 61.6,5.5 C61.8,5.1 61.7,4.7 62.1,4.4 C62.5,4.1 62.5,3.7 62.8,3.3 C63,3.2 63.1,3.1 63.4,2.9 L63.9,2.9 L63.9,2.7 L64.7,2.7 C64.7,2.5 64.7,2.4 64.8,2.3 C65,2.2 65.4,2.3 65.7,2.2 C66,2.1 66.4,2 66.7,2.3 L66.8,2.3 C67.5,2 68.1,2.4 68.7,2.3 C68.8,2.3 68.9,2.2 68.9,2.1 C69.3,2.3 69.6,2.4 70,2.2 C70.3,2.1 70.7,2.1 70.9,2.2 C71.2,2.4 71.6,2.4 71.9,2.3 C72.2,2.2 72.4,2.4 72.7,2.3 C73,2.2 73.2,2.4 73.5,2.5 L73.7,2.5 C73.9,2.6 74,2.8 74.2,2.9 C74.4,2.9 74.6,2.9 74.7,3 C75.1,3.1 75.3,3.4 75.4,3.7 C75.5,4.4 75.9,5.1 75.9,5.8 C75.9,6 76,6.2 76.1,6.2 C76.3,6.5 76.2,6.6 76.1,6.7 C76.2,7 76.5,7.2 76.5,7.5 C76.6,8.2 77,8.9 77,9.7 C77.3,10.1 77.3,10.5 77.4,10.9 C77.4,11 77.5,11.1 77.5,11.1 C77.4,11.6 77.7,12 77.9,12.4 C78,12.6 78.1,12.8 78.2,13.1 C78.3,13.6 78.5,14.2 78.6,14.8 C78.7,15.1 78.6,15.3 78.6,15.7 C78.7,15.8 78.8,15.8 79,15.9 C78.9,16 78.9,16.1 78.8,16.2 C79.2,16.6 79.3,17.3 79.5,17.8 C79.5,18 79.6,18.2 79.6,18.3 C79.7,18.5 79.7,18.7 79.7,18.8 L79.7,19.2 C79.8,19.4 79.9,19.6 80,19.7 C80,19.9 80.2,20.1 80.1,20.2 C80.4,20.5 80.3,20.7 80.4,21 C80.6,21.3 80.7,21.6 80.7,21.9 C80.7,22.1 80.6,22.3 80.6,22.3 C80.7,22.5 80.8,22.6 80.9,22.7 C80.9,22.8 80.8,22.8 80.8,22.9 C80.9,23.1 81,23.2 81.1,23.3 C81.3,24.1 81.5,24.8 81.7,25.7 C81.8,25.9 82,26.2 82.1,26.6 C82.3,27.7 82.7,28.7 82.9,29.8 C83.1,30.6 83.4,31.4 83.6,32.2 C83.9,33 84.1,33.8 84.4,34.7 C84.5,34.9 84.4,35.1 84.5,35.2 C84.7,35.4 84.2,35.5 84.5,35.6 C84.6,35.7 84.5,36 84.6,36.1 C84.6,36.5 84.7,36.9 84.8,37.3 C84.9,37.2 85,37.2 85.2,37.1 C85.2,38 85.6,38.7 85.8,39.5 C85.9,40.4 86.3,41.3 86.5,42.2 C86.7,42.8 86.9,43.4 87.1,44 C87.3,44.5 87.3,45 87.4,45.5 C87.4,45.5 87.4,45.5 87.3,45.6 C87.8,46 87.8,46.7 88,47.2 C88.2,47.6 88.2,48.2 88.4,48.6 C88.5,48.9 88.4,49.1 88.5,49.4 C88.1,49.8 88.5,50 88.6,50.4 C88.6,50.4 88.6,50.4 88.5,50.5 C88.6,50.6 88.7,50.6 88.8,50.6 C88.8,50.7 88.8,50.9 88.9,51 L89.1,51 L89.1,51.1 C89.2,51.4 89.3,51.6 89.3,51.9 C89.4,52.1 89.4,52.3 89.5,52.6 C89.8,53.2 89.8,53.9 90.1,54.5 C89.9,54.7 90,54.9 90,55.1 C90.1,55.1 90.2,55.1 90.2,55.2 C90.3,55.4 90.4,55.6 90.5,55.7 C90.4,55.8 90.4,55.9 90.3,56 C90.4,56.1 90.5,56.2 90.6,56.3 C90.6,56.7 90.6,57 90.9,57.4 C91,57.6 91.1,57.8 91.1,58 L91.1,58.5 C91,58.7 91.1,58.9 91.1,58.9 C91.2,58.8 91.3,58.8 91.3,58.8 C91.4,59 91.4,59.2 91.5,59.4 C91.7,59.7 91.8,60 91.9,60.4 L92,60.5 C92.1,60.9 92.2,61.1 92.4,61.5 C92.6,61.8 92.5,62.2 92.6,62.6 C92.6,62.8 92.6,63 92.8,63.2 C93.1,63.4 93.3,64.3 93.3,64.5 Z M72.3,42.2 C72.2,41.5 72.1,40.8 72,40.2 C71.9,40.1 71.8,40.1 71.6,40.1 C71.7,39.9 71.7,39.7 71.8,39.6 C71.7,39.6 71.6,39.5 71.6,39.4 C71.5,39 71.3,38.7 71.4,38.4 C71.4,38.1 70.9,37.9 71.3,37.6 C71.1,37.3 71.2,37.2 71.3,36.9 L71.1,36.9 C71,36.5 70.9,36 70.8,35.7 C70.8,35.6 70.8,35.6 70.9,35.5 C70.7,35.5 70.6,35.4 70.5,35.4 C70.6,35.2 70.6,35 70.7,34.8 C70.6,34.8 70.5,34.7 70.4,34.7 C70.5,34.5 70.5,34.3 70.5,34.3 C70.4,34.2 70.3,34.2 70.2,34.1 C70.3,33.9 70.4,33.7 70.3,33.7 C70.3,33.5 70.1,33.3 70,33.3 C70.1,33.1 70.1,33.1 70.2,33 C70.1,32.9 70,32.9 69.9,32.9 C69.8,32.5 69.7,32.1 69.7,31.8 C69.7,31.4 69.8,31.1 69.4,30.7 C69.3,30.6 69.3,30.4 69.3,30.3 C69.2,29.9 69.1,29.6 69.1,29.3 C69,29.1 69.2,28.9 69.2,28.8 C69.2,28.8 69.2,28.7 69.1,28.7 C69.1,28.7 69,28.8 68.9,28.8 C68.9,28.6 68.9,28.4 68.8,28.2 C68.3,30.2 67.8,32.2 67.3,34.3 C67.3,34.3 67.2,34.4 67,34.4 L67.2,34.8 C66.6,37.4 66,39.8 65.3,42.4 L66.2,42.4 C66.5,42.4 66.8,42.5 67.1,42.5 C67.2,42.6 67.4,42.6 67.6,42.6 L68.1,42.6 C68.3,42.6 68.6,42.6 68.6,42.5 C68.8,42.3 68.9,42.6 69,42.5 C69.2,42.3 69.3,42.6 69.4,42.6 C69.6,42.5 69.8,42.4 69.9,42.4 C70,42.4 70.1,42.5 70,42.5 C70.3,42.4 70.4,42.4 70.6,42.4 C70.7,42.4 70.9,42.6 71,42.5 C71.2,42.4 71.4,42.6 71.6,42.5 C71.9,42.4 72.1,42.3 72.3,42.2 Z" id="Shape"></path>
                <path d="M137.8,21.2 C137.7,22 137.8,22.7 137.7,23.4 C137.7,24.1 137.6,24.8 137.6,25.4 C137.2,25.8 137.5,26.2 137.3,26.6 C137.1,26.9 137.2,27.4 137.1,27.7 C137,27.9 136.9,28.1 136.9,28.4 L136.6,28.4 L136.6,28.6 C136.7,29.4 136.4,30.1 136,30.8 C135.6,31.9 135.1,32.9 134.5,33.8 C134.2,34.2 134.1,34.6 133.8,34.9 C133.8,35 133.6,35 133.5,35 L133.5,35.4 C133.4,35.4 133.3,35.5 133.2,35.5 L133.2,35.8 C132.3,36.9 131.4,37.8 130.3,38.7 C129.4,39.3 128.5,39.9 127.5,40.5 C126.4,41 125.3,41.4 124.1,41.7 C124.1,41.7 124,41.8 123.9,41.8 C123.3,41.7 122.8,42.1 122.2,42 C121.8,41.9 121.4,42.2 121,42.2 C120.6,42.1 120.1,42 119.8,42.2 C119.1,42.4 118.5,42.3 117.9,42.3 C117.5,42.3 117.1,42.4 116.7,42.5 C116.4,42.5 116,42.4 115.6,42.6 C115.6,42.7 115.4,42.7 115.2,42.6 C114.7,42.5 114.3,42.8 113.8,42.8 C113.3,42.9 112.9,43 112.4,43.1 C112.1,43.2 111.8,43.4 111.4,43.5 C111.4,43.6 111.5,43.7 111.5,43.8 C111.4,44.4 111.4,44.4 111.5,45 C111.6,45.2 111.6,45.3 111.6,45.4 L111.6,49.4 C111.5,49.8 111.3,50.2 111.4,50.6 C111.4,50.9 111.5,51.1 111.5,51.3 L111.6,51.3 L111.5,51.4 C111.7,52.7 111.5,54.1 111.5,55.6 C111.6,57.3 111.6,59 111.6,60.6 L111.6,65.5 C111.5,65.7 111.4,65.8 111.4,65.9 C111.1,66.5 110.5,66.7 109.9,66.8 C109,67 108.2,67 107.3,67 C106.4,67.1 105.5,66.8 104.6,66.9 L101.8,66.9 C101.5,66.8 101.3,66.7 101,66.7 C100.7,66.7 100.4,66.8 100.2,66.5 L100.1,66.5 C98.9,66.6 98.1,66.1 97.3,65.4 L97.3,65.3 L97.3,64.9 C97.1,64.8 97,64.7 96.9,64.5 C96.9,64.2 97,64 97,63.6 C97,63.6 96.9,63.6 96.8,63.5 C96.9,63.3 97,63.1 97.1,62.8 C96.8,62.6 97,62.3 96.9,62 C96.8,61.7 97,61.4 96.8,61.1 C96.7,61 96.7,60.7 96.8,60.7 C97,60.5 96.7,60.4 96.8,60.3 C97,60.1 96.7,60 96.7,59.9 C96.8,59.8 97,59.7 96.8,59.5 C96.7,59.5 96.7,59.3 96.8,59.2 C96.8,59 96.9,58.8 96.9,58.8 C96.6,58.6 96.9,58.5 96.9,58.4 C96.9,58.2 97,58 97,57.9 C97.1,57.5 97.2,57 97,56.6 C96.9,56.3 96.8,56.1 97,55.8 C96.7,55.3 97.1,54.7 96.8,54.2 C97.2,53.5 97.2,52.8 96.9,52.1 C96.8,51.8 96.8,51.7 96.8,51.5 C96.7,50.8 96.7,50 96.8,49.3 C96.8,48.9 96.7,48.7 96.9,48.3 C96.9,48.3 96.9,48.3 96.9,48.2 L96.8,48.2 L97,48.1 C97,48 96.9,47.8 96.9,47.7 L96.9,47 L96.8,47 L96.9,47 L96.9,45.7 C96.9,45.6 97.1,45.5 97.1,45.3 C97.1,44.9 96.9,44.5 96.8,44.1 C96.8,44 96.9,44 96.9,43.9 C96.8,43.5 96.7,43.2 96.9,42.8 C97,42.5 96.8,42.3 96.8,41.9 L96.8,41.5 C96.9,41.3 96.7,41.1 96.7,41 C96.8,40.9 96.8,40.7 96.9,40.6 C96.9,40.5 96.8,40.5 96.7,40.4 C96.9,40.3 97,40.2 97.1,40.2 C96.8,39.9 96.9,39.8 97.1,39.5 C97,39.3 97,39.1 96.9,39.1 C96.9,38.8 97,38.7 96.8,38.5 C96.9,38.3 97,38.1 96.8,38.1 C96.7,38 96.7,37.8 96.8,37.8 C97,37.5 96.9,37.3 96.8,37 C96.7,36.9 96.9,36.6 96.7,36.5 C97,36.2 96.9,36 96.9,35.7 C97,35.4 96.8,35.3 97.1,35 L97.1,34.7 C96.9,34.6 96.8,34.4 97,34.3 C97.1,34.1 96.8,33.9 96.9,33.8 C96.9,33.8 97,33.7 97.1,33.6 C96.9,33.4 96.7,33.2 96.7,32.8 C96.8,32.6 96.7,32.4 96.7,32.2 C96.7,31.9 96.7,31.7 96.8,31.5 C96.9,31.3 96.8,31.1 96.9,31 C97,30.9 96.8,30.6 96.8,30.5 C96.7,29.7 96.7,29 96.7,28.2 L97,28.2 C97,28.1 97.1,28.1 97.1,28 L97.1,26.9 C97.1,26.8 97.2,26.7 97.2,26.5 C96.8,26.1 96.9,25.5 96.8,25.1 C96.7,24.7 96.7,24.2 96.9,23.8 C96.6,23.6 96.8,23.4 96.8,23.1 C96.7,22.7 96.8,22.4 96.7,22.1 C96.7,21.8 97,21.6 96.7,21.3 C96.8,21.1 96.9,20.9 97.1,20.8 L97.1,20.5 L97.1,20.1 L97.1,19.8 C97.1,19.7 97.1,19.5 97,19.4 C96.8,19.3 97,19.2 97.1,19.2 C96.8,18.9 96.7,18.6 96.7,18.2 C96.8,17.1 96.7,16.1 96.8,15 C96.8,14.8 96.6,14.6 96.9,14.4 C96.9,14.4 96.9,14.4 96.9,14.3 C97,14 96.6,13.9 96.8,13.6 C97,13.3 97,13.1 96.8,12.8 C96.7,12.7 96.8,12.6 96.7,12.5 C96.7,12.2 96.9,12.1 96.8,11.8 C96.7,11.5 96.7,11.3 96.7,11 L96.7,10.2 L96.7,9.5 L96.7,8.7 L96.7,7.9 C96.7,7.6 96.8,7.4 96.7,7.1 C96.7,6.9 96.7,6.7 96.6,6.4 C96.7,6.4 96.8,6.4 96.9,6.3 C96.9,6.3 96.9,6.3 96.9,6.2 C97,5.9 96.8,5.7 96.7,5.3 C96.7,4.9 96.9,4.5 96.9,4.1 C97,4.1 97.1,4.1 97.2,4 C97.3,3.3 97.6,2.9 98.4,2.8 C98.5,2.6 98.7,2.5 98.8,2.4 C98.8,2.5 98.9,2.5 98.9,2.6 C99.2,2.5 99.5,2.4 99.7,2.4 C99.9,2.4 100.1,2.3 100.3,2.3 C101,2 101.9,2.1 102.8,2.2 C103.5,2.3 104.1,2.4 104.7,2.1 L104.9,2.1 C105.5,2.1 106.1,1.9 106.8,1.9 C107.4,2 108,1.8 108.6,1.9 C109.2,2.1 109.8,2.1 110.4,2.1 C110.6,2 111,2.1 111.3,2.2 C111.4,2.2 111.4,2.1 111.5,2.1 L111.6,2.2 C112,2.2 112.3,2.1 112.6,2.1 C112.8,1.9 113,1.8 113.2,1.7 C113.4,1.9 113.5,2 113.6,2.1 C113.8,1.8 114,2.1 114.2,2.1 C114.4,2 114.7,2 114.9,2.1 L115.1,2.1 L115.3,1.9 L115.3,2.1 L115.5,2.1 C115.7,2.1 116,2 116.2,2.2 C116.5,2 116.9,2 117.2,1.9 C117.6,1.9 118,2.1 118.5,2.1 C118.6,2.2 118.7,2.3 118.8,2.4 C119,2.3 119.1,2.2 119.3,2.1 C119.4,2.2 119.5,2.4 119.6,2.5 L120.5,2.5 C120.8,2.5 121.1,2.3 121.4,2.6 C121.6,2.4 121.9,2.7 122.2,2.7 C122.4,2.7 122.7,2.9 123,3 C123.3,3 123.5,3 123.9,3.1 C123.9,3.1 123.9,3 124,3 C124.2,3.2 124.5,3.3 124.8,3.3 C125.1,3.3 125.3,3.4 125.5,3.5 C125.5,3.6 125.6,3.7 125.6,3.8 C126.4,3.7 127,4.2 127.8,4.4 C127.9,4.4 128,4.6 128.1,4.8 C128.7,4.8 129.1,5.2 129.5,5.4 C129.8,5.6 130.1,5.8 130.3,6 C130.4,6.2 130.6,6.2 131,6.4 C131.2,6.7 131.7,6.8 131.9,7.3 C131.9,7.4 132,7.4 132.1,7.4 C132.5,7.7 132.8,8 133,8.4 C133.1,8.5 133.1,8.7 133.2,8.8 C133.4,9 133.7,9.1 133.8,9.3 C134.1,9.9 134.6,10.4 135,11 C135.2,11.4 135.3,11.8 135.5,12.2 C135.6,12.4 135.6,12.6 135.7,12.9 C135.7,12.9 135.7,12.9 135.6,13 C136,13.2 135.9,13.2 136.2,13.7 C136.2,13.9 136.4,14.1 136.5,14.3 C136.9,14.9 136.9,15.5 137.1,16.2 C137.2,16.6 137.2,17 137.4,17.3 C137.5,17.6 137.4,18 137.6,18.3 C137.6,19.4 137.8,20.2 137.8,21.2 Z M123,23 C122.9,22.6 122.9,22.4 123,22.1 L123,21.6 L122.4,21.4 L123.1,21.3 C123.1,20.9 123.1,20.7 123,20.4 C123,20 122.8,19.8 122.7,19.5 C122.8,19.4 123,19.3 123.2,19.2 C122.9,19.1 122.7,19.1 122.6,19.1 C122.7,18.7 122.7,18.7 122.5,17.9 C122.4,17.9 122.3,17.8 122.3,17.8 C122.2,17.4 122.1,17.2 121.9,16.9 C122,16.9 122,16.8 122,16.8 C122,16.4 121.6,16.4 121.4,16.2 C121.2,15.9 121.1,15.7 120.8,15.4 C120.6,15.1 120.4,15 120.1,14.7 C120.1,14.7 119.9,14.7 119.8,14.6 C119.6,14.4 119.3,14.3 119.2,14.1 C118.6,14 118,13.8 117.5,13.7 C117,13.6 116.5,13.6 116,13.5 C114.7,13.3 113.1,13.5 111.8,13.9 C111.8,14.2 111.6,14.3 111.4,14.3 C111.4,14.6 111.4,14.8 111.3,15 C111.3,15.2 111.2,15.4 111.2,15.5 C111.2,15.7 111.3,15.9 111.3,16.1 C111.3,16.3 111.1,16.5 111.2,16.5 C111.4,16.7 111.1,16.9 111.3,17 C111.4,17.1 111.2,17.3 111.3,17.4 C111.4,17.6 111.4,17.8 111.4,18 C111.4,18.5 111.4,19 111.3,19.5 C111.3,20.1 111.5,20.8 111.2,21.5 C111.2,21.5 111.1,21.7 111.2,21.8 C111.5,22 111.3,22.2 111.3,22.4 C111.4,24.5 111.4,26.6 111.3,28.8 C111.3,29 111.5,29.2 111.2,29.4 C111,29.5 111.5,29.8 111.2,29.8 C111.5,30.2 111.3,30.7 111.4,31.1 C112,31.3 112.5,31.5 113,31.7 C113.2,31.6 113.3,31.5 113.4,31.4 C113.9,31.6 114.5,31.2 115,31.4 C115.1,31.3 115.2,31.2 115.3,31.1 C115.6,31 115.9,30.9 116.1,30.9 C116.4,30.8 116.6,30.9 116.8,30.7 C117.1,30.9 117.4,30.6 117.6,30.7 C117.9,30.9 118.1,30.4 118.3,30.7 C118.5,30.5 118.7,30.3 119.1,30.3 C119.4,30.2 119.8,30.2 119.9,29.8 C120.2,29.9 120,29.4 120.3,29.5 C120.7,29.1 121.3,29 121.7,28.6 C121.8,28.5 121.9,28.5 121.9,28.5 C121.8,27.9 122.6,27.7 122.6,27.2 L122.8,27.2 C122.8,27.1 122.9,27.1 122.9,27.1 C122.6,26 122.7,25.2 122.8,24.9 C122.8,24.6 122.7,24.4 122.8,24.2 C123,23.8 122.8,23.3 122.9,22.9 C122.9,23.1 123,23 123,23 Z" id="Shape"></path>
                <path d="M191.6,11.4 C191.6,12.4 191.1,13.3 190,13.7 C189.5,13.9 189,14.1 188.5,14.1 C187.6,14.3 186.8,14.2 185.9,14.2 C185.7,14.2 185.5,14.3 185.3,14.1 C185.2,14 185,14.1 184.9,14.2 C184.6,14.3 184.3,14.2 184,14 C183.8,14.3 183.5,14.2 183.2,14.2 L172.9,14.2 L172.3,14.2 C171.3,14.1 170.3,14.4 169.2,14.4 L169.2,15 L169.2,19.2 C169.2,19.4 169.3,19.7 169,19.9 C169.3,20.2 168.9,20.3 169,20.7 C169.1,20.9 169,21.1 169,21.4 L169,22.3 C169,22.8 169,23 169.1,23.4 C169.2,23.5 169.2,23.6 169.2,23.7 L169.2,25.3 C169.1,25.7 168.9,25.9 169,26.3 C169.3,27.4 169.1,28.5 169.2,29.6 C169.3,29.7 169.4,29.8 169.4,29.9 C169.6,29.8 169.8,29.7 170,29.7 C170.5,29.8 171,29.8 171.4,29.9 C171.9,29.9 172.3,30 172.8,30 C172.9,30 173.1,29.9 173.2,29.9 L175.8,29.9 C175.9,29.9 176,30 176.2,30 C176.2,30.1 176.3,30 176.4,30 C176.4,30 176.5,30 176.5,30.1 C176.8,30.2 177.1,29.7 177.5,30 C177.7,30.2 178.1,30 178.4,29.9 C178.6,29.9 179,30.1 179.3,30.2 C180.1,29.9 181,29.8 181.9,30 C182.2,30.1 182.5,30 182.8,30.2 C183.1,30.3 183.4,30.1 183.7,30.1 C184.6,30 185.4,30 186.3,30.1 C186.6,30.1 186.9,30.1 187.2,30.2 C187.3,30.6 187.6,30.7 187.8,30.8 C188.1,31 188.2,31.2 188.3,31.5 C188.4,31.8 188.5,32 188.6,32.2 C188.8,32.5 188.6,32.7 188.7,33 C189.1,33.3 189.1,33.6 189.2,34 C189.3,34.4 189.3,35 189.4,35.4 L189.4,36.9 C189.3,37.8 189.1,38.6 188.7,39.4 C188.7,39.5 188.6,39.6 188.6,39.7 C188.5,40.4 187.9,40.7 187.2,40.8 C186.7,41 186.2,41.2 185.7,41.1 C185.5,41.1 185.4,41.2 185.2,41.3 C185.1,41.2 185.1,41.2 185,41.1 C184.5,41.3 184.1,41.5 183.5,41.5 C181.4,41.4 179.3,41.5 177,41.5 C176.5,41.5 176,41.5 175.5,41.2 L175.5,41 L174.9,41 C174.8,41.1 174.7,41.2 174.6,41.3 C173.9,41.3 173.3,41.2 172.6,41.2 C171.8,41.1 171,41.1 170.2,41.1 C169.9,41.4 169.7,41.6 169.3,41.8 C169.2,41.8 169.2,42 169.1,42.1 C168.8,42.5 168.8,43.2 168.4,43.6 L168.4,43.9 C168.5,44 168.6,44 168.5,44.2 C168.4,44.2 168.5,44.4 168.5,44.4 C168.5,44.5 168.6,44.6 168.6,44.7 L168.6,45.8 C168.6,46.1 168.7,46.3 168.7,46.7 L168.9,46.4 L168.7,47.5 C168.8,47.8 169,48.1 168.9,48.5 L168.9,49 C168.9,49.1 168.9,49.3 169,49.4 C169.1,49.6 168.8,49.7 168.9,49.8 C169.1,50 169,50.2 169.1,50.4 L169.1,51.2 L169.1,52 L169.1,52.9 L169.1,53.7 L169.1,54.5 L169.1,55.3 L169.1,56.1 L169.1,56.9 L169.1,57.8 L169.1,58.6 L169.1,59.4 C169.1,59.7 169,59.9 169.1,60.2 C169.2,60.5 168.8,60.6 169,60.9 C169,61.1 169.1,61.3 168.9,61.4 C168.9,61.5 168.9,61.7 169,61.7 C169.2,61.9 168.9,62.1 169,62.2 C169.1,62.4 169.1,62.5 168.9,62.6 L168.9,62.9 C169.3,63.7 169,64.6 169.1,65.5 C169,65.6 168.9,65.7 168.7,65.8 C168.8,65.9 168.9,65.9 168.9,66 C168.8,66.2 168.8,66.4 168.7,66.6 C168.3,66.8 168,67 167.6,67.2 C167.3,67.3 166.9,67.3 166.5,67.5 C166.5,67.5 166.3,67.4 166.1,67.4 C165.9,67.4 165.6,67.4 165.4,67.7 C163.6,67.7 161.8,67.7 160,67.6 C159.6,67.6 159.2,67.5 158.8,67.5 C158.4,67.5 157.9,67.6 157.6,67.5 C157,67.3 156.4,67.4 155.7,67.3 C155.6,67 155.5,66.8 155.4,66.5 C155.4,66.5 155.3,66.4 155.2,66.4 L155.2,66 C155.1,65.9 155,65.8 154.9,65.7 L154.9,65.6 C154.8,65.2 154.7,64.7 154.7,64.3 C154.7,64.2 154.8,64.1 154.9,63.9 C154.3,63.5 155.1,62.9 154.8,62.4 C154.8,62.3 154.7,62.2 154.5,62.1 C154.5,61.6 154.6,61 154.2,60.5 C154.2,60.1 154.1,59.5 154.3,59.1 C154.4,58.9 154.4,58.7 154.5,58.4 C154.6,58.3 154.6,58 154.4,58 C154.3,57.8 154.3,57.2 154.4,56.9 C154.4,56.8 154.2,56.6 154.3,56.5 C154.4,56.2 154.1,56.1 154.3,55.8 C154.5,55.6 154.4,55.3 154.4,55 L154.4,54.2 C154.3,54.2 154.2,54.1 154.1,54.1 C154.1,53.9 154.4,53.7 154,53.7 C154.1,53.6 154.2,53.5 154.2,53.5 L154.2,53.4 C154.1,53.1 153.6,52.9 154,52.5 C153.7,52.1 153.9,51.7 153.9,51.4 C153.8,51 153.9,50.7 153.9,50.3 C153.9,50.2 154,50.1 154,49.9 C154,49.7 153.7,49.5 153.9,49.2 C154.1,49 153.7,48.8 154,48.6 C154.1,48.4 153.7,48.2 154,48 C154.1,47.9 154.1,47.6 153.9,47.4 L154,47.3 C154,46.9 154.2,46.7 153.9,46.4 C153.8,46.3 153.9,46 154,45.9 C153.9,45.8 153.8,45.7 153.8,45.5 C153.8,45.4 153.9,44.8 153.8,44.7 C153.6,44.4 153.7,44.1 153.9,43.8 C153.8,43.6 153.7,43.5 153.7,43.4 L153.7,41.7 C153.7,41.4 153.9,41.2 154,41 C154,40.8 154.1,40.7 154,40.6 C153.9,40.2 153.8,39.8 153.7,39.4 C153.8,39.4 153.8,39.3 153.9,39.3 C153.6,39.1 153.7,38.9 153.8,38.7 C153.8,38 153.8,37.3 153.9,36.7 C153.6,36.3 153.8,35.7 153.7,35.3 C153.7,34.9 153.7,34.7 153.9,34.4 C154,34.1 153.8,33.8 154,33.5 C154.1,33.3 154,33.1 154,33 C153.9,32.8 153.8,32.7 153.7,32.6 C153.8,32.6 153.8,32.5 153.9,32.5 C153.8,32.4 153.8,32.4 153.7,32.3 C153.8,32.1 153.9,31.9 154,31.6 C154,31.5 153.9,31.5 153.9,31.4 C154,31.2 154.1,31 154.1,30.9 C154.1,30.5 153.6,30.2 154,29.8 C154.2,29.5 153.9,29.4 154,29.2 C154.2,28.7 154.3,28.1 154.2,27.5 C154.2,27.2 154,26.9 154.1,26.6 C154.1,26.3 154,26.2 153.9,25.9 C153.9,25.5 153.8,25.5 154,25 C153.8,24.8 153.9,24.6 153.9,24.4 L153.9,21.7 C153.9,21.6 153.9,21.6 154,21.5 C154,21.4 153.9,21.4 153.9,21.3 C153.8,21.1 154,20.9 153.9,20.6 C153.8,20.4 153.8,20.1 153.9,19.9 C154.1,19.6 154,19.4 154.1,19 C154.1,18.9 154.3,18.8 154.4,18.7 C154.3,18.3 154.4,18 154.3,17.7 C154.2,17.4 154.2,17.2 154.1,16.9 C154,16.7 154,16.4 154.1,16.2 C154.3,15.7 154.2,15.1 154.2,14.7 C154.2,14.6 154.3,14.5 154.3,14.4 C154.1,14.2 154.1,13.9 154.2,13.7 C154.6,13.3 154.2,13 154.1,12.6 C154.1,12.5 154.2,12.4 154.2,12.3 C154.2,11.9 154.3,11.4 154.1,10.9 C154,10.8 154.2,10.5 154.2,10.5 C154.2,9.5 154.5,8.6 154.4,7.6 L154.4,6.9 L154.4,6.4 C154.3,6.2 154.4,6 154.2,5.9 C154.1,5.6 154.3,5.4 154.4,5.1 C154.5,5.2 154.5,5.2 154.7,5.3 C154.7,4.9 154.8,4.4 155.3,4.2 C155.3,4.2 155.4,4.3 155.5,4.4 C155.7,4.2 155.8,3.9 156.2,4 C156.2,4 156.2,4.1 156.3,4.1 C156.3,4 156.3,3.9 156.4,3.8 C156.5,3.8 156.6,3.8 156.8,3.9 C156.8,3.8 156.8,3.8 156.9,3.7 C157.1,3.6 157.3,3.6 157.6,3.5 C157.6,3.5 157.7,3.5 157.7,3.6 C157.9,3.5 158.2,3.3 158.4,3.2 C158.5,3.2 158.6,3.2 158.7,3.3 C158.8,3.2 158.8,3.1 158.8,3 C159.2,3 159.6,2.9 160,3.2 C160.1,3 160.1,2.9 160.2,2.8 C160.4,2.9 160.7,2.9 161,3 C161.1,2.8 161.1,2.7 161.1,2.7 C162,2.6 162.9,2.5 163.8,2.5 C163.9,2.6 164,2.7 164.1,2.8 C164.3,2.5 164.5,2.6 164.7,2.6 C164.9,2.6 165.1,2.7 165.3,2.5 C165.5,2.8 165.7,2.4 165.9,2.5 C166.1,2.6 166.3,2.6 166.5,2.6 C166.7,2.6 166.9,2.6 167.1,2.8 C167.3,2.5 167.6,2.6 167.8,2.8 C168.5,2.5 169.2,2.6 170,2.8 C170.2,2.5 170.6,2.6 170.9,2.6 L172,2.6 C172.4,2.6 172.8,2.5 173.1,2.6 C173.4,2.8 173.7,2.7 174,2.9 C174.3,3.1 174.7,2.8 175,3.1 C175.2,3.1 175.4,2.9 175.5,3 C175.9,3.2 176.4,2.7 176.8,3.1 C176.8,3.1 176.9,3 177,3 C177.4,2.9 177.8,2.9 178.2,3 C178.6,3 179,3 179.3,3.1 C179.6,3.3 179.9,3.2 180.1,3.3 C180.4,3.6 180.5,3.1 180.7,3.3 C181,3.4 181.3,3.1 181.5,3.4 C181.6,3.4 181.7,3.3 181.7,3.3 L182.5,3.3 C182.7,3.3 182.9,3.3 183.1,3.4 C183.3,3.4 183.5,3.1 183.7,3.4 C183.7,3.5 183.9,3.5 184,3.4 C184.5,3.2 185.1,3.3 185.6,3.3 C185.7,3.3 185.8,3.2 185.8,3.1 C186,3.2 186.2,3.3 186.4,3.4 C186.7,3.3 186.9,3.2 187.1,3.3 C187.4,3.4 187.7,3.3 187.9,3.3 C188.8,3.2 189.1,3.2 189.8,3.6 C190,3.7 190.1,3.8 190.2,3.9 C190.4,4.1 190.4,4.3 190.8,4.3 C190.8,4.6 191,4.7 191,4.9 C191,5.1 191.1,5.2 191.2,5.3 C191.1,5.4 191,5.5 191,5.6 C191.1,5.7 191.2,5.9 191.3,6 C191.6,7.6 191.7,9.6 191.6,11.4 Z" id="Shape"></path>
                <path d="M237.7,27.8 C237.6,28 238,28.2 237.7,28.3 C237.9,28.6 237.6,28.8 237.7,29.2 C237.8,29.4 237.9,29.6 237.8,29.8 C237.8,30 237.7,30.2 237.7,30.4 L237.7,30.9 C237.6,32.4 237.6,33.9 237.5,35.5 C237.5,35.8 237.4,36.1 237.3,36.4 C237.2,36.9 237.1,37.5 237.4,38.1 L237.4,38.3 C237,39 237.3,39.8 237.2,40.6 C237.2,40.8 237.1,40.9 237.1,41 C237.3,41.3 237.2,41.5 237.1,41.9 C237.1,42 237,42.1 237,42.2 C237.1,42.4 237.1,42.6 237.1,42.6 C237.1,42.9 237.1,43 237,43.2 C237,43.5 237.1,43.6 237.2,43.7 C237.3,43.9 237.2,44.1 237.2,44.1 L237.2,50.6 C237.2,51 237.1,51.4 237,51.7 C237,52.1 237.2,52.5 236.9,52.8 C236.9,53.7 236.6,54.5 236.4,55.3 C236.3,55.7 236.1,56.1 235.9,56.4 C235.4,57.5 234.8,58.4 234.1,59.3 C233.9,59.6 233.7,59.8 233.4,60.1 C233.2,60.5 232.8,60.7 232.6,61.1 C232.3,61.4 231.9,61.5 231.7,61.8 C231.5,62.2 231.1,62.3 230.7,62.5 C230.4,62.8 230.1,63 229.8,63.2 C229.5,63.4 229.1,63.6 228.8,63.8 C227.8,64.2 227,64.8 225.9,65 C225.2,65.2 224.6,65.5 223.8,65.7 C223.2,65.9 222.6,66.1 221.9,66.1 C221.5,66.1 221.1,66.2 221,66.1 C220.9,66.2 220.9,66.3 220.8,66.4 L220.1,66.4 C219.9,66.4 219.7,66.5 219.5,66.6 C219.2,66.7 219.1,66.3 218.8,66.5 C218.8,66.5 218.7,66.4 218.5,66.3 C218.5,66.5 218.4,66.7 218.4,66.7 C217.1,66.7 216,66.8 214.9,66.7 C214.5,66.7 214.2,66.6 213.9,66.6 C213.5,66.5 213.2,66.7 212.9,66.4 C212.4,66.5 212,66.3 211.5,66.2 C211,66.2 210.4,66 209.9,65.8 C208.9,65.5 208,65.4 207.1,65 C206.4,64.8 205.8,64.6 205.4,64 C205.3,64 205.2,64.1 205.1,64.2 C204.7,63.9 204.2,63.7 203.7,63.4 C203.3,63.1 202.8,62.8 202.4,62.5 C201.9,62.2 201.4,61.9 201,61.5 L201,61.1 L200.7,61.1 C200.6,60.7 200.5,60.5 200.1,60.3 C199.8,60.2 199.6,59.9 199.5,59.7 C199,59.1 198.8,58.4 198.1,57.8 C198,57.7 197.9,57.6 197.9,57.4 C197.9,57.4 197.9,57.4 198,57.3 C197.7,56.9 197.9,56.5 197.8,56.1 L197.5,56.1 C197.3,55.8 197,55.7 197,55.4 C196.9,55.1 196.7,54.9 196.7,54.5 C196.7,54.4 196.5,54.3 196.5,54.2 C196.5,53.6 196.5,53 196.4,52.3 C196.3,52.2 196.2,52.2 196.1,52.2 C196,51.9 196.1,51.6 195.8,51.3 C195.8,50.7 195.3,50.2 195.7,49.5 C195.7,49.4 195.6,49.3 195.5,49.2 C195.6,49.1 195.7,49 195.7,48.8 C195.7,48.8 195.6,48.7 195.6,48.6 L195.7,48.5 C195.6,48.4 195.5,48.3 195.4,48.1 C195.4,47.9 195.3,47.7 195.5,47.4 C195.6,47.3 195.5,47.1 195.4,46.8 C195.4,46.9 195.5,46.8 195.5,46.7 C195.5,46.4 195.4,46.2 195.4,45.9 C195.4,45.6 195.1,45.4 195.2,45.1 C195.3,44.8 195.2,44.6 195.2,44.3 L195.2,43.4 C195.2,43.1 195.1,42.8 195.3,42.6 C195,40.9 194.9,39.3 195.2,37.6 C195.2,37.6 195.1,37.6 195.1,37.5 C195.2,37.2 195.2,37.2 195.2,36.8 C195.3,36.7 195.4,36.6 195.5,36.5 C195.5,36.2 195.5,35.9 195.4,35.6 C195.1,35.2 195.2,34.8 195.2,34.4 C195.2,34.1 195.4,33.9 195.4,33.7 C195.5,33.6 195.6,33.5 195.5,33.5 C195.3,32.9 195.7,32.3 195.5,31.6 C195.5,31.6 195.4,31.5 195.4,31.4 C195.5,31.4 195.6,31.4 195.7,31.3 C195.3,30.9 195.8,30.4 195.7,30 C195.7,29.6 195.6,29 195.9,28.6 C195.7,28.5 195.7,28.3 195.7,28.2 L195.7,23.8 C195.7,23.4 195.8,23.1 196,22.7 C196,22.5 196.1,22.4 196,22.3 C195.8,21.8 195.8,21.2 195.7,20.7 L195.7,19.1 C195.8,18.6 195.8,18.1 195.9,17.6 C195.9,17.5 196,17.5 196,17.5 C195.9,17.2 195.8,17 195.8,16.7 C195.9,15.6 196,14.3 196.4,13.2 L196.6,13.2 C196.8,12.8 197,12.3 197.1,12 L197.1,11.9 C197.2,11.7 197.3,11.5 197.4,11.4 C197.4,11.4 197.3,11.3 197.4,11.3 C197.6,11 197.9,10.9 198,10.6 C198.1,10.3 198.1,10 198.2,9.7 C198.4,9.3 198.5,8.9 198.9,8.6 C199,8.5 199,8.3 199.1,8.2 L199.5,8.2 C199.5,8.1 199.6,7.9 199.7,7.8 C199.9,7.4 200.5,6.7 201,6.3 C201.2,6.2 201.3,6 201.5,5.9 C201.6,5.8 201.8,5.7 201.9,5.5 C202,5.2 202.2,5.1 202.6,5.1 C202.6,5 202.7,4.9 202.7,4.8 C202.7,4.8 202.8,4.9 202.9,4.9 C203.5,4.1 204.5,3.7 205.5,3.2 C205.5,3.2 205.6,3.2 205.6,3.3 C205.9,3.3 206,3 206.2,2.9 C206.4,2.7 206.8,2.6 207.1,2.5 C207.3,2.4 207.6,2.2 207.8,2.5 C208.1,2.1 208.4,2 208.8,2.1 C209,1.7 209.5,1.7 209.8,1.7 C210.7,1.5 211.7,1.4 212.6,1.3 C212.7,1.3 212.7,1.2 212.8,1.2 C213.2,1.4 213.2,1.4 214,1 C214.1,1 214.2,1.2 214.3,1.2 C215,1.1 215.8,1.4 216.5,1 C216.7,1.3 216.9,0.9 217,1 C217.2,1 217.4,1.1 217.6,1.1 C217.8,1.1 217.9,1.1 218.1,1.2 C218.3,1.2 218.5,1.1 218.7,1.2 C218.8,1.2 219,1.3 219.2,1.3 C219.2,1.4 219.3,1.4 219.3,1.5 C219.4,1.4 219.5,1.3 219.5,1.3 L220.3,1.3 C221.1,1.7 222,1.4 222.8,1.9 C223.3,1.8 223.7,2 224.1,2.2 C224.5,1.9 224.7,2.6 225.1,2.4 C225.2,2.5 225.2,2.6 225.2,2.7 L225.6,2.7 C225.8,2.9 225.9,3 226.1,3.1 C226.3,3 226.8,3.1 227.1,3.3 C227.9,3.6 228.7,3.9 229.4,4.4 C229.6,4.5 229.8,4.6 229.9,4.7 C230.2,5.3 230.9,5.6 231.4,5.9 C231.7,6.1 232.1,6.2 232.2,6.6 C232.2,6.7 232.4,6.7 232.6,6.8 L232.6,7.1 C232.7,7.5 233.2,7.5 233.4,7.9 C233.6,7.9 233.5,8.1 233.6,8.2 C234.1,8.7 234.3,9.3 234.7,9.9 C234.9,10.2 234.9,10.4 234.9,10.7 C235,10.7 235,10.8 235.1,10.8 C235.3,11.1 235.4,11.3 235.6,11.5 C235.7,11.9 235.8,12.1 235.9,12.5 C236,12.8 236.1,13 236,13.4 C236.6,13.6 236.4,14.2 236.7,14.5 C236.6,14.9 237.1,15.3 236.7,15.7 C237,16.1 237.1,16.6 237.2,17 C237.4,17.9 237.6,18.8 237.5,19.7 C237.5,19.8 237.8,19.9 237.6,20.1 C237.5,20.1 237.7,20.3 237.7,20.5 L237.7,20.7 C237.7,21 237.4,21.2 237.7,21.6 C237.8,21.8 237.8,22.1 237.8,22.5 C238,22.9 237.9,23.5 237.9,23.9 C237.8,24 237.7,24.1 237.7,24.2 C237.7,24.3 237.8,24.4 237.8,24.5 C237.8,24.5 237.7,24.6 237.5,24.6 C237.6,24.7 237.7,24.7 237.9,24.8 L237.9,25.9 C237.8,27.1 238,27.5 237.7,27.8 Z M222.2,50.2 C222.6,49.7 222.5,49 222.5,48.3 C222.2,48 222.1,47.7 222.2,47.4 C222.4,47.1 222.3,46.9 222.3,46.6 C222.4,46.4 222.4,46.2 222.3,46 C222.3,45.7 222.2,45.6 222.2,45.4 C222.3,44.6 222,43.8 222.3,43 C222.4,42.9 222.4,42.8 222.3,42.7 C221.9,42.3 222.4,41.8 222.5,41.4 C222.3,41.2 222.3,41 222.5,40.9 C222.2,40 222,39 222.3,38.2 C222,37.8 222.2,37.4 222.4,37.1 C222.1,36.8 222.1,36.7 222.3,36.4 C222.4,36.2 222.3,36.1 222.3,36 C222.4,35.8 222.4,35.6 222.2,35.5 C222.4,35.4 222.4,35.1 222.3,35.1 C222.1,34.8 222.1,34.6 222.2,34.4 C222.5,33.9 222.2,33.3 222.5,32.8 L222.5,30.5 C222.5,30.4 222.4,30.3 222.4,30.2 C222.2,29.8 222.1,29.4 222.2,29.1 C222.3,28.7 222.2,28.3 222.4,28 C222.4,27.8 222.3,27.6 222.4,27.6 C222.5,27.2 222.5,26.9 222.2,26.5 C222.1,26.4 222.2,26.2 222.3,26.1 L222.2,26 C222.2,25.4 222.2,24.8 222.3,24.1 L222.3,23.5 C222.4,23.3 222.4,23.1 222.3,23 C222.1,22.6 222.2,22.1 222.2,21.6 L222.2,17.3 C221.7,16.9 221.6,16.8 221.5,16.2 C221.3,16 221.1,15.9 221,15.8 C220.2,15 219.2,14.5 218.1,14.2 C217.2,14 216.3,13.9 215.3,14.1 C214.5,14.3 213.7,14.5 213,14.8 C212.2,15.1 211.6,15.5 211.2,16.1 C210.8,16.6 210.3,17.2 210.3,18 C210.3,18.1 210.2,18.2 210.2,18.2 C210.3,18.6 210.3,18.7 210.3,18.8 L210.3,27.5 C210.3,27.7 210.4,27.9 210.3,27.9 C210.1,28.1 210.2,28.3 210.2,28.4 C210.2,28.7 210.1,28.8 210.2,29 C210.2,29.3 210.1,29.4 210.1,29.5 C210.1,29.7 210.2,29.9 210.2,30.1 C210.1,30.4 210.2,30.6 210.2,30.9 C210.2,31.4 210.1,32 210,32.5 C209.9,33.1 210,33.8 209.9,34.5 C209.7,35.2 209.9,35.9 209.7,36.6 C209.6,37 209.7,37.3 209.7,37.7 C209.7,38.1 209.6,38.7 209.2,39.1 L209.2,39.2 C209.2,39.3 209.3,39.4 209.4,39.5 C209.3,39.6 209.3,39.7 209.2,39.8 C209.5,40.2 209.6,40.6 209.5,41 C209.3,41.4 209.4,41.7 209.3,42.1 C209.3,42.3 209.3,42.5 209.2,42.6 C209.1,42.9 209.1,43.1 209.2,43.4 C209.3,43.6 209.3,43.7 209.3,43.8 C209.4,44.3 209.4,44.9 209.5,45.4 C209.6,46.1 209.5,46.8 209.6,47.6 C209.7,48 209.9,48.5 209.8,48.9 C210.1,49.2 209.8,49.6 210.2,49.9 C210.1,50.4 210.6,51 210.1,51.5 C210.3,51.5 210.4,51.6 210.5,51.7 C210.4,52.1 210.8,52.5 211,52.8 C211.3,53.2 211.6,53.6 211.9,53.9 C213,54.4 213.9,55.1 215,55.4 C215.1,55.2 215.4,55.5 215.5,55.3 C215.7,55.1 216,55.1 216.2,55.1 L216.9,55.1 C217.1,55.1 217.3,55.1 217.5,55 C217.7,54.9 218,55 218.2,55 C218.3,55 218.4,55 218.5,54.9 C219,54.8 219.7,54.7 220.1,54.4 C220.3,54.1 220.8,54 220.9,53.6 C220.9,53.4 221.2,53.3 221.4,53.2 L221.4,52.8 C221.5,52.9 221.6,52.9 221.6,53 C222.3,51.8 222.5,50.8 222.2,50.2 Z" id="Shape"></path>
                <path d="M286.8,27.8 C286.7,28 287.1,28.2 286.8,28.3 C287,28.6 286.7,28.8 286.8,29.2 C286.9,29.4 287,29.6 286.9,29.8 C286.9,30 286.8,30.2 286.8,30.4 L286.8,30.9 C286.7,32.4 286.7,33.9 286.6,35.5 C286.6,35.8 286.5,36.1 286.4,36.4 C286.3,36.9 286.2,37.5 286.5,38.1 L286.5,38.3 C286.1,39 286.4,39.8 286.3,40.6 C286.3,40.8 286.2,40.9 286.2,41 C286.4,41.3 286.3,41.5 286.2,41.9 C286.2,42 286.1,42.1 286.1,42.2 C286.2,42.4 286.2,42.6 286.2,42.6 C286.2,42.9 286.2,43 286.1,43.2 C286.1,43.5 286.2,43.6 286.3,43.7 C286.4,43.9 286.3,44.1 286.3,44.1 L286.3,50.6 C286.3,51 286.2,51.4 286.1,51.7 C286.1,52.1 286.3,52.5 286,52.8 C286,53.7 285.7,54.5 285.5,55.3 C285.4,55.7 285.2,56.1 285,56.4 C284.5,57.5 283.9,58.4 283.2,59.3 C283,59.6 282.8,59.8 282.5,60.1 C282.3,60.5 281.9,60.7 281.7,61.1 C281.4,61.4 281,61.5 280.8,61.8 C280.6,62.2 280.2,62.3 279.8,62.5 C279.5,62.8 279.2,63 278.9,63.2 C278.6,63.4 278.2,63.6 277.9,63.8 C276.9,64.2 276.1,64.8 275,65 C274.3,65.2 273.7,65.5 272.9,65.7 C272.3,65.9 271.7,66.1 271,66.1 C270.6,66.1 270.2,66.2 270.1,66.1 C270,66.2 270,66.3 269.9,66.4 L269.2,66.4 C269,66.4 268.8,66.5 268.6,66.6 C268.3,66.7 268.2,66.3 267.9,66.5 C267.9,66.5 267.8,66.4 267.6,66.3 C267.6,66.5 267.5,66.7 267.5,66.7 C266.2,66.7 265.1,66.8 264,66.7 C263.6,66.7 263.3,66.6 263,66.6 C262.6,66.5 262.3,66.7 262,66.4 C261.5,66.5 261.1,66.3 260.6,66.2 C260.1,66.2 259.5,66 259,65.8 C258,65.5 257.1,65.4 256.2,65 C255.5,64.8 254.9,64.6 254.5,64 C254.4,64 254.3,64.1 254.2,64.2 C253.8,63.9 253.3,63.7 252.8,63.4 C252.4,63.1 251.9,62.8 251.5,62.5 C251,62.2 250.5,61.9 250.1,61.5 L250.1,61.1 L249.8,61.1 C249.7,60.7 249.6,60.5 249.2,60.3 C248.9,60.2 248.7,59.9 248.6,59.7 C248.1,59.1 247.9,58.4 247.2,57.8 C247.1,57.7 247,57.6 247,57.4 C247,57.4 247,57.4 247.1,57.3 C246.8,56.9 247,56.5 246.9,56.1 L246.6,56.1 C246.4,55.8 246.1,55.7 246.1,55.4 C246,55.1 245.8,54.9 245.8,54.5 C245.8,54.4 245.6,54.3 245.6,54.2 C245.6,53.6 245.6,53 245.5,52.3 C245.4,52.2 245.3,52.2 245.2,52.2 C245.1,51.9 245.2,51.6 244.9,51.3 C244.9,50.7 244.4,50.2 244.8,49.5 C244.8,49.4 244.7,49.3 244.6,49.2 C244.7,49.1 244.8,49 244.8,48.8 C244.8,48.8 244.7,48.7 244.7,48.6 L244.8,48.5 C244.7,48.4 244.6,48.3 244.5,48.1 C244.5,47.9 244.4,47.7 244.6,47.4 C244.7,47.3 244.6,47.1 244.5,46.8 C244.5,46.9 244.6,46.8 244.6,46.7 C244.6,46.4 244.5,46.2 244.5,45.9 C244.5,45.6 244.2,45.4 244.3,45.1 C244.4,44.8 244.3,44.6 244.3,44.3 L244.3,43.4 C244.3,43.1 244.2,42.8 244.4,42.6 C244.1,40.9 244,39.3 244.3,37.6 C244.3,37.6 244.2,37.6 244.2,37.5 C244.3,37.2 244.3,37.2 244.3,36.8 C244.4,36.7 244.5,36.6 244.6,36.5 C244.6,36.2 244.6,35.9 244.5,35.6 C244.2,35.2 244.3,34.8 244.3,34.4 C244.3,34.1 244.5,33.9 244.5,33.7 C244.6,33.6 244.7,33.5 244.6,33.5 C244.4,32.9 244.8,32.3 244.6,31.6 C244.6,31.6 244.5,31.5 244.5,31.4 C244.6,31.4 244.7,31.4 244.8,31.3 C244.4,30.9 244.9,30.4 244.8,30 C244.8,29.6 244.7,29 245,28.6 C244.8,28.5 244.8,28.3 244.8,28.2 L244.8,23.8 C244.8,23.4 244.9,23.1 245.1,22.7 C245.1,22.5 245.2,22.4 245.1,22.3 C244.9,21.8 244.9,21.2 244.8,20.7 L244.8,19.1 C244.9,18.6 244.9,18.1 245,17.6 C245,17.5 245.1,17.5 245.1,17.5 C245,17.2 244.9,17 244.9,16.7 C245,15.6 245.1,14.3 245.5,13.2 L245.7,13.2 C245.9,12.8 246.1,12.3 246.2,12 L246.2,11.9 C246.3,11.7 246.4,11.5 246.5,11.4 C246.5,11.4 246.4,11.3 246.5,11.3 C246.7,11 247,10.9 247.1,10.6 C247.2,10.3 247.2,10 247.3,9.7 C247.5,9.3 247.6,8.9 248,8.6 C248.1,8.5 248.1,8.3 248.2,8.2 L248.6,8.2 C248.6,8.1 248.7,7.9 248.8,7.8 C249,7.4 249.6,6.7 250.1,6.3 C250.3,6.2 250.4,6 250.6,5.9 C250.7,5.8 250.9,5.7 251,5.5 C251.1,5.2 251.3,5.1 251.7,5.1 C251.7,5 251.8,4.9 251.8,4.8 C251.8,4.8 251.9,4.9 252,4.9 C252.6,4.1 253.6,3.7 254.6,3.2 C254.6,3.2 254.7,3.2 254.7,3.3 C255,3.3 255.1,3 255.3,2.9 C255.5,2.7 255.9,2.6 256.2,2.5 C256.4,2.4 256.7,2.2 256.9,2.5 C257.2,2.1 257.5,2 257.9,2.1 C258.1,1.7 258.6,1.7 258.9,1.7 C259.8,1.5 260.8,1.4 261.7,1.3 C261.8,1.3 261.8,1.2 261.9,1.2 C262.3,1.4 262.3,1.4 263.1,1 C263.2,1 263.3,1.2 263.4,1.2 C264.1,1.1 264.9,1.4 265.6,1 C265.8,1.3 266,0.9 266.1,1 C266.3,1 266.5,1.1 266.7,1.1 C266.9,1.1 267,1.1 267.2,1.2 C267.4,1.2 267.6,1.1 267.8,1.2 C267.9,1.2 268.1,1.3 268.3,1.3 C268.3,1.4 268.4,1.4 268.4,1.5 C268.5,1.4 268.6,1.3 268.6,1.3 L269.4,1.3 C270.2,1.7 271.1,1.4 271.9,1.9 C272.4,1.8 272.8,2 273.2,2.2 C273.6,1.9 273.8,2.6 274.2,2.4 C274.3,2.5 274.3,2.6 274.3,2.7 L274.7,2.7 C274.9,2.9 275,3 275.2,3.1 C275.4,3 275.9,3.1 276.2,3.3 C277,3.6 277.8,3.9 278.5,4.4 C278.7,4.5 278.9,4.6 279,4.7 C279.3,5.3 280,5.6 280.5,5.9 C280.8,6.1 281.2,6.2 281.3,6.6 C281.3,6.7 281.5,6.7 281.7,6.8 L281.7,7.1 C281.8,7.5 282.3,7.5 282.5,7.9 C282.7,7.9 282.6,8.1 282.7,8.2 C283.2,8.7 283.4,9.3 283.8,9.9 C284,10.2 284,10.4 284,10.7 C284.1,10.7 284.1,10.8 284.2,10.8 C284.4,11.1 284.5,11.3 284.7,11.5 C284.8,11.9 284.9,12.1 285,12.5 C285.1,12.8 285.2,13 285.1,13.4 C285.7,13.6 285.5,14.2 285.8,14.5 C285.7,14.9 286.2,15.3 285.8,15.7 C286.1,16.1 286.2,16.6 286.3,17 C286.5,17.9 286.7,18.8 286.6,19.7 C286.6,19.8 286.9,19.9 286.7,20.1 C286.6,20.1 286.8,20.3 286.8,20.5 L286.8,20.7 C286.8,21 286.5,21.2 286.8,21.6 C286.9,21.8 286.9,22.1 286.9,22.5 C287.1,22.9 287,23.5 287,23.9 C286.9,24 286.8,24.1 286.8,24.2 C286.8,24.3 286.9,24.4 286.9,24.5 C286.9,24.5 286.8,24.6 286.6,24.6 C286.7,24.7 286.8,24.7 287,24.8 L287,25.9 C286.9,27.1 287.1,27.5 286.8,27.8 Z M271.3,50.2 C271.7,49.7 271.6,49 271.6,48.3 C271.3,48 271.2,47.7 271.3,47.4 C271.5,47.1 271.4,46.9 271.4,46.6 C271.5,46.4 271.5,46.2 271.4,46 C271.4,45.7 271.3,45.6 271.3,45.4 C271.4,44.6 271.1,43.8 271.4,43 C271.5,42.9 271.5,42.8 271.4,42.7 C271,42.3 271.5,41.8 271.6,41.4 C271.4,41.2 271.4,41 271.6,40.9 C271.3,40 271.1,39 271.4,38.2 C271.1,37.8 271.3,37.4 271.5,37.1 C271.2,36.8 271.2,36.7 271.4,36.4 C271.5,36.2 271.4,36.1 271.4,36 C271.5,35.8 271.5,35.6 271.3,35.5 C271.5,35.4 271.5,35.1 271.4,35.1 C271.2,34.8 271.2,34.6 271.3,34.4 C271.6,33.9 271.3,33.3 271.6,32.8 L271.6,30.5 C271.6,30.4 271.5,30.3 271.5,30.2 C271.3,29.8 271.2,29.4 271.3,29.1 C271.4,28.7 271.3,28.3 271.5,28 C271.5,27.8 271.4,27.6 271.5,27.6 C271.6,27.2 271.6,26.9 271.3,26.5 C271.2,26.4 271.3,26.2 271.4,26.1 L271.3,26 C271.3,25.4 271.3,24.8 271.4,24.1 L271.4,23.5 C271.5,23.3 271.5,23.1 271.4,23 C271.2,22.6 271.3,22.1 271.3,21.6 L271.3,17.3 C270.8,16.9 270.7,16.8 270.6,16.2 C270.4,16 270.2,15.9 270.1,15.8 C269.3,15 268.3,14.5 267.2,14.2 C266.3,14 265.4,13.9 264.4,14.1 C263.6,14.3 262.8,14.5 262.1,14.8 C261.3,15.1 260.7,15.5 260.3,16.1 C259.9,16.6 259.4,17.2 259.4,18 C259.4,18.1 259.3,18.2 259.3,18.2 C259.4,18.6 259.4,18.7 259.4,18.8 L259.4,27.5 C259.4,27.7 259.5,27.9 259.4,27.9 C259.2,28.1 259.3,28.3 259.3,28.4 C259.3,28.7 259.2,28.8 259.3,29 C259.3,29.3 259.2,29.4 259.2,29.5 C259.2,29.7 259.3,29.9 259.3,30.1 C259.2,30.4 259.3,30.6 259.3,30.9 C259.3,31.4 259.2,32 259.1,32.5 C259,33.1 259.1,33.8 259,34.5 C258.8,35.2 259,35.9 258.8,36.6 C258.7,37 258.8,37.3 258.8,37.7 C258.8,38.1 258.7,38.7 258.3,39.1 L258.3,39.2 C258.3,39.3 258.4,39.4 258.5,39.5 C258.4,39.6 258.4,39.7 258.3,39.8 C258.6,40.2 258.7,40.6 258.6,41 C258.4,41.4 258.5,41.7 258.4,42.1 C258.4,42.3 258.4,42.5 258.3,42.6 C258.2,42.9 258.2,43.1 258.3,43.4 C258.4,43.6 258.4,43.7 258.4,43.8 C258.5,44.3 258.5,44.9 258.6,45.4 C258.7,46.1 258.6,46.8 258.7,47.6 C258.8,48 259,48.5 258.9,48.9 C259.2,49.2 258.9,49.6 259.3,49.9 C259.2,50.4 259.7,51 259.2,51.5 C259.4,51.5 259.5,51.6 259.6,51.7 C259.5,52.1 259.9,52.5 260.1,52.8 C260.4,53.2 260.7,53.6 261,53.9 C262.1,54.4 263,55.1 264.1,55.4 C264.2,55.2 264.5,55.5 264.6,55.3 C264.8,55.1 265.1,55.1 265.3,55.1 L266,55.1 C266.2,55.1 266.4,55.1 266.6,55 C266.8,54.9 267.1,55 267.3,55 C267.4,55 267.5,55 267.6,54.9 C268.1,54.8 268.8,54.7 269.2,54.4 C269.4,54.1 269.9,54 270,53.6 C270,53.4 270.3,53.3 270.5,53.2 L270.5,52.8 C270.6,52.9 270.7,52.9 270.7,53 C271.4,51.8 271.6,50.8 271.3,50.2 Z" id="Shape"></path>
                <path d="M333.9,31.6 L333.9,33.3 L333.9,35.1 C333.8,35.4 333.7,35.6 333.6,36 L333.6,36.4 C333.6,36.5 333.5,36.6 333.3,36.8 C333.5,36.9 333.6,37 333.7,37.2 C333.7,38.6 333.6,39.9 333.7,41.4 C334,43.9 333.8,46.3 333.9,48.8 C333.9,49.3 333.8,49.9 333.6,50.3 C333.5,50.5 333.7,50.7 333.7,50.7 C333.5,51 334,51.1 333.6,51.3 L333.6,51.9 C333.5,52.2 333.6,52.3 333.4,52.6 C333.3,52.8 333.4,53 333.4,53.3 C333.3,53.5 333.2,53.7 333.1,53.8 C333.4,54 333,54.2 333,54.4 C333.1,54.6 333,54.8 332.9,54.9 C332.7,55.6 332.5,56.2 332.2,56.8 C332,57.2 331.8,57.7 331.6,58.1 C331.5,58.2 331.4,58.4 331.3,58.5 C330.9,58.9 330.8,59.3 330.5,59.7 C330.1,60.1 329.7,60.7 329.1,60.9 C329,61 329,61.1 328.9,61.2 C328.7,61.7 328.6,61.8 328.1,61.9 C328,62 328,62.2 327.9,62.2 C327.3,62.6 326.8,63 326.2,63.4 C325.2,63.9 324.1,64.4 323.1,64.8 C322.1,65.2 321.1,65.6 320,65.8 C319,66 318.1,66.3 317,66.4 C316.7,66.6 316.2,66.4 315.9,66.6 C315.5,66.7 315.2,66.6 314.8,66.7 C314.4,66.7 314,66.8 313.6,66.8 C313.3,66.9 312.8,66.7 312.5,66.9 C312,67.1 311.5,67 311,67 L304,67 C302.7,67 301.5,66.8 300.2,66.8 C299,66.9 297.7,66.9 296.5,66.9 C296.3,66.7 296.2,66.7 296.1,66.6 C295.8,66.6 295.5,66.6 295.3,66.7 C295,66.7 294.7,66.6 294.5,66.5 C294.4,66.4 294.3,66.1 294,66.1 C293.9,65.9 293.9,65.7 293.8,65.6 C293.8,65.4 293.9,65.3 294,65.1 C293.8,65.2 293.8,65.3 293.7,65.4 C293.6,65.2 293.6,65 293.6,64.9 C293.5,64.8 293.4,64.8 293.3,64.7 C293.2,64.4 293.5,64.1 293.1,63.9 C293.1,63.8 293.2,63.8 293.2,63.7 C293.4,63.6 293.2,63.3 293.4,63.3 C293.7,63.1 293.2,62.9 293.4,62.8 C293.5,62.6 293.4,62.4 293.5,62.2 C293.4,62.1 293.2,62 293.1,61.9 C293.1,61.7 293.2,61.5 293.2,61.5 C293.2,61.3 293.1,61.2 293.1,61.1 C293.1,60.8 293,60.6 293.1,60.3 C293.3,60 293.1,59.8 293.1,59.5 C293.2,59.2 293.1,59 293.1,58.6 C293.2,58.3 293.2,58.1 293.3,57.8 C293.3,57.6 293.2,57.4 293.3,57.3 C293.5,57.1 293.2,57 293.3,56.9 L293.3,56.4 C293.4,56.3 293.5,56.3 293.6,56.3 L293.6,55.9 C293.3,54.9 293.5,53.9 293.5,52.9 C293.4,52.8 293.6,52.6 293.6,52.5 C293.7,52.2 293.8,51.9 293.7,51.6 C293.5,51.3 293.7,51 293.6,50.7 C293.5,50.7 293.5,50.7 293.5,50.6 C293.5,50.6 293.6,50.5 293.6,50.4 C293.3,49.7 293.5,49 293.5,48.3 C293.5,47.9 293.6,47.5 293.7,47.1 C293.7,47.1 293.6,47 293.6,46.9 L293.8,46.7 C293.7,46.6 293.6,46.5 293.5,46.5 C293.5,46.3 293.4,46.1 293.5,46.1 C293.7,45.9 293.3,45.7 293.5,45.5 C293.7,45.3 293.7,45 293.6,44.7 C293.3,44 293.5,43.3 293.5,42.5 C293.4,42.3 293.6,42.1 293.5,41.9 C293.4,41.7 293.6,41.5 293.6,41.4 C293.6,41.2 293.5,41 293.5,40.7 C293.5,40.7 293.5,40.7 293.6,40.5 C293.6,40.5 293.6,40.4 293.5,40.3 C293.6,40.1 293.7,39.9 293.6,39.7 C293.4,39.3 293.5,38.7 293.5,38.3 C293.5,37.9 293.3,37.6 293.6,37.2 C293.1,37 293.9,36.7 293.5,36.5 C293.5,36.4 293.6,36.4 293.6,36.3 C293.6,36.2 293.5,36.1 293.4,35.9 C293.8,35.5 293.8,34.9 293.8,34.4 L293.7,34.3 L293.8,34.3 C293.3,33.9 293.4,33.3 293.5,32.9 C293.5,32.6 293.6,32.5 293.4,32.3 C293.7,31.9 293.5,31.4 293.7,31.1 C293.7,31 293.8,30.9 293.8,30.7 C293.7,30.5 293.6,30.3 293.6,30.2 C293.6,30 293.8,29.8 293.8,29.7 C293.5,29 293.7,28.3 293.6,27.6 C293.6,27.2 293.8,27 293.8,26.6 C293.8,26.1 293.9,25.5 293.6,24.9 C293.5,24.6 293.5,24.3 293.5,24 C293.5,23.6 293.6,23.4 293.6,23 C293.6,22.8 293.5,22.7 293.5,22.6 C293.5,22.6 293.7,22.5 293.7,22.4 C293.9,21.7 293.7,21.1 293.5,20.5 C293.4,20.2 293.4,20 293.5,19.7 C293.7,19.1 293.7,18.6 293.5,18 C293.4,17.6 293.4,17.3 293.5,17 C293.5,16.4 293.3,15.7 293.6,15.1 C293.3,14.9 293.6,14.7 293.6,14.6 C293.6,14.4 293.6,14.3 293.5,14.2 C293.6,14.1 293.6,13.8 293.7,13.7 L293.6,13.6 C293.7,13 293.4,12.5 293.4,11.8 C293.5,10.3 293.4,8.8 293.5,7.2 L293.5,6.7 C293.5,6.7 293.5,6.6 293.4,6.5 C293.5,6.4 293.6,6.3 293.6,6.2 C293.3,5.7 293.6,5.2 293.9,4.8 L293.7,4.6 C293.9,4.3 294.2,4.1 294.4,3.7 C294.5,3.3 295,3.3 295.1,3 L295.5,3 C295.5,2.9 295.6,2.8 295.6,2.7 C296.1,2.8 296.4,2.6 296.8,2.4 C296.8,2.4 296.9,2.4 296.9,2.5 C297.4,2.2 298,2.1 298.6,2.3 C298.7,2.4 298.8,2.4 298.9,2.4 L300.9,2.4 C301,2.4 301.1,2.3 301.2,2.2 L301.4,2.4 C301.4,2.3 301.5,2.2 301.5,2.2 C302.3,2.5 303.1,2.2 303.8,2.4 C304.4,2.5 304.9,2.6 305.4,2.7 C305.8,2.7 306.3,2.8 306.7,2.5 L307.2,2.5 C307.8,2.9 308.4,2.6 309,2.7 C309.3,2.4 309.7,2.5 310.1,2.5 C310.5,2.6 310.9,2.5 311.2,2.9 C311.5,2.8 311.9,3 312.1,2.7 C312.2,2.8 312.3,2.9 312.4,2.8 C313,2.6 313.7,3 314.3,2.9 C314.4,2.8 314.6,2.9 314.7,3 C315.1,3.1 315.5,3.2 315.8,3.3 C316,3.4 316.1,3.3 316.3,3.3 C316.4,3.3 316.6,3.1 316.7,3.2 C317.7,3.5 318.7,3.5 319.6,3.7 C319.9,3.8 320.1,3.9 320.3,4 C320.3,4 320.4,4 320.5,3.9 L320.8,4.2 C320.9,4.2 321,4.2 321.1,4.1 C323.2,4.8 325.3,5.4 327.2,6.8 L327.5,6.8 C327.7,7 327.9,7.2 328.1,7.5 L328.3,7.5 C328.8,7.9 329.2,8.2 329.6,8.6 C329.6,8.8 329.6,9 330,9.1 C330.3,9.2 330.5,9.4 330.5,9.7 C331.2,10.4 331.8,11.2 332,12.2 L332,12.3 C332.1,12.7 332.2,12.9 332.3,13.3 C332.8,13.5 332.8,13.5 332.6,14 L332.8,14 C333.2,14.8 333.2,15.7 333.6,16.5 C333.6,16.5 333.6,16.5 333.6,16.6 C333.6,17.1 333.7,17.7 333.7,18.4 C333.7,18.8 334,19.2 333.9,19.5 C333.8,19.9 333.9,20.4 333.9,20.7 C333.9,21 334.1,21.1 334.1,21.4 C334.1,21.6 334,21.8 334,22 C334,22.3 334.1,22.6 334.1,22.9 C334,23.3 334,23.6 334,24 L334,25.1 L334,26.1 L334,27.2 L334,28.2 L334.4,28 L334,28.3 C334,28.9 334,29.5 334.1,30.1 C334.1,30.6 333.8,31.1 333.9,31.6 Z M318.7,22.3 C318.8,22 318.8,21.9 318.8,21.7 C318.8,21.6 319.1,21.4 318.8,21.3 C318.8,21.3 318.9,21 318.9,20.9 C318.8,20.8 318.8,20.8 318.7,20.7 C318.7,20.4 318.7,20.1 318.6,19.8 C318.6,19.5 318.9,19.4 318.7,19.1 C318.6,18.8 318.6,18.5 318.8,18.3 C318.6,17.9 318.2,17.5 318.3,17.1 C318.2,17 318.1,16.9 318,16.8 C317.7,16.2 317.4,15.7 316.8,15.2 C316.7,15.2 316.7,15.2 316.7,15.1 C316.4,14.7 316,14.6 315.5,14.5 C315.3,14.5 315,14.4 314.8,14.3 C314.4,14.1 313.9,14 313.5,14 C313.1,14 312.7,13.8 312.2,13.9 C312,13.6 311.7,13.7 311.4,13.7 C311.1,13.8 310.8,13.5 310.5,13.5 C310.1,13.5 308.9,13.8 308.7,14 C308.5,14.3 308.3,14.4 308.1,14.6 L308.2,14.7 C308.1,14.8 308,15 308.1,15.1 C308.4,15.5 308.1,15.9 307.9,16.2 C308,17 308,17.6 308,18.3 C308.1,19.8 308.1,21.3 308,22.8 C308,23.1 308.2,23.3 307.9,23.6 C308.1,23.9 307.7,24.1 307.9,24.4 C308.1,24.8 308,25.1 308,25.5 L308,39.5 C308,39.8 308.1,40 307.9,40.4 C307.8,40.6 307.8,40.9 307.9,41.1 C308.1,41.3 308,41.5 308,41.6 L308,46.6 C308.1,46.9 308,47.2 307.7,47.5 C307.7,47.8 307.8,48 307.9,48.3 C308.1,48.8 308.2,49.3 307.9,49.8 C307.8,50 308.1,50.1 307.9,50.3 C307.8,50.4 307.8,50.7 307.9,50.9 C308.1,51.2 308,51.4 308,51.7 C308.1,52.9 308,54.2 308,55.4 C308.2,55.5 308.2,55.5 308.3,55.6 C309,55.5 309.7,55.7 310.4,55.5 C310.7,55.4 311,55.5 311.3,55.3 C311.4,55.2 311.7,55.2 311.8,55.4 L311.9,55.4 C312,55.3 312,55.2 312,55.2 C312.9,55 313.7,54.6 314.5,54.5 C314.6,54.5 314.7,54.6 314.8,54.6 C315,54.4 315.1,54.2 315.3,54.1 C315.6,53.9 315.8,53.8 316,53.6 L316.4,53.6 C316.6,53.4 316.8,53.2 317,53.1 L316.9,53 C317,52.9 317.1,52.7 317.3,52.6 L317.5,52.8 L317.5,52.4 C318,52 318,51.4 318.4,51.1 C318.7,50.9 318.9,50 318.8,49.8 C318.6,49.6 318.7,49.4 318.7,49.2 L318.7,48.2 C319.1,47.9 318.7,47.6 318.8,47.2 C318.9,46.9 318.7,46.6 318.7,46.2 C318.6,45.8 318.7,45.6 318.7,45.2 C318.6,44.9 318.9,44.7 318.8,44.3 C318.8,43.5 318.5,42.7 318.7,41.9 C318.7,41.3 318.5,40.8 318.8,40.2 C318.9,40 318.9,39.8 318.8,39.6 C318.6,39.3 318.7,39.1 318.7,38.7 L318.7,35.4 C318.7,35.1 318.6,34.9 318.8,34.5 C318.9,34.5 318.7,34.3 318.7,34.1 C318.9,33.8 318.8,33.6 318.7,33.2 C318.6,32.9 318.7,32.6 318.7,32.2 L318.7,31.2 C318.7,30.8 318.6,30.5 318.7,30.2 C318.8,29.8 318.5,29.7 318.7,29.3 C318.9,29 318.8,28.7 318.8,28.3 C318.8,27.9 318.9,27.6 318.8,27.3 C318.6,26.9 318.7,26.6 318.7,26.3 C318.6,25.9 318.7,25.7 318.7,25.3 C318.7,24.9 318.6,24.7 318.7,24.3 C318.7,23.9 318.5,23.6 318.8,23.3 C318.8,23.2 318.7,23.2 318.7,23.1 C318.9,23.2 318.9,22.7 318.7,22.3 Z" id="Shape"></path>
                <path d="M383.5,20.2 C383.4,20.3 383.4,20.4 383.4,20.6 C383.4,21.6 382.9,22.4 382.2,23.1 C381.8,23.5 381.3,23.5 380.9,23.7 C380.4,23.8 379.9,23.9 379.4,23.9 L376.9,23.9 C376.6,23.9 376.4,23.9 376.2,23.8 C376,23.7 375.7,23.8 375.5,23.9 L375.2,23.9 C374.9,23.9 374.9,23.5 374.6,23.6 C374.5,23.7 374.2,23.7 374,23.7 C373.7,23.7 373.4,23.6 373.2,23.5 C372.9,23.3 372.6,23.4 372.3,23.4 C372.1,23.5 371.8,23.6 371.6,23.5 C371.2,23.3 370.9,23.3 370.5,23.4 C370.2,23.5 370,23.2 369.6,23.3 C369.5,23.4 369.2,23.2 369,23.1 C368.4,22.7 368.1,22.1 367.9,21.6 C367.6,21.1 367.6,20.5 367.5,20 C367.5,19.9 367.4,19.7 367.5,19.6 C367.6,19.4 367.7,19.3 367.4,19.3 L367.4,19.2 C367.4,19 367.5,18.8 367.5,18.7 C367.4,18.3 367,18.2 367.3,17.7 C367.3,17.6 367.1,17.4 367,17.3 C366.8,17 366.6,16.8 366.5,16.5 C366.4,16.1 366.1,15.7 365.8,15.4 C365.6,15.2 365.5,15 365.2,14.8 C365,14.7 364.6,14.6 364.6,14.3 L364.3,14.3 C363.9,14.3 363.4,14.1 363,14 C362.6,13.9 362.2,14 361.7,13.9 C360.6,13.9 359.5,14.2 358.5,14.7 C358.2,14.9 357.8,15 357.5,15.1 C357.3,15.3 357.1,15.5 356.9,15.6 C356.8,15.8 356.8,16 356.7,16.3 C356.3,16.2 356.4,16.7 356.1,16.7 L356.1,16.9 C356.1,17.7 355.6,18.4 355.7,19.2 C355.7,19.4 355.6,19.6 355.6,19.8 C355.5,20 355.5,20.2 355.7,20.3 C355.5,20.5 355.8,20.7 355.7,20.8 C355.7,21.1 355.7,21.2 355.9,21.2 C356.3,21.3 355.7,21.6 356,21.6 C356.4,21.7 356.2,21.9 356.2,22 C356.6,22.8 357,23.5 357.6,24.2 C357.7,24.3 357.7,24.4 357.8,24.5 C358,24.8 358.1,25 358.3,25.2 C358.5,25.5 358.9,25.4 359.1,25.6 C359.1,25.7 359.3,25.7 359.3,25.8 C359.5,26.1 359.9,26.1 360,26.3 C360,26.6 360.2,26.6 360.3,26.6 C360.8,26.6 361.2,26.6 361.6,26.8 C361.8,27 361.8,27.2 362.2,27.2 C362.5,27.1 362.8,27.4 363,27.5 C363.4,27.6 363.8,27.6 364.1,27.8 C364.5,28.1 365,27.8 365.3,28.2 C365.4,28.2 365.6,28.2 365.6,28.3 C365.8,28.6 366.1,28.7 366.4,28.7 C366.5,28.8 366.6,28.8 366.7,28.7 C366.9,28.7 367.3,28.5 367.4,29 C367.7,29.1 368.1,29.3 368.5,29.3 C369.5,29.5 370.3,29.8 371.2,30.2 C371.5,30.3 371.9,30.3 372,30.6 C372.3,30.4 372.4,30.7 372.6,30.7 C372.8,30.7 373.1,30.7 373.2,30.8 C373.6,31.2 374.3,31.2 374.6,31.5 C374.8,31.7 375.1,31.8 375.3,31.9 C375.6,32.1 375.8,32.3 376,32.4 C376.2,32.6 376.5,32.5 376.6,32.8 C376.6,33 377.1,32.7 377.1,33.2 C377.1,33.3 377.5,33.4 377.6,33.5 C377.8,33.7 377.9,34 378.2,34.1 C378.4,34.2 378.6,34.4 378.8,34.5 C378.9,34.7 379,34.9 379.2,35 C379.4,35.2 379.4,35.5 379.7,35.6 C380,35.8 380,36.1 380.2,36.3 C380.3,36.4 380.3,36.5 380.3,36.7 L380.2,36.7 L380.2,36.8 C380.2,36.8 380.3,36.8 380.3,36.7 C380.9,37.3 381.2,38 381.5,38.8 C381.8,39.4 381.8,40 382.1,40.6 C382.3,40.9 382.2,41.2 382.3,41.5 C382.5,41.9 382.4,42.5 382.5,42.9 C382.7,43.6 382.6,44.3 382.7,44.9 C383,45.9 382.8,46.8 382.9,47.7 L382.9,47.9 C382.4,48.1 382.6,48.4 382.7,48.7 C382.8,49.6 382.5,50.4 382.5,51.3 C382.6,51.5 382.1,51.5 382.3,51.8 C382.4,51.9 382.4,52.2 382.3,52.3 C382.1,53 382.1,53.6 381.8,54.3 C381.6,54.9 381.4,55.6 381.1,56.2 C380.9,56.6 380.9,57 380.4,57.3 C380.3,57.3 380.1,57.5 380.1,57.7 C380.1,58.3 379.6,58.7 379.3,59.2 C379.2,59.2 379.2,59.3 379.1,59.4 C379,59.6 378.9,59.8 378.8,59.9 C378.6,60.1 378.5,60.3 378.3,60.3 C377.9,60.4 378.1,60.7 377.9,60.8 C377.6,60.9 377.3,61 377.4,61.3 L377.1,61.3 L377.1,61.6 C376.4,62.2 375.8,62.7 374.9,63 C374.7,63.1 374.7,63.1 374.7,63.3 C374.7,63.4 374.6,63.5 374.6,63.5 C374.3,63.5 374.2,63.6 374.1,63.8 C374,64 373.8,64.1 373.6,64.2 C372.9,64.4 372.3,64.8 371.7,65.1 C371.5,65.2 371.2,65.3 371,65.3 C370.9,65.4 370.8,65.4 370.7,65.4 C370.4,65.8 370,65.8 369.6,65.9 C369.2,66 368.8,66.3 368.4,66.3 C367.9,66.3 367.5,66.5 367.1,66.6 C366.6,66.7 366.2,66.8 365.7,66.9 C365.3,67 364.8,67 364.3,67.1 C363.7,67.3 363.2,67.2 362.7,67.3 C362.4,67.3 362.1,67.4 361.9,67.1 L361.7,67.1 C360.8,67.5 359.8,67.2 358.9,67.3 C358.6,67.3 358.3,67.2 358.1,67.1 C357,66.8 355.9,67 355,66.5 C354.4,66.6 354,66.3 353.6,66.2 C353.2,66.1 352.7,66 352.5,65.7 C352.4,65.5 352.3,65.8 352.1,65.7 C351.5,65.4 350.8,65.2 350.1,64.8 C349.4,64.4 348.7,64 348.1,63.5 C347.9,63.3 347.7,63.1 347.4,63.1 C347,63 346.7,62.8 346.5,62.6 C346.3,62.3 345.9,62.2 345.8,61.8 C345.8,61.7 345.4,61.8 345.5,61.5 C345.1,61.5 345.2,61.2 345.1,61.1 C344.9,60.7 344.4,60.5 344.2,60.1 C343.9,60.1 343.9,59.9 343.9,59.7 C344,59.4 343.8,59.3 343.7,59.1 C343.5,58.8 343.1,58.7 343.2,58.4 C343.3,58.3 343.1,58.2 343,58.1 C342.9,57.8 342.7,57.7 342.7,57.3 C342.7,57 342.6,56.7 342.6,56.4 C342.6,56.3 342.5,56.2 342.5,56.2 C341.7,55.9 341.9,55.1 341.6,54.6 C341.3,54.2 341.1,53.6 341.2,53.1 C341.2,52.8 340.8,52.5 341.2,52.2 C341.2,52.2 341.2,52.2 341.2,52.1 C341.1,52 341,51.9 340.9,51.8 C341.1,51.7 340.9,51.5 340.9,51.5 C341.1,51.3 340.9,51.2 340.9,51.1 C340.8,50.9 341,50.7 340.7,50.6 C341,50.4 340.7,50.3 340.7,50.2 L340.7,49.7 C340.7,49.3 340.5,49.1 340.5,48.7 C340.5,48.3 340.6,48 340.8,47.6 C340.9,47.4 341,47.2 341.2,47.2 C341.4,47.2 341.5,47.1 341.6,47 C341.8,46.6 342.1,46.6 342.5,46.4 C342.9,46.3 343.2,46.3 343.6,46.5 C343.7,46.6 344,46.5 344.2,46.5 C344.4,46.5 344.7,46.4 344.9,46.6 C344.9,46.7 345.1,46.6 345.3,46.6 C345.2,46.5 345.2,46.5 345.2,46.4 C345.4,46.3 345.7,46.2 345.9,46.1 C346.1,46.1 346.3,46.2 346.5,46.1 C346.8,46.1 347.2,46.2 347.5,46 C347.6,45.9 348,46 348.2,46 C348.3,46.1 348.5,46.2 348.6,46.1 C348.9,45.7 349.3,46.2 349.6,46.1 C350,46.5 350.4,46.3 350.8,46.3 C351.1,46.4 351.5,46.3 351.8,46.1 C352.1,45.9 352.5,45.9 352.8,46 C353.6,46.1 354.3,46.4 354.9,46.7 C354.9,46.8 355,46.8 355,46.8 C355.1,47.1 355.4,47.2 355.5,47.4 C356,48.1 356.3,48.8 356.4,49.6 C356.4,49.8 356.5,50 356.6,50.3 C356.6,50.5 356.5,50.7 356.6,51 C356.8,51.8 356.7,52.7 357.1,53.6 C357.1,53.7 357.2,53.8 357.3,54 C357.4,54.1 357.5,54.2 357.6,54.4 C357.8,54.6 357.8,54.7 358,54.8 C358.1,54.9 358.2,55 358.3,55.2 C358.4,55.3 358.6,55.3 358.8,55.4 C359.4,55.6 360,55.8 360.7,55.7 C360.9,55.7 361.2,55.6 361.4,55.8 C361.4,55.9 361.5,55.8 361.5,55.8 C361.7,55.5 362.1,55.6 362.4,55.5 C362.8,55.4 363.2,55.3 363.6,55.4 C363.8,55.5 364,55.5 364.1,55.4 C364.4,55.2 364.6,55.5 364.9,55.4 C365,55.3 365.1,55.3 365.1,55.2 C365.2,54.9 365.2,54.9 365.4,54.9 C365.7,54.9 365.9,54.8 365.8,54.5 L365.9,54.4 C366.1,54.2 366.3,54 366.5,54 C366.5,53.9 366.6,53.8 366.6,53.8 C367.3,53.8 367.2,53.3 367.3,52.9 C367.4,52.7 367.4,52.5 367.7,52.4 L367.8,52.4 C367.8,52.4 367.8,52.4 367.7,52.3 L367.8,52.3 C367.9,52.1 367.6,51.9 367.8,51.8 C367.9,51.6 368,51.4 368,51.2 C368.1,50.5 368.4,49.8 368.4,49 C368.3,48.8 368.5,48.6 368.5,48.5 C368.6,48.3 368.6,48.1 368.6,48 C368.7,47.6 368.8,47.3 368.6,46.9 C368.5,46.7 368.4,46.6 368.4,46.5 C368.3,46.5 368.4,46.4 368.4,46.4 C368.4,46.3 368.4,46.3 368.3,46.2 C368.3,46 368.7,45.9 368.4,45.8 C368.4,45.7 368.5,45.6 368.5,45.5 C368.7,45.3 368.7,45.2 368.4,45.2 C368.4,45.2 368.4,45.2 368.4,45.1 C368.3,44.7 368.4,44.3 368,44 C368.3,43.8 368.3,43.6 367.9,43.6 C367.8,43.6 367.8,43.2 367.7,43.1 C367.5,42.8 367.2,42.6 367.2,42.3 C367.2,42 366.8,42.1 366.9,41.9 C367.1,41.6 366.5,41.9 366.6,41.6 C366.5,41.7 366.4,41.7 366.3,41.7 C366.2,41.6 366.1,41.5 366.1,41.4 C365.9,41.2 365.6,41.1 365.3,41 C364.8,40.8 364.3,40.5 363.7,40.2 C363.4,40 363,39.8 362.6,39.8 C361.9,39.7 361.4,39.4 360.8,39.3 C360.3,38.9 359.7,39 359.2,38.9 C358.8,38.8 358.4,38.7 358,38.6 C357.9,38.5 357.9,38.4 357.8,38.3 C357.7,38.5 357.5,38.4 357.4,38.3 C357.3,38.2 357.1,38.2 356.9,38.2 L356.7,38.2 C356.5,38 356.3,38 356,38 C355.7,38 355.5,37.8 355.2,37.7 C354.9,37.6 354.7,37.6 354.4,37.5 C354.2,37.5 354.1,37.4 353.9,37.3 C353.6,37.1 353.3,37 352.9,37 C352.9,37 352.8,37.1 352.8,37 C352.2,36.6 351.4,36.6 350.8,36.2 C350.1,35.8 349.4,35.5 348.7,35.1 C348.3,34.8 348,34.4 347.4,34.2 C347.2,33.7 346.7,33.4 346.2,33.1 C345.8,32.8 345.4,32.5 345.3,32 C345.3,31.9 345.1,31.9 345.1,31.9 C344.8,31.6 344.4,31.5 344.4,30.9 C344.4,30.9 344.2,30.8 344.1,30.7 C344,30.1 343.4,29.7 343.3,29.1 C342.9,28.8 343,28.4 342.8,28 L342.8,27.8 C343,27.6 343,27.5 342.7,27.5 C342.6,27.4 342.5,27.3 342.4,27.2 C342.3,27 342.6,26.7 342.2,26.5 C341.9,26.4 342.2,26 341.9,25.9 C342.2,25.5 341.6,25 342,24.7 C342.1,24.7 342.1,24.6 342.1,24.6 C341.7,24.3 341.9,24 341.9,23.7 C341.9,23.5 341.8,23.3 341.6,23.3 C341.3,23.2 341.4,23.2 341.5,22.9 C341.6,22.7 341.6,22.4 341.5,22.2 C341.5,21.8 341.2,21.6 341.5,21.3 C341.2,20.9 341.5,20.7 341.6,20.3 C341.6,20 341.7,19.7 341.7,19.3 C341.8,18.9 341.6,18.6 341.8,18.3 C341.9,18.2 341.8,17.9 341.7,17.9 C341.6,17.6 341.3,17.4 341.8,17.3 C341.9,17.3 341.9,17.3 341.9,17.2 C341.5,16.9 341.8,16.7 342,16.3 C342.2,16.1 342.1,15.7 342.2,15.4 C342.4,15 342.5,14.6 342.6,14.2 C342.8,13.8 342.9,13.4 343.1,13.1 C343.3,12.7 343.3,12.2 343.9,12 C344,12 344.1,11.9 344.1,11.8 C344.1,11.4 344.5,11.2 344.6,10.8 C345,10.1 345.5,9.4 346.1,8.8 C346.2,8.8 346.2,8.7 346.2,8.7 C346.3,8.4 346.9,8.8 346.9,8.3 C346.9,8.1 347.2,7.9 347.4,7.7 C347.4,7.6 347.5,7.6 347.6,7.5 L347.8,7.5 C347.8,7.1 348.4,7.1 348.5,6.8 C348.6,6.6 348.8,6.4 349,6.4 L349.2,6.4 C349.2,6 349.8,6.1 349.9,5.9 C350,5.7 350.1,5.7 350.2,5.7 C350.4,5.6 350.6,5.4 350.7,5.4 C350.9,5.6 351,5.5 351.2,5.4 C351.4,5.3 351.6,5.3 351.8,5.2 C351.9,5.1 351.9,5 352,5 C352.4,4.6 352.9,4.2 353.6,4.1 C353.8,4.1 353.8,4 353.9,3.9 C354,3.7 354.2,3.6 354.4,3.6 C354.6,3.5 354.9,3.5 355.1,3.4 C355.3,3.2 355.5,3.5 355.6,3.3 C355.7,3 356,3.1 356.2,3 C357.3,2.6 358.5,2.4 359.6,2.5 C359.8,2.5 360,2.7 360.1,2.4 C360.1,2.3 360.5,2.2 360.6,2.3 C360.9,2.5 361.2,2.4 361.4,2.3 C361.6,2.1 361.8,2.4 362,2.2 C362.1,2 362.4,2.2 362.6,2 L362.7,2 C363.4,2.4 364.1,2.3 364.7,2.3 C365.4,2.3 366.1,2.2 366.7,2.7 C366.7,2.7 366.8,2.6 366.9,2.6 L367.3,2.6 C367.5,2.7 367.7,2.9 367.8,2.8 C368,2.6 368.1,3 368.4,2.9 C368.5,2.9 368.7,3.1 368.9,3 C369.3,2.9 369.6,3.1 369.9,3.2 C370.2,3.4 370.6,3.4 370.8,3.6 C370.8,3.7 371.1,3.3 371.1,3.7 C371.3,3.7 371.4,3.7 371.6,3.9 C371.7,4 371.9,4 372.1,4.1 C372.3,4.1 372.4,4.3 372.6,4.3 C373,4.5 373.4,4.7 373.8,4.9 C374.4,5.2 374.8,5.5 375.4,5.8 C375.4,5.9 375.6,5.9 375.6,6 C375.8,6.2 375.9,6.4 376.1,6.5 C376.2,6.6 376.4,6.5 376.5,6.6 C377,6.9 377.4,7.1 377.6,7.6 C377.8,8 378.1,8.2 378.4,8.5 C378.5,8.7 378.6,8.9 378.8,9.1 C378.9,9.3 379.3,9.5 379.3,9.6 C379.5,10 379.9,10.3 380.1,10.7 C380.4,11.1 380.6,11.5 380.8,11.8 C380.9,11.9 381,12 381,12.1 C380.9,12.5 381.2,12.9 381.4,13.3 L381.7,13.6 C382,13.7 382.1,13.9 382,14.1 C382,14.2 381.8,14.3 382,14.4 C382.4,14.8 382.5,15.2 382.7,15.6 C382.9,16.2 383.2,16.9 383.2,17.6 C383.2,17.6 383.4,17.7 383.3,17.8 C383.1,18.1 383.2,18.4 383.4,18.7 C383.6,19.4 383.6,19.7 383.5,20.2 Z" id="Shape"></path>
            </g>
            <g id="Group">
                <path d="M96.9,56.5 C96.7,59.1 96.3,61.7 95.5,64.2 C94.7,66.7 93.5,69.1 92.1,71.3 C90.7,73.5 89.2,75.6 87.8,77.6 C87.1,78.5 86.4,79.3 85.6,79.9 C84.8,80.6 84,81.1 83.1,81.6 C81.4,82.6 79.6,83.4 78,84.2 C76.9,84.7 76,85.3 75.2,85.9 C73.9,86.8 72.6,88 71.3,89.2 C69.9,90.4 68.5,91.7 66.8,92.7 C65.7,93.4 64.5,94 63.1,94.5 C61.2,95.1 59.3,95.3 57.5,95.3 C55.9,95.3 54.3,95.2 52.7,95 C51.2,94.9 49.7,94.7 48.2,94.7 C46.6,94.7 44.7,95.1 42.7,95.5 C40.7,95.9 38.6,96.4 36.4,96.4 C35.3,96.4 34.1,96.3 32.9,95.9 C30.3,95 28,93.6 25.8,92.1 C23.7,90.6 21.7,88.9 19.9,87.6 C18.1,86.3 15.9,85 13.7,83.5 C11.5,82 9.4,80.3 7.8,78 C4.8,73.9 2.5,68.8 0.9,64 C0.4,62.4 0.2,60.8 0.2,59.2 C0.2,57.3 0.4,55.5 0.6,53.7 C0.8,51.9 1,50.2 1,48.7 C1,47.2 0.8,45.5 0.6,43.7 C0.4,41.9 0.2,40.1 0.2,38.2 C0.2,36.6 0.4,35 0.9,33.4 C1.7,30.8 3.1,28.5 4.5,26.3 C5.9,24.1 7.5,22.1 8.9,20.2 C9.6,19.3 10.3,18.5 11.1,17.9 C11.9,17.2 12.8,16.7 13.6,16.2 C15.3,15.2 17.1,14.5 18.6,13.7 C19.6,13.2 20.6,12.6 21.4,12 C23.3,10.6 25.1,9.2 27.1,7.9 C29.1,6.6 31.2,5.4 33.8,4.6 C35.9,3.9 38,3 40.4,2.1 C42.8,1.3 45.3,0.6 48.1,0.6 C50.8,0.6 53.4,1.1 55.8,1.7 C58.2,2.3 60.5,3.1 62.7,3.9 C64.2,4.4 66,4.8 67.9,5.2 C69.8,5.6 71.7,6 73.6,6.7 C74.9,7.2 76.1,7.8 77.3,8.6 C78.3,9.3 79,10.2 79.6,11.1 C80.2,12 80.7,13 81.1,14 C81.9,15.9 82.4,17.9 83.1,19.6 C83.5,20.7 84,21.7 84.5,22.4 C85.4,23.6 86.6,24.8 87.9,26.1 C89.2,27.4 90.6,28.7 91.7,30.3 C92.5,31.4 93.2,32.6 93.6,34 C94.3,36.2 95.1,38.5 95.8,41 C96.5,43.5 97,46.1 97,48.8 C97.1,51.2 97.1,53.9 96.9,56.5 Z" id="Shape" fill="#CFC6AB"></path>
                <path d="M36.4,92.5 C35.6,92.5 34.8,92.4 34.2,92.2 C32.4,91.6 30.6,90.6 28.3,89 C27.3,88.3 26.3,87.5 25.3,86.7 C24.4,86 23.4,85.2 22.4,84.5 C21.3,83.7 20.1,82.9 18.9,82.2 C18,81.6 17,81 16.1,80.4 C13.8,78.8 12.2,77.3 11.1,75.9 C8.7,72.6 6.4,67.9 4.8,63.1 C4.5,62.1 4.3,61 4.3,59.6 C4.3,58.1 4.5,56.5 4.7,54.6 L4.7,54.4 C4.9,52.7 5.1,50.9 5.1,49 C5.1,47.2 4.9,45.4 4.7,43.7 L4.7,43.6 C4.5,42 4.3,40.2 4.3,38.6 C4.3,37.2 4.5,36 4.8,35 C5.4,33.2 6.4,31.2 7.9,28.9 C8.8,27.5 9.9,26.1 10.9,24.7 C11.3,24.1 11.8,23.6 12.2,23 C12.7,22.3 13.4,21.6 14.3,21 C15.6,20.1 17.2,19.3 18.8,18.6 L18.9,18.5 C20.6,17.7 22.3,16.9 23.9,15.7 C24.5,15.3 25.1,14.8 25.6,14.4 C26.9,13.4 28.1,12.5 29.4,11.7 C31.5,10.4 33.2,9.5 35.1,8.9 C36.4,8.5 37.8,7.9 39,7.4 C40,7 40.9,6.7 41.8,6.3 C44.3,5.4 46.3,5 48.1,5 C50.1,5 52.2,5.3 54.7,6 C56.4,6.4 58.1,7 59.8,7.6 C60.3,7.8 60.8,7.9 61.3,8.1 C63,8.7 64.7,9 66.4,9.4 C67.2,9.6 68,9.7 68.7,9.9 C70,10.2 71.1,10.5 72,10.9 C73.1,11.3 73.9,11.8 74.7,12.3 C75.3,12.8 75.9,13.4 76.4,14.4 C77.1,15.6 77.6,17.3 78.2,19 L78.3,19.4 C78.7,20.5 79,21.4 79.4,22.3 C79.9,23.4 80.4,24.3 80.9,25.1 C81.7,26.3 82.7,27.3 83.4,28 C83.8,28.4 84.3,28.9 84.7,29.3 C85.6,30.2 86.4,31 87.1,31.8 C88.3,33.2 89,34.4 89.4,35.6 C89.6,36.2 89.8,36.9 90,37.5 C90.5,39.1 91.1,40.7 91.5,42.3 C92.2,44.9 92.5,47 92.5,49 C92.5,51.5 92.5,54 92.3,56.4 C92.1,59.1 91.7,61.3 91.1,63.1 C90.5,65 89.5,67.1 88.1,69.4 C86.8,71.5 85.3,73.6 84,75.4 C83.5,76.1 82.8,76.8 81.9,77.4 C80.7,78.3 79.2,79 77.4,79.9 L77.2,80 C75.6,80.8 73.9,81.6 72.3,82.8 C70.9,83.8 69.7,84.9 68.5,86 C67.9,86.5 67.3,87.1 66.7,87.5 C65.7,88.3 64.9,89 64.1,89.5 C63.2,90.1 62.3,90.5 61.4,90.8 C60.2,91.2 58.8,91.4 57.1,91.4 C55.7,91.4 54.2,91.3 52.7,91.1 L52.6,91.1 C51.1,91 49.5,90.8 47.8,90.8 C45.6,90.8 43.6,91.2 41.7,91.7 L41.5,91.8 C39.8,92.1 38,92.5 36.4,92.5 L36.4,92.5 Z" id="Shape" fill="#F8F7FA"></path>
                <circle id="Oval" fill="#CCC7A7" cx="49" cy="49.5" r="21.7"></circle>
                <circle id="Oval" fill="#ECBB23" cx="48.3" cy="48.8" r="20.9"></circle>
                <g transform="translate(30.000000, 31.000000)" fill="#F8F7FA">
                    <path d="M13.7,2.6 C14.3,2.5 14.6,2 14.5,1.4 C14.4,0.8 13.8,0.5 13.3,0.6 C7.4,2 2.8,6.6 1.3,12.4 C1.2,13 1.5,13.5 2,13.7 C2.6,13.8 3.1,13.5 3.3,13 C4.5,7.8 8.5,3.8 13.7,2.6 Z" id="Shape"></path>
                    <circle id="Oval" cx="1.8" cy="16" r="1"></circle>
                </g>
                <path d="M61.7,32.7 C64.7,36.3 66.6,41 66.6,46.1 C66.6,57.7 57.2,67 45.7,67 C40.6,67 35.9,65.2 32.3,62.1 C36.1,66.7 41.9,69.6 48.4,69.6 C60,69.6 69.3,60.2 69.3,48.7 C69.2,42.3 66.3,36.5 61.7,32.7 Z" id="Shape" fill="#E5AB45"></path>
            </g>
        </g>
    </g>
</svg>