<?xml version="1.0" encoding="utf-8"?>
<!-- Generator: Adobe Illustrator 21.1.0, SVG Export Plug-In . SVG Version: 6.00 Build 0)  -->
<svg version="1.0" id="Layer_1" xmlns="http://www.w3.org/2000/svg" xmlns:xlink="http://www.w3.org/1999/xlink" x="0px" y="0px"
	 viewBox="0 0 750 1334" style="enable-background:new 0 0 750 1334;" xml:space="preserve">
<style type="text/css">
	.st0{fill:#F8F7FA;}
</style>
<g>
	<g>
		<g>
			<path class="st0" d="M1565.5,1206.9v-2H-815.6c-15,0-28.7-6.1-38.6-16.1c-9.9-9.9-16.1-23.6-16.1-38.6V186.4
				c0-15,6.1-28.7,16.1-38.6c9.9-9.9,23.6-16.1,38.6-16.1h2381.1c15,0,28.7,6.1,38.6,16.1c9.9,9.9,16.1,23.6,16.1,38.6v963.8
				c0,15-6.1,28.7-16.1,38.6c-9.9,9.9-23.6,16.1-38.6,16.1V1206.9v2c32.3,0,58.7-26.4,58.7-58.7V186.4c0-32.3-26.4-58.7-58.7-58.7
				H-815.6c-32.3,0-58.7,26.4-58.7,58.7v963.8c0,32.3,26.4,58.7,58.7,58.7h2381.1V1206.9z"/>
			<path class="st0" d="M1562.7,1192.7v-0.8H-812.8c-12.3,0-23.4-5-31.5-13.1c-8.1-8.1-13.1-19.2-13.1-31.5V189.2
				c0-12.3,5-23.4,13.1-31.5c8.1-8.1,19.2-13.1,31.5-13.1h2375.4c12.3,0,23.4,5,31.5,13.1c8.1,8.1,13.1,19.2,13.1,31.5v958.1
				c0,12.3-5,23.4-13.1,31.5c-8.1,8.1-19.2,13.1-31.5,13.1V1192.7v0.7c25.4,0,46.1-20.7,46.1-46.1V189.2c0-25.4-20.7-46.1-46.1-46.1
				H-812.8c-25.4,0-46.1,20.7-46.1,46.1v958.1c0,25.4,20.7,46.1,46.1,46.1h2375.4V1192.7z"/>
		</g>
	</g>
</g>
</svg>
