<?xml version="1.0" encoding="UTF-8"?>
<svg width="442px" height="252px" viewBox="0 0 442 252" version="1.1" xmlns="http://www.w3.org/2000/svg" xmlns:xlink="http://www.w3.org/1999/xlink">
    <!-- Generator: Sketch 43.2 (39069) - http://www.bohemiancoding.com/sketch -->
    <title>bulgogi</title>
    <desc>Created with Sketch.</desc>
    <defs>
        <path d="M175.065902,98.94 C175.470296,98.8075602 176.012069,98.4333672 177.3,97.6 C180.6,95.5 184.7,90.2 187.5,87.4 C192.4,82.5 203.5,76.299 212.7,70.1 C218.4,69.7 225.1,69 232.8,67.8 C238.7,70.5 244.7,73.2 250.6,75.9 C256.4,78.601 264.4,85.5 271.6,85.5 C273,85.5 274.4,85.2 275.7,84.6 C280.5,82.3 280.1,76.4 281.3,72 C282.7,66.9 283.6,61.8 284.201,56.6 C303.1,51.4 323.6,44.1 336.3,34.3 L314.6,27.3 L285.899,24.799 C285.7,18.9 285,13.2 283.3,8.1 L251.8,18.4 C253.1,16.4 254.4,14.3 255.7,12.1 L179,15.4 L2.5,0.1 C-1.9,17.6 1.2,39.8 32.1,56.3 C32.1,56.3 44.1,63.5 92.7,63.5 C95.8,63.5 99.1,63.5 102.7,63.6 C107.7,67.1 112.8,70.4 117.8,73.4 C128.9,80.1 141,84.8 152,91.4 C157.3,94.6 165.3,98.3 171.5,98.6 C173.081635,98.6718925 173.784619,98.8471555 174.240637,98.94 L175.065902,98.94 L175.065902,98.94 Z" id="path-1"></path>
        <path d="M132.737967,0.084 C17.3588472,0.117855334 -1.14548865,38.0176702 0.7,65.7 L328.2,47.6 C328,39.3 325,33.5 318.6,28 C315.9,25.7 313.3,24 310.201,22.4 C308.6,21.6 307.2,20.9 305.6,20.1 C300.2,17.4 296.8,15.2 290.7,14 C284.2,12.8 277.7,11.9 271.2,10.8 C251.8,7.5 232.2,5 212.5,3.6 C196.2,2.4 180,1.3 163.8,0.9 C152.855083,0.349696905 142.618763,0.0868052305 133.047554,0.0839999989 L132.737965,0.084 L132.737967,0.084 Z" id="path-3"></path>
        <path d="M113.440869,0.06 C87.7042378,0.371415167 61.7271642,3.13108104 38.2,12.1 C22.1,18.2 6,28.8 1.6,46.4 C0.1,52.3 2.66453526e-15,58.6 1.4,64.5 C2.3,68.5 5.1,77.5 8.5,80.2 L18.2,92.6 L308.3,78.4 C336.5,68.8 329.9,49.5 327.5,45.6 C324.7,41.1 328.8,31.2 328.8,31.2 C317.8,1.6 154.4,1.1 154.4,1.1 C144.475056,0.603752818 134.277247,0.175722053 123.981178,0.0599999184 L113.440869,0.06 L113.440869,0.06 Z" id="path-5"></path>
        <path d="M0.859999974,12.7191695 C0.912272887,27.4556683 8.26647461,43.5733602 32.1,56.3 C32.1,56.3 44.1,63.5 92.7,63.5 C95.8,63.5 99.1,63.5 102.5,63.4 C94.3,57.7 86.2,51.4 78.9,45.2 C74.1,41.1 56.5,26.9 56.3,20.7 L179,15.4 L2.5,0.1 C1.49582474,4.00512602 0.875078278,8.14429301 0.86,12.4019365 L0.86,12.7191769 L0.859999974,12.7191695 Z M222,62.7 C219.5,65.1 216.201,67.5 212.7,69.9 C218.3,69.5 225.1,68.7 232.8,67.6 C229.2,66 225.6,64.3 222,62.7 Z M286,24.7 C286.3,33.2 285.5,42.1 284.899,49.9 C284.7,52.1 284.5,54.3 284.201,56.5 C303.1,51.3 323.6,44 336.3,34.2 L314.6,27.2 L286,24.7 Z" id="path-7"></path>
        <path d="M27.7,59.1 C27.201,59.1 26.8,59.1 26.1,59.4 C26.8,60.3 27.5,60.4 28.5,60.4 C32.7,64.9 38.6,67.9 44.6,69.601 C45.9,69.9 47,70.1 47.8,70.1 C52.6,70.1 50.1,64.2 52.1,59.4 C49.8,59.4 48.399,60.6 47.1,61.9 C45.8,63.1 44.6,64.4 42.6,64.4 C42,64.4 41.3,64.3 40.5,64 C35.6,62.4 33.6,59.1 28.6,59.1 L28.1,59.1 L26.8,58 C27.1,58.4 27.4,58.7 27.7,59.1 Z M61.4,0 C63.1,5.1 63.8,10.8 64,16.5 C64.3,25 63.6,33.9 62.899,41.7 C62.7,43.9 62.5,46.1 62.201,48.3 C61.6,53.5 60.7,58.7 59.3,63.7 C58.1,68.1 58.5,74 53.7,76.3 C52.4,76.9 51,77.2 49.6,77.2 C42.4,77.2 34.3,70.2 28.6,67.601 C22.7,64.9 16.7,62.2 10.8,59.5 C7.2,57.9 3.6,56.2 0,54.6 C1.5,53.2 2.7,51.799 3.5,50.5 C12.701,35.5 21.1,24.2 29.899,10.3 L61.4,0 Z" id="path-9"></path>
        <path d="M131.4,59.2 L132,59.2 C131.4,60.601 131.1,62.2 131.5,63.8 C135.1,63.7 140.3,59.2 139.5,55.2 C136.4,55.9 134,57.7 131.4,59.2 Z M123.1,3.4 L199.8,0.1 C198.5,2.2 197.201,4.3 195.7,6.4 C186.9,20.3 178.5,31.601 169.3,46.6 C168.4,47.9 167.3,49.3 165.8,50.7 C163.3,53 160.1,55.5 156.5,57.9 C147.3,64.2 136.2,70.3 131.3,75.2 C128.5,78 124.4,83.3 121.1,85.4 C119.4,86.5 119,86.8 118.5,86.8 C118.1,86.8 117.5,86.5 115.3,86.4 C109.1,86.1 101.1,82.4 95.8,79.2 C84.8,72.6 72.7,67.9 61.6,61.2 C56.6,58.2 51.5,54.9 46.5,51.4 C38.3,45.7 30.2,39.5 22.9,33.2 C18,29.1 0.5,14.9 0.3,8.7 L123.1,3.4 Z" id="path-11"></path>
        <path d="M1.1,0.799 C1,0.7 0.9,0.6 0.8,0.5 L1.9,0.799 L2.6,0.799 C7.7,0.799 14.7,2.7 18.7,4.6 C24.8,7.4 28.8,13.3 34.9,16.4 C38.1,18 42,18.299 45.4,19.9 C48.6,21.4 51.6,24 55.3,24.4 C55.7,24.4 56.1,24.5 56.5,24.5 C59.1,24.5 61.5,23.6 63.8,22.7 C66.1,21.8 68.4,20.9 70.899,20.9 C72,20.9 73.201,21.1 74.4,21.6 C70.2,27.2 68.1,31.3 61.9,31.3 C60.8,31.3 59.5,31.2 58.1,30.9 C51.8,29.6 44.4,26.7 38.5,23.9 C32.3,21 27.3,16 21.5,12.2 C18.2,10.1 14.8,7.3 11.1,5.4 C8.2,3.9 4.4,3.6 1.9,1.7 C1.4,1.6 0.9,1.4 0.5,1.101 C0.7,0.799 0.9,0.799 1.1,0.799 Z" id="path-13"></path>
        <path d="M0.7,12.5 L2,2.7 C6,2.7 9.4,4.2 12.8,6 C22.7,11.2 39.4,10.9 46.1,0.7 C46.1,1.5 45.6,2.1 45.1,2.7 C45.3,2.7 45.8,2.8 46,2.8 C46.1,5.9 45.1,6.8 43.8,9.2 C42.7,11.4 42,13.6 39.7,14.9 C34,18.2 27,15.4 21,15 C17.6,14.8 14.5,14.2 11.2,13.5 C9.3,13.1 7.4,13 5.4,12.9 C4.957,12.868 4.425,12.896 3.872,12.925 C2.676,12.986 1.384,13.047 0.7,12.5 Z" id="path-15"></path>
        <path d="M304.5,47.5 L281.3,74.6 L293.1,85.9 L309.4,96 C309.6,100.2 309.2,104.3 311.1,108 C312.8,111.3 316.1,116.6 313.6,120.4 C312,122.8 304.3,124.5 301.701,125.5 C296.6,127.4 291.2,128.2 286.1,129.9 C283.3,130.8 280.7,132.4 277.9,133.299 C275.2,134.2 272.5,134.1 269.7,134.5 C263.6,135.4 257.7,137.1 251.8,138.2 C244.3,139.7 236.8,140 229.399,141.1 C224.2,141.9 218.7,144.8 213.4,144.7 C206.3,144.6 199,143 192,142 C187.4,141.3 182.8,140.9 178.3,139.7 C176,139.1 173.6,138.4 171.2,139.1 C169.5,139.6 168.6,140.9 167,141.6 C163.5,142.9 160.6,139.9 158.2,138.2 C156.5,137 156.3,137.4 154.1,137.4 C153.8,137.4 149.5,137 149.5,137.3 C149.5,138.5 149.4,139.8 149.1,140.9 C148.8,140.5 148.5,140.3 148.3,139.8 C145.2,138.5 141.7,138.7 138.5,137.9 C135.7,137.1 133.9,136 131,136 C123.1,135.9 115.2,136.8 107.3,137.2 C95.7,137.7 85.3,140.8 74,137.6 C70.1,136.5 69.4,137.2 66,137.7 C65.2,137.8 63.575,137.7 62.075,137.6 C60.575,137.5 59.2,137.4 58.9,137.5 C56.6,138 51.7,138.5 51.8,135.2 C49.7,135 49.2,136.5 47.6,137.4 C46.2,138.2 44.9,138.4 43.4,138.9 C40,140 38.3,141.7 34.7,140 C33.8,137.7 30.7,137.9 29,136.601 C28.8,135.1 32,131.4 32.9,130.1 C34.5,127.9 37.7,126.6 38,123.7 C35.8,124.5 33.5,127.4 32,129 C29.2,131.9 28.5,133 24.4,133.299 C20.6,133.601 18.6,134.4 15.1,135.601 C13.1,136.299 6.7,137 7.1,133.7 C6.4,133.299 6.4,132.9 5.8,132.299 C8.5,132.7 7.9,127.4 8.2,126 C9,122.4 12.3,123.6 13.9,120.7 C15.5,117.9 13.2,116.5 11.4,114.9 C8.3,112.2 6.8,108.1 4.8,104.6 C2.3,100.299 -0.1,95.3 0.9,90.3 C1.9,85 5.2,79.9 8.6,75.8 C13,70.5 17.3,65.3 21.6,60.1 C24.5,56.6 27.5,51.6 31.4,49.101 C33.2,48 35.3,47.4 37,46.101 C42.1,42.1 46.5,38.7 49.3,32.7 C50.2,30.6 52,27.4 54,26.1 C55.2,25.3 58.9,25.7 59.6,24.6 C60.6,23 57.8,21.1 57.2,19.6 C56.5,17.9 56.1,15.7 57.3,14 C59.7,10.6 67.4,12.2 71,12.6 C73.4,12.9 74.7,14.5 76.9,15.2 C79.3,16 80.4,14.8 82.3,13.8 C86.6,11.5 90.5,11 95.5,11 C100.6,11 105.3,12.6 110.3,13.3 C115,13.9 119.6,14.1 124.5,14.1 C133.8,14.1 142.9,15.5 152.2,15 C161.2,14.5 170,13 179,12.3 C189.7,11.5 200.701,11.1 211.3,9.6 C217.6,8.7 221.9,3.3 227.7,1.1 C230.5,0.1 234.1,-0.1 237,0.6 C237.3,0.9 237.3,1 237.6,1.2 C237.9,3.9 236.3,5.6 236.3,7.9 C238.488,8.678 240.605,8.203 242.72,7.728 C244.955,7.226 247.188,6.724 249.5,7.7 C249.3,10.6 254.6,12.7 256.6,13.4 C260.4,14.8 264.6,14.3 268.7,14.5 C270.399,16.5 274.9,16.7 277.3,17.2 C281.4,18.1 284.6,20 288.4,21.6 C294.1,24 299.701,24.5 305.6,25.8 C310.8,26.9 314.3,30.1 315.6,35.4 C317.1,41.6 310.5,47.7 304.5,47.5 Z" id="path-17"></path>
        <path d="M66.9,2.4 C66,2.3 65,2.4 64.1,2.1 C63.2,1.8 63.1,1.3 62.4,0.9 C60.5,1.55431223e-15 60.1,1.6 58.5,1.9 C55.6,2.5 53.2,3.4 50.6,4.8 C47.5,6.4 47.8,7.101 46.2,10.3 C44,14.7 40.8,17.6 35.8,18.2 C34.043,18.424 31.854,18.131 29.596,17.839 C25.814,17.349 21.842,16.859 19.4,18.8 C14.6,22.7 20.1,25.1 21.5,28.4 C20.8,28.8 20.1,28.6 19.2,28.4 C16.8,27.8 15.3,22.7 12.4,23.7 C10.1,24.5 11.9,25.9 12.1,27.2 C12.3,28.7 10.6,29.3 10.2,30.7 C10.1,31.2 10.1,31.9 10,32.5 C9.3,32.8 8.4,32.9 7.7,33.2 C6.8,33.6 6.4,34.3 5.6,34.6 C4.926,34.884 4.24,34.816 3.626,34.747 C2.508,34.623 1.629,34.499 1.5,36.5 C1.4,37.4 1.5,37.7 1.3,38.6 C1,39.4 0.4,39.7 0.9,40.799 C1.7,42.4 4.6,42.3 6.1,42.5 C6,43.3 6,44.4 6.3,44.8 L62.8,5.2 C63.8331002,4.4486544 66.7185324,4.13922227 66.9,2.69522504 L66.9,2.4 L66.9,2.4 Z" id="path-19"></path>
        <path d="M6.8,0.799 L3.9,0.799 C9.1,1.2 13.6,3.6 18.2,6.3 C17.7,10.2 14.8,12.4 12.4,14.1 C11,15 9.4,16.9 7.7,16.1 C6.2,15.4 6.9,14.8 5.8,13.8 C5.5,13.5 4.5,12.1 3.8,11.5 C3,10.8 1,11.7 0.5,10.2 C-0.3,7.6 2.5,5.2 3.2,3.7 C2.6,3.5 2.1,3 1.5,2.799 C1.9,-0.6 4.9,0.6 6.8,0.799 Z" id="path-21"></path>
        <path d="M2.2,0.299 C3.9,1.3 6.9,0.8 8.9,2.1 C10.9,3.4 12.3,5.3 13.2,7.4 C14.1,9.6 14.4,11.5 14.2,13.9 C14,16.4 13.1,17.6 11.9,19.7 C11,21.1 11,22.4 11.2,24 C11.3,25.2 11.5,27.5 9.6,26.5 C8.2,25.8 8,22.3 7.5,20.9 C7,19.4 6.2,17.7 5.399,16.3 C4.5,14.799 3.1,13.9 2.1,12.6 C0.9,11.101 1,9.2 0.6,7.4 L2.2,0.299 Z" id="path-23"></path>
        <path d="M0.5,3.9 C0.9,2.8 3.2,2.2 4,1.7 C5.3,0.9 6.8,0.1 8.4,0.2 C9.7,0.3 11,0.7 12.4,0.7 C15.3,0.7 22.8,0.2 18.4,4.7 C15.3,7.9 7.7,8.8 3.9,6.8 C2.9,6.3 0.2,5 0.5,3.9 Z" id="path-25"></path>
        <path d="M15,0.6 L13.2,1.3 C15.3,-1 20.5,1 22,3.2 C22.8,4.3 22,4.2 23.5,4.8 C24.9,5.3 26.399,5.1 27.8,5.6 C30,6.4 31.1,8 29.4,10.2 C28,12 24.8,13.8 22.701,14.7 C19.4,16.1 16.1,16.5 12.6,15.9 C9.1,15.4 8.899,13.6 6.7,11.5 C5.201,10.1 2.1,9.4 0.2,8.6 C0.3,4.9 4.1,5.8 6.6,5.5 C8.6,5.3 10.1,4.6 11.4,3.1 C12.6,1.7 13,0.7 15,0.6 Z" id="path-27"></path>
        <path d="M5.8,2.8 L6.3,2.8 C8.9,0.1 10.7,-0.1 13.3,2.4 C14.3,3.4 14.7,4.3 15.3,5.5 C15.8,6.3 16.9,7.4 16.5,8.4 C15.706,8.589 14.927,8.535 14.168,8.482 C12.917,8.393 11.72,8.304 10.6,9.3 C8.5,11.3 7.4,14 4,11.9 C3,11.3 2.5,10.1 1.899,9.2 C1.1,8.2 1,8.8 0.8,7.5 C0.7,6.9 0.899,6.1 1,5.6 C1.4,2.1 3.4,4 5.8,2.8 Z" id="path-29"></path>
        <path d="M17.8,13 C15.6,14.4 13,14 10.6,14.5 C8.1,15 7.2,16.4 5.4,18 C4.3,19 1.4,20.2 0.4,18.3 C-0.4,16.8 1.9,15.9 2.5,14.8 C3.3,13.4 2.5,12 2.8,10.6 C3,9.5 3.9,8.1 4.7,7.3 C7.5,4.5 12.2,6.4 15,3.8 C17.4,1.5 19.8,-1.5 23.2,1.5 C22,2.2 21.8,1.6 21.5,2.8 C21.3,3.4 21.7,5.5 21.6,6.5 C21.3,9 20,11.6 17.8,13 Z" id="path-31"></path>
        <path d="M3.23190406,12.22 C4.39430332,12.1153467 6.774135,10.925865 7,10.7 C8.3,9.5 9.1,7.7 9.4,6 C9.7,3.8 8,0.1 5.3,1.1 C4.2,1.5 2.8,3.4 2,4.3 C1.1,5.2 -0.5,7.2 0.8,8.5 C1.4,9.1 2.4,8.7 2.8,9.6 C3,10.1 2.6,11.3 2.6,11.9 C2.6,12.0962732 2.73053309,12.1938507 2.94672141,12.22 L3.23190558,12.22 L3.23190406,12.22 Z" id="path-33"></path>
        <path d="M0.7,9.7 C1.6,7.2 0.9,4.3 2.4,1.9 C3.5,-2.22044605e-16 6.4,-0.2 8.3,0.7 C9.6,1.3 11.6,3.3 10.7,4.8 C9.7,6.4 7,5.5 5.6,6.6 C3.7,8.2 4,10.5 0.7,9.7 Z" id="path-35"></path>
        <path d="M0,4.799 L21.6,9 L49.1,0.5 C51.899,1.8 54.899,1.3 57.1,4 C58,5.2 58.7,6.799 59.5,8 C60.3,9.2 61.2,10 62.4,11.1 C64.9,13.3 66.3,16.7 63.6,19.3 C60.9,22 57,22.7 53.4,23.299 C44.4,24.9 35.6,22.299 27.8,17.5 C23.7,14.9 19.201,12.9 14.5,11.6 C11.6,10.8 8.8,9.8 6,8.6 C4.9,8.101 3.6,7.7 2.6,7 C1.701,6.4 1.1,5.101 0,4.799 Z" id="path-37"></path>
        <path d="M12.8,6.601 C11.1,5.2 10.7,6.299 11.7,7.9 C12.3,8.9 14.1,10.2 11.9,10.9 C10.3,11.4 9.5,9.7 9.1,8.6 C8.6,7.2 8.3,4.7 6.3,4.8 C5.5,4.9 4.6,6.1 3.7,6.299 C2.8,6.5 1,6.299 0.4,5.7 C2.7,3.7 5.5,0.5 8.7,0.601 C10.7,0.7 12.2,1.5 14,2 C16.1,2.5 18.3,2.5 20.399,3.1 C23.6,4 33.1,7.2 30.7,11.9 C28.2,16.9 22.3,7.601 19.7,7.5 C18.8,7.5 21.6,10.8 21.8,11.1 C23.701,14 18.8,13.7 17.2,12.5 C15.2,11 14.7,8.1 12.8,6.601 Z" id="path-39"></path>
        <path d="M4.1,9.2 C3.6,7.6 0.6,7.3 0.9,5.2 C1.1,4.101 2.5,3.799 3.2,2.9 C3.8,2.2 4,1.4 4.3,0.6 C5.5,0.4 6.3,2 6.6,3 C7,4.5 5.9,5.2 5.9,6.5 C5.9,7.4 6.9,8.2 6.2,9 C5.1,10.4 3.8,9.1 3.5,8 L4.1,9.2 Z" id="path-41"></path>
        <path d="M1.7,10 C1.7,8.9 1,8.101 0.8,7.1 C0.5,5.6 1,5 1.6,3.7 C2.2,2.3 3.4,-0.7 5.4,1.2 C6.3,2.1 6,2.9 5.4,4 C4.6,5.4 4.9,5.5 4.7,7.1 C4.6,8.5 3.3,10.6 1.7,10 Z" id="path-43"></path>
        <path d="M20.9,1.6 C23,0.7 26,0.3 26.1,1.6 C26.1,4.6 25.6,7.3 25.2,9.9 C24.8,12.4 25.6,15.9 24.6,18.1 C21.5,24.8 14.6,22.4 9.5,21.6 C8.361,21.442 7.222,21.534 6.143,21.626 C3.812,21.825 1.762,22.024 0.6,19.7 C-0.8,16.8 1,15.1 3.3,14.2 C7.4,12.6 16.6,13.5 19.3,9.3 C20.9,6.8 18.2,5.7 19,3.2 C19.2,2.6 19.9,2 20.9,1.6 Z" id="path-45"></path>
        <path d="M0.899,7.7 C-0.101,3.4 5.5,4.4 8,4.799 C8.5,3.6 9.7,1.6 11,1.101 C14,3.33066907e-16 12.1,3.3 13,4.4 C13.9,5.5 17.2,6.2 18.5,6.6 C19.701,6.9 23,6.9 23.3,8 C23.9,10.1 20.2,10.5 19,10.7 C17.8,10.9 15.3,10.8 14.8,12.1 C14.2,13.9 16.9,13.9 18.1,14.3 C21.3,15.5 22.9,19.7 19.2,21.601 C19,21.1 17.3,18.9 16.399,19.1 C15.5,19.4 16.5,21.299 15.3,21.7 L0.899,7.7 Z" id="path-47"></path>
        <path d="M4,6 L9,0.7 C9.7,1.299 10.5,1.2 11.2,1.8 C12,2.4 11.899,3.1 12.4,4 C13.5,6.1 15.1,6.8 14.1,9.4 C13.899,9.9 13.5,10.2 13.3,10.9 C13.1,11.6 13.4,12.3 13.4,13 C13.4,15.4 13.1,15 11.3,15.799 C9.4,16.7 10.3,17.4 10.1,19.3 C9.9,21 9.4,22.5 7.9,21.4 C6.7,20.6 6.2,18.799 6,17.5 C5.6,15.101 5.8,15.5 3.6,14.3 C2.7,13.8 -0.5,12 0.5,10.6 C1.3,9.5 3.9,11.2 5,11.2 C4.9,10 6,9.7 5.9,8.5 C5.9,7.5 4.7,6.4 4,6 Z" id="path-49"></path>
        <path d="M25.02,13.2536653 C25.0149855,13.2026008 25.0083315,13.1513775 25,13.1 C23.3,13.1 20,14.8 19.2,12.3 C18.9,11.4 19.6,10.7 19.1,9.8 C18.399,8.7 17.2,9.1 16.1,8.7 C15.399,8.5 14.9,7.9 14.3,7.7 C13.5,7.4 12.7,7.7 11.9,7 C11.1,6.3 11,5 10.2,4.2 C9.4,3.4 8.4,3 7.8,2.2 C7.6,1.9 7.6,1.2 7.3,0.9 C7,0.5 6.4,0.6 6.1,0.101 L0.6,14.2 C1.3,14.3 1.8,15.1 2.5,15.3 C2.967,15.44 3.434,15.428 3.901,15.415 C4.434,15.401 4.967,15.387 5.5,15.601 C7.1,16.2 7.4,18.4 8.7,19.4 C10.4,20.7 12.9,20.5 14.9,20.1 C17.3507298,19.7229646 24.6880605,17.1247471 25.02,13.7290365 L25.02,13.2536653 L25.02,13.2536653 Z" id="path-51"></path>
        <path d="M32.9917021,30.82 C33.5510341,30.8034762 34.0485038,30.5125726 34.3,29.8 C34.7,28.6 34.5,27.4 34.1,26.299 C33.8,25.299 32.8,24.1 32.899,23 C33,21.7 34,22.2 34.8,21.601 C35.7,21 34.7,20.1 35.4,19.4 C36.3,18.4 37.8,16.6 36.899,15.2 C36.4,14.5 35.3,14.3 34.6,13.9 C33.201,13.2 31.6,12.7 30.3,11.9 C29.4,11.4 28.8,10.3 28.1,9.6 C27,8.6 26.4,7 25.1,6.3 C24,6.2 23.1,6.2 22.399,5.7 C22.2,5.6 22.1,5.4 21.9,5.2 C21.3,4.4 21.1,3.6 20.3,3.1 C18.701,2.2 16.6,2.5 14.9,2.7 C13.4,2.9 11.8,3.3 10.2,3.2 C9.3,3.1 9,2.7 8.2,2.2 C7.1,1.5 5.7,1.3 4.5,0.8 C3.6,0.4 2,-2.22044605e-16 1.4,1.1 C0.5,2.8 2.8,4.7 2.7,6.3 C2.6,7.6 2.201,8.799 1.899,10.101 C1.7,10.9 0.8,11.9 1,12.8 C1.3,14.1 3.6,13.8 4.5,14.3 C5.5,14.9 5.8,15.8 6.5,16.6 C7.3,17.7 8.3,19.1 9.6,19.6 C11.1,20.2 12.8,20 14.3,20.601 C15.7,21.2 17.399,20.9 18.701,21.5 C19.2,21.8 19.8,22.4 20.399,22.4 C21.2,22.5 21,22.2 21.3,21.7 C21.5,21.4 21.1,21.2 21.6,21.1 C21.9,21 22.5,21.8 22.7,21.9 C23.2,22.4 23.5,23 24.1,23.4 C24.7,23.8 25.5,23.9 26.1,24.2 C26.8,24.601 27.5,25.1 28.2,25.601 C29.7,26.8 29.8,28.3 30.8,29.7 C31.2997869,30.3108507 32.1387908,30.7983498 32.8888898,30.82 L32.9917022,30.82 L32.9917021,30.82 Z" id="path-53"></path>
        <path d="M6.31660847,20.66 C10.1971875,20.4611056 13.701,17.2859209 13.701,12.2 C11.3,14.3 5,16.5 7.1,11.1 C7.5,10.2 10.8,8.9 11.6,7.2 C12.399,5.5 12.1,2.2 12.1,0.4 C9.6,2.1 7.6,5.2 5.4,7.3 C1.8,10.8 1.4,9.7 0.899,14.9 L4.9,20.6 C5.1137273,20.6291446 5.32745697,20.6490873 5.54068448,20.66 L6.31660847,20.66 L6.31660847,20.66 Z" id="path-55"></path>
        <path d="M46.9,1.2 C50.3,0.6 53.8,1.1 57.1,1.5 C58.1,1.6 59.1,1.7 60.1,1.9 C62.5,2.2 64.899,2.6 67.3,3 C72,3.9 76.7,5.3 81,7.5 C82.701,8.4 84,9.4 85.9,9.601 C87.099,9.689 88.259,9.541 89.424,9.392 C90.88,9.207 92.344,9.022 93.9,9.299 C96.2,9.8 98.3,11 99.7,12.9 C105.2,19.7 99.8,27.101 93.5,30.7 C88.1,33.8 82,35.3 75.9,35.7 C69.8,36.1 63.7,35.6 57.6,35 C54.2,34.6 51.5,32.8 48.6,31.1 C48.6,31.1 38.6,34.1 33.6,31.9 L27.1,28.7 L24.4,25.6 L21.4,23.3 L20.2,22.799 L18.9,21 L15.5,19.6 L9.6,21.3 L4.1,19.2 L0.6,18 L6.1,11.8 C6.1,11.8 23,17.5 34.1,16.6 C34.1,16.6 41.6,16.1 43.7,10.8 C45.8,5.5 47,4.1 47,4.1 L46.9,1.2 Z" id="path-57"></path>
        <path d="M15.5195421,0.9 C12.3386292,1.24155442 9.35754354,4.23970387 8.2,7 C6.4,11.2 4.3,13.4 0.6,16.1 C1.7,16.1 2.8,15.601 3.8,15.2 C1.8,20.2 2.9,26.1 0.6,31.101 C2.2,28.6 6.7,27.3 9.5,25.5 C12.6,23.6 16.2,20.8 17.7,17.4 C18.5,15.4 19,13.3 19.3,11.1 C19.5,10 20.5,6.6 19.9,5.6 L16.7,0.9 L15.5195421,0.9 Z" id="path-59"></path>
        <path d="M26.22,16.9284168 C26.1949049,15.9469043 25.7710029,14.923038 25.7,14 C25.6,12.1 25.6,11.6 24.1,10.3 C22.8,9.2 21.2,8.9 19.9,8 C18.7,7.2 18.2,5.7 17.5,4.6 C14.5,-4.4408921e-16 9.5,0.6 4.8,1.1 C4.305,1.176 3.707,1.136 3.097,1.096 C2.106,1.032 1.08,0.967 0.4,1.4 C0.4,4.7 4.2,4.6 6.8,4.6 C8.2,4.6 8.9,4.7 9.9,5.8 C10.701,6.6 11.5,7.7 12.2,8.6 L12.399,8.9 C13,9.7 13,10.1 12.3,11 C11.7,12 10.6,12.4 9.5,12.8 C9.2,12.9 6.399,13.4 6.399,13.5 C6.3,14 6.399,14.5 6.6,14.9 C7.387,15.125 8.175,15.065 8.962,15.005 C9.575,14.959 10.187,14.912 10.8,15 C12.1,15.2 13.2,15.9 14.6,15.9 C17.5,15.9 17.7,12 20.7,13.1 C23.4,14.1 24.1,15.7 22.7,18.2 C22.4,18.6 22,18.9 21.7,19.4 C21.4,19.9 21.6,20.5 21.2,21 C20.6,21.8 18.9,22.2 17.9,22.4 C17.8,22.6 17.7,23.6 17.9,23.8 C17.9884706,23.881098 18.104662,23.9263221 18.2442463,23.9400001 L18.4429341,23.94 C20.3755709,23.7776269 25.4638116,19.2617416 26,18.1 C26.1481586,17.7789897 26.2109523,17.4457843 26.22,17.1064066 L26.22,16.9284167 L26.22,16.9284168 Z" id="path-61"></path>
        <path d="M0.3,1 C1.5,2.3 5.6,2.2 7.399,2.4 C10.6,2.7 13.8,2.5 17,1.9 C20.6,1.2 24.1,0.7 27.7,0.5 C37,0.1 46.2,0.8 55.5,1.7 C62.9,2.4 70.399,3.3 77.8,3.2 C81.5,3.2 85,2.4 88.7,1.7 C91.1,1.2 94.7,0.5 97,1.1 C98.6,3.9 96.3,6 94.5,7.9 C92.4,10.101 90.2,12.8 87.5,14.4 C83.7,16.7 79.1,16.9 74.8,18.1 C69.701,19.5 64.5,19.9 59.2,19.7 C52.5,19.4 45.9,18.9 39.2,18.3 C35.6,18 31.5,17.1 28.2,15.7 C24.7,14.3 21.4,12.8 17.8,11.6 C13.7,10.2 9.5,9.9 5.399,8.799 C4.3,8.5 3,8.101 2.3,7.101 C2.5,7 2.701,6.9 2.8,6.7 L0.3,1 Z" id="path-63"></path>
        <path d="M78.3825085,20.02 C78.6831845,20.0149921 78.8938908,20.0081622 79,20 C80.3,19.9 89.3,18.2 89.3,18.2 L94.8,17.4 C91.6,17.3 87.3,16 83.7,15.5 C70.1,13.6 57.1,10.299 43.9,6.4 C42,5.9 40.1,5.5 38.2,4.9 C36,4.2 34,3.2 31.9,2.4 C28.2,1.1 23.4,2.3 19.899,0.6 L0.701,18.9 C3.1,19.9 21.3,18.5 24.9,17.5 C28.5,16.5 49.1,17.6 54.899,18.8 C59.1458261,19.6785022 69.3947419,19.9674609 75.0916527,20.02 L78.3825085,20.02 L78.3825085,20.02 Z" id="path-65"></path>
        <path d="M4.84216642,0.0999999998 C2.98912234,0.170507381 1.41413859,0.802314046 0.5,2.5 C-0.2,3.7 -2.91433544e-16,3.7 1.7,4.1 C3.3,4.5 4.8,4.8 6.4,4.9 C8.4,5.1 9.8,5 11.5,4.2 C11.4,4.9 10.7,5.3 10.5,6 C12.4,7.1 16.3,7.5 18.3,6.8 C18.7,6.7 19,6.6 19.3,6.3 C18.1,5.3 17.1,2.8 15.5,2.7 L16.5,2.4 C13.8504744,2.21074817 9.29074853,0.230683601 5.58234867,0.1 L4.84216564,0.1 L4.84216642,0.0999999998 Z" id="path-67"></path>
        <path d="M0.0600000078,20.6989263 C4.43092865,20.6418242 7.81274044,25.2127404 10.6,28 C14.2,31.5 17.3,33.4 22.4,34.2 C21.7,34.601 20.7,35.1 20,35.7 C25.1,36.5 28.5,34.1 33.3,33.601 C32.8,34.5 32.3,35.601 31.8,36.5 C37.2,36.7 41,37.9 46.3,36.1 C45.9,36.4 45.4,37.1 45,37.5 C49.1,37.8 53.8,35.9 57,33.1 L93.5,6.3 C87.1,5.7 79,4.6 72.5,2.1 C73.5,2.6 73.4,2.8 73.8,3.7 C68.8,3.1 65,1.1 60,0.5 C60.5,1.2 60.4,1.7 60.7,2.4 C57.9,2.4 54.9,0.9 52,0.6 C46.7,0.1 42.1,-0.1 36.9,0.9 C37.6,1.2 38.1,1.9 38.6,2.5 C35.6,2 27.9,1.8 25.8,4 L26.3,4.1 C25,5.6 20.9,5.1 18.8,5.5 C16.1,6.1 13.1,7.4 11,9.2 C7.01821567,12.5845167 4.4237094,17.4554027 0.0600000261,20.6561769 L0.06,20.6989234 L0.0600000078,20.6989263 Z" id="path-69"></path>
        <path d="M32.9917021,30.82 C33.5510341,30.8034762 34.0485038,30.5125726 34.3,29.8 C34.7,28.6 34.5,27.4 34.1,26.299 C33.8,25.299 32.8,24.1 32.899,23 C33,21.7 34,22.2 34.8,21.601 C35.7,21 34.7,20.1 35.4,19.4 C36.3,18.4 37.8,16.6 36.899,15.2 C36.4,14.5 35.3,14.3 34.6,13.9 C33.201,13.2 31.6,12.7 30.3,11.9 C29.4,11.4 28.8,10.3 28.1,9.6 C27,8.6 26.4,7 25.1,6.3 C24,6.2 23.1,6.2 22.399,5.7 C22.2,5.6 22.1,5.4 21.9,5.2 C21.3,4.4 21.1,3.6 20.3,3.1 C18.701,2.2 16.6,2.5 14.9,2.7 C13.4,2.9 11.8,3.3 10.2,3.2 C9.3,3.1 9,2.7 8.2,2.2 C7.1,1.5 5.7,1.3 4.5,0.8 C3.6,0.4 2,-2.22044605e-16 1.4,1.1 C0.5,2.8 2.8,4.7 2.7,6.3 C2.6,7.6 2.201,8.799 1.899,10.101 C1.7,10.9 0.8,11.9 1,12.8 C1.3,14.1 3.6,13.8 4.5,14.3 C5.5,14.9 5.8,15.8 6.5,16.6 C7.3,17.7 8.3,19.1 9.6,19.6 C11.1,20.2 12.8,20 14.3,20.601 C15.7,21.2 17.399,20.9 18.701,21.5 C19.2,21.8 19.8,22.4 20.399,22.4 C21.2,22.5 21,22.2 21.3,21.7 C21.5,21.4 21.1,21.2 21.6,21.1 C21.9,21 22.5,21.8 22.7,21.9 C23.2,22.4 23.5,23 24.1,23.4 C24.7,23.8 25.5,23.9 26.1,24.2 C26.8,24.601 27.5,25.1 28.2,25.601 C29.7,26.8 29.8,28.3 30.8,29.7 C31.2997869,30.3108507 32.1387908,30.7983498 32.8888898,30.82 L32.9917022,30.82 L32.9917021,30.82 Z" id="path-71"></path>
        <path d="M10.1,50.3 C9,52.799 6.4,56.3 3.1,55.6 C2.8,54.7 3.2,53.3 2.8,52.5 C2.4,51.7 1.3,51.7 0.9,50.7 C0.1,49.2 -0.2,45.7 0.3,44 C1.2,40.7 6.7,37 9.6,34.9 C13.9,31.8 18.6,30.6 21.1,25.8 C22.3,23.5 23.4,22.7 26,21.6 C29.5,20.2 28.4,19.9 29.7,16.5 C30.7,14 32.3,13.7 34.8,13.1 C39,12.1 42,10.7 45.8,8.4 C47.5,7.4 49.3,6.6 50.8,5.4 C52.8,3.8 52.7,1.7 54.3,0.2 C52.7,3.2 53.1,6.4 51.1,9.1 C49,12.1 46.6,14.8 43.3,16.3 C40.1,17.7 38.1,20 35,21.101 C31.3,22.4 28.9,24.8 26.7,27.8 C24.8,30.3 21.5,32.5 20.1,35.2 C19.5,36.4 19.7,37.8 18.8,39 C17.8,40.3 16.2,41 14.9,42 C11.6,44.7 11.7,46.7 10.1,50.3 Z" id="path-73"></path>
        <path d="M0.5,61.5 C-1,54.4 7.1,49.6 11.6,45.8 C17,41.101 20.8,35.9 24.5,29.9 C28.5,23.5 32.9,17.3 37.5,11.3 C38.2,10.4 53.201,-3.3 53.7,1.4 C54.201,6.7 51.1,9.101 48.2,12.9 C45.2,16.9 45.9,19.2 45.1,23.7 C43.5,32.9 33.7,35.2 30.4,43.4 L30.8,43.2 C29.5,44.3 2,68.6 0.5,61.5 Z" id="path-75"></path>
        <path d="M13.3,71.9 C14.3,70 15.3,68.101 16.2,66.1 C17.2,63.9 17.1,60.3 18.8,58.6 C20.4,57 23.5,57 25.5,56.2 C28.3,55.2 30.9,53.4 33.1,51.4 C39,45.7 44.3,40.3 50.7,35.2 C53.7,32.9 56.6,30.5 58.1,27 C59.4,23.9 61,20.7 64.1,19 C67,17.4 70,17.7 72.1,14.9 C74.2,12.1 74.8,9.2 78.5,7.9 C85.5,5.4 93.4,5.4 99.6,0.5 C97.1,1.3 93.8,3.6 92.3,5.9 C90.9,8 90.5,10.4 88.6,12.3 C86.4,14.5 83,15.3 80.4,16.9 C77.2,19 74.1,21.7 70.9,23.9 C63.7,28.9 57.5,35.4 50.1,39.9 C46.8,41.9 44.7,45.3 42,47.9 C38.6,51.2 35.2,54.8 32.4,58.6 C30.9,60.6 29.6,63 27.8,64.9 C25.4,67.6 21.9,68.799 19.4,71.4 C17.6,73.3 15.5,75.5 14.2,77.7 C13.2,79.4 12.9,81.5 11.3,82.9 C10,84 2.3,87.2 0.8,86.1 C-0.5,85.2 0.2,82.4 1,81.5 C2.6,79.8 5.7,80.1 7.5,78.6 C9.6,76.8 12.1,74.4 13.3,71.9 Z" id="path-77"></path>
        <path d="M8.4,0.2 C9.2,4.2 4,8.7 0.4,8.8 C0.1,7.2 0.3,5.601 0.9,4.2 L0.3,4.2 C2.9,2.7 5.4,0.9 8.4,0.2 Z" id="path-79"></path>
        <path d="M0.8,0 L2.3,1 L2.8,1 C7.8,1 9.8,4.3 14.7,5.9 C15.5,6.2 16.2,6.3 16.8,6.3 C18.8,6.3 20,5.1 21.3,3.8 C22.6,2.6 23.9,1.3 26.3,1.3 C24.3,6.1 26.8,12 22,12 C21.1,12 20.1,11.9 18.8,11.5 C12.8,9.8 6.899,6.8 2.7,2.3 C1.8,2.3 1,2.2 0.3,1.3 C0.8,1.2 1.3,1.1 1.7,1.1 C1.4,0.7 1.1,0.4 0.8,0 Z" id="path-81"></path>
        <path d="M23.899,0.2 L21.2,0.2 C22.201,0.2 23.8,-0.1 24.7,0.2 C26.7,0.9 25.6,1.5 26.6,2.5 C27.6,3.3 27.6,3.8 28.6,4.5 C29.6,5.2 31,4.7 32.1,5.5 C33.2,6.2 35.6,9.4 36,10.5 C36.4,11.8 37.7,11.299 35.5,12.8 C34.5,13.4 32.5,13.299 31.3,13.299 C31.9,15.7 33.8,20.4 33.2,22.9 C32.1,27.5 27.6,25.2 24.201,24.4 C22.6,24 20.5,24.3 18.9,23.6 C17.1,22.9 15.9,21.2 13.9,20.6 C11.783,19.96 9.52,20.096 7.256,20.231 C4.921,20.371 2.583,20.51 0.4,19.8 C0.2,19.2 0.2,18.2 0.4,17.6 C2.7,16.6 8.3,16 10,14 C10.9,13 9.9,11.4 10.7,10.2 C11.2,9.5 12.8,8.9 13.5,8.4 C14.8,7.5 16.5,7.1 16.9,5.6 C17.5,3.5 13.9,4.2 16.4,1.6 C17.8,0.2 22.1,0.6 23.899,0.2 Z" id="path-83"></path>
        <path d="M85.9413238,0.06 C80.3704598,0.175938989 77.2029545,1.53907854 72.5,5.9 C70.8,7.4 67.5,9.7 67.1,12.2 C66.5,15.5 71,16.3 67.7,19.8 L84.1,3.5 C79.1,7.5 74.1,11.6 69.4,15.799 C69.9,20.4 60.7,38.3 56.4,41.3 C48.5,47 39.9,46.2 35.2,56.2 C30.9,65.299 24.8,67.4 16.7,73.6 C13.5,76 11.3,79.2 7.9,80.9 C4.6,82.6 0.1,81.7 0.1,86.8 C12.7,91.1 21.3,82.5 27.9,73.1 C35.6,62.2 45.2,58.6 55.6,50.9 C63.6,45 70.1,36.2 77.5,29.5 C85,22.8 90.5,10.6 89,0.1 C88.5315796,0.0815097196 88.079114,0.067957857 87.6411283,0.059999991 L85.9413238,0.06 L85.9413238,0.06 Z" id="path-85"></path>
        <path d="M31.06,15.0394793 C30.539821,9.92283429 20.2198435,7.09033901 23.4,0.2 C23.6,-0.2 12.399,0.8 11.1,1.4 C3.7,4.3 8.8,5.3 9.1,9.8 C6,10.6 2.3,9.8 0.3,12.799 C2.4,13.6 4.7,14.101 6.4,15.7 C7.8,16.9 8.1,19.3 9.5,20.6 C10.823,21.813 12.298,21.719 13.707,21.625 C14.854,21.548 15.957,21.472 16.9,22.1 C19.2,23.6 18,29.5 18.1,32.1 C23.3,32.5 25.4,30.1 26.6,25.3 C26.899,23.9 26.7,21.8 27.4,20.6 C28.3,19.1 30,18.9 30.7,17.2 C30.9003548,16.727735 31.016227,16.2759506 31.06,15.8412763 L31.06,15.0394793 Z" id="path-87"></path>
        <path d="M93.14,4.04717706 C92.9045692,-1.58752019 83.5067395,1.36442017 79.8,2.6 C72.7,5 66.6,11.4 62.2,17.3 C58.8,21.9 55.2,25.9 50.6,29.299 C47.1,31.9 43.2,33.4 39.7,36 C29.701,43.2 23.4,53.8 12.8,59.9 C8.9,62.2 -0.7,64.6 0.3,71 C8.7,71.3 13.1,67.8 20.4,64.7 C26.6,62 33.6,60.299 38.9,55 C41.1,52.8 42.7,49.5 44.899,47.2 C47.3,44.7 48.3,45 51.5,43.5 C58.2,40.6 61.3,34 66.8,28.9 C71.7,24.3 77.1,21.3 81.899,17 C84.2,14.9 92.8,8.2 93.1,5 C93.1203696,4.82431251 93.1336077,4.65517296 93.14,4.49238327 L93.14,4.04717706 L93.14,4.04717706 Z" id="path-89"></path>
        <path d="M116.3,6.5 C121.8,3 129.2,2 135.7,1 C139.2,0.6 142.7,0.9 146.201,1.3 C151.9,2 161.701,2.7 165.9,7.2 C163.3,9 157.5,7.2 154.6,6.8 C151.3,6.3 148,5.3 144.5,5.7 C138.7,6.4 133.2,9.1 128.8,13.2 C123.9,17.8 119.2,19.101 113.4,21.799 C100.6,27.8 92.1,42.601 79.9,50 C74.6,53.3 66.9,55.4 63.8,61.7 C62.1,65.1 60.8,68 58.4,71 C55.7,74.4 52.5,75.1 49,76.7 C42.1,79.8 37.9,86.5 32.7,92 C28.1,96.8 22.3,94.7 17.3,98.5 C12.5,102.3 10.9,105.601 4.6,106.5 C1.5,106.9 -0.2,107.2 0.8,103.2 C1.8,99.2 4.9,98.2 8.2,96.2 C13.4,93.101 18.2,91 21.8,85.8 C25.3,80.8 28.4,76.601 33.3,72.9 C38.7,68.8 44,65.3 48.1,59.5 C50.7,55.7 54.1,51.9 58,49.4 C62.4,46.6 67.6,46 71,41.7 C72.9,39.299 74,36.8 76.8,35.2 C80,33.4 84.3,34.5 87.3,32.6 C92.3,29.4 92.5,21.2 97.7,17.5 C100.8,15.3 104.8,15.6 108.1,13.9 C110.9,12.4 111.6,10.3 113.8,8.4 C114.6,7.7 115.4,7.1 116.3,6.5 Z" id="path-91"></path>
        <path d="M9.4,13.8 C9.4,13.3 9.2,12.6 9.2,12.2 C8.8,12.2 8.4,12.1 8.1,12.1 C8.4,11.7 8.6,10.8 8.9,10.4 C8.5,10.601 7.8,10.7 7.3,10.9 C7.6,10.4 7.7,9.7 7.9,9.1 C6.1,9.1 1.3,10.601 0.6,7.7 C-0.1,4.7 2.7,3.7 4.1,3.1 C7.8,1.3 13.4,0.4 17.3,1.4 C20.9,2.3 23.1,5.601 27,5.7 C28.5,5.74 30.131,5.534 31.78,5.328 C34.2,5.026 36.659,4.724 38.8,5.2 C40.8,5.601 42.2,7.299 44,8.1 C45.1,8.601 46,8 46.9,8.9 C47,9 48.1,11.1 47.8,11.1 C45.6,10.9 44.4,13.7 42.7,14.9 C41.1,16.1 39.2,17.6 37.4,18.4 C36.122,19.011 35.03,18.696 34.002,18.382 C33.18,18.13 32.4,17.878 31.6,18.1 C29.4,18.7 28.8,23.101 27,23.9 C27,23.5 26.9,23.2 26.9,22.8 C25.5,22.5 25.2,21.4 24,20.8 C23.5,20.6 21.8,20.4 21.5,20.2 C20.5,19.4 18.5,16.3 18.3,15.3 C16.9,15.4 15.2,15.7 15.1,14.1 C14.4,14.7 13.4,14.7 12.6,14.9 C12.7,14.2 12.4,13.2 12.5,12.4 C11.5,12.7 10.6,13.7 9.4,13.8 Z" id="path-93"></path>
        <path d="M48.5,54 C50.6,53.1 52.7,52.2 54.8,50.8 C58.9,48.4 62.9,44.4 66.1,40.9 C70.7,35.9 76.8,36.7 81.6,32.7 C85.7,29.2 84.5,22.4 87.6,18.3 C91.5,13.1 95.5,16.7 100.2,13.1 C104,10.3 105.7,1 111.8,0.9 C115.8,0.8 119.5,9.4 119.3,13.1 C118.9,20.8 108.6,18.2 103.6,20.8 C99.399,23 97.701,27.6 93.8,30.7 C89.2,34.4 84.8,39.8 79.4,42.3 C73.5,45 72.3,44.601 67.8,49.7 C66.2,51.5 64.2,52.2 62.7,53.7 C61.1,55.3 60.4,57.5 58.5,59.1 C56.5,60.8 54.1,61.7 52,63.101 C50.4,64.2 50.2,64.9 48.9,66.3 C46.5,68.9 43.1,69.1 39.8,69.9 C30.1,72.2 22.9,77.9 15,83.4 C12,85.5 7.6,88 3.9,88.1 C-1.2,88.3 0.1,83.2 3.6,81.4 C5.3,80.5 7.9,81 9.5,80 C10.9,79.1 11.8,76.9 12.9,75.8 C16,72.7 19.8,72.3 23.7,70.5 C28.4,68.4 29.6,64.5 33.6,61.6 C38.6,58.1 43,56.3 48.5,54 Z" id="path-95"></path>
        <path d="M0.6,0.4 L49.5,5.2 C50,6.4 49,6.8 48.6,7.6 C48.1,8.5 48.4,9.5 47,9.8 C46.3,11.3 44.9,11.5 43.5,11 C41.8,10.5 40.5,10 38.7,9.9 C38.8,11.6 37.1,12.7 35.6,12.8 C33.8,12.9 32.3,11.3 31.3,9.9 C30.8,9.1 28.2,0.4 25.8,3.4 C24.9,4.5 27.9,8.7 25.5,9.5 C24.8,9.7 23.8,8.3 23.2,8.1 C22.5,7.9 21.3,7.9 20.6,8.1 C20.2,9.4 22.6,11.9 20,12.1 C19,12.2 18.5,11.2 17.7,10.9 C16.5,10.4 15,10.3 13.7,10.1 C10.8,9.6 9.1,10.1 7.7,7.3 C6.7,5.4 5.4,4.299 3.7,3 C2.7,2.299 1.1,1.5 0.6,0.4 Z" id="path-97"></path>
        <path d="M69.4,49.1 C61.7,53.8 52.8,56.5 46.7,63.3 C43.1,67.2 41.3,71.7 36.4,74.2 C32.5,76.2 28.6,77.2 24.7,79.5 C20.1,82.2 16.2,85 11.2,87.2 C7.6,88.7 4.5,91.3 0.4,89.8 C1.5,82.9 12.3,79.3 17.7,76.3 C25.4,72.101 32.2,68.799 38.7,62.8 C44.7,57.3 50.2,52 55.3,45.8 C59.9,40.4 64.4,38 70.7,35.4 C76.1,33.2 82.9,30.4 85.3,24.5 C86.3,22.1 85.7,19.2 86.8,16.7 C88.7,12.6 94.399,0.5 99.8,1 C101,7.2 102.8,8.4 99.7,14.7 C97.8,18.601 96.399,22.3 94.5,26.3 C92.2,31 90,36.3 86.2,39.9 C81.6,44.3 74.8,45.8 69.4,49.1 Z" id="path-99"></path>
        <path d="M0.899999991,103.820231 C1.04292879,104.492918 1.91909775,105.12382 3.8,105.5 C8.3,106.4 12.4,104.9 16.4,102.7 C20.9,100.2 25.6,99.299 30.2,97.1 C35.399,94.6 37.3,91 40.9,86.6 C47,79.1 56.4,78.1 63.2,72 C65.399,70 67.701,67.7 70.1,66.1 C72.6,64.4 75.7,64 78.5,62.5 C85,59.2 93.2,49.799 94.9,42.4 C98.1,42 102.9,37.8 106,36.2 C110,34.1 114.7,32.4 118.8,31.2 C128.1,28.4 134.399,21.9 142.2,16.4 C148.3,12.1 155,12.2 158.1,4.6 C162.3,-5.8 146.8,5.2 144.1,7.1 C139.3,10.5 134.3,12.7 128.8,14.5 C121.899,16.799 115.4,20.4 109,23.7 C106,25.2 102.8,26.5 100.2,28.5 C97.7,30.4 96.1,33.2 93.5,35.2 C89.6,38.2 85.3,40.3 81.8,43.9 C77.4,48.4 73.5,54 68.701,58.1 C63.4,62.6 56.7,65.4 50.8,69 C45.9,72 40.6,74.7 36.7,78.9 C34,81.8 31.3,84.6 28.2,87.2 C21.3,92.9 13.6,99.8 5,101.1 C2.75058805,101.429182 1.10318135,102.42057 0.899999994,103.413599 L0.9,103.820233 L0.899999991,103.820231 Z" id="path-101"></path>
        <path d="M58.9,24.6 C66.2,20 68.5,12.9 74.2,7.5 C80.6,1.7 94.2,-2.66453526e-15 102.4,0.5 C97.6,7.5 92.7,11.4 85.1,15.6 C77.9,19.6 74.2,28.2 67.2,32.9 C59.5,38 50.2,41.1 43.2,47.1 C36.6,52.7 29.3,57.5 22.3,62.4 C17.4,65.8 5.8,70.2 0.3,65.9 C0.8,62.6 5.7,61.2 8.4,59.8 C13.1,57.5 17.3,55.101 21.6,52.101 C27.9,47.6 33.8,43.4 39.7,38.2 C45.6,32.9 52.3,28.8 58.9,24.6 Z" id="path-103"></path>
        <path d="M49.5,13.1 C72.2,1.3 101.2,-4.3 125.8,4 C130.1,5.5 134.6,6.5 138.7,8.3 C142.2,9.9 145.5,11.9 149.4,12.8 C155.7,14.3 159.1,16.4 164.399,19.9 C174.1,26.2 184.9,31.6 195.8,35.2 C201,36.9 209.2,41.5 209.7,47.4 C210.3,54 205.5,56.5 199.7,56.5 C194.1,56.5 188.4,56.1 183.2,58.5 C178.8,60.6 174.2,62.7 169.6,64.7 C160.8,68.5 151.4,69 142.8,73.1 C133.1,77.8 121.6,80.299 110.8,79.8 C94.8,79.1 80.8,73.5 65.6,69.3 C52.9,65.7 39.4,66 26.7,62.4 C23.6,61.5 20.3,60.4 17.4,58.9 C14.9,57.6 14.3,56 12.3,54.4 C9.1,51.8 1.8,53.3 0.3,48.8 C-0.7,45.9 3.5,40.4 5,38 C13,25.1 31.6,23.5 43.9,16.2 C45.7,15.1 47.6,14.1 49.5,13.1 Z" id="path-105"></path>
        <path d="M57.4,36.1 C55.5,40.8 51.7,44.4 47,46.6 C45.2,47.5 43.2,48.1 41.2,48.6 C40.2,48.8 39,49.3 38,49.2 C37.4,49.1 36.5,48.9 36,48.6 C35.5,48.3 35.3,47.8 34.7,47.6 C34.4,47.5 34.201,47.6 33.899,47.4 C33.3,46.9 33.201,46 32.899,45.4 C32.4,44.5 31.4,43.7 30.5,44.5 C29.8,45.1 29.201,45.6 28.4,46 C27.7,46.4 26.9,46.9 26,46.9 C25.1,46.9 24.5,46.3 23.7,46.2 C23.171,46.094 22.697,46.24 22.221,46.387 C21.797,46.517 21.371,46.647 20.9,46.6 C20.1,46.5 19.2,45.8 18.5,45.5 C16.7,44.6 15,43.6 13.4,42.4 C10.3,40.2 7.6,37.6 5.5,34.6 C1,28.3 -0.7,20.3 2.1,13.4 C7,1.4 23.5,-3.3 38.8,3 C43.3,4.8 47.5,7.6 50.9,11 C52.4,12.5 53.7,14.1 54.9,15.9 C55.5,16.8 56.3,17.9 56.5,18.9 C56.7,20.1 55.5,20.2 54.6,20.7 C53.3,21.3 54.3,22.4 55.1,23 C56.2,23.9 56.4,24.8 57.2,25.9 C58.2,27.3 59,28 58.9,29.7 C58.6,31.9 58.2,34 57.4,36.1 Z" id="path-107"></path>
        <path d="M5.5,3.1 C6.346,1.829 7.56,2.352 8.74,2.875 C9.511,3.217 10.268,3.558 10.9,3.4 C11.3,3.3 11.3,3.1 11.8,3.2 C12.1,3.2 12.4,3.4 12.7,3.4 C14.2,3.1 14.1,0.5 15.5,0.6 C15.7,1.4 14.6,2.5 14.2,3.1 C13.9,3.6 13.7,4.1 13.2,4.5 C12.7,4.9 11.8,5 11.3,5.5 C10.9,6 10.9,6.5 10.2,6.9 C9.5,7.2 8.8,7.5 8.1,7.8 C7.5,8.1 6.9,8.4 6.2,8.7 C5.5,9 5,9.5 4.3,9.9 C3.2,10.5 1.5,11.1 0.2,10.4 C0.4,9.3 2.3,8.7 3.3,8.5 C4.5,8.3 5.3,7.7 5.5,6.5 C5.701,5.3 4.701,4.3 5.5,3.1 Z" id="path-109"></path>
        <path d="M9,7.9 C7.5,7.6 6,7.3 4.5,7.2 C3.8,7.1 3.1,7.1 2.3,7.1 C1.9,7.1 1.3,7.3 0.9,7.1 C-0.7,6.4 3.9,4.2 4.5,3.9 C6.4,2.7 8.6,-0.1 11.1,1.1 C12.3,1.7 13.7,2.2 14.4,3.3 C15.3,4.6 15.3,5.7 14.1,6.8 C12.7,8.1 11,8.2 9,7.9 Z" id="path-111"></path>
        <path d="M44.0033222,25.2849383 C44.0033118,23.5322059 38.3016563,20.7789603 35.8,19.9 C31.2,18.2 15.9,16.4 15.1,10.8 C14.5,6.4 19.2,4 20.9,0.7 C14.6,-1 -5.7,10.4 2.2,17.7 L25.2,23.6 C29.3,24.6 35,26.799 39.1,26.799 C42.6950311,26.7345485 44.0033272,26.1245324 44.0033222,25.2849383 L44.0033222,25.2849383 L44.0033222,25.2849383 Z" id="path-113"></path>
        <path d="M0.949823297,20.1518342 C0.949822853,20.5009951 1.16964944,20.9122896 1.7,21.4 C3,22.6 10.3,21.3 12.1,21 C16.899,20.4 22.2,20.9 27.1,21.101 L51.1,15.6 C55.3,13.8 65.8,11.4 64.9,5.2 C64.1,0.4 59.2,-1 56,1.6 C54,3.2 53,5.9 50.8,7.6 C48.4,9.4 45.4,10.7 42.4,11.5 C36.6,13.2 30.399,16.9 24.4,17.3 C22,17.45 19.6,17.431 17.211,17.412 C13.228,17.381 9.275,17.35 5.4,18.101 C3.9818524,18.4153561 0.949824944,18.8550982 0.949823297,20.1518342 L0.949823297,20.1518341 L0.949823297,20.1518342 Z" id="path-115"></path>
        <path d="M6.93279866,6.536 C10.0754313,6.52318162 15.2645615,6.24803085 16.2,5 C18.2,2 12.5,2.8 11.1,2.8 L14.8,0.6 L4.1,2.6 C2.00684528,3.39074734 0.99549221,4.20313071 0.995493467,4.88619157 L0.995493467,4.8861916 C0.995494912,5.67161931 2.33269837,6.2860582 4.9,6.5 C5.24300738,6.51823355 5.79133901,6.53317539 6.46674187,6.536 L6.93279866,6.536 L6.93279866,6.536 Z" id="path-117"></path>
    </defs>
    <g id="Page-1" stroke="none" stroke-width="1" fill="none" fill-rule="evenodd">
        <g id="bulgogi">
            <g id="Group-3" transform="translate(46.000000, 153.000000)">
                <mask id="mask-2" fill="white">
                    <use xlink:href="#path-1"></use>
                </mask>
                <g id="Clip-2"></g>
                <polygon id="Fill-1" fill="#161A1B" mask="url(#mask-2)" points="0.86 98.94 336.38 98.94 336.38 0.06 0.86 0.06"></polygon>
            </g>
            <g id="Group-6" transform="translate(53.000000, 0.000000)">
                <mask id="mask-4" fill="white">
                    <use xlink:href="#path-3"></use>
                </mask>
                <g id="Clip-5"></g>
                <polygon id="Fill-4" fill="#8A6130" mask="url(#mask-4)" points="0.58 65.82 328.3 65.82 328.3 0.06 0.58 0.06"></polygon>
            </g>
            <g id="Group-9" transform="translate(53.000000, 15.000000)">
                <mask id="mask-6" fill="white">
                    <use xlink:href="#path-5"></use>
                </mask>
                <g id="Clip-8"></g>
                <polygon id="Fill-7" fill="#C8A06D" mask="url(#mask-6)" points="0.34 92.7 329.98 92.7 329.98 0.06 0.34 0.06"></polygon>
            </g>
            <g id="Group-12" transform="translate(46.000000, 153.000000)">
                <mask id="mask-8" fill="white">
                    <use xlink:href="#path-7"></use>
                </mask>
                <g id="Clip-11"></g>
                <polygon id="Fill-10" fill="#8A6130" mask="url(#mask-8)" points="0.86 70.02 336.38 70.02 336.38 0.06 0.86 0.06"></polygon>
            </g>
            <g id="Group-15" transform="translate(268.000000, 161.000000)">
                <mask id="mask-10" fill="white">
                    <use xlink:href="#path-9"></use>
                </mask>
                <g id="Clip-14"></g>
                <polygon id="Fill-13" fill="#EEDD39" mask="url(#mask-10)" points="-0.1 77.26 64.1 77.26 64.1 -0.02 -0.1 -0.02"></polygon>
            </g>
            <g id="Group-18" transform="translate(102.000000, 165.000000)">
                <mask id="mask-12" fill="white">
                    <use xlink:href="#path-11"></use>
                </mask>
                <g id="Clip-17"></g>
                <polygon id="Fill-16" fill="#EEDD39" mask="url(#mask-12)" points="0.3 86.82 199.86 86.82 199.86 0.06 0.3 0.06"></polygon>
            </g>
            <path d="M157.1,211.8 C157,211.7 156.9,211.6 156.8,211.5 L157.9,211.8 L158.6,211.8 C163.7,211.8 170.7,213.7 174.7,215.6 C180.8,218.4 184.8,224.3 190.9,227.4 C194.1,229 198,229.3 201.4,230.9 C204.6,232.4 207.6,235 211.3,235.4 C211.7,235.4 212.1,235.5 212.5,235.5 C215.1,235.5 217.5,234.6 219.8,233.7 C222.1,232.8 224.4,231.9 226.9,231.9 C228,231.9 229.2,232.1 230.4,232.6 C226.2,238.2 224.1,242.3 217.9,242.3 C216.8,242.3 215.5,242.2 214.1,241.9 C207.8,240.6 200.4,237.7 194.5,234.9 C188.3,232 183.3,227 177.5,223.2 C174.2,221.1 170.8,218.3 167.1,216.4 C164.2,214.9 160.4,214.6 157.9,212.7 C157.4,212.6 156.9,212.4 156.5,212.1 C156.7,211.8 156.9,211.8 157.1,211.8" id="Fill-19" fill="#F3E871"></path>
            <g id="Group-22" transform="translate(156.000000, 211.000000)">
                <mask id="mask-14" fill="white">
                    <use xlink:href="#path-13"></use>
                </mask>
                <g id="Clip-21"></g>
                <polygon id="Fill-20" fill="#F3E871" mask="url(#mask-14)" points="0.5 31.3 74.4 31.3 74.4 0.5 0.5 0.5"></polygon>
            </g>
            <g id="Group-25" transform="translate(332.000000, 120.000000)">
                <mask id="mask-16" fill="white">
                    <use xlink:href="#path-15"></use>
                </mask>
                <g id="Clip-24"></g>
                <polygon id="Fill-23" fill="#477338" mask="url(#mask-16)" points="0.7 16.5 46.18 16.5 46.18 0.66 0.7 0.66"></polygon>
            </g>
            <g id="Group-28" transform="translate(48.000000, 61.000000)">
                <mask id="mask-18" fill="white">
                    <use xlink:href="#path-17"></use>
                </mask>
                <g id="Clip-27"></g>
                <polygon id="Fill-26" fill="#3F2524" mask="url(#mask-18)" points="0.66 144.74 315.9 144.74 315.9 0.14 0.66 0.14"></polygon>
            </g>
            <g id="Group-31" transform="translate(54.000000, 137.000000)">
                <mask id="mask-20" fill="white">
                    <use xlink:href="#path-19"></use>
                </mask>
                <g id="Clip-30"></g>
                <polygon id="Fill-29" fill="#3F2524" mask="url(#mask-20)" points="0.66 44.86 66.9 44.86 66.9 0.58 0.66 0.58"></polygon>
            </g>
            <g id="Group-34" transform="translate(207.000000, 143.000000)">
                <mask id="mask-22" fill="white">
                    <use xlink:href="#path-21"></use>
                </mask>
                <g id="Clip-33"></g>
                <polygon id="Fill-32" fill="#3F2524" mask="url(#mask-22)" points="0.3 16.3 18.3 16.3 18.3 0.34 0.3 0.34"></polygon>
            </g>
            <g id="Group-37" transform="translate(309.000000, 163.000000)">
                <mask id="mask-24" fill="white">
                    <use xlink:href="#path-23"></use>
                </mask>
                <g id="Clip-36"></g>
                <polygon id="Fill-35" fill="#3F2524" mask="url(#mask-24)" points="0.54 26.78 14.34 26.78 14.34 0.26 0.54 0.26"></polygon>
            </g>
            <g id="Group-40" transform="translate(221.000000, 37.000000)">
                <mask id="mask-26" fill="white">
                    <use xlink:href="#path-25"></use>
                </mask>
                <g id="Clip-39"></g>
                <polygon id="Fill-38" fill="#DAB77C" mask="url(#mask-26)" points="0.46 7.94 19.78 7.94 19.78 0.14 0.46 0.14"></polygon>
            </g>
            <g id="Group-43" transform="translate(291.000000, 26.000000)">
                <mask id="mask-28" fill="white">
                    <use xlink:href="#path-27"></use>
                </mask>
                <g id="Clip-42"></g>
                <polygon id="Fill-41" fill="#DAB77C" mask="url(#mask-28)" points="0.18 16.18 30.3 16.18 30.3 0.22 0.18 0.22"></polygon>
            </g>
            <g id="Group-46" transform="translate(362.000000, 60.000000)">
                <mask id="mask-30" fill="white">
                    <use xlink:href="#path-29"></use>
                </mask>
                <g id="Clip-45"></g>
                <polygon id="Fill-44" fill="#DAB77C" mask="url(#mask-30)" points="0.7 12.78 16.66 12.78 16.66 0.54 0.7 0.54"></polygon>
            </g>
            <g id="Group-49" transform="translate(93.000000, 26.000000)">
                <mask id="mask-32" fill="white">
                    <use xlink:href="#path-31"></use>
                </mask>
                <g id="Clip-48"></g>
                <polygon id="Fill-47" fill="#DAB77C" mask="url(#mask-32)" points="0.18 19.42 23.22 19.42 23.22 0.22 0.18 0.22"></polygon>
            </g>
            <g id="Group-52" transform="translate(121.000000, 32.000000)">
                <mask id="mask-34" fill="white">
                    <use xlink:href="#path-33"></use>
                </mask>
                <g id="Clip-51"></g>
                <polygon id="Fill-50" fill="#DAB77C" mask="url(#mask-34)" points="0.26 12.22 9.5 12.22 9.5 0.82 0.26 0.82"></polygon>
            </g>
            <g id="Group-55" transform="translate(71.000000, 64.000000)">
                <mask id="mask-36" fill="white">
                    <use xlink:href="#path-35"></use>
                </mask>
                <g id="Clip-54"></g>
                <polygon id="Fill-53" fill="#DAB77C" mask="url(#mask-36)" points="0.58 9.98 11.02 9.98 11.02 0.14 0.58 0.14"></polygon>
            </g>
            <g id="Group-58" transform="translate(312.000000, 106.000000)">
                <mask id="mask-38" fill="white">
                    <use xlink:href="#path-37"></use>
                </mask>
                <g id="Clip-57"></g>
                <polygon id="Fill-56" fill="#92B352" mask="url(#mask-38)" points="-0.06 23.78 65.1 23.78 65.1 0.5 -0.06 0.5"></polygon>
            </g>
            <g id="Group-61" transform="translate(325.000000, 157.000000)">
                <mask id="mask-40" fill="white">
                    <use xlink:href="#path-39"></use>
                </mask>
                <g id="Clip-60"></g>
                <polygon id="Fill-59" fill="#3F2524" mask="url(#mask-40)" points="0.38 13.46 31.1 13.46 31.1 0.5 0.38 0.5"></polygon>
            </g>
            <g id="Group-64" transform="translate(205.000000, 176.000000)">
                <mask id="mask-42" fill="white">
                    <use xlink:href="#path-41"></use>
                </mask>
                <g id="Clip-63"></g>
                <polygon id="Fill-62" fill="#3F2524" mask="url(#mask-42)" points="0.86 9.7 6.74 9.7 6.74 0.58 0.86 0.58"></polygon>
            </g>
            <g id="Group-67" transform="translate(194.000000, 166.000000)">
                <mask id="mask-44" fill="white">
                    <use xlink:href="#path-43"></use>
                </mask>
                <g id="Clip-66"></g>
                <polygon id="Fill-65" fill="#3F2524" mask="url(#mask-44)" points="0.7 10.22 5.98 10.22 5.98 0.5 0.7 0.5"></polygon>
            </g>
            <g id="Group-70" transform="translate(153.000000, 169.000000)">
                <mask id="mask-46" fill="white">
                    <use xlink:href="#path-45"></use>
                </mask>
                <g id="Clip-69"></g>
                <polygon id="Fill-68" fill="#3F2524" mask="url(#mask-46)" points="0.06 22.7 26.1 22.7 26.1 0.74 0.06 0.74"></polygon>
            </g>
            <g id="Group-73" transform="translate(296.000000, 140.000000)">
                <mask id="mask-48" fill="white">
                    <use xlink:href="#path-47"></use>
                </mask>
                <g id="Clip-72"></g>
                <polygon id="Fill-71" fill="#3F2524" mask="url(#mask-48)" points="0.7 21.82 23.38 21.82 23.38 0.82 0.7 0.82"></polygon>
            </g>
            <g id="Group-76" transform="translate(316.000000, 127.000000)">
                <mask id="mask-50" fill="white">
                    <use xlink:href="#path-49"></use>
                </mask>
                <g id="Clip-75"></g>
                <polygon id="Fill-74" fill="#3F2524" mask="url(#mask-50)" points="0.26 21.86 14.42 21.86 14.42 0.62 0.26 0.62"></polygon>
            </g>
            <g id="Group-79" transform="translate(297.000000, 177.000000)">
                <mask id="mask-52" fill="white">
                    <use xlink:href="#path-51"></use>
                </mask>
                <g id="Clip-78"></g>
                <polygon id="Fill-77" fill="#3F2524" mask="url(#mask-52)" points="0.54 20.46 25.02 20.46 25.02 0.06 0.54 0.06"></polygon>
            </g>
            <g id="Group-82" transform="translate(329.000000, 137.000000)">
                <mask id="mask-54" fill="white">
                    <use xlink:href="#path-53"></use>
                </mask>
                <g id="Clip-81"></g>
                <polygon id="Fill-80" fill="#3F2524" mask="url(#mask-54)" points="0.94 30.82 37.18 30.82 37.18 0.34 0.94 0.34"></polygon>
            </g>
            <g id="Group-85" transform="translate(367.000000, 94.000000)">
                <mask id="mask-56" fill="white">
                    <use xlink:href="#path-55"></use>
                </mask>
                <g id="Clip-84"></g>
                <polygon id="Fill-83" fill="#409A45" mask="url(#mask-56)" points="0.86 20.66 13.82 20.66 13.82 0.38 0.86 0.38"></polygon>
            </g>
            <g id="Group-88" transform="translate(331.000000, 120.000000)">
                <mask id="mask-58" fill="white">
                    <use xlink:href="#path-57"></use>
                </mask>
                <g id="Clip-87"></g>
                <polygon id="Fill-86" fill="#409A45" mask="url(#mask-58)" points="0.5 35.94 102.02 35.94 102.02 0.9 0.5 0.9"></polygon>
            </g>
            <g id="Group-91" transform="translate(29.000000, 144.000000)">
                <mask id="mask-60" fill="white">
                    <use xlink:href="#path-59"></use>
                </mask>
                <g id="Clip-90"></g>
                <polygon id="Fill-89" fill="#409A45" mask="url(#mask-60)" points="0.58 31.14 20.14 31.14 20.14 0.9 0.58 0.9"></polygon>
            </g>
            <g id="Group-94" transform="translate(339.000000, 84.000000)">
                <mask id="mask-62" fill="white">
                    <use xlink:href="#path-61"></use>
                </mask>
                <g id="Clip-93"></g>
                <polygon id="Fill-92" fill="#FFFFFF" mask="url(#mask-62)" points="0.3 23.94 26.22 23.94 26.22 0.66 0.3 0.66"></polygon>
            </g>
            <g id="Group-97" transform="translate(344.000000, 169.000000)">
                <mask id="mask-64" fill="white">
                    <use xlink:href="#path-63"></use>
                </mask>
                <g id="Clip-96"></g>
                <polygon id="Fill-95" fill="#327E3F" mask="url(#mask-64)" points="0.22 19.82 97.54 19.82 97.54 0.38 0.22 0.38"></polygon>
            </g>
            <g id="Group-100" transform="translate(346.000000, 152.000000)">
                <mask id="mask-66" fill="white">
                    <use xlink:href="#path-65"></use>
                </mask>
                <g id="Clip-99"></g>
                <polygon id="Fill-98" fill="#78B642" mask="url(#mask-66)" points="0.62 20.02 94.82 20.02 94.82 0.58 0.62 0.58"></polygon>
            </g>
            <g id="Group-103" transform="translate(135.000000, 68.000000)">
                <mask id="mask-68" fill="white">
                    <use xlink:href="#path-67"></use>
                </mask>
                <g id="Clip-102"></g>
                <polygon id="Fill-101" fill="#FFFFFF" mask="url(#mask-68)" points="0.06 7.18 19.38 7.18 19.38 0.1 0.06 0.1"></polygon>
            </g>
            <g id="Group-106" transform="translate(0.000000, 93.000000)">
                <mask id="mask-70" fill="white">
                    <use xlink:href="#path-69"></use>
                </mask>
                <g id="Clip-105"></g>
                <polygon id="Fill-104" fill="#78B642" mask="url(#mask-70)" points="0.06 37.62 93.54 37.62 93.54 0.18 0.06 0.18"></polygon>
            </g>
            <g id="Group-109" transform="translate(329.000000, 137.000000)">
                <mask id="mask-72" fill="white">
                    <use xlink:href="#path-71"></use>
                </mask>
                <g id="Clip-108"></g>
                <polygon id="Fill-107" fill="#3F2524" mask="url(#mask-72)" points="0.94 30.82 37.18 30.82 37.18 0.34 0.94 0.34"></polygon>
            </g>
            <g id="Group-112" transform="translate(44.000000, 93.000000)">
                <mask id="mask-74" fill="white">
                    <use xlink:href="#path-73"></use>
                </mask>
                <g id="Clip-111"></g>
                <polygon id="Fill-110" fill="#FFFFFF" mask="url(#mask-74)" points="-0.02 55.74 54.34 55.74 54.34 0.18 -0.02 0.18"></polygon>
            </g>
            <g id="Group-115" transform="translate(310.000000, 135.000000)">
                <mask id="mask-76" fill="white">
                    <use xlink:href="#path-75"></use>
                </mask>
                <g id="Clip-114"></g>
                <polygon id="Fill-113" fill="#19070B" mask="url(#mask-76)" points="0.26 62.82 53.78 62.82 53.78 0.42 0.26 0.42"></polygon>
            </g>
            <g id="Group-118" transform="translate(54.000000, 74.000000)">
                <mask id="mask-78" fill="white">
                    <use xlink:href="#path-77"></use>
                </mask>
                <g id="Clip-117"></g>
                <polygon id="Fill-116" fill="#EA9032" mask="url(#mask-78)" points="0.06 86.38 99.66 86.38 99.66 0.46 0.06 0.46"></polygon>
            </g>
            <g id="Group-121" transform="translate(233.000000, 220.000000)">
                <mask id="mask-80" fill="white">
                    <use xlink:href="#path-79"></use>
                </mask>
                <g id="Clip-120"></g>
                <polygon id="Fill-119" fill="#F3E871" mask="url(#mask-80)" points="0.22 8.9 8.5 8.9 8.5 0.14 0.22 0.14"></polygon>
            </g>
            <g id="Group-124" transform="translate(294.000000, 219.000000)">
                <mask id="mask-82" fill="white">
                    <use xlink:href="#path-81"></use>
                </mask>
                <g id="Clip-123"></g>
                <polygon id="Fill-122" fill="#F3E871" mask="url(#mask-82)" points="0.18 12.06 26.34 12.06 26.34 -0.06 0.18 -0.06"></polygon>
            </g>
            <g id="Group-127" transform="translate(240.000000, 183.000000)">
                <mask id="mask-84" fill="white">
                    <use xlink:href="#path-83"></use>
                </mask>
                <g id="Clip-126"></g>
                <polygon id="Fill-125" fill="#3F2524" mask="url(#mask-84)" points="0.18 25.74 36.78 25.74 36.78 0.06 0.18 0.06"></polygon>
            </g>
            <g id="Group-130" transform="translate(60.000000, 96.000000)">
                <mask id="mask-86" fill="white">
                    <use xlink:href="#path-85"></use>
                </mask>
                <g id="Clip-129"></g>
                <polygon id="Fill-128" fill="#FFFFFF" mask="url(#mask-86)" points="0.06 88.02 89.34 88.02 89.34 0.06 0.06 0.06"></polygon>
            </g>
            <g id="Group-133" transform="translate(269.000000, 166.000000)">
                <mask id="mask-88" fill="white">
                    <use xlink:href="#path-87"></use>
                </mask>
                <g id="Clip-132"></g>
                <polygon id="Fill-131" fill="#3F2524" mask="url(#mask-88)" points="0.22 32.18 31.06 32.18 31.06 0.02 0.22 0.02"></polygon>
            </g>
            <g id="Group-136" transform="translate(250.000000, 134.000000)">
                <mask id="mask-90" fill="white">
                    <use xlink:href="#path-89"></use>
                </mask>
                <g id="Clip-135"></g>
                <polygon id="Fill-134" fill="#FFFFFF" mask="url(#mask-90)" points="0.14 71.02 93.14 71.02 93.14 0.7 0.14 0.7"></polygon>
            </g>
            <g id="Group-139" transform="translate(83.000000, 88.000000)">
                <mask id="mask-92" fill="white">
                    <use xlink:href="#path-91"></use>
                </mask>
                <g id="Clip-138"></g>
                <polygon id="Fill-137" fill="#EA9032" mask="url(#mask-92)" points="0.46 106.82 165.94 106.82 165.94 0.74 0.46 0.74"></polygon>
            </g>
            <g id="Group-142" transform="translate(131.000000, 186.000000)">
                <mask id="mask-94" fill="white">
                    <use xlink:href="#path-93"></use>
                </mask>
                <g id="Clip-141"></g>
                <polygon id="Fill-140" fill="#3F2524" mask="url(#mask-94)" points="0.46 23.94 47.86 23.94 47.86 0.9 0.46 0.9"></polygon>
            </g>
            <g id="Group-145" transform="translate(150.000000, 113.000000)">
                <mask id="mask-96" fill="white">
                    <use xlink:href="#path-95"></use>
                </mask>
                <g id="Clip-144"></g>
                <polygon id="Fill-143" fill="#FFFFFF" mask="url(#mask-96)" points="0.42 88.18 119.34 88.18 119.34 0.82 0.42 0.82"></polygon>
            </g>
            <g id="Group-148" transform="translate(175.000000, 193.000000)">
                <mask id="mask-98" fill="white">
                    <use xlink:href="#path-97"></use>
                </mask>
                <g id="Clip-147"></g>
                <polygon id="Fill-146" fill="#3F2524" mask="url(#mask-98)" points="0.5 12.86 49.7 12.86 49.7 0.38 0.5 0.38"></polygon>
            </g>
            <g id="Group-151" transform="translate(188.000000, 109.000000)">
                <mask id="mask-100" fill="white">
                    <use xlink:href="#path-99"></use>
                </mask>
                <g id="Clip-150"></g>
                <polygon id="Fill-149" fill="#19070B" mask="url(#mask-100)" points="0.34 90.26 101.5 90.26 101.5 0.98 0.34 0.98"></polygon>
            </g>
            <g id="Group-154" transform="translate(213.000000, 94.000000)">
                <mask id="mask-102" fill="white">
                    <use xlink:href="#path-101"></use>
                </mask>
                <g id="Clip-153"></g>
                <polygon id="Fill-152" fill="#EA9032" mask="url(#mask-102)" points="0.9 105.86 158.82 105.86 158.82 0.14 0.9 0.14"></polygon>
            </g>
            <g id="Group-157" transform="translate(121.000000, 124.000000)">
                <mask id="mask-104" fill="white">
                    <use xlink:href="#path-103"></use>
                </mask>
                <g id="Clip-156"></g>
                <polygon id="Fill-155" fill="#19070B" mask="url(#mask-104)" points="0.26 67.7 102.5 67.7 102.5 0.38 0.26 0.38"></polygon>
            </g>
            <g id="Group-160" transform="translate(118.000000, 50.000000)">
                <mask id="mask-106" fill="white">
                    <use xlink:href="#path-105"></use>
                </mask>
                <g id="Clip-159"></g>
                <polygon id="Fill-158" fill="#FFFFFF" mask="url(#mask-106)" points="0.14 79.9 209.78 79.9 209.78 -0.02 0.14 -0.02"></polygon>
            </g>
            <g id="Group-163" transform="translate(198.000000, 50.000000)">
                <mask id="mask-108" fill="white">
                    <use xlink:href="#path-107"></use>
                </mask>
                <g id="Clip-162"></g>
                <polygon id="Fill-161" fill="#E0B73C" mask="url(#mask-108)" points="0.66 49.3 58.98 49.3 58.98 0.1 0.66 0.1"></polygon>
            </g>
            <g id="Group-166" transform="translate(239.000000, 85.000000)">
                <mask id="mask-110" fill="white">
                    <use xlink:href="#path-109"></use>
                </mask>
                <g id="Clip-165"></g>
                <polygon id="Fill-164" fill="#D6A34D" mask="url(#mask-110)" points="0.1 10.82 15.58 10.82 15.58 0.5 0.1 0.5"></polygon>
            </g>
            <g id="Group-169" transform="translate(204.000000, 52.000000)">
                <mask id="mask-112" fill="white">
                    <use xlink:href="#path-111"></use>
                </mask>
                <g id="Clip-168"></g>
                <polygon id="Fill-167" fill="#FFFFFF" mask="url(#mask-112)" points="0.54 8.06 15.06 8.06 15.06 0.74 0.54 0.74"></polygon>
            </g>
            <g id="Group-172" transform="translate(136.000000, 84.000000)">
                <mask id="mask-114" fill="white">
                    <use xlink:href="#path-113"></use>
                </mask>
                <g id="Clip-171"></g>
                <path d="M39.1,26.799 C35,26.799 29.3,24.6 25.2,23.6 C18,21.7 8.1,23.2 2.2,17.7 C-5.164,10.896 11.973,0.529 19.436,0.529 C19.98,0.529 20.473,0.585 20.9,0.7 C19.2,4 14.5,6.4 15.1,10.8 C15.9,16.4 31.2,18.2 35.8,19.9 C39.5,21.2 50.2,26.6 39.1,26.799" id="Fill-170" fill="#F0EEE9" mask="url(#mask-114)"></path>
            </g>
            <g id="Group-175" transform="translate(250.000000, 90.000000)">
                <mask id="mask-116" fill="white">
                    <use xlink:href="#path-115"></use>
                </mask>
                <g id="Clip-174"></g>
                <path d="M4.239,21.9 C3.052,21.9 2.097,21.766 1.7,21.4 C-0.8,19.101 3.6,18.5 5.4,18.101 C8.503,17.5 11.655,17.4 14.834,17.4 C15.625,17.4 16.417,17.406 17.211,17.412 C18.006,17.418 18.803,17.425 19.601,17.425 C21.198,17.425 22.799,17.4 24.4,17.3 C30.399,16.9 36.6,13.2 42.4,11.5 C45.4,10.7 48.4,9.4 50.8,7.6 C53,5.9 54,3.2 56,1.6 C57.067,0.733 58.322,0.311 59.552,0.311 C62.011,0.311 64.366,2 64.9,5.2 C65.8,11.4 55.3,13.8 51.1,15.6 C43.386,18.76 37.054,21.142 28.972,21.142 C28.359,21.142 27.735,21.129 27.1,21.101 C23.921,20.97 20.573,20.714 17.302,20.714 C15.532,20.714 13.785,20.789 12.1,21 C10.849,21.208 6.943,21.9 4.239,21.9" id="Fill-173" fill="#F0EEE9" mask="url(#mask-116)"></path>
            </g>
            <g id="Group-178" transform="translate(221.000000, 119.000000)">
                <mask id="mask-118" fill="white">
                    <use xlink:href="#path-117"></use>
                </mask>
                <g id="Clip-177"></g>
                <path d="M6.694,6.536 C5.915,6.536 5.28,6.52 4.9,6.5 C0.1,6.1 -0.4,4.3 4.1,2.6 C6.675,1.588 10.943,0.577 14.023,0.577 C14.292,0.577 14.551,0.584 14.8,0.6 L11.1,2.8 C11.587,2.8 12.594,2.703 13.616,2.703 C15.534,2.703 17.505,3.043 16.2,5 C15.241,6.28 9.806,6.536 6.694,6.536" id="Fill-176" fill="#F0EEE9" mask="url(#mask-118)"></path>
            </g>
        </g>
    </g>
</svg>