<?xml version="1.0" encoding="utf-8"?>
<!-- Generator: Adobe Illustrator 21.1.0, SVG Export Plug-In . SVG Version: 6.00 Build 0)  -->
<svg version="1.0" id="Layer_1" xmlns="http://www.w3.org/2000/svg" xmlns:xlink="http://www.w3.org/1999/xlink" x="0px" y="0px"
	 viewBox="0 0 750 1334" style="enable-background:new 0 0 750 1334;" xml:space="preserve">
<style type="text/css">
	.st0{fill:#F8F7FA;}
</style>
<path class="st0" d="M374.9,655.3l0.3,0.1l0.3,0.2l1.9,2c-0.8,1.1-1.9,1.9-3.2,2.5c-1.3,0.6-2.8,0.8-4.5,0.8c-1.6,0-3-0.3-4.3-0.8
	c-1.3-0.5-2.3-1.3-3.2-2.3c-0.9-1-1.6-2.1-2-3.4c-0.5-1.3-0.7-2.7-0.7-4.3c0-1.6,0.3-3,0.8-4.3c0.5-1.3,1.3-2.5,2.3-3.4
	c1-1,2.1-1.7,3.5-2.2c1.4-0.5,2.8-0.8,4.5-0.8c0.8,0,1.5,0.1,2.2,0.2c0.7,0.1,1.4,0.3,2,0.6c0.6,0.2,1.2,0.5,1.7,0.9
	c0.5,0.3,1,0.7,1.4,1.1l-1.7,2.2l-0.4,0.4c-0.1,0.1-0.3,0.2-0.6,0.2l-0.5-0.1l-0.5-0.3c-0.2-0.1-0.4-0.2-0.6-0.4
	c-0.2-0.1-0.5-0.3-0.7-0.4c-0.3-0.1-0.6-0.2-1-0.3c-0.4-0.1-0.8-0.1-1.3-0.1c-0.9,0-1.7,0.2-2.4,0.5c-0.7,0.3-1.4,0.8-1.9,1.3
	c-0.5,0.6-0.9,1.3-1.2,2.1c-0.3,0.8-0.4,1.8-0.4,2.8c0,1.1,0.1,2,0.4,2.9c0.3,0.8,0.7,1.5,1.2,2.1c0.5,0.6,1.1,1,1.8,1.3
	c0.7,0.3,1.4,0.4,2.2,0.4c0.4,0,0.8,0,1.2-0.1c0.4,0,0.7-0.1,1-0.2c0.3-0.1,0.6-0.2,0.9-0.4c0.3-0.2,0.6-0.4,0.9-0.6l0.4-0.2
	L374.9,655.3z"/>
<path class="st0" d="M399.4,660.8h-3.8c-0.4,0-0.8-0.1-1-0.3c-0.3-0.2-0.5-0.5-0.6-0.8l-1.2-3.7h-8l-1.2,3.7
	c-0.1,0.3-0.3,0.5-0.6,0.7c-0.3,0.2-0.6,0.3-1,0.3h-3.8l8.2-21.1h5L399.4,660.8z M385.8,652.7h5.8l-1.9-5.8
	c-0.1-0.4-0.3-0.8-0.4-1.3c-0.2-0.5-0.3-1-0.5-1.6c-0.2,0.6-0.3,1.1-0.5,1.6c-0.2,0.5-0.3,0.9-0.5,1.3L385.8,652.7z"/>
<path class="st0" d="M406,653v7.8h-4.9v-21.1h6.9c1.5,0,2.8,0.2,3.9,0.5c1.1,0.3,2,0.8,2.6,1.3c0.7,0.6,1.2,1.2,1.5,2
	c0.3,0.8,0.5,1.6,0.5,2.5c0,0.7-0.1,1.3-0.3,1.9c-0.2,0.6-0.5,1.2-0.8,1.7c-0.4,0.5-0.8,1-1.3,1.4c-0.5,0.4-1.1,0.7-1.8,1
	c0.3,0.2,0.6,0.4,0.9,0.6c0.3,0.2,0.5,0.5,0.7,0.9l4.5,7.3h-4.4c-0.8,0-1.4-0.3-1.8-0.9l-3.5-6.1c-0.2-0.3-0.3-0.5-0.5-0.6
	c-0.2-0.1-0.5-0.2-0.9-0.2H406z M406,649.6h2c0.7,0,1.2-0.1,1.7-0.3c0.5-0.2,0.9-0.4,1.1-0.7c0.3-0.3,0.5-0.6,0.7-1
	c0.1-0.4,0.2-0.8,0.2-1.3c0-0.9-0.3-1.7-0.9-2.2c-0.6-0.5-1.5-0.8-2.8-0.8h-2V649.6z"/>
<path class="st0" d="M439.5,650.2c0,1.5-0.3,2.9-0.8,4.2c-0.5,1.3-1.3,2.4-2.2,3.3c-1,0.9-2.1,1.7-3.5,2.2c-1.3,0.5-2.8,0.8-4.5,0.8
	h-8.2v-21.1h8.2c1.6,0,3.1,0.3,4.5,0.8c1.3,0.5,2.5,1.3,3.5,2.2c1,0.9,1.7,2,2.2,3.3C439.2,647.3,439.5,648.7,439.5,650.2z
	 M434.5,650.2c0-1-0.1-2-0.4-2.8c-0.3-0.8-0.7-1.6-1.2-2.1c-0.5-0.6-1.1-1-1.9-1.3c-0.7-0.3-1.6-0.5-2.5-0.5h-3.3V657h3.3
	c0.9,0,1.8-0.2,2.5-0.5c0.7-0.3,1.4-0.8,1.9-1.3c0.5-0.6,0.9-1.3,1.2-2.1C434.3,652.2,434.5,651.3,434.5,650.2z"/>
<path class="st0" d="M380.4,695.9h-3.8c-0.4,0-0.8-0.1-1-0.3c-0.3-0.2-0.5-0.5-0.6-0.8l-1.2-3.7h-8l-1.2,3.7
	c-0.1,0.3-0.3,0.5-0.6,0.7c-0.3,0.2-0.6,0.3-1,0.3H359l8.2-21.1h5L380.4,695.9z M366.8,687.9h5.8l-1.9-5.8c-0.1-0.4-0.3-0.8-0.4-1.3
	c-0.2-0.5-0.3-1-0.5-1.6c-0.2,0.6-0.3,1.1-0.5,1.6c-0.2,0.5-0.3,0.9-0.5,1.3L366.8,687.9z"/>
<path class="st0" d="M395.4,690.5l0.3,0.1l0.3,0.2l1.9,2c-0.8,1.1-1.9,1.9-3.2,2.5c-1.3,0.6-2.8,0.8-4.5,0.8c-1.6,0-3-0.3-4.3-0.8
	c-1.3-0.5-2.3-1.3-3.2-2.3c-0.9-1-1.6-2.1-2-3.4c-0.5-1.3-0.7-2.7-0.7-4.3c0-1.6,0.3-3,0.8-4.3c0.5-1.3,1.3-2.5,2.3-3.4
	c1-1,2.1-1.7,3.5-2.2c1.3-0.5,2.8-0.8,4.5-0.8c0.8,0,1.5,0.1,2.2,0.2c0.7,0.1,1.4,0.3,2,0.6c0.6,0.2,1.2,0.5,1.7,0.9
	c0.5,0.3,1,0.7,1.4,1.1l-1.7,2.2l-0.4,0.4c-0.1,0.1-0.3,0.2-0.6,0.2l-0.5-0.1l-0.5-0.3c-0.2-0.1-0.4-0.2-0.6-0.4
	c-0.2-0.1-0.5-0.3-0.7-0.4c-0.3-0.1-0.6-0.2-1-0.3c-0.4-0.1-0.8-0.1-1.3-0.1c-0.9,0-1.7,0.2-2.4,0.5c-0.7,0.3-1.4,0.8-1.9,1.3
	c-0.5,0.6-0.9,1.3-1.2,2.1c-0.3,0.8-0.4,1.8-0.4,2.8c0,1.1,0.1,2,0.4,2.9c0.3,0.8,0.7,1.5,1.2,2.1c0.5,0.6,1.1,1,1.8,1.3
	c0.7,0.3,1.4,0.4,2.2,0.4c0.4,0,0.8,0,1.2-0.1c0.4,0,0.7-0.1,1-0.2c0.3-0.1,0.6-0.2,0.9-0.4c0.3-0.2,0.6-0.4,0.9-0.6l0.4-0.2
	L395.4,690.5z"/>
<path class="st0" d="M414.4,690.5l0.3,0.1l0.3,0.2l1.9,2c-0.8,1.1-1.9,1.9-3.2,2.5c-1.3,0.6-2.8,0.8-4.5,0.8c-1.6,0-3-0.3-4.3-0.8
	c-1.3-0.5-2.3-1.3-3.2-2.3c-0.9-1-1.6-2.1-2-3.4c-0.5-1.3-0.7-2.7-0.7-4.3c0-1.6,0.3-3,0.8-4.3c0.5-1.3,1.3-2.5,2.3-3.4
	c1-1,2.1-1.7,3.5-2.2c1.4-0.5,2.8-0.8,4.5-0.8c0.8,0,1.5,0.1,2.2,0.2c0.7,0.1,1.4,0.3,2,0.6c0.6,0.2,1.2,0.5,1.7,0.9
	c0.5,0.3,1,0.7,1.4,1.1l-1.7,2.2l-0.4,0.4c-0.1,0.1-0.3,0.2-0.6,0.2l-0.5-0.1l-0.5-0.3c-0.2-0.1-0.4-0.2-0.6-0.4
	c-0.2-0.1-0.5-0.3-0.7-0.4c-0.3-0.1-0.6-0.2-1-0.3c-0.4-0.1-0.8-0.1-1.3-0.1c-0.9,0-1.7,0.2-2.4,0.5c-0.7,0.3-1.4,0.8-1.9,1.3
	c-0.5,0.6-0.9,1.3-1.2,2.1c-0.3,0.8-0.4,1.8-0.4,2.8c0,1.1,0.1,2,0.4,2.9c0.3,0.8,0.7,1.5,1.2,2.1c0.5,0.6,1.1,1,1.8,1.3
	c0.7,0.3,1.4,0.4,2.2,0.4c0.4,0,0.8,0,1.2-0.1c0.4,0,0.7-0.1,1-0.2c0.3-0.1,0.6-0.2,0.9-0.4c0.3-0.2,0.6-0.4,0.9-0.6l0.4-0.2
	L414.4,690.5z"/>
<polygon class="st0" points="432.8,674.8 432.8,678.6 424.2,678.6 424.2,683.5 430.8,683.5 430.8,687.1 424.2,687.1 424.2,692.2 
	432.8,692.2 432.8,695.9 419.2,695.9 419.2,674.8 "/>
<path class="st0" d="M440.5,688.9v7h-4.9v-21.1h7.4c1.5,0,2.8,0.2,3.8,0.5c1.1,0.4,1.9,0.8,2.6,1.5c0.7,0.6,1.2,1.3,1.5,2.2
	c0.3,0.8,0.5,1.7,0.5,2.7c0,1.1-0.2,2-0.5,2.9c-0.3,0.9-0.9,1.6-1.5,2.3c-0.7,0.6-1.6,1.1-2.6,1.5c-1.1,0.4-2.3,0.5-3.8,0.5H440.5z
	 M440.5,685.2h2.5c1.3,0,2.2-0.3,2.8-0.9c0.6-0.6,0.8-1.5,0.8-2.5c0-0.5-0.1-0.9-0.2-1.3c-0.1-0.4-0.4-0.7-0.7-1
	c-0.3-0.3-0.7-0.5-1.1-0.7c-0.4-0.2-1-0.2-1.6-0.2h-2.5V685.2z"/>
<polygon class="st0" points="469.4,674.8 469.4,678.7 463.4,678.7 463.4,695.9 458.6,695.9 458.6,678.7 452.6,678.7 452.6,674.8 "/>
<polygon class="st0" points="485,674.8 485,678.6 476.3,678.6 476.3,683.5 483,683.5 483,687.1 476.3,687.1 476.3,692.2 485,692.2 
	485,695.9 471.4,695.9 471.4,674.8 "/>
<path class="st0" d="M506.9,685.4c0,1.5-0.3,2.9-0.8,4.2c-0.5,1.3-1.3,2.4-2.2,3.3c-1,0.9-2.1,1.7-3.5,2.2c-1.3,0.5-2.8,0.8-4.5,0.8
	h-8.2v-21.1h8.2c1.6,0,3.1,0.3,4.5,0.8c1.3,0.5,2.5,1.3,3.5,2.2c1,0.9,1.7,2,2.2,3.3C506.6,682.5,506.9,683.9,506.9,685.4z
	 M501.9,685.4c0-1-0.1-2-0.4-2.8c-0.3-0.8-0.7-1.6-1.2-2.1c-0.5-0.6-1.1-1-1.9-1.3c-0.7-0.3-1.6-0.5-2.5-0.5h-3.3v13.6h3.3
	c0.9,0,1.8-0.2,2.5-0.5c0.7-0.3,1.4-0.8,1.9-1.3c0.5-0.6,0.9-1.3,1.2-2.1C501.7,687.4,501.9,686.4,501.9,685.4z"/>
<polygon class="st0" points="260.7,675.6 260.3,675.7 260.2,676 260.2,679.2 260.3,679.5 260.7,679.6 261.1,679.5 261.2,679.2 
	261.2,676 261.1,675.7 "/>
<polygon class="st0" points="264.5,675.6 264.1,675.7 264,676 264,679.2 264.1,679.5 264.5,679.6 264.9,679.5 265,679.2 265,676 
	264.9,675.7 "/>
<path class="st0" d="M258.1,661.5c-0.3-0.9-0.6-1.7-0.8-2.6h-3.5v2.6H258.1z"/>
<path class="st0" d="M257.1,654.7h-3.3v2.6h3.3C257,656.4,257,655.6,257.1,654.7z"/>
<polygon class="st0" points="253,679.6 253.4,679.5 253.5,679.2 253.5,676 253.4,675.7 253,675.6 252.7,675.7 252.5,676 
	252.5,679.2 252.7,679.5 "/>
<polygon class="st0" points="291.3,675.6 290.9,675.7 290.8,676 290.8,679.2 290.9,679.5 291.3,679.6 291.7,679.5 291.8,679.2 
	291.8,676 291.7,675.7 "/>
<polygon class="st0" points="295.1,675.6 294.7,675.7 294.6,676 294.6,679.2 294.7,679.5 295.1,679.6 295.5,679.5 295.6,679.2 
	295.6,676 295.5,675.7 "/>
<path class="st0" d="M257.7,651.8h-1.9c-0.8,0-1.6,0.5-1.8,1.3h3.4C257.4,652.6,257.5,652.2,257.7,651.8z"/>
<polygon class="st0" points="256.9,675.6 256.5,675.7 256.3,676 256.3,679.2 256.5,679.5 256.9,679.6 257.2,679.5 257.4,679.2 
	257.4,676 257.2,675.7 "/>
<path class="st0" d="M268.4,653.1c-0.3-0.8-1-1.3-1.8-1.3H265c0.1,0.4,0.2,0.8,0.4,1.3H268.4z"/>
<polygon class="st0" points="276,679.6 276.4,679.5 276.5,679.2 276.5,676 276.4,675.7 276,675.6 275.6,675.7 275.5,676 
	275.5,679.2 275.6,679.5 "/>
<polygon class="st0" points="279.8,679.6 280.2,679.5 280.3,679.2 280.3,676 280.2,675.7 279.8,675.6 279.4,675.7 279.3,676 
	279.3,679.2 279.4,679.5 "/>
<path class="st0" d="M258.7,658c0.2,1.2,0.6,2.3,1.1,3.5h3.1c0.5-1.1,0.9-2.3,1.1-3.5c0.2-1.3,0.2-2.7,0-4c-0.2-0.9-0.4-1.7-0.6-2.2
	h-4c-0.2,0.6-0.5,1.3-0.7,2.2C258.5,655.3,258.5,656.7,258.7,658z"/>
<path class="st0" d="M255.7,664.4h10.9c0.9,0,1.6-0.6,1.8-1.4h-14.5C254.2,663.8,254.9,664.4,255.7,664.4z"/>
<polygon class="st0" points="283.6,679.6 284,679.5 284.2,679.2 284.2,676 284,675.7 283.6,675.6 283.3,675.7 283.1,676 
	283.1,679.2 283.3,679.5 "/>
<polygon class="st0" points="298.9,675.6 298.6,675.7 298.4,676 298.4,679.2 298.6,679.5 298.9,679.6 299.3,679.5 299.5,679.2 
	299.5,676 299.3,675.7 "/>
<path class="st0" d="M265.6,657.3h2.9v-2.6h-3C265.7,655.6,265.7,656.4,265.6,657.3z"/>
<path class="st0" d="M264.6,661.5h4v-2.6h-3.2C265.2,659.8,264.9,660.6,264.6,661.5z"/>
<polygon class="st0" points="272.2,679.6 272.5,679.5 272.7,679.2 272.7,676 272.5,675.7 272.2,675.6 271.8,675.7 271.6,676 
	271.6,679.2 271.8,679.5 "/>
<polygon class="st0" points="318.1,679.6 318.4,679.5 318.6,679.2 318.6,676 318.4,675.7 318.1,675.6 317.7,675.7 317.6,676 
	317.6,679.2 317.7,679.5 "/>
<polygon class="st0" points="310.4,679.6 310.8,679.5 310.9,679.2 310.9,676 310.8,675.7 310.4,675.6 310.1,675.7 309.9,676 
	309.9,679.2 310.1,679.5 "/>
<polygon class="st0" points="314.2,679.6 314.6,679.5 314.8,679.2 314.8,676 314.6,675.7 314.2,675.6 313.9,675.7 313.7,676 
	313.7,679.2 313.9,679.5 "/>
<polygon class="st0" points="321.9,679.6 322.3,679.5 322.4,679.2 322.4,676 322.3,675.7 321.9,675.6 321.5,675.7 321.4,676 
	321.4,679.2 321.5,679.5 "/>
<polygon class="st0" points="302.8,675.6 302.4,675.7 302.3,676 302.3,679.2 302.4,679.5 302.8,679.6 303.1,679.5 303.3,679.2 
	303.3,676 303.1,675.7 "/>
<path class="st0" d="M330,636.6h-79.9c-4.2,0-7.5,3.4-7.5,7.5v47.3c0,4.2,3.4,7.5,7.5,7.5H330c4.2,0,7.5-3.4,7.5-7.5v-47.3
	C337.5,640,334.1,636.6,330,636.6z M284.6,686.8c0.6,0,1.2,0.5,1.2,1.2c0,0.6-0.5,1.2-1.2,1.2h-31.9c-0.6,0-1.2-0.5-1.2-1.2
	c0-0.6,0.5-1.2,1.2-1.2H284.6z M270.6,679.2V676c0-0.2,0-0.3,0.1-0.5l0.3-0.4c0.1-0.1,0.3-0.2,0.5-0.2c0.2-0.1,0.4-0.1,0.6-0.1
	c0.2,0,0.4,0,0.6,0.1c0.2,0.1,0.4,0.1,0.5,0.2l0.3,0.4c0.1,0.1,0.1,0.3,0.1,0.5v3.2c0,0.2,0,0.4-0.1,0.5l-0.3,0.4
	c-0.1,0.1-0.3,0.2-0.5,0.2c-0.2,0.1-0.4,0.1-0.6,0.1c-0.2,0-0.4,0-0.6-0.1c-0.2-0.1-0.4-0.1-0.5-0.2l-0.3-0.4
	C270.6,679.6,270.6,679.4,270.6,679.2z M274.4,679.2V676c0-0.2,0-0.3,0.1-0.5l0.3-0.4c0.1-0.1,0.3-0.2,0.5-0.2
	c0.2-0.1,0.4-0.1,0.6-0.1c0.2,0,0.4,0,0.6,0.1c0.2,0.1,0.4,0.1,0.5,0.2l0.3,0.4c0.1,0.1,0.1,0.3,0.1,0.5v3.2c0,0.2,0,0.4-0.1,0.5
	l-0.3,0.4c-0.1,0.1-0.3,0.2-0.5,0.2c-0.2,0.1-0.4,0.1-0.6,0.1c-0.2,0-0.4,0-0.6-0.1c-0.2-0.1-0.4-0.1-0.5-0.2l-0.3-0.4
	C274.5,679.6,274.4,679.4,274.4,679.2z M278.2,679.2V676c0-0.2,0-0.3,0.1-0.5l0.3-0.4c0.1-0.1,0.3-0.2,0.5-0.2
	c0.2-0.1,0.4-0.1,0.6-0.1c0.2,0,0.4,0,0.6,0.1c0.2,0.1,0.4,0.1,0.5,0.2l0.3,0.4c0.1,0.1,0.1,0.3,0.1,0.5v3.2c0,0.2,0,0.4-0.1,0.5
	l-0.3,0.4c-0.1,0.1-0.3,0.2-0.5,0.2c-0.2,0.1-0.4,0.1-0.6,0.1c-0.2,0-0.4,0-0.6-0.1c-0.2-0.1-0.4-0.1-0.5-0.2l-0.3-0.4
	C278.3,679.6,278.2,679.4,278.2,679.2z M282.1,679.2V676c0-0.2,0-0.3,0.1-0.5l0.3-0.4c0.1-0.1,0.3-0.2,0.5-0.2
	c0.2-0.1,0.4-0.1,0.6-0.1c0.2,0,0.4,0,0.6,0.1c0.2,0.1,0.4,0.1,0.5,0.2l0.3,0.4c0.1,0.1,0.1,0.3,0.1,0.5v3.2c0,0.2,0,0.4-0.1,0.5
	l-0.3,0.4c-0.1,0.1-0.3,0.2-0.5,0.2c-0.2,0.1-0.4,0.1-0.6,0.1c-0.2,0-0.4,0-0.6-0.1c-0.2-0.1-0.4-0.1-0.5-0.2l-0.3-0.4
	C282.1,679.6,282.1,679.4,282.1,679.2z M255.3,679.2V676c0-0.2,0-0.3,0.1-0.5l0.3-0.4c0.1-0.1,0.3-0.2,0.5-0.2
	c0.2-0.1,0.4-0.1,0.6-0.1c0.2,0,0.4,0,0.6,0.1c0.2,0.1,0.4,0.1,0.5,0.2l0.3,0.4c0.1,0.1,0.1,0.3,0.1,0.5v3.2c0,0.2,0,0.4-0.1,0.5
	l-0.3,0.4c-0.1,0.1-0.3,0.2-0.5,0.2c-0.2,0.1-0.4,0.1-0.6,0.1c-0.2,0-0.4,0-0.6-0.1c-0.2-0.1-0.4-0.1-0.5-0.2l-0.3-0.4
	C255.3,679.6,255.3,679.4,255.3,679.2z M259.1,679.2V676c0-0.2,0-0.3,0.1-0.5l0.3-0.4c0.1-0.1,0.3-0.2,0.5-0.2
	c0.2-0.1,0.4-0.1,0.6-0.1c0.2,0,0.4,0,0.6,0.1c0.2,0.1,0.4,0.1,0.5,0.2l0.3,0.4c0.1,0.1,0.1,0.3,0.1,0.5v3.2c0,0.2,0,0.4-0.1,0.5
	l-0.3,0.4c-0.1,0.1-0.3,0.2-0.5,0.2c-0.2,0.1-0.4,0.1-0.6,0.1c-0.2,0-0.4,0-0.6-0.1c-0.2-0.1-0.4-0.1-0.5-0.2l-0.3-0.4
	C259.2,679.6,259.1,679.4,259.1,679.2z M262.9,679.2V676c0-0.2,0-0.3,0.1-0.5l0.3-0.4c0.1-0.1,0.3-0.2,0.5-0.2
	c0.2-0.1,0.4-0.1,0.6-0.1c0.2,0,0.4,0,0.6,0.1c0.2,0.1,0.4,0.1,0.5,0.2l0.3,0.4c0.1,0.1,0.1,0.3,0.1,0.5v3.2c0,0.2,0,0.4-0.1,0.5
	l-0.3,0.4c-0.1,0.1-0.3,0.2-0.5,0.2c-0.2,0.1-0.4,0.1-0.6,0.1c-0.2,0-0.4,0-0.6-0.1c-0.2-0.1-0.4-0.1-0.5-0.2l-0.3-0.4
	C263,679.6,262.9,679.4,262.9,679.2z M270.1,662.5c0,1.9-1.6,3.5-3.5,3.5h-10.9c-1.9,0-3.5-1.6-3.5-3.5v-8.7c0-1.9,1.6-3.5,3.5-3.5
	h10.9c1.9,0,3.5,1.6,3.5,3.5V662.5z M252.4,674.9c0.2-0.1,0.4-0.1,0.6-0.1c0.2,0,0.4,0,0.6,0.1c0.2,0.1,0.4,0.1,0.5,0.2l0.3,0.4
	c0.1,0.1,0.1,0.3,0.1,0.5v3.2c0,0.2,0,0.4-0.1,0.5l-0.3,0.4c-0.1,0.1-0.3,0.2-0.5,0.2c-0.2,0.1-0.4,0.1-0.6,0.1
	c-0.2,0-0.4,0-0.6-0.1c-0.2-0.1-0.4-0.1-0.5-0.2l-0.3-0.4c-0.1-0.1-0.1-0.3-0.1-0.5V676c0-0.2,0-0.3,0.1-0.5l0.3-0.4
	C252.1,675,252.2,674.9,252.4,674.9z M289.7,679.2V676c0-0.2,0-0.3,0.1-0.5l0.3-0.4c0.1-0.1,0.3-0.2,0.5-0.2
	c0.2-0.1,0.4-0.1,0.6-0.1c0.2,0,0.4,0,0.6,0.1c0.2,0.1,0.4,0.1,0.5,0.2l0.3,0.4c0.1,0.1,0.1,0.3,0.1,0.5v3.2c0,0.2,0,0.4-0.1,0.5
	l-0.3,0.4c-0.1,0.1-0.3,0.2-0.5,0.2c-0.2,0.1-0.4,0.1-0.6,0.1c-0.2,0-0.4,0-0.6-0.1c-0.2-0.1-0.4-0.1-0.5-0.2l-0.3-0.4
	C289.8,679.6,289.7,679.4,289.7,679.2z M293.6,679.2V676c0-0.2,0-0.3,0.1-0.5l0.3-0.4c0.1-0.1,0.3-0.2,0.5-0.2
	c0.2-0.1,0.4-0.1,0.6-0.1c0.2,0,0.4,0,0.6,0.1c0.2,0.1,0.4,0.1,0.5,0.2l0.3,0.4c0.1,0.1,0.1,0.3,0.1,0.5v3.2c0,0.2,0,0.4-0.1,0.5
	l-0.3,0.4c-0.1,0.1-0.3,0.2-0.5,0.2c-0.2,0.1-0.4,0.1-0.6,0.1c-0.2,0-0.4,0-0.6-0.1c-0.2-0.1-0.4-0.1-0.5-0.2l-0.3-0.4
	C293.6,679.6,293.6,679.4,293.6,679.2z M297.4,679.2V676c0-0.2,0-0.3,0.1-0.5l0.3-0.4c0.1-0.1,0.3-0.2,0.5-0.2
	c0.2-0.1,0.4-0.1,0.6-0.1c0.2,0,0.4,0,0.6,0.1c0.2,0.1,0.4,0.1,0.5,0.2l0.3,0.4c0.1,0.1,0.1,0.3,0.1,0.5v3.2c0,0.2,0,0.4-0.1,0.5
	l-0.3,0.4c-0.1,0.1-0.3,0.2-0.5,0.2c-0.2,0.1-0.4,0.1-0.6,0.1c-0.2,0-0.4,0-0.6-0.1c-0.2-0.1-0.4-0.1-0.5-0.2l-0.3-0.4
	C297.4,679.6,297.4,679.4,297.4,679.2z M301.2,679.2V676c0-0.2,0-0.3,0.1-0.5l0.3-0.4c0.1-0.1,0.3-0.2,0.5-0.2
	c0.2-0.1,0.4-0.1,0.6-0.1c0.2,0,0.4,0,0.6,0.1c0.2,0.1,0.4,0.1,0.5,0.2l0.3,0.4c0.1,0.1,0.1,0.3,0.1,0.5v3.2c0,0.2,0,0.4-0.1,0.5
	l-0.3,0.4c-0.1,0.1-0.3,0.2-0.5,0.2c-0.2,0.1-0.4,0.1-0.6,0.1c-0.2,0-0.4,0-0.6-0.1c-0.2-0.1-0.4-0.1-0.5-0.2l-0.3-0.4
	C301.3,679.6,301.2,679.4,301.2,679.2z M308.9,679.2V676c0-0.2,0-0.3,0.1-0.5l0.3-0.4c0.1-0.1,0.3-0.2,0.5-0.2
	c0.2-0.1,0.4-0.1,0.6-0.1c0.2,0,0.4,0,0.6,0.1c0.2,0.1,0.4,0.1,0.5,0.2l0.3,0.4c0.1,0.1,0.1,0.3,0.1,0.5v3.2c0,0.2,0,0.4-0.1,0.5
	l-0.3,0.4c-0.1,0.1-0.3,0.2-0.5,0.2c-0.2,0.1-0.4,0.1-0.6,0.1c-0.2,0-0.4,0-0.6-0.1c-0.2-0.1-0.4-0.1-0.5-0.2l-0.3-0.4
	C308.9,679.6,308.9,679.4,308.9,679.2z M323.5,679.2c0,0.2,0,0.4-0.1,0.5l-0.3,0.4c-0.1,0.1-0.3,0.2-0.5,0.2
	c-0.2,0.1-0.4,0.1-0.6,0.1c-0.2,0-0.4,0-0.6-0.1c-0.2-0.1-0.4-0.1-0.5-0.2l-0.3-0.4c-0.1-0.1-0.1-0.3-0.1-0.5V676
	c0-0.2,0-0.3,0.1-0.5l0.3-0.4c0.1-0.1,0.3-0.2,0.5-0.2c0.2-0.1,0.4-0.1,0.6-0.1c0.2,0,0.4,0,0.6,0.1c0.2,0.1,0.4,0.1,0.5,0.2
	l0.3,0.4c0.1,0.1,0.1,0.3,0.1,0.5V679.2z M319.6,679.2c0,0.2,0,0.4-0.1,0.5l-0.3,0.4c-0.1,0.1-0.3,0.2-0.5,0.2
	c-0.2,0.1-0.4,0.1-0.6,0.1c-0.2,0-0.4,0-0.6-0.1c-0.2-0.1-0.4-0.1-0.5-0.2l-0.3-0.4c-0.1-0.1-0.1-0.3-0.1-0.5V676
	c0-0.2,0-0.3,0.1-0.5l0.3-0.4c0.1-0.1,0.3-0.2,0.5-0.2c0.2-0.1,0.4-0.1,0.6-0.1c0.2,0,0.4,0,0.6,0.1c0.2,0.1,0.4,0.1,0.5,0.2
	l0.3,0.4c0.1,0.1,0.1,0.3,0.1,0.5V679.2z M315.8,679.2c0,0.2,0,0.4-0.1,0.5l-0.3,0.4c-0.1,0.1-0.3,0.2-0.5,0.2
	c-0.2,0.1-0.4,0.1-0.6,0.1c-0.2,0-0.4,0-0.6-0.1c-0.2-0.1-0.4-0.1-0.5-0.2l-0.3-0.4c-0.1-0.1-0.1-0.3-0.1-0.5V676
	c0-0.2,0-0.3,0.1-0.5l0.3-0.4c0.1-0.1,0.3-0.2,0.5-0.2c0.2-0.1,0.4-0.1,0.6-0.1c0.2,0,0.4,0,0.6,0.1c0.2,0.1,0.4,0.1,0.5,0.2
	l0.3,0.4c0.1,0.1,0.1,0.3,0.1,0.5V679.2z M325.9,649.8h-28.7c-0.6,0-1.2-0.5-1.2-1.2c0-0.6,0.5-1.2,1.2-1.2h28.7
	c0.6,0,1.2,0.5,1.2,1.2C327.1,649.2,326.6,649.8,325.9,649.8z"/>
</svg>
