<?xml version="1.0" encoding="UTF-8"?>
<svg width="265px" height="63px" viewBox="0 0 265 63" version="1.1" xmlns="http://www.w3.org/2000/svg" xmlns:xlink="http://www.w3.org/1999/xlink">
    <!-- Generator: Sketch 43.2 (39069) - http://www.bohemiancoding.com/sketch -->
    <title>cardaccepted</title>
    <desc>Created with Sketch.</desc>
    <defs></defs>
    <g id="Page-1" stroke="none" stroke-width="1" fill="none" fill-rule="evenodd">
        <g id="cardaccepted" fill-rule="nonzero" fill="#F8F7FA">
            <path d="M132.9,19.3 L133.2,19.4 L133.5,19.6 L135.4,21.6 C134.6,22.7 133.5,23.5 132.2,24.1 C130.9,24.7 129.4,24.9 127.7,24.9 C126.1,24.9 124.7,24.6 123.4,24.1 C122.1,23.6 121.1,22.8 120.2,21.8 C119.3,20.8 118.6,19.7 118.2,18.4 C117.7,17.1 117.5,15.7 117.5,14.1 C117.5,12.5 117.8,11.1 118.3,9.8 C118.8,8.5 119.6,7.3 120.6,6.4 C121.6,5.4 122.7,4.7 124.1,4.2 C125.5,3.7 126.9,3.4 128.6,3.4 C129.4,3.4 130.1,3.5 130.8,3.6 C131.5,3.7 132.2,3.9 132.8,4.2 C133.4,4.4 134,4.7 134.5,5.1 C135,5.4 135.5,5.8 135.9,6.2 L134.2,8.4 L133.8,8.8 C133.7,8.9 133.5,9 133.2,9 L132.7,8.9 L132.2,8.6 C132,8.5 131.8,8.4 131.6,8.2 C131.4,8.1 131.1,7.9 130.9,7.8 C130.6,7.7 130.3,7.6 129.9,7.5 C129.5,7.4 129.1,7.4 128.6,7.4 C127.7,7.4 126.9,7.6 126.2,7.9 C125.5,8.2 124.8,8.7 124.3,9.2 C123.8,9.8 123.4,10.5 123.1,11.3 C122.8,12.1 122.7,13.1 122.7,14.1 C122.7,15.2 122.8,16.1 123.1,17 C123.4,17.8 123.8,18.5 124.3,19.1 C124.8,19.7 125.4,20.1 126.1,20.4 C126.8,20.7 127.5,20.8 128.3,20.8 C128.7,20.8 129.1,20.8 129.5,20.7 C129.9,20.7 130.2,20.6 130.5,20.5 C130.8,20.4 131.1,20.3 131.4,20.1 C131.7,19.9 132,19.7 132.3,19.5 L132.7,19.3 L132.9,19.3 Z" id="Shape"></path>
            <path d="M157.4,24.8 L153.6,24.8 C153.2,24.8 152.8,24.7 152.6,24.5 C152.3,24.3 152.1,24 152,23.7 L150.8,20 L142.8,20 L141.6,23.7 C141.5,24 141.3,24.2 141,24.4 C140.7,24.6 140.4,24.7 140,24.7 L136.2,24.7 L144.4,3.6 L149.4,3.6 L157.4,24.8 Z M143.8,16.7 L149.6,16.7 L147.7,10.9 C147.6,10.5 147.4,10.1 147.3,9.6 C147.1,9.1 147,8.6 146.8,8 C146.6,8.6 146.5,9.1 146.3,9.6 C146.1,10.1 146,10.5 145.8,10.9 L143.8,16.7 Z" id="Shape"></path>
            <path d="M164,17 L164,24.8 L159.1,24.8 L159.1,3.7 L166,3.7 C167.5,3.7 168.8,3.9 169.9,4.2 C171,4.5 171.9,5 172.5,5.5 C173.2,6.1 173.7,6.7 174,7.5 C174.3,8.3 174.5,9.1 174.5,10 C174.5,10.7 174.4,11.3 174.2,11.9 C174,12.5 173.7,13.1 173.4,13.6 C173,14.1 172.6,14.6 172.1,15 C171.6,15.4 171,15.7 170.3,16 C170.6,16.2 170.9,16.4 171.2,16.6 C171.5,16.8 171.7,17.1 171.9,17.5 L176.4,24.8 L172,24.8 C171.2,24.8 170.6,24.5 170.2,23.9 L166.7,17.8 C166.5,17.5 166.4,17.3 166.2,17.2 C166,17.1 165.7,17 165.3,17 L164,17 L164,17 Z M164,13.6 L166,13.6 C166.7,13.6 167.2,13.5 167.7,13.3 C168.2,13.1 168.6,12.9 168.8,12.6 C169.1,12.3 169.3,12 169.5,11.6 C169.6,11.2 169.7,10.8 169.7,10.3 C169.7,9.4 169.4,8.6 168.8,8.1 C168.2,7.6 167.3,7.3 166,7.3 L164,7.3 L164,13.6 Z" id="Shape"></path>
            <path d="M197.5,14.2 C197.5,15.7 197.2,17.1 196.7,18.4 C196.2,19.7 195.4,20.8 194.5,21.7 C193.5,22.6 192.4,23.4 191,23.9 C189.7,24.4 188.2,24.7 186.5,24.7 L178.3,24.7 L178.3,3.6 L186.5,3.6 C188.1,3.6 189.6,3.9 191,4.4 C192.3,4.9 193.5,5.7 194.5,6.6 C195.5,7.5 196.2,8.6 196.7,9.9 C197.2,11.3 197.5,12.7 197.5,14.2 Z M192.5,14.2 C192.5,13.2 192.4,12.2 192.1,11.4 C191.8,10.6 191.4,9.8 190.9,9.3 C190.4,8.7 189.8,8.3 189,8 C188.3,7.7 187.4,7.5 186.5,7.5 L183.2,7.5 L183.2,21 L186.5,21 C187.4,21 188.3,20.8 189,20.5 C189.7,20.2 190.4,19.7 190.9,19.2 C191.4,18.6 191.8,17.9 192.1,17.1 C192.3,16.2 192.5,15.3 192.5,14.2 Z" id="Shape"></path>
            <path d="M138.4,59.9 L134.6,59.9 C134.2,59.9 133.8,59.8 133.6,59.6 C133.3,59.4 133.1,59.1 133,58.8 L131.8,55.1 L123.8,55.1 L122.6,58.8 C122.5,59.1 122.3,59.3 122,59.5 C121.7,59.7 121.4,59.8 121,59.8 L117,59.8 L125.2,38.7 L130.2,38.7 L138.4,59.9 Z M124.8,51.9 L130.6,51.9 L128.7,46.1 C128.6,45.7 128.4,45.3 128.3,44.8 C128.1,44.3 128,43.8 127.8,43.2 C127.6,43.8 127.5,44.3 127.3,44.8 C127.1,45.3 127,45.7 126.8,46.1 L124.8,51.9 Z" id="Shape"></path>
            <path d="M153.4,54.5 L153.7,54.6 L154,54.8 L155.9,56.8 C155.1,57.9 154,58.7 152.7,59.3 C151.4,59.9 149.9,60.1 148.2,60.1 C146.6,60.1 145.2,59.8 143.9,59.3 C142.6,58.8 141.6,58 140.7,57 C139.8,56 139.1,54.9 138.7,53.6 C138.2,52.3 138,50.9 138,49.3 C138,47.7 138.3,46.3 138.8,45 C139.3,43.7 140.1,42.5 141.1,41.6 C142.1,40.6 143.2,39.9 144.6,39.4 C145.9,38.9 147.4,38.6 149.1,38.6 C149.9,38.6 150.6,38.7 151.3,38.8 C152,38.9 152.7,39.1 153.3,39.4 C153.9,39.6 154.5,39.9 155,40.3 C155.5,40.6 156,41 156.4,41.4 L154.7,43.6 L154.3,44 C154.2,44.1 154,44.2 153.7,44.2 L153.2,44.1 L152.7,43.8 C152.5,43.7 152.3,43.6 152.1,43.4 C151.9,43.3 151.6,43.1 151.4,43 C151.1,42.9 150.8,42.8 150.4,42.7 C150,42.6 149.6,42.6 149.1,42.6 C148.2,42.6 147.4,42.8 146.7,43.1 C146,43.4 145.3,43.9 144.8,44.4 C144.3,45 143.9,45.7 143.6,46.5 C143.3,47.3 143.2,48.3 143.2,49.3 C143.2,50.4 143.3,51.3 143.6,52.2 C143.9,53 144.3,53.7 144.8,54.3 C145.3,54.9 145.9,55.3 146.6,55.6 C147.3,55.9 148,56 148.8,56 C149.2,56 149.6,56 150,55.9 C150.4,55.9 150.7,55.8 151,55.7 C151.3,55.6 151.6,55.5 151.9,55.3 C152.2,55.1 152.5,54.9 152.8,54.7 L153.2,54.5 L153.4,54.5 Z" id="Shape"></path>
            <path d="M172.4,54.5 L172.7,54.6 L173,54.8 L174.9,56.8 C174.1,57.9 173,58.7 171.7,59.3 C170.4,59.9 168.9,60.1 167.2,60.1 C165.6,60.1 164.2,59.8 162.9,59.3 C161.6,58.8 160.6,58 159.7,57 C158.8,56 158.1,54.9 157.7,53.6 C157.2,52.3 157,50.9 157,49.3 C157,47.7 157.3,46.3 157.8,45 C158.3,43.7 159.1,42.5 160.1,41.6 C161.1,40.6 162.2,39.9 163.6,39.4 C165,38.9 166.4,38.6 168.1,38.6 C168.9,38.6 169.6,38.7 170.3,38.8 C171,38.9 171.7,39.1 172.3,39.4 C172.9,39.6 173.5,39.9 174,40.3 C174.5,40.6 175,41 175.4,41.4 L173.7,43.6 L173.3,44 C173.2,44.1 173,44.2 172.7,44.2 L172.2,44.1 L171.7,43.8 C171.5,43.7 171.3,43.6 171.1,43.4 C170.9,43.3 170.6,43.1 170.4,43 C170.1,42.9 169.8,42.8 169.4,42.7 C169,42.6 168.6,42.6 168.1,42.6 C167.2,42.6 166.4,42.8 165.7,43.1 C165,43.4 164.3,43.9 163.8,44.4 C163.3,45 162.9,45.7 162.6,46.5 C162.3,47.3 162.2,48.3 162.2,49.3 C162.2,50.4 162.3,51.3 162.6,52.2 C162.9,53 163.3,53.7 163.8,54.3 C164.3,54.9 164.9,55.3 165.6,55.6 C166.3,55.9 167,56 167.8,56 C168.2,56 168.6,56 169,55.9 C169.4,55.9 169.7,55.8 170,55.7 C170.3,55.6 170.6,55.5 170.9,55.3 C171.2,55.1 171.5,54.9 171.8,54.7 L172.2,54.5 L172.4,54.5 Z" id="Shape"></path>
            <polygon id="Shape" points="190.8 38.8 190.8 42.6 182.2 42.6 182.2 47.5 188.8 47.5 188.8 51.1 182.2 51.1 182.2 56.2 190.8 56.2 190.8 59.9 177.2 59.9 177.2 38.8"></polygon>
            <path d="M198.5,52.9 L198.5,59.9 L193.6,59.9 L193.6,38.8 L201,38.8 C202.5,38.8 203.8,39 204.8,39.3 C205.9,39.7 206.7,40.1 207.4,40.8 C208.1,41.4 208.6,42.1 208.9,43 C209.2,43.8 209.4,44.7 209.4,45.7 C209.4,46.8 209.2,47.7 208.9,48.6 C208.6,49.5 208,50.2 207.4,50.9 C206.7,51.5 205.8,52 204.8,52.4 C203.7,52.8 202.5,52.9 201,52.9 L198.5,52.9 Z M198.5,49.2 L201,49.2 C202.3,49.2 203.2,48.9 203.8,48.3 C204.4,47.7 204.6,46.8 204.6,45.8 C204.6,45.3 204.5,44.9 204.4,44.5 C204.3,44.1 204,43.8 203.7,43.5 C203.4,43.2 203,43 202.6,42.8 C202.2,42.6 201.6,42.6 201,42.6 L198.5,42.6 L198.5,49.2 Z" id="Shape"></path>
            <polygon id="Shape" points="227.4 38.8 227.4 42.7 221.4 42.7 221.4 59.9 216.6 59.9 216.6 42.7 210.6 42.7 210.6 38.8"></polygon>
            <polygon id="Shape" points="243 38.8 243 42.6 234.3 42.6 234.3 47.5 241 47.5 241 51.1 234.3 51.1 234.3 56.2 243 56.2 243 59.9 229.4 59.9 229.4 38.8"></polygon>
            <path d="M264.9,49.4 C264.9,50.9 264.6,52.3 264.1,53.6 C263.6,54.9 262.8,56 261.9,56.9 C260.9,57.8 259.8,58.6 258.4,59.1 C257.1,59.6 255.6,59.9 253.9,59.9 L245.7,59.9 L245.7,38.8 L253.9,38.8 C255.5,38.8 257,39.1 258.4,39.6 C259.7,40.1 260.9,40.9 261.9,41.8 C262.9,42.7 263.6,43.8 264.1,45.1 C264.6,46.5 264.9,47.9 264.9,49.4 Z M259.9,49.4 C259.9,48.4 259.8,47.4 259.5,46.6 C259.2,45.8 258.8,45 258.3,44.5 C257.8,43.9 257.2,43.5 256.4,43.2 C255.7,42.9 254.8,42.7 253.9,42.7 L250.6,42.7 L250.6,56.3 L253.9,56.3 C254.8,56.3 255.7,56.1 256.4,55.8 C257.1,55.5 257.8,55 258.3,54.5 C258.8,53.9 259.2,53.2 259.5,52.4 C259.7,51.4 259.9,50.4 259.9,49.4 Z" id="Shape"></path>
            <polygon id="Shape" points="18.7 39.6 18.3 39.7 18.2 40 18.2 43.2 18.3 43.5 18.7 43.6 19.1 43.5 19.2 43.2 19.2 40 19.1 39.7"></polygon>
            <polygon id="Shape" points="22.5 39.6 22.1 39.7 22 40 22 43.2 22.1 43.5 22.5 43.6 22.9 43.5 23 43.2 23 40 22.9 39.7"></polygon>
            <path d="M16.1,25.5 C15.8,24.6 15.5,23.8 15.3,22.9 L11.8,22.9 L11.8,25.5 L16.1,25.5 Z" id="Shape"></path>
            <path d="M15.1,18.7 L11.8,18.7 L11.8,21.3 L15.1,21.3 C15,20.4 15,19.6 15.1,18.7 Z" id="Shape"></path>
            <polygon id="Shape" points="11 43.6 11.4 43.5 11.5 43.2 11.5 40 11.4 39.7 11 39.6 10.7 39.7 10.5 40 10.5 43.2 10.7 43.5"></polygon>
            <polygon id="Shape" points="49.3 39.6 48.9 39.7 48.8 40 48.8 43.2 48.9 43.5 49.3 43.6 49.7 43.5 49.8 43.2 49.8 40 49.7 39.7"></polygon>
            <polygon id="Shape" points="53.1 39.6 52.7 39.7 52.6 40 52.6 43.2 52.7 43.5 53.1 43.6 53.5 43.5 53.6 43.2 53.6 40 53.5 39.7"></polygon>
            <path d="M15.7,15.8 L13.8,15.8 C13,15.8 12.2,16.3 12,17.1 L15.4,17.1 C15.4,16.6 15.5,16.2 15.7,15.8 Z" id="Shape"></path>
            <polygon id="Shape" points="14.9 39.6 14.5 39.7 14.3 40 14.3 43.2 14.5 43.5 14.9 43.6 15.2 43.5 15.4 43.2 15.4 40 15.2 39.7"></polygon>
            <path d="M26.4,17.1 C26.1,16.3 25.4,15.8 24.6,15.8 L23,15.8 C23.1,16.2 23.2,16.6 23.4,17.1 L26.4,17.1 Z" id="Shape"></path>
            <polygon id="Shape" points="34 43.6 34.4 43.5 34.5 43.2 34.5 40 34.4 39.7 34 39.6 33.6 39.7 33.5 40 33.5 43.2 33.6 43.5"></polygon>
            <polygon id="Shape" points="37.8 43.6 38.2 43.5 38.3 43.2 38.3 40 38.2 39.7 37.8 39.6 37.4 39.7 37.3 40 37.3 43.2 37.4 43.5"></polygon>
            <path d="M16.7,22 C16.9,23.2 17.3,24.3 17.8,25.5 L20.9,25.5 C21.4,24.4 21.8,23.2 22,22 C22.2,20.7 22.2,19.3 22,18 C21.8,17.1 21.6,16.3 21.4,15.8 L17.4,15.8 C17.2,16.4 16.9,17.1 16.7,18 C16.5,19.3 16.5,20.7 16.7,22 Z" id="Shape"></path>
            <path d="M13.7,28.4 L24.6,28.4 C25.5,28.4 26.2,27.8 26.4,27 L11.9,27 C12.2,27.8 12.9,28.4 13.7,28.4 Z" id="Shape"></path>
            <polygon id="Shape" points="41.6 43.6 42 43.5 42.2 43.2 42.2 40 42 39.7 41.6 39.6 41.3 39.7 41.1 40 41.1 43.2 41.3 43.5"></polygon>
            <polygon id="Shape" points="56.9 39.6 56.6 39.7 56.4 40 56.4 43.2 56.6 43.5 56.9 43.6 57.3 43.5 57.5 43.2 57.5 40 57.3 39.7"></polygon>
            <path d="M23.6,21.3 L26.5,21.3 L26.5,18.7 L23.5,18.7 C23.7,19.6 23.7,20.4 23.6,21.3 Z" id="Shape"></path>
            <path d="M22.6,25.5 L26.6,25.5 L26.6,22.9 L23.4,22.9 C23.2,23.8 22.9,24.6 22.6,25.5 Z" id="Shape"></path>
            <polygon id="Shape" points="30.2 43.6 30.5 43.5 30.7 43.2 30.7 40 30.5 39.7 30.2 39.6 29.8 39.7 29.6 40 29.6 43.2 29.8 43.5"></polygon>
            <polygon id="Shape" points="76.1 43.6 76.4 43.5 76.6 43.2 76.6 40 76.4 39.7 76.1 39.6 75.7 39.7 75.6 40 75.6 43.2 75.7 43.5"></polygon>
            <polygon id="Shape" points="68.4 43.6 68.8 43.5 68.9 43.2 68.9 40 68.8 39.7 68.4 39.6 68.1 39.7 67.9 40 67.9 43.2 68.1 43.5"></polygon>
            <polygon id="Shape" points="72.2 43.6 72.6 43.5 72.8 43.2 72.8 40 72.6 39.7 72.2 39.6 71.9 39.7 71.7 40 71.7 43.2 71.9 43.5"></polygon>
            <polygon id="Shape" points="79.9 43.6 80.3 43.5 80.4 43.2 80.4 40 80.3 39.7 79.9 39.6 79.5 39.7 79.4 40 79.4 43.2 79.5 43.5"></polygon>
            <polygon id="Shape" points="60.8 39.6 60.4 39.7 60.3 40 60.3 43.2 60.4 43.5 60.8 43.6 61.1 43.5 61.3 43.2 61.3 40 61.1 39.7"></polygon>
            <path d="M88,0.6 L8.1,0.6 C3.9,0.6 0.6,4 0.6,8.1 L0.6,55.4 C0.6,59.6 4,62.9 8.1,62.9 L88,62.9 C92.2,62.9 95.5,59.5 95.5,55.4 L95.5,8.1 C95.5,4 92.1,0.6 88,0.6 Z M42.6,50.8 C43.2,50.8 43.8,51.3 43.8,52 C43.8,52.6 43.3,53.2 42.6,53.2 L10.7,53.2 C10.1,53.2 9.5,52.7 9.5,52 C9.5,51.4 10,50.8 10.7,50.8 L42.6,50.8 Z M28.6,43.2 L28.6,40 C28.6,39.8 28.6,39.7 28.7,39.5 L29,39.1 C29.1,39 29.3,38.9 29.5,38.9 C29.7,38.8 29.9,38.8 30.1,38.8 C30.3,38.8 30.5,38.8 30.7,38.9 C30.9,39 31.1,39 31.2,39.1 L31.5,39.5 C31.6,39.6 31.6,39.8 31.6,40 L31.6,43.2 C31.6,43.4 31.6,43.6 31.5,43.7 L31.2,44.1 C31.1,44.2 30.9,44.3 30.7,44.3 C30.5,44.4 30.3,44.4 30.1,44.4 C29.9,44.4 29.7,44.4 29.5,44.3 C29.3,44.2 29.1,44.2 29,44.1 L28.7,43.7 C28.6,43.6 28.6,43.4 28.6,43.2 Z M32.4,43.2 L32.4,40 C32.4,39.8 32.4,39.7 32.5,39.5 L32.8,39.1 C32.9,39 33.1,38.9 33.3,38.9 C33.5,38.8 33.7,38.8 33.9,38.8 C34.1,38.8 34.3,38.8 34.5,38.9 C34.7,39 34.9,39 35,39.1 L35.3,39.5 C35.4,39.6 35.4,39.8 35.4,40 L35.4,43.2 C35.4,43.4 35.4,43.6 35.3,43.7 L35,44.1 C34.9,44.2 34.7,44.3 34.5,44.3 C34.3,44.4 34.1,44.4 33.9,44.4 C33.7,44.4 33.5,44.4 33.3,44.3 C33.1,44.2 32.9,44.2 32.8,44.1 L32.5,43.7 C32.5,43.6 32.4,43.4 32.4,43.2 Z M36.2,43.2 L36.2,40 C36.2,39.8 36.2,39.7 36.3,39.5 L36.6,39.1 C36.7,39 36.9,38.9 37.1,38.9 C37.3,38.8 37.5,38.8 37.7,38.8 C37.9,38.8 38.1,38.8 38.3,38.9 C38.5,39 38.7,39 38.8,39.1 L39.1,39.5 C39.2,39.6 39.2,39.8 39.2,40 L39.2,43.2 C39.2,43.4 39.2,43.6 39.1,43.7 L38.8,44.1 C38.7,44.2 38.5,44.3 38.3,44.3 C38.1,44.4 37.9,44.4 37.7,44.4 C37.5,44.4 37.3,44.4 37.1,44.3 C36.9,44.2 36.7,44.2 36.6,44.1 L36.3,43.7 C36.3,43.6 36.2,43.4 36.2,43.2 Z M40.1,43.2 L40.1,40 C40.1,39.8 40.1,39.7 40.2,39.5 L40.5,39.1 C40.6,39 40.8,38.9 41,38.9 C41.2,38.8 41.4,38.8 41.6,38.8 C41.8,38.8 42,38.8 42.2,38.9 C42.4,39 42.6,39 42.7,39.1 L43,39.5 C43.1,39.6 43.1,39.8 43.1,40 L43.1,43.2 C43.1,43.4 43.1,43.6 43,43.7 L42.7,44.1 C42.6,44.2 42.4,44.3 42.2,44.3 C42,44.4 41.8,44.4 41.6,44.4 C41.4,44.4 41.2,44.4 41,44.3 C40.8,44.2 40.6,44.2 40.5,44.1 L40.2,43.7 C40.1,43.6 40.1,43.4 40.1,43.2 Z M13.3,43.2 L13.3,40 C13.3,39.8 13.3,39.7 13.4,39.5 L13.7,39.1 C13.8,39 14,38.9 14.2,38.9 C14.4,38.8 14.6,38.8 14.8,38.8 C15,38.8 15.2,38.8 15.4,38.9 C15.6,39 15.8,39 15.9,39.1 L16.2,39.5 C16.3,39.6 16.3,39.8 16.3,40 L16.3,43.2 C16.3,43.4 16.3,43.6 16.2,43.7 L15.9,44.1 C15.8,44.2 15.6,44.3 15.4,44.3 C15.2,44.4 15,44.4 14.8,44.4 C14.6,44.4 14.4,44.4 14.2,44.3 C14,44.2 13.8,44.2 13.7,44.1 L13.4,43.7 C13.3,43.6 13.3,43.4 13.3,43.2 Z M17.1,43.2 L17.1,40 C17.1,39.8 17.1,39.7 17.2,39.5 L17.5,39.1 C17.6,39 17.8,38.9 18,38.9 C18.2,38.8 18.4,38.8 18.6,38.8 C18.8,38.8 19,38.8 19.2,38.9 C19.4,39 19.6,39 19.7,39.1 L20,39.5 C20.1,39.6 20.1,39.8 20.1,40 L20.1,43.2 C20.1,43.4 20.1,43.6 20,43.7 L19.7,44.1 C19.6,44.2 19.4,44.3 19.2,44.3 C19,44.4 18.8,44.4 18.6,44.4 C18.4,44.4 18.2,44.4 18,44.3 C17.8,44.2 17.6,44.2 17.5,44.1 L17.2,43.7 C17.2,43.6 17.1,43.4 17.1,43.2 Z M20.9,43.2 L20.9,40 C20.9,39.8 20.9,39.7 21,39.5 L21.3,39.1 C21.4,39 21.6,38.9 21.8,38.9 C22,38.8 22.2,38.8 22.4,38.8 C22.6,38.8 22.8,38.8 23,38.9 C23.2,39 23.4,39 23.5,39.1 L23.8,39.5 C23.9,39.6 23.9,39.8 23.9,40 L23.9,43.2 C23.9,43.4 23.9,43.6 23.8,43.7 L23.5,44.1 C23.4,44.2 23.2,44.3 23,44.3 C22.8,44.4 22.6,44.4 22.4,44.4 C22.2,44.4 22,44.4 21.8,44.3 C21.6,44.2 21.4,44.2 21.3,44.1 L21,43.7 C21,43.6 20.9,43.4 20.9,43.2 Z M28.1,26.5 C28.1,28.4 26.5,30 24.6,30 L13.7,30 C11.8,30 10.2,28.4 10.2,26.5 L10.2,17.8 C10.2,15.9 11.8,14.3 13.7,14.3 L24.6,14.3 C26.5,14.3 28.1,15.9 28.1,17.8 L28.1,26.5 Z M10.4,38.9 C10.6,38.8 10.8,38.8 11,38.8 C11.2,38.8 11.4,38.8 11.6,38.9 C11.8,39 12,39 12.1,39.1 L12.4,39.5 C12.5,39.6 12.5,39.8 12.5,40 L12.5,43.2 C12.5,43.4 12.5,43.6 12.4,43.7 L12.1,44.1 C12,44.2 11.8,44.3 11.6,44.3 C11.4,44.4 11.2,44.4 11,44.4 C10.8,44.4 10.6,44.4 10.4,44.3 C10.2,44.2 10,44.2 9.9,44.1 L9.6,43.7 C9.5,43.6 9.5,43.4 9.5,43.2 L9.5,40 C9.5,39.8 9.5,39.7 9.6,39.5 L9.9,39.1 C10.1,39 10.2,38.9 10.4,38.9 Z M47.7,43.2 L47.7,40 C47.7,39.8 47.7,39.7 47.8,39.5 L48.1,39.1 C48.2,39 48.4,38.9 48.6,38.9 C48.8,38.8 49,38.8 49.2,38.8 C49.4,38.8 49.6,38.8 49.8,38.9 C50,39 50.2,39 50.3,39.1 L50.6,39.5 C50.7,39.6 50.7,39.8 50.7,40 L50.7,43.2 C50.7,43.4 50.7,43.6 50.6,43.7 L50.3,44.1 C50.2,44.2 50,44.3 49.8,44.3 C49.6,44.4 49.4,44.4 49.2,44.4 C49,44.4 48.8,44.4 48.6,44.3 C48.4,44.2 48.2,44.2 48.1,44.1 L47.8,43.7 C47.8,43.6 47.7,43.4 47.7,43.2 Z M51.6,43.2 L51.6,40 C51.6,39.8 51.6,39.7 51.7,39.5 L52,39.1 C52.1,39 52.3,38.9 52.5,38.9 C52.7,38.8 52.9,38.8 53.1,38.8 C53.3,38.8 53.5,38.8 53.7,38.9 C53.9,39 54.1,39 54.2,39.1 L54.5,39.5 C54.6,39.6 54.6,39.8 54.6,40 L54.6,43.2 C54.6,43.4 54.6,43.6 54.5,43.7 L54.2,44.1 C54.1,44.2 53.9,44.3 53.7,44.3 C53.5,44.4 53.3,44.4 53.1,44.4 C52.9,44.4 52.7,44.4 52.5,44.3 C52.3,44.2 52.1,44.2 52,44.1 L51.7,43.7 C51.6,43.6 51.6,43.4 51.6,43.2 Z M55.4,43.2 L55.4,40 C55.4,39.8 55.4,39.7 55.5,39.5 L55.8,39.1 C55.9,39 56.1,38.9 56.3,38.9 C56.5,38.8 56.7,38.8 56.9,38.8 C57.1,38.8 57.3,38.8 57.5,38.9 C57.7,39 57.9,39 58,39.1 L58.3,39.5 C58.4,39.6 58.4,39.8 58.4,40 L58.4,43.2 C58.4,43.4 58.4,43.6 58.3,43.7 L58,44.1 C57.9,44.2 57.7,44.3 57.5,44.3 C57.3,44.4 57.1,44.4 56.9,44.4 C56.7,44.4 56.5,44.4 56.3,44.3 C56.1,44.2 55.9,44.2 55.8,44.1 L55.5,43.7 C55.4,43.6 55.4,43.4 55.4,43.2 Z M59.2,43.2 L59.2,40 C59.2,39.8 59.2,39.7 59.3,39.5 L59.6,39.1 C59.7,39 59.9,38.9 60.1,38.9 C60.3,38.8 60.5,38.8 60.7,38.8 C60.9,38.8 61.1,38.8 61.3,38.9 C61.5,39 61.7,39 61.8,39.1 L62.1,39.5 C62.2,39.6 62.2,39.8 62.2,40 L62.2,43.2 C62.2,43.4 62.2,43.6 62.1,43.7 L61.8,44.1 C61.7,44.2 61.5,44.3 61.3,44.3 C61.1,44.4 60.9,44.4 60.7,44.4 C60.5,44.4 60.3,44.4 60.1,44.3 C59.9,44.2 59.7,44.2 59.6,44.1 L59.3,43.7 C59.3,43.6 59.2,43.4 59.2,43.2 Z M66.9,43.2 L66.9,40 C66.9,39.8 66.9,39.7 67,39.5 L67.3,39.1 C67.4,39 67.6,38.9 67.8,38.9 C68,38.8 68.2,38.8 68.4,38.8 C68.6,38.8 68.8,38.8 69,38.9 C69.2,39 69.4,39 69.5,39.1 L69.8,39.5 C69.9,39.6 69.9,39.8 69.9,40 L69.9,43.2 C69.9,43.4 69.9,43.6 69.8,43.7 L69.5,44.1 C69.4,44.2 69.2,44.3 69,44.3 C68.8,44.4 68.6,44.4 68.4,44.4 C68.2,44.4 68,44.4 67.8,44.3 C67.6,44.2 67.4,44.2 67.3,44.1 L67,43.7 C66.9,43.6 66.9,43.4 66.9,43.2 Z M81.5,43.2 C81.5,43.4 81.5,43.6 81.4,43.7 L81.1,44.1 C81,44.2 80.8,44.3 80.6,44.3 C80.4,44.4 80.2,44.4 80,44.4 C79.8,44.4 79.6,44.4 79.4,44.3 C79.2,44.2 79,44.2 78.9,44.1 L78.6,43.7 C78.5,43.6 78.5,43.4 78.5,43.2 L78.5,40 C78.5,39.8 78.5,39.7 78.6,39.5 L78.9,39.1 C79,39 79.2,38.9 79.4,38.9 C79.6,38.8 79.8,38.8 80,38.8 C80.2,38.8 80.4,38.8 80.6,38.9 C80.8,39 81,39 81.1,39.1 L81.4,39.5 C81.5,39.6 81.5,39.8 81.5,40 L81.5,43.2 Z M77.6,43.2 C77.6,43.4 77.6,43.6 77.5,43.7 L77.2,44.1 C77.1,44.2 76.9,44.3 76.7,44.3 C76.5,44.4 76.3,44.4 76.1,44.4 C75.9,44.4 75.7,44.4 75.5,44.3 C75.3,44.2 75.1,44.2 75,44.1 L74.7,43.7 C74.6,43.6 74.6,43.4 74.6,43.2 L74.6,40 C74.6,39.8 74.6,39.7 74.7,39.5 L75,39.1 C75.1,39 75.3,38.9 75.5,38.9 C75.7,38.8 75.9,38.8 76.1,38.8 C76.3,38.8 76.5,38.8 76.7,38.9 C76.9,39 77.1,39 77.2,39.1 L77.5,39.5 C77.6,39.6 77.6,39.8 77.6,40 L77.6,43.2 Z M73.8,43.2 C73.8,43.4 73.8,43.6 73.7,43.7 L73.4,44.1 C73.3,44.2 73.1,44.3 72.9,44.3 C72.7,44.4 72.5,44.4 72.3,44.4 C72.1,44.4 71.9,44.4 71.7,44.3 C71.5,44.2 71.3,44.2 71.2,44.1 L70.9,43.7 C70.8,43.6 70.8,43.4 70.8,43.2 L70.8,40 C70.8,39.8 70.8,39.7 70.9,39.5 L71.2,39.1 C71.3,39 71.5,38.9 71.7,38.9 C71.9,38.8 72.1,38.8 72.3,38.8 C72.5,38.8 72.7,38.8 72.9,38.9 C73.1,39 73.3,39 73.4,39.1 L73.7,39.5 C73.8,39.6 73.8,39.8 73.8,40 L73.8,43.2 Z M83.9,13.8 L55.2,13.8 C54.6,13.8 54,13.3 54,12.6 C54,12 54.5,11.4 55.2,11.4 L83.9,11.4 C84.5,11.4 85.1,11.9 85.1,12.6 C85.1,13.2 84.6,13.8 83.9,13.8 Z" id="Shape"></path>
        </g>
    </g>
</svg>