<?xml version="1.0" encoding="utf-8"?>
<!-- Generator: Adobe Illustrator 21.1.0, SVG Export Plug-In . SVG Version: 6.00 Build 0)  -->
<svg version="1.0" id="Layer_1" xmlns="http://www.w3.org/2000/svg" xmlns:xlink="http://www.w3.org/1999/xlink" x="0px" y="0px"
	 viewBox="0 0 750 1334" style="enable-background:new 0 0 750 1334;" xml:space="preserve">
<style type="text/css">
	.st0{fill:#DCA442;}
	.st1{fill:#AA9181;}
	.st2{fill:#C67420;}
	.st3{fill:#4A1D11;}
	.st4{fill:#CA8739;}
	.st5{fill:#A84924;}
	.st6{fill:#DDB368;}
	.st7{fill:#DA992C;}
	.st8{fill:#D98C21;}
	.st9{fill:#772D1E;}
	.st10{fill:#8C3B23;}
	.st11{fill:#DADEE0;}
	.st12{fill:#BB5C20;}
	.st13{fill:#E9EBEB;}
	.st14{fill:#E4D3BA;}
	.st15{fill:#FFFFFF;}
	.st16{fill:#EBECED;}
	.st17{fill:#F4F5F6;}
	.st18{fill:#E8E8E8;}
	.st19{fill:#E1E1E1;}
	.st20{fill:#E8E5E0;}
	.st21{fill:#E1E1E2;}
	.st22{fill:#EBEDF0;}
	.st23{fill:#F4F6F8;}
	.st24{fill:#F2F5F6;}
	.st25{fill:#FDFDFD;}
	.st26{fill:#BCBAB8;}
	.st27{fill:#D3D9DE;}
	.st28{fill:#D0D6DC;}
	.st29{fill:#CAD2D9;}
	.st30{fill:#D7DBD8;}
	.st31{fill:#A59487;}
	.st32{fill:#CDD1D0;}
	.st33{fill:#CFD6D9;}
	.st34{fill:#DCE0E3;}
	.st35{fill:#CCCFD3;}
	.st36{fill:#C3C5C8;}
	.st37{fill:#C7C6CA;}
	.st38{fill:#D4D8DD;}
	.st39{fill:#C5C7CA;}
	.st40{fill:#C9CCCF;}
	.st41{fill:#D2D5DA;}
	.st42{fill:#CCD0D5;}
	.st43{fill:#998B84;}
	.st44{fill:#A38979;}
</style>
<path class="st0" d="M430.6,554.2c0.4-0.1,0.7,0,1,0.2c-4.1,4.1-1.8,6.5,3.1,8.3c-4-2.5,2.2-6.1-1.8-8.5c0.4-0.4,0.9-0.9,1.3-1.3
	c1.9,1.4,4.3,1.5,6.5,1.8c3.6,1.5,2,8,7.6,7.8c2.6-0.1,4.9,1.1,7.3-1.8c3.2-3.8,8.2-2.9,12.3-1.6c9.4,2.8,17.1,8,20.9,17.5
	c-4.9-2-9.9-3.8-15.4-3.9c0-0.5,0-1-0.1-1.5c-2.5-4.5-6.9-4.5-13.9,0c0,1.9,0,3.7,0,5.6c-6.2,2.7-4.8-2.4-5.5-5.3
	c-0.4-1.8,0.6-4.5-2.4-4.8c-1.9-0.2-7,8-5.8,9.5c4.2,5.5,2.7,10.1-1.5,14.5c-2.5-0.1-4.2,1.7-5.7,3.1c-0.9,0.9,0.7,1,1.4,1.2
	c0.4,3.8-2.1,4.9-5.4,6c-0.1-4.2,0.2-8.1-4-10.4c0,5.7-4.9,3.1-7.4,4.5c-0.5-0.5-0.9-1-1.4-1.5c-0.5-0.4-0.9-0.8-1.4-1.2
	c-1.4-0.1-2.7-0.1-4.1-0.2c-0.1-0.5-0.1-0.9-0.2-1.4c8.8,0.1,3.8-4.9,3.1-8.3c-0.5-0.5-0.9-1-1.4-1.5v0c0.2-2.3-3.1-6.9,1.4-6.2
	c4.5,0.7,7.2-2.6,10.9-2.2c1.7,1.4-0.2,3.7,1.8,5.4c2.7,2.3,4.9,0.9,6.8-0.2c1.9-1.1,0.4-3.6,0.8-5.5c-3.9,2.4-5.5-4.2-9.2-2.4
	c-3.2-4.9-12.6-4.2-15.3,1.4c-1.9,3.8-4.3,5.8-8.6,5.5c0-0.9,0-1.7,0-2.6c0.1-0.6,0.1-1.1,0.2-1.7c0.1-0.4,0.2-0.8,0.4-1.1
	c5.4-1.1,6.7-3.4,3.6-7.4c-1.3-1.7-2.7-3.8-5.3-3.9c0-3.3,0-6.5,0-9.8c4,2.2,6.7-0.9,9.7-2.4c1.1-0.6,1.3-2,0.5-3
	c-0.5-0.6-1.9-1.3-2.2-1.1c-3.8,3-8.7-0.7-12.4,2.2c1.2-6.3,6.4-8.3,11.4-9.9c3.6-1.2,9.7,7.4,9.8,13.4c0.5,0.2,1,0.5,1.4,0.7
	c2.3,0.2,3.7,1,3.2,3.6c-0.7-0.2-1.3-0.5-2-0.6c-1.3,0-2.6-1.3-3.8-0.1c-0.3,0.3-0.1,1.5,0.2,1.9c1.2,1.1,2.5,0.7,3.8-0.1
	c0.6-0.3,1.2-0.6,1.8-0.9c0.5,0,0.9,0,1.4,0C429,554,429.8,554.1,430.6,554.2z M421.1,578.9c3.2,6.8,10.3,6,15.1,9.1
	c1.2,0.7,2.2,0.2,2.3-1.4c0.1-1.8,0.4-4.1-2.3-4.2C431.2,582,427.2,578,421.1,578.9z"/>
<path class="st1" d="M496,614.5c-4.5,8.9,1.5,15.4,4.5,23c5.5,14.1,6.2,28.6-3.5,41.8c-1.8-4.3-3.1-8.9-6.9-12
	c0.1-1.5,0.2-2.9,0.3-4.4c1.3-0.6,1.3-1.5,0.6-2.6c0.1-1.5,0.1-2.9,0.2-4.4c1-2.7,1.9-6.4,0.4-8c-4.2-4.6-3-8.8-1.5-13.8
	c0.9-3-2.4-6.2-0.6-9.3c2.7-4.7-0.9-4.5-3.7-4.9c-0.3-1.4-0.6-2.9-0.9-4.3l0.4,0l0.4-0.2c3.3-0.1,6.8,1.5,9.6-1.5
	C495.6,614.2,495.8,614.3,496,614.5z"/>
<path class="st2" d="M418.5,723c-8.4,5.9-17.7,2-26.6,2.3c0.8-0.4,2-0.7,2.2-1.3c0.5-1.3-0.9-1-1.6-1.2c-3.8-0.6-6.5-2.2-5.1-6.7
	c0.9-0.2,1.9-0.9,2.5-0.6c7.2,2.8,7.2,2.7,7-5c-0.1-1.9-0.6-3.6-1.4-5.3c0.5-1.2,1.1-3,2.7-2c3.1,1.8,0.5,4.9,1.3,8.4
	c1.8-2,3.8-2.6,5.7-1.1l0,0c0.7,2.2-1.5,6,1.9,6.4c4.1,0.4-0.2-3.7,1.8-5.2c0.7-0.6,0.8-1.9,1.2-3.1c2.6,1.4,3.5,5.7,7.3,3.6
	c2.3-1.2,0.3-6.3,5.3-5.7c3.9,0.5,0.9-3.1,2.1-4.4c0.5,0,1,0,1.5,0c1.4,1.6,2.9,3.2,5.4,2.8c0,0.5,0,0.9,0,1.4c0,0.4,0,0.8-0.1,1.2
	c-1.3,0.5-2.7,0.9-4.1,1.4c-0.1-0.6-0.5-1.8-0.9-1.3c-0.5,0.7-0.2,2-0.3,3.1c-0.5,1.3-1,2.6-1.4,3.9c-0.6,0.9-1.1,1.8-1.7,2.7
	C418.3,718.4,417.6,719.3,418.5,723z"/>
<path class="st3" d="M387.3,716.1c-1.4,4.6,1.3,6.1,5.1,6.7c0.7,0.1,2.1-0.2,1.6,1.2c-0.2,0.6-1.4,0.9-2.2,1.3
	c-5.9,0.1-11.8,0.1-17.7,0.2c-1.1-1.3-2.2-1.4-3.5-0.2c-1.2,0-2.4,0-3.6-0.1c-3.4-1.5-7-0.7-10.5-0.8l-0.2,0c1.9-2.3,7-0.4,7.1-5.2
	c0.9-0.2,1.7-0.3,2.6-0.5c1.8,3.8,4.9,3.6,8,2.3c1.3-0.6,3.3-2,2.2-3.6c-1.6-2.4-4.6-0.9-6.9-1.2c-0.2,0-0.5,0-0.7,0
	c0.1-2,0.3-3.9,1.5-5.5c2.3-1.4,0.7-3.9,1.6-5.6c0.5-0.5,1.2-1.5,1.4-1.4c5.7,2,13.3-1.1,16.5-6.9c1.3,0,2.6,0,3.9,0
	c0.1,0.9,0.2,1.8,0.3,2.7c-0.4,0.4-0.9,0.9-1.3,1.3C388.3,704.8,386.4,709.9,387.3,716.1z"/>
<path class="st4" d="M260.6,624c2.7-4.5,5.5-9,8.2-13.6c0.1-6.2-1.5-12.3-0.3-18.5l0.1-0.2c0.4,0,0.7,0,1.1,0.1
	c2.5,0.4,5.1,2,7.6,0.1c2.2,3-3.6,3.5-1.7,6.8c3-0.2,6.3,1.4,9.7,0.2c0,2.3,0.1,4.6,0.1,6.8c-0.5,0.1-1,0.1-1.4,0.2
	c-0.9,0-1.8-0.1-2.7-0.1c-3.5-2.3-5.6-1.7-5.7,2.8c0,2.3,0.2,4.6,0.3,6.9c0.2,3.2-1.9,5.8-4.2,6.5c-4.9,1.6-4.5,5.1-4.3,8.9
	c-3.4-1.7-3.5,2.7-5.8,3C258,630.9,261.8,627.3,260.6,624z"/>
<path class="st3" d="M321.6,717.5l-0.6,0.1l-0.6-0.3c0-0.4-0.1-0.9-0.3-1.3c4.3-4.8-3.2-6.3-2.9-10c0.7-2.2,2-4.4,0-6.6
	c0.4-2.5,4.3-3.6,2.9-6.9c1.3,0,2.6,0,3.9,0c0.1,0.8,0.3,1.7,0.4,2.5l-0.5,0.2l-0.1,0.4c0.2-0.2,0.4-0.4,0.6-0.6
	c2.3-0.4,4.6-0.9,7-1.3c2.4,0,4.8,0,7.2,0c1.1,2.2-0.8,4.9,1,7c0.5,1.4,1,2.7,1.5,4.1c-1.3,0.5-1.5,1.6-1.6,2.8
	c-0.9-0.4-1.9-0.9-2.8-1.3c-3.8-2.3-7.9-3-11,0.4c-2.9,3.2,1.5,4.4,2.8,6.4c-0.1,0.9-0.2,1.8-0.3,2.8c-1.3,0.8-1.2,2-1.2,3.3
	c-1.5-0.5-2.9-0.9-4.4-1.3C322.4,717.5,322.1,717.3,321.6,717.5z"/>
<path class="st2" d="M271.4,693.7c-2.4-2.2-5.6-3.7-6.9-6.9c0.9-5,1.1-10.4,7.1-12.5c3.3-3.7,7.5-4.9,12.3-4.2
	c2.3,0.5,7.1-1.7,4.5,4.1c0.2,2.9-1.5,4.9-3.2,6.9c-1.6,0.5-5.3,0.3-4.4,1.5c3.3,4.2-3,4.2-2.4,6.9c-1.2-0.1-2.6-0.1-2.2-1.8
	c0.5-2,1.7-4-0.6-5.6c-0.4-0.3-1.6-0.4-1.8-0.1c-1.2,2-2.3,4-0.5,6.3c0.4,0.5-0.2,1.7-0.3,2.6C272.4,691.7,271.9,692.7,271.4,693.7z
	"/>
<path class="st5" d="M485.9,615.5l-0.4,0.2l-0.4,0c-2.3,1.3-5.1-0.6-7.4,1.2c-0.5-1-1-1.9-1.4-2.9c1.5-2.7,3-5.4,4.4-8.1
	c6.5,0.9,10.8-3.1,15.2-6.9c0.1-0.4,0.2-0.8,0.2-1.2c0.2-0.1,0.5-0.1,0.7-0.2l0.6,0.1l0.5-0.2c2.9,5.3,5.9,10.6-0.3,15.7
	c-0.6-0.2-1.1-0.3-1.7-0.5c-2.9-2,1.5-5.6-3.6-9.4C495.7,612.1,486.1,610.1,485.9,615.5z"/>
<path class="st6" d="M346.9,544.7c0.3,0.3,0.6,0.7,1,1c-0.4,2.7,1.3,4.2,3,5.7c-3.2-0.2-5.5,2.3-8.4,2.9c-1.8-2.8-2.9-6.4-7-6.9
	c-3.3,0.4-5.1-2.8-8-3.2c-0.8-3.5-3.5-2.5-5.8-2.5c-0.2-0.2-0.4-0.4-0.6-0.6c6.9-0.6,3-7.7,6.2-10.5c-0.4,3.3,0.7,8.8,2.4,8.6
	C336.5,538.6,341.4,542.3,346.9,544.7z"/>
<path class="st2" d="M473.5,572.6c5.4,0.1,10.4,1.9,15.4,3.9c1,1.4,1.9,2.8,2.9,4.2c0,2,0.1,3.9,0.1,5.9c-1.2,0.5-1.4,1.5-1.5,2.6
	c-0.5,0-0.9-0.1-1.4-0.1c-3.8-1.7-9.2,0.8-11.6-4.5c0.5-1.5-0.6-2.3-1.4-3.3C477.7,577.7,473.5,575.7,473.5,572.6z"/>
<path class="st3" d="M472.1,702.2c-4.5,4-10.1,5.9-15.6,8.2c-0.5-3.3-2.4-4.5-5.6-4.2c-2.1,0.2-5.2-0.4-4.8-2.5
	c0.6-2.9-4.1-6.5,1.1-8.7c0.8,0.1,1.7,0.2,2.5,0.4c0.9,0.5,1.8,0.9,2.6,1.4c0.6,0.3,1.2,0.7,1.8,1c5.7,8,5.7,8,11.4,0.8
	c0.7,0,1.4,0,2.1,0c0.5,1.5,1.5,2.3,3.2,2.1l0,0C471.2,701.1,471.7,701.7,472.1,702.2z"/>
<path class="st0" d="M378.7,550.1c5.1,1.9,10.2,3.8,15.3,5.6c-0.5,0.4-0.9,1-1.5,1.2c-1.8,0.5-4.3-1.7-5.4,1
	c-1.6,3.7,3.4,0.8,3.4,3.1c0,1.1-0.4,2.1-0.7,3.2c-0.5,2.2-1.1,4.5-1.6,6.7c-1.3,0-2.6,0.1-4,0.1c-0.1-0.8-0.1-1.7-0.2-2.5
	c1.8-1.2,1.5-2.2-0.2-3.2c0.1-0.6,0.1-1.3,0.2-1.9c-1.8-5.1-3.8-3.5-5.7,0c-1.2,0-2.5,0-3.7,0.1c0-2.6-0.1-5.1-0.1-7.7
	C378.6,555.7,378.7,552.9,378.7,550.1z"/>
<path class="st7" d="M389.9,564.2c0.2-1.1,0.7-2.1,0.7-3.2c0-2.2-5,0.7-3.4-3.1c1.1-2.6,3.6-0.4,5.4-1c0.6-0.2,1-0.8,1.5-1.2
	c0.4-0.1,0.8-0.1,1.2,0c0.5,0.1,0.9,0.1,1.4,0.2c0.3,1,0.3,2.2,1.8,2l0.4-0.4c0.1-1.5-1.1-1.5-2.1-1.8c0-0.8,0-1.7,0-2.5
	c0.5-1.3,3.3-0.5,2.7-2.9c1.9,1.7,3.7-5.7,5.7-0.1c0,3.3,0,6.5,0,9.8l0,0c-0.5,0.5-0.9,0.9-1.4,1.4c0.1,3.9-7.1,1.9-5.6,7
	c-0.5,0.1-0.9,0.1-1.4,0.1C394.8,566.5,393.4,563.6,389.9,564.2z"/>
<path class="st6" d="M286.4,560.2c7.4,1.6,14.9,2.1,22.5,0.9c0.5,1.5,1.1,3,1.6,4.5c-0.1,0.4-0.1,0.8-0.2,1.2
	c-1.5,0-3.2,0.6-4.4-0.9c-0.1-1.2,0.4-3.2-1.9-1.9c-2.1,1.2-4,2.8-6,4.3c-0.9,0.2-1.7,0.4-2.6,0.6c-4.4-1-4.3,5.2-8.2,5.1
	c-0.1-3-4.7-2.4-4.5-5.6c0.1-0.6,0.2-1.1,0.3-1.7C288.8,566.9,286.1,562.8,286.4,560.2z"/>
<path class="st8" d="M346.9,544.7c-5.5-2.4-10.3-6.1-17.2-5.3c-1.7,0.2-2.8-5.2-2.4-8.6c0.9-0.1,1.8-0.2,2.6-0.2
	c0.7,1.4,1.4,2.8,2.3,4.1c2.1,3.2,5.3,3.3,8.5,2.7c1.7-0.3,4-0.7,4.3-2.8c0.5-3.5-4.2-2.2-4.9-4.8c-0.1-0.2-0.2-0.4-0.3-0.6
	c0.2-0.8-0.7-2.7,1.5-1.6c8.1,0.6,10.5,4.4,6.8,11.2C347.1,540.7,346.5,542.6,346.9,544.7z"/>
<path class="st7" d="M342.5,554.4c2.9-0.6,5.2-3.2,8.4-2.9c1.5,1,3,1.9,4.5,2.9c7,2.4,1.2-4.6,4-5.3c1.3,0.2,2.6,0.3,3.8,0.5
	c0.1,1.6,0.2,3.2,0.2,4.8c-0.4,4,6.5,4.9,4.2,9.7c-1.2,0.7-1.4,1.9-1.5,3.2c-1.6-1.3-2-4.2-5-3.6c0.9-2.5,1.4-4.8-1.7-6.2
	c0,4.2-7-2.4-5.8,3.8l0,0c-1.2,0.6-1.3,1.7-1.3,2.8c-0.5,0-1,0-1.4,0c-0.1-1.6,0-4.5-1.3-4.2C344.6,561,344.6,556.6,342.5,554.4z"/>
<path class="st9" d="M447.2,695c-5.2,2.2-0.4,5.8-1.1,8.7c-0.5,2.2,2.6,2.7,4.8,2.5c3.2-0.3,5.2,0.9,5.6,4.2c-2.4,1.7-5.2,2.6-8.1,3
	c-0.6-5-6-7.9-6.5-12.3c-0.5-5.3-2.8-7.6-7.3-8.9c-2.5-3.3-1.2-7.2-1.7-10.8c1.6,1.2,3.7,2.3,3.5,4.4c-0.1,1.4-1.8,2.8,0.7,3.5
	c2.1,0.6,2.6-1,3.2-2.5c0.6-1.5,2.1-1.4,3.5-1.5c0.1,1,0.3,1.9,0.4,2.9c-1.5,1.1-2.8,2.7-2.1,4.4c0.8,2,3.1,0.9,4.8,1.2
	C447,694.1,447.1,694.6,447.2,695z"/>
<path class="st1" d="M255,674.3c-4.4-4.2-5.5-9.7-6-15.5c0.7-1.4,1.5-2.8,2.2-4.1c1.3,2.6,0.7,7.1,5.9,5.6c1.3,0.9,2.7,1.9,4,2.8
	c-0.7,3.3,0.2,6.4,1,9.5C260.5,676.6,257.6,674.6,255,674.3z"/>
<path class="st10" d="M298.1,709c-1.8-0.5-3.6-1.1-5.5-1.6c-0.2-2.2-1.3-4.9,2.4-5.3c4.3-0.1,6.3-4.2,9.8-5.6
	c1.8-0.1,3.6-0.1,5.4-0.2c0.1,1,0.2,1.9,0.3,2.9c0.9,2.4-0.2,4-1.7,6C306,709.2,301.1,706.3,298.1,709z"/>
<path class="st4" d="M434.6,692.1c4.5,1.3,6.8,3.6,7.3,8.9c0.4,4.5,5.8,7.4,6.5,12.3c-0.7,1.5-1.9,1.7-3.4,1.3
	c-2.9-0.9-7.3,0.9-7.9-4.3c4-5,4-6.1,0.2-7c-5.2-2-1.8-6.5-2.8-9.7C434.5,693.2,434.6,692.7,434.6,692.1z"/>
<path class="st11" d="M251.2,654.7c-0.7,1.4-1.5,2.8-2.2,4.1c-3.2-11.2-0.6-21.1,7-29.8c1.5-1.7,3.1-3.3,4.6-5
	c1.1,3.2-2.6,6.9,0.9,9.9c0,0.4,0,0.8,0.1,1.2c-2.6,1.1-5.8,1.6-5.3,5.6c-0.3,0.2-0.4,0.6-0.4,1c-5.3,0.2-3.4,4.4-4.1,7.3
	C247.4,650.5,250.2,652.7,251.2,654.7z"/>
<path class="st0" d="M317.3,550.8l-0.4-0.3l0.2-0.4c1.5,0,3,0.1,4.5,0.1c2.4,0.3,4.8,0.6,7.1,1c2,0.3,3.6,0.2,3.5-2.4
	c1.1,0,2.1,0,3.2,0.1c2.1,6-0.7,10.1-5.3,13.5c-3.3-2.6-7-4.2-11.3-3.8c-1.2-0.6-1.4-1.7-1.3-2.9c2.3-0.6,5.6,1.7,6.8-2.6
	c-2.5,0-4.7,0-6.8,0C317.4,552.3,317.4,551.5,317.3,550.8z"/>
<path class="st12" d="M298.1,709c3-2.7,7.9,0.1,10.8-3.9c1.5-2,2.5-3.6,1.7-6c0.9,0,1.8-0.1,2.7-0.1c0.9,0,1.9,0,2.8-0.1
	c0.4,0.2,0.8,0.4,1.3,0.5c1.9,2.2,0.7,4.4,0,6.6c-3.6,1.6-4.6,4.2-3.3,7.9l-0.2,0.2C307.6,715.1,303.3,710.8,298.1,709z"/>
<path class="st9" d="M339.6,707.7c0.1-1.2,0.3-2.3,1.6-2.8l0.6,0l0.6,0c-0.2,4.1,2.7,4.2,5.6,4.2c1,1,1.9,2,2.9,3
	c0,0.8-0.1,1.7-0.1,2.5c-5,5.1,3.7,5.7,3,9.4c-0.7,0-1.5,0-2.2,0l-0.4-0.4l-0.5,0.3c-4.6-0.4-9.2-0.7-13.7-2.4
	c1.4-1.7,3.5-1,5.3-1.5C344,715.3,341.1,711.6,339.6,707.7z"/>
<path class="st4" d="M490.1,667.3c3.8,3.2,5.1,7.7,6.9,12c-0.4,1.4-1,2.7-2.3,3.4c-2.3-0.5-4.6-1-6.9-1.5c-4-2.9,1.6-8.6-3.1-11.3
	c0-0.9,0-1.8,0-2.7l0-0.5l0.6,0.1l0.6-0.3C487.3,666.9,488.7,667.1,490.1,667.3z"/>
<path class="st10" d="M255,674.3c2.6,0.3,5.5,2.3,7.1-1.7c3,1.5,7.3-5,9.4,1.6c-6,2.1-6.2,7.6-7.1,12.5
	C260.4,683.3,257.4,679.1,255,674.3z"/>
<path class="st6" d="M295,702.1c-3.8,0.4-2.6,3.1-2.4,5.3c-7.8-3.5-16.2-6.1-21.3-13.7c0.5-1,1-1.9,1.5-2.9c0.9,1,1.9,1.9,2.8,2.9
	C280.5,700.1,287.8,701.2,295,702.1z"/>
<path class="st6" d="M363.4,554.4c-0.1-1.6-0.2-3.2-0.2-4.8c5.2-0.9,10.5-1.9,15.6,0.5c-0.1,2.8-0.1,5.6-4.1,5.6
	C371.1,553.4,367,556.2,363.4,554.4z"/>
<path class="st10" d="M437.1,710.4c0.6,5.2,5,3.4,7.9,4.3c-3,2.5-6.7,3.4-10.5,3.6c-1.9-4.6-6-3.5-9.6-3.6c0.5-1.3,1-2.6,1.4-3.9
	c0.4-0.1,0.9-0.2,1.3-0.2C430.8,712.8,434,708.2,437.1,710.4z"/>
<path class="st2" d="M282.7,568.2c-0.2,3.2,4.5,2.6,4.5,5.6c-2.2,0.8-4.4,2.1-6.7,2.3c-2.1,0.2-5,3.6-6.6-0.7c0-1.9,0.1-3.8,0.1-5.8
	c0.3-0.3,0.4-0.7,0.2-1.1c0.3-0.6,0.6-1.1,0.9-1.7l0.6,0C277.8,568.3,280.2,568.5,282.7,568.2z"/>
<path class="st4" d="M487.9,690c-1.1,1.8-2.4,3.3-4.4,4.2c-0.8-2-2.2-3.3-4.5-3.3l0,0c2.8-4.3-4.7-5.7-2.7-9.8
	c3.3-1.9,5.7,0.4,8.4,1.6C484.3,685.8,485.8,688.1,487.9,690z"/>
<path class="st8" d="M317.3,550.8c0,0.7,0.1,1.5,0.1,2.2c0,0.9,0,1.8,0.1,2.6c-0.1,1.2,0.1,2.3,1.3,2.9c0.9,1.9,1.8,3.7,2.7,5.6
	c-2.2,1.2-6-5.8-7,1.4l0,0c-1.4,0-2.8,0-4.2,0c-0.5-1.5-1.1-3-1.6-4.5c0.6-0.3,1.2-0.7,1.8-1c0.4-0.4,0.9-0.8,1.3-1.2
	C313.8,556.2,315.6,553.5,317.3,550.8z"/>
<path class="st8" d="M405.2,550.2c-2-5.6-3.7,1.8-5.7,0.1c-1.1-1.1-0.1-1.9,0.3-2.8c0.3-0.5,0.7-1,1-1.5l0,0
	c3.7-2.9,8.6,0.8,12.4-2.2c0.3-0.2,1.7,0.5,2.2,1.1c0.8,1,0.6,2.4-0.5,3C411.9,549.3,409.2,552.3,405.2,550.2z"/>
<path class="st7" d="M481.4,696.4c-1.3,0.9-2.5,1.7-3.8,2.6c-1.8-2-4.3-0.6-6.4-1.5c-0.7-1.7,0-3.9-1.9-5.2
	c-0.9-0.9-1.9-1.9-2.8-2.8c4.5-1.9,8.1,3.4,12.6,1.5l0,0C479.4,692.9,477.9,695.7,481.4,696.4z"/>
<path class="st5" d="M353.8,724c0.7-3.7-8.1-4.3-3-9.4c0.5-0.3,0.9-0.6,1.4-1c0.5-0.1,1-0.3,1.5-0.4c1.2,0.7,1.3,1.8,1.5,3
	c0.7,7,5.3,2.6,8.4,2.9c-0.1,4.8-5.2,2.9-7.1,5.2C355.6,724.2,354.7,724.1,353.8,724z"/>
<path class="st12" d="M487.9,690c-2.1-2-3.6-4.2-3.1-7.3c0.4,0,0.9,0,1.3-0.1c0.5-0.4,0.9-0.9,1.4-1.3l0.2,0c2.3,0.5,4.6,1,6.9,1.5
	C492.9,685.7,490.8,688.2,487.9,690z"/>
<path class="st13" d="M268.5,592c-1.2,6.2,0.4,12.3,0.3,18.5C263.2,602.3,263.1,598.6,268.5,592z"/>
<path class="st9" d="M424.9,714.6c3.6,0.1,7.7-0.9,9.6,3.6c-3.6,1.5-7.2,2.7-11.1,2.1c-0.1-1-0.1-2-0.2-3
	C423.8,716.5,424.4,715.5,424.9,714.6z"/>
<path class="st2" d="M342.3,719.9c-1.8,0.5-3.9-0.2-5.3,1.5c-1.1,0.4-2,0.2-2.8-0.6c-0.5-1.1-1-2.2-1.5-3.4c-0.2-1.5-0.3-3-0.5-4.5
	c0.5-1.8,0.6-3.8,3.3-3.3C333,716.2,340.7,716.1,342.3,719.9z"/>
<path class="st13" d="M274.1,569.6c0,1.9-0.1,3.8-0.1,5.8c-2.1,2.4-1.2,5.3-1.6,8c-1,0.9-1,1.9-0.7,3.1c-0.7,1.8-1.3,3.6-2,5.5
	c-0.4-0.1-0.7-0.1-1.1-0.1c1-6.7,2-13.5,3-20.2C271.8,570.3,272.9,569.9,274.1,569.6z"/>
<path class="st2" d="M355.4,554.4c-1.5-1-3-1.9-4.5-2.9c-1.8-1.5-3.4-3.1-3-5.7c1.9,0.8,3.8,1.6,5.6,2.4
	C355.9,549.7,356.6,551.7,355.4,554.4z"/>
<path class="st14" d="M286.4,560.2c-0.2,2.6,2.5,6.7-3.4,6.4c-0.6-1.4-1.2-2.7-1.8-4.1C281.7,558.8,284.2,559.8,286.4,560.2z"/>
<path class="st10" d="M423.2,717.4c0.1,1,0.1,2,0.2,3c-0.9,2.3-3.4,1.5-4.9,2.6C417.6,719.3,418.3,718.4,423.2,717.4z"/>
<path class="st6" d="M432.9,554.2c4,2.5-2.1,6.1,1.8,8.5c-5-1.8-7.3-4.1-3.1-8.3C432.1,554.3,432.5,554.2,432.9,554.2z"/>
<path class="st0" d="M281.2,562.4c0.6,1.4,1.2,2.8,1.8,4.1c-0.1,0.6-0.2,1.1-0.3,1.7c-2.5,0.2-4.8,0.1-7-1.4
	c-0.2-0.4-0.2-0.9-0.1-1.4c0.4-0.5,0.8-1,1.2-1.5C278.3,563.5,279.7,563,281.2,562.4z"/>
<path class="st6" d="M355.4,554.4c1.3-2.6,0.5-4.7-1.9-6.2c1.9,0.3,3.9,0.6,5.8,0.8C356.6,549.7,362.3,556.8,355.4,554.4z"/>
<path class="st9" d="M332.7,717.5c0.5,1.1,1,2.2,1.5,3.4c-2.3-0.6-5,0.1-7.1-1.6c0-1.2,0-2.5,1.2-3.3
	C329.8,716.5,331.2,717,332.7,717.5z"/>
<path class="st6" d="M321.7,550.2c-1.5,0-3-0.1-4.5-0.1c0.2-2.7,1.2-5,2.8-7.2l0.5,0.5c0,0.4-0.1,0.8,0,1.2
	C321.1,546.4,322.1,548.1,321.7,550.2z"/>
<path class="st6" d="M440.7,554.6c-2.2-0.3-4.6-0.4-6.5-1.8C437.8,548.3,439.1,552.2,440.7,554.6z"/>
<path class="st2" d="M481.4,696.4c-3.6-0.6-2-3.5-2.4-5.4c2.3,0,3.7,1.3,4.5,3.3c-0.1,0.5-0.4,0.8-0.9,0.9c-0.5,0.1-0.8,0.4-1,0.9
	L481.4,696.4z"/>
<path class="st12" d="M471.2,697.5c2,0.9,4.6-0.5,6.4,1.5c-1.1,0.6-2.3,1.2-3.4,1.9c-1.1-0.1-2.3-0.1-3.4-0.2l0,0
	c0-0.9,0-1.8-0.1-2.7L471.2,697.5z"/>
<path class="st5" d="M356.6,724.3c3.5,0.1,7.1-0.6,10.5,0.8C363.6,725.4,360.1,725.3,356.6,724.3z"/>
<path class="st6" d="M426.8,553.9c-0.6,0.3-1.2,0.6-1.8,0.9c-1.3,0.7-2.6,1.2-3.8,0.1c-0.4-0.4-0.5-1.6-0.2-1.9
	c1.2-1.3,2.5,0,3.8,0.1c0.7,0,1.3,0.4,2,0.6L426.8,553.9z"/>
<path class="st12" d="M320.1,716c0.1,0.4,0.2,0.8,0.3,1.3c-2.5-0.4-5.2-0.5-6.7-3.2l0.2-0.2C316,714.7,318,715.3,320.1,716z"/>
<path class="st5" d="M370.8,725.2c1.2-1.2,2.4-1.1,3.5,0.2C373.1,725.4,371.9,725.3,370.8,725.2z"/>
<path class="st0" d="M396.8,555.9c-0.5-0.1-0.9-0.1-1.4-0.2c0.5-0.9,1-1.7,1.6-2.6c0,0.8,0,1.7,0,2.5L396.8,555.9z"/>
<path class="st10" d="M470.8,700.6c1.1,0.1,2.3,0.1,3.4,0.2c-0.7,0.5-1.4,0.9-2.1,1.4C471.7,701.7,471.2,701.1,470.8,700.6z"/>
<path class="st6" d="M312,558.9c-0.4,0.4-0.9,0.8-1.3,1.2C311.1,559.7,311.6,559.3,312,558.9z"/>
<polygon class="st5" points="350.7,723.8 351.2,723.5 351.6,724 351.1,724.2 "/>
<path class="st10" d="M321.6,717.5c0.5-0.2,0.9,0,1.1,0.4C322.3,717.8,321.9,717.6,321.6,717.5z"/>
<path class="st13" d="M276.9,564.1c-0.4,0.5-0.8,1-1.2,1.5C276,565,276.4,564.5,276.9,564.1z"/>
<path class="st0" d="M400.9,545.9c-0.3,0.5-0.7,1-1,1.5C400.2,546.9,400.6,546.4,400.9,545.9z"/>
<path class="st13" d="M275.2,566.8c-0.3,0.6-0.6,1.1-0.9,1.7C274.6,568,274.9,567.4,275.2,566.8z"/>
<path class="st6" d="M423.5,550.1c-0.5-0.2-1-0.5-1.4-0.7C422.6,549.6,423,549.8,423.5,550.1z"/>
<path class="st7" d="M481.7,696c0.1-0.5,0.5-0.8,1-0.9C482.4,695.4,482.1,695.7,481.7,696z"/>
<path class="st6" d="M430.6,554.2c-0.8-0.1-1.6-0.2-2.4-0.3C429.1,553.1,429.9,553.4,430.6,554.2z"/>
<path class="st6" d="M319.9,542.9c0.4-0.5,0.8-1.1,1.2-1.6c0.2,0.2,0.4,0.4,0.6,0.6c-0.4,0.5-0.8,1-1.2,1.5L319.9,542.9z"/>
<path class="st2" d="M444.3,590.6c4.2-4.4,5.7-9,1.5-14.5c-1.1-1.5,4-9.7,5.8-9.5c3,0.3,2,2.9,2.4,4.8c0.7,2.9-0.7,8,5.5,5.3
	c0.5,0,0.9,0,1.4,0l0,0c3,4.7,8.7,3.3,12.8,5.5c0.4,0.5,0.9,1,1.3,1.5c-5.6,0.9-6,7.2-9.9,9.7c0.5-1.3,0.9-2.7,1.4-4
	c0.1-2.8-1.4-3.2-3.5-2.2c-2.6,1.3-4,3.1-1.8,6c0,1.3-0.7,3,0.9,3.6c1.7,0.7,1.9-1.7,3.1-2.1c0,1.2,0,2.5,0,3.7
	c0.5,0.6,0.9,1.2,1.4,1.8l0,0c0,1.4,0,2.9,0.1,4.3c0.2,4.3,0.3,8.4,3.4,12.1c0.8,0.9,4.2,4.4-0.7,5.8c-2.9,0.5-4.7-7.7-8.4-1.2
	c-2.5-0.1-5.1,0.9-7.2-1.3c0.5-3-0.4-6.4,2.7-8.8c1.4-1.1,4.9-0.7,4-3.6c-0.9-2.9-3.9-1.4-6-1.7c-1.6-0.2-3.2-0.1-4.8-0.2
	c0.5-0.5,0.9-0.9,1.4-1.4c0.5,0,1,0,1.6,0c1.9-0.2,5.4,0.9,5-1.6c-0.5-3.4,1.7-7.8-2.8-10.3C451.5,590.4,447.9,590.4,444.3,590.6
	L444.3,590.6z"/>
<path class="st12" d="M396.9,568.4c0.5,0,0.9,0,1.4-0.1c3.2,0.1,6.2,0.8,8.7,2.9c-0.2,0.4-0.3,0.8-0.4,1.1c-0.9,0.5-1,1-0.2,1.7
	c0,0.9,0,1.7,0,2.6c-1.5,1-1,2.5-1.1,3.9c-0.1,2,0.2,4.2-2.7,4.5c-1.8-6.5-5.7-0.8-8.5-1.5l0,0c-1-1.5-2.6-1.4-4.1-1.3
	c-1.4,0.5-2.9,1-4.3,1.5c-0.1-0.6-0.1-1.1-0.2-1.7c0.1-2.5,1.1-5.2-1.3-7.2c0.1-1.3,0.1-2.6,0.2-3.9c1.3,0,2.6-0.1,4-0.1
	C391.3,570.3,394.3,570.1,396.9,568.4z M392.8,578.2c2.6-0.3,5.2,1.2,7.8-1.1c2.2-1.9,1.4-3-0.1-4.4c-3.3-3.1-4.5,5-8.1,1.7
	c-0.1-0.1,0.5,2.4,0.1,3.6c-0.2,0.2-0.4,0.5-0.5,0.7C392.3,578.5,392.5,578.3,392.8,578.2z"/>
<path class="st8" d="M405.3,580.6c0.1-1.4-0.4-2.9,1.1-3.9c4.2,0.3,6.7-1.7,8.5-5.5c2.7-5.6,12.1-6.3,15.3-1.4
	c-0.1,0.9-0.1,1.8-0.2,2.7c-3.8-0.3-6.4,3-10.9,2.2c-4.5-0.7-1.2,3.9-1.4,6.2c-3.1,5-7.4,0.5-11,1.5
	C406.3,581.7,405.8,581.1,405.3,580.6z"/>
<path class="st7" d="M423.2,594.9c2.5-1.4,7.4,1.2,7.4-4.5c4.2,2.3,3.9,6.3,4,10.4c3.3-1.1,5.8-2.2,5.4-6c0.6,0.2,1.3,0.4,1.9,0.8
	c1.6,1,4.8-0.4,4.8,2.7c0,2.5-2.9,1.6-4.3,2.6c-3.3,2.4-8.1,3.4-7.9,9c-0.3,0-0.7,0-1,0c-0.2-0.4-0.3-0.8-0.5-1.2
	c0-3.8-2.3-4.4-5.4-4.1l-0.1-0.6c-0.1-1.5,0.7-3.8-0.9-4.3c-2.4-0.8-1.5,2.9-3.4,3.4C420.3,600.4,423.2,597.7,423.2,594.9z"/>
<path class="st2" d="M423.2,594.9c0,2.8-2.9,5.5,0,8.3c1.2,1.4,2.7,1.5,4.3,0.9l0.1,0.6c0,1.3,0,2.6,0,3.9c0.5,0.9,1,1.9,1.5,2.8
	c-1.4,0.5-3.8,2.2-4.2,0.5c-1.2-5.7-6.6-4.8-9.8-7.3c0.3-3.1-0.9-4.8-4.3-4.2l0,0c0.7-1.6,3.9-1,3.5-2.7c-0.7-2.8-3.8-2.9-6.2-3.4
	c0.4-0.3,0.8-0.6,1.2-1c1.1,0,2.2-0.1,2.9-1.2c1.4,0.2,2.9,2.1,4.3-0.1c1.4,0.1,2.7,0.1,4.1,0.2c0.5,0.4,0.9,0.8,1.4,1.2
	C422.3,593.9,422.7,594.4,423.2,594.9z"/>
<path class="st8" d="M434.4,610c-0.3-5.5,4.5-6.6,7.9-9c1.4-1,4.3-0.1,4.3-2.6c0-3.1-3.2-1.7-4.8-2.7c-0.6-0.4-1.3-0.5-1.9-0.8
	c-0.7-0.2-2.3-0.4-1.4-1.2c1.5-1.5,3.2-3.2,5.7-3.1l0,0c3.7,2.8,4.3,7.6,6.9,11.1c-2.5,1.1-4.8,2.4-4.1,5.7
	c-0.1,0.4-0.1,0.9-0.3,1.3C442.9,610.8,438.9,612.5,434.4,610z"/>
<path class="st7" d="M473.7,582.1c-4.1-2.2-9.8-0.8-12.8-5.5c0.1-0.2,0.2-0.4,0.3-0.5c-0.1,0.2-0.2,0.4-0.3,0.6c-0.5,0-0.9,0-1.4,0
	c0-1.9,0-3.7,0-5.6c4.6,0,9.2,0,13.9,0c0,0.5,0,1,0.1,1.5c-0.1,3.2,4.2,5.1,2.5,8.8C475.1,581.2,474.1,580.7,473.7,582.1z"/>
<path class="st8" d="M406.9,571.2c-2.5-2.2-5.5-2.8-8.7-2.9c-1.5-5,5.7-3.1,5.6-7c0.5-0.5,0.9-0.9,1.4-1.4l0,0
	c2.6,0.2,4,2.3,5.3,3.9C413.6,567.8,412.3,570.2,406.9,571.2z"/>
<path class="st8" d="M421.1,578.9c6-0.9,10.1,3.1,15.1,3.4c2.6,0.2,2.3,2.4,2.3,4.2c0,1.6-1.1,2.1-2.3,1.4
	C431.4,584.9,424.3,585.7,421.1,578.9z"/>
<path class="st4" d="M406.8,582.3c3.6-1,7.9,3.5,11-1.5v0c0.5,0.5,0.9,1,1.4,1.5c0.7,3.4,5.7,8.4-3.1,8.3
	C413,587.8,409.9,585,406.8,582.3z"/>
<path class="st5" d="M406.8,582.3c3.1,2.8,6.2,5.6,9.3,8.3c0.1,0.5,0.1,0.9,0.2,1.4c-1.4,2.2-2.8,0.3-4.3,0.1
	c-1.3-0.9-2.6-1.8-3.9-2.7c-1.7-1-3.4-1.8-5.4-1.7c0-0.9-0.1-1.7-0.1-2.6c2.9-0.3,2.6-2.5,2.7-4.5
	C405.8,581.1,406.3,581.7,406.8,582.3z"/>
<path class="st6" d="M430.1,572.4c0.1-0.9,0.1-1.8,0.2-2.7c3.8-1.8,5.3,4.8,9.2,2.4c-0.4,1.8,1.2,4.4-0.8,5.5
	c-1.9,1.1-4.1,2.5-6.8,0.2C429.9,576.1,431.8,573.8,430.1,572.4z"/>
<path class="st8" d="M473.4,571.1c-4.6,0-9.2,0-13.9,0C466.5,566.6,470.9,566.6,473.4,571.1z"/>
<path class="st8" d="M419.2,582.3c-0.5-0.5-0.9-1-1.4-1.5C418.2,581.3,418.7,581.8,419.2,582.3z"/>
<path class="st8" d="M406.3,574.1c-0.7-0.7-0.7-1.2,0.2-1.7C406.5,573,406.4,573.5,406.3,574.1z"/>
<path class="st4" d="M421.8,593.4c-0.5-0.4-0.9-0.8-1.4-1.2C420.9,592.6,421.3,593,421.8,593.4z"/>
<path class="st3" d="M490.1,667.3c-1.4-0.2-2.8-0.4-4.2-0.6c-0.4,0-0.8,0.1-1.3,0.1l0,0.5c-2.8-2.5-5.5-5.1-9.3-6.1
	c-2-1.7-3.1-4.4-5.9-5.3c0.5-2.2,3.1-1.9,4.1-3.6c8.4-3.1-2.4-9,1.9-12.7c1.6-1.4,0.2-2.9-0.3-4.3c-2.8-7.2-8-4.2-12.8-3
	c-3.1,0.3-4.6-0.9-4.1-4.1c2.4,0.1,3.8-1.7,5.4-3c1.9-0.5,3.9-0.9,5.8-1.4c5.1,0.4,6.6-3.3,8.3-6.9c2.2-1.8,5,0,7.4-1.2
	c0.3,1.4,0.6,2.9,0.9,4.3c-1.4,0.9-1.7,2.5-1.2,3.7c3.1,7.7-0.1,15-1.5,22.3c-0.1,0.7,0,1.4,0,2.1c-0.2,5.6,1.7,9,8.1,7.9
	c-0.1,1.5-0.1,2.9-0.2,4.4c-0.9,0-1.8,0.3-1.7,1.3c0,0.4,0.7,0.8,1.1,1.3C490.3,664.4,490.2,665.9,490.1,667.3z"/>
<path class="st10" d="M491.3,656c-6.4,1.1-8.3-2.3-8.1-7.9c0-0.7-0.1-1.4,0-2.1c1.4-7.4,4.6-14.6,1.5-22.3c-0.5-1.2-0.1-2.8,1.2-3.7
	c2.8,0.5,6.3,0.2,3.7,4.9c-1.8,3.2,1.5,6.4,0.6,9.3c-1.5,5-2.7,9.2,1.5,13.8C493.1,649.6,492.3,653.3,491.3,656z"/>
<path class="st9" d="M495.9,612.7c-0.2,0.4-0.4,0.8-0.5,1.2c-2.8,3-6.3,1.4-9.6,1.5c0.3-5.4,9.8-3.4,6.5-12.1
	C497.4,607.1,493,610.8,495.9,612.7z"/>
<path class="st8" d="M434.6,692.1c-0.1,0.6-0.1,1.1-0.2,1.7c-8.1,0.1-9.8,1.8-8.2,8.3c-0.5,0-1,0-1.5,0c-1.9-0.4-0.6-4-3.4-3.5
	c-7.2,1.3-9.4-3.2-10.6-9c0.5-0.5,0.9-1,1.4-1.5c3.5,1.3,7,2.5,10.7,3.9c-1-6.8-4.5-9.3-10.7-8c-1.8-0.8-2.8-2.1-2.8-4.1
	c2.5-3.3,2.8-6.3-1.4-8.6c0.3-2.7,2.2-5.2,1-8.1c4.6,1.3,5.8-3.6,9-4.9c0.9,1.1,1.7,2.1,2.6,3.2c0,5,3,8.9,5.2,13
	c2.9,1.7,5.1,4.2,7.2,6.8C433.5,684.9,432.1,688.8,434.6,692.1z"/>
<path class="st0" d="M410.7,689.6c1.2,5.8,3.4,10.3,10.6,9c2.8-0.5,1.5,3,3.4,3.5c-1.1,1.3,1.8,4.9-2.1,4.4c-5-0.7-3,4.4-5.3,5.7
	c-3.8,2-4.7-2.3-7.3-3.6c-0.4,1.1-0.5,2.5-1.2,3.1c-1.9,1.5,2.3,5.6-1.8,5.2c-3.4-0.3-1.2-4.2-1.9-6.4l0.5-0.2l0.1-0.4
	c-0.2,0.2-0.4,0.4-0.6,0.6c-2-1.5-3.9-0.9-5.7,1.1c-0.8-3.4,1.8-6.5-1.3-8.4c-1.6-1-2.2,0.9-2.7,2c-2-0.9-1.1-3.5-2.6-4.7
	c0.4-0.4,0.9-0.9,1.3-1.3c2.9-2.5,2.3-4.9-0.3-7.2c1.4-0.9,2.8-1.8,4.2-2.6C402.3,688.3,406.5,687.7,410.7,689.6z"/>
<path class="st10" d="M392.8,700.5c1.6,1.2,0.6,3.7,2.6,4.7c0.8,1.7,1.3,3.3,1.4,5.3c0.3,7.7,0.3,7.8-7,5c-0.7-0.3-1.7,0.4-2.5,0.6
	C386.4,709.9,388.3,704.8,392.8,700.5z"/>
<path class="st12" d="M426.3,702.1c-1.6-6.5,0.1-8.2,8.2-8.3c1,3.2-2.3,7.7,2.8,9.7c-1.5,2.1-3.7,1.1-5.6,1.4
	C429.1,705.3,427.7,703.7,426.3,702.1z"/>
<path class="st5" d="M431.7,704.9c1.9-0.3,4.2,0.7,5.6-1.4c3.9,0.8,3.8,1.9-0.2,7c-3.2-2.3-6.3,2.4-9.5,0.1c-0.1-0.5-0.1-1-0.1-1.6
	c1.4-0.5,2.7-0.9,4.1-1.4c1.1-0.3,1-0.8,0.1-1.2C431.6,705.8,431.6,705.4,431.7,704.9z"/>
<path class="st12" d="M427.5,708.9c0,0.5,0.1,1,0.1,1.6c-0.4,0.1-0.9,0.1-1.3,0.2c0.1-1.1-0.2-2.4,0.3-3.1
	C427,707.1,427.4,708.3,427.5,708.9z"/>
<path class="st12" d="M431.6,706.3c0.9,0.5,1,0.9-0.1,1.2C431.6,707.1,431.6,706.7,431.6,706.3z"/>
<path class="st9" d="M389.9,696.5c-3.2,5.8-10.8,9-16.5,6.9c-0.3-0.1-1,0.9-1.4,1.4c-0.5-0.5-1-1.1-1.6-1.6
	c-2.4-2.9-5.1-5.7-1.5-9.5c3,2.5,6.5,1.1,9.8,1c0,1,0,2.1,0.1,3.1l-0.5,0.2l-0.1,0.3c0.2-0.2,0.4-0.4,0.6-0.5c3.5,1.1,6.9,2,9.8-1.4
	C389,696.5,389.5,696.5,389.9,696.5z"/>
<path class="st8" d="M363.5,719.1c-3-0.2-7.6,4.1-8.4-2.9c5.9,1.5,6.6,1.4,6-1.4c-0.9-4.3,1.6-6.9,3.3-10.1c2.4,1.5,4.4,3.3,5.8,5.7
	c-1.3,1.6-1.5,3.6-1.5,5.5c-0.9,0.8-1.8,1.7-2.7,2.5C365.3,718.7,364.4,718.9,363.5,719.1z"/>
<path class="st10" d="M389.9,696.5c-0.5,0-1,0-1.4,0c0.6-3.5-0.7-5.8-4.1-7c1.1-1.6,5.3-0.1,4.2-4c4.1-0.5,8.3-1,12.4-1.5
	c0.3,2.6-2.9,3.2-3,5.5c-1.4,0.9-2.8,1.8-4.2,2.6c-2.9,1.5-0.1,3,0,4.5C392.5,696.5,391.2,696.5,389.9,696.5z"/>
<path class="st9" d="M366.1,718.5c0.9-0.8,1.8-1.7,2.7-2.5c0.2,0,0.5,0,0.7,0c2.4,0.4,5.3-1.1,6.9,1.2c1.1,1.6-1,3-2.2,3.6
	C371.1,722.2,368,722.3,366.1,718.5z"/>
<path class="st0" d="M370.4,710.5c-1.4-2.5-3.5-4.3-5.8-5.7c0.1-0.8,0.2-1.6,0.4-2.4c2-0.7,3.7,0.3,5.5,0.9c0.5,0.5,1,1.1,1.6,1.6
	C371,706.6,372.7,709.1,370.4,710.5z"/>
<path class="st6" d="M393.8,696.5c-0.1-1.5-2.9-3,0-4.5c2.6,2.3,3.2,4.7,0.3,7.2C394,698.3,393.9,697.4,393.8,696.5z"/>
<path class="st0" d="M272.3,583.4c0.3-2.7-0.5-5.6,1.6-8c1.7,4.4,4.5,1,6.6,0.8c2.3-0.2,4.4-1.5,6.7-2.3c3.9,0.1,3.8-6.1,8.2-5.1
	c-2,5.3-2.1,9.6,5.1,10.2c3.2,0.3,2.3,1.5,1.3,3.5c-1.6,3-3.6,1.7-5.9,1.5c-2.3-0.3-5.8-2.6-6.2,2.4c-2.4,3.9-4.6,7.8-4.3,12.6
	c-3.4,1.2-6.7-0.4-9.7-0.2c-2-3.2,3.9-3.8,1.7-6.8c0-1.9,0-3.8,0-5.7C277.8,581.6,273.9,584.5,272.3,583.4z"/>
<path class="st12" d="M267.4,630.9c-0.2-3.7-0.6-7.2,4.3-8.9c2.3-0.8,4.4-3.3,4.2-6.5c0.9,0,1.7,0,2.6,0.1c0.4,0.5,0.9,1,1.3,1.5
	c-1.2,2.9-0.8,5.4,1.6,7.5c-0.3,0.4-0.6,0.8-0.9,1.1c-4.1,0-6.9,1.2-5.7,6.1c0.5,1.9-1.5,2.1-1.9,3.4c-1-0.1-2-0.2-3-0.2
	C270.2,632.9,270,631.2,267.4,630.9z"/>
<path class="st7" d="M285.4,598.9c-0.3-4.8,1.9-8.8,4.3-12.6c0.4,0.4,0.8,0.9,1.3,1.3c0.5,1.5,1.3,2.6,2.9,3l0-0.1
	c-0.1,0.9,0.4,1.3,1.2,1.5c0.1,0.4,0.2,0.8,0.3,1.2c-3.6,3.5-7.2,6.9-4.3,12.6c-1.9,0-3.7,0-5.6-0.1
	C285.4,603.5,285.4,601.2,285.4,598.9z"/>
<path class="st6" d="M267.4,630.9c2.6,0.3,2.9,2,2.3,4.1c-1.9,1.6,0.4,5.9-3.8,6.1c-1.2-2.1-0.6-5.5-4.2-6c-0.1-0.4-0.1-0.8-0.1-1.2
	C263.9,633.6,264,629.2,267.4,630.9z"/>
<path class="st2" d="M285.4,605.8c1.9,0,3.7,0,5.6,0.1l0,0.3c0.3,1.9-3,4.8,1.5,5.6c-0.6,1.9-1.2,3.8-1.8,5.6
	c-1.2-0.7-2.3-1.4-3.5-2c-1.3-2.7,1.4-6.8-3.1-8.3c0-0.4,0-0.7-0.1-1.1C284.5,605.9,285,605.8,285.4,605.8z"/>
<path class="st12" d="M277.3,586.3c0,1.9,0,3.8,0,5.7c-2.6,1.9-5.1,0.3-7.6-0.1c0.7-1.8,1.3-3.6,2-5.5
	C273.6,586.4,275.5,586.4,277.3,586.3z"/>
<path class="st10" d="M278.4,615.6c-0.9,0-1.7,0-2.6-0.1c-0.1-2.3-0.3-4.6-0.3-6.9c0.1-4.5,2.2-5.1,5.7-2.8l-0.2,0.2
	C276,608.1,279.3,612.4,278.4,615.6z"/>
<path class="st10" d="M284,605.9c0,0.4,0,0.7,0.1,1.1c-0.4,1.6,0.4,4.6-2.2,4.1c-3.4-0.6,0.1-3.4-0.7-5l0.2-0.2
	C282.2,605.8,283.1,605.9,284,605.9z"/>
<path class="st2" d="M310.2,696.2c-1.8,0.1-3.6,0.1-5.4,0.2c0.2-3.6,0.4-7.1-4.2-8.3c2.3-3.2-0.3-5.7-1.3-8.4c0.4-2.3-1.6-4.6-0.1-7
	c5.6-1.4,7.7-5.6,8.3-10.9c2.6-3.6,3.6-3.3,7.2,2.7c1,3.7,3,7.8-3.9,8.7c5.4,4.9,10.3,2.5,15.2,1.1c9.1-1.6,4.7,6.3,6.8,9.6
	c-0.5,0.4-0.9,0.9-1.4,1.3c-0.4-1.8-0.9-3.6-2.9-1.1c-1.5,1.9-1.5,4.3-1.4,6.6c-0.6,1.3-1.9,1.4-3.1,1.7c-1.3,0-2.6,0-3.9,0l0.2-0.4
	c2.1-5.4-1.3-7.7-5.2-10.2c-6.5-4.1-4,5.5-7.9,5.1c1.6-0.1,3.1-0.2,4.7-0.2c0,1.4,0,2.8-0.1,4.3
	C307.4,691.6,309.6,694.1,310.2,696.2z M310.9,677.8l-0.3-0.4c-0.1-0.1-0.4,0-0.5,0.1c0.1,0.2,0.2,0.4,0.4,0.7L310.9,677.8z"/>
<path class="st5" d="M370.4,703.2c-1.8-0.5-3.5-1.6-5.5-0.9c-0.1-1.6-0.1-3.1-0.2-4.7c-0.1-7.5-3.5-9.1-11.3-5.5
	c-4.5,4.5-1.3,7.9,1.6,11.4c0.4,0.5,0.8,1,1.3,1.5c0.5,0,1.1,0,1.6,0c-0.1,0.3-0.1,0.6,0,0.9c-1.8,0-3.5,0-5.3,0
	c-2.7-7.1-6.7-1.5-10.1-1.1l-0.6,0l-0.6,0c-0.5-1.4-1-2.7-1.5-4.1c6.4-1.4,10.4-4.8,11.9-11.6c0.5-2,0.2-3.9-0.4-4.6
	c-1.3-1.4-2.8,0.1-4.1,1.2c-2.2,1.9-3.8,4.8-7,5.4c-0.3-2.7,0.9-4.7,3.1-6.2c2.4-1.6,3.9-3.7,3.5-6.7c-0.1-2.2-0.1-4.5-0.2-6.7
	c1.4,0.9,2.9,1.7,4.3,2.6c0.6,1.1,1.6,1.4,2.8,1.5c3.4,1.2,5.9,4.4,9.9,4c0.4,0.1,0.8,0.1,1.2,0.1c2.6,3.9-3.3,3.9-3,7.8
	c3.4-2.5,4.3,2,7.2,2c0,1.4,0,2.8,0,4.2C365.4,697.6,368,700.4,370.4,703.2z"/>
<path class="st2" d="M340.1,691.2c3.2-0.7,4.8-3.5,7-5.4c1.2-1.1,2.7-2.6,4.1-1.2c0.6,0.7,0.9,2.6,0.4,4.6
	c-1.6,6.8-5.5,10.2-11.9,11.6c-1.8-2.1,0-4.7-1-7C339.1,692.9,339.6,692,340.1,691.2z"/>
<path class="st5" d="M324.1,692.6c1.2-0.3,2.4-0.4,3.1-1.7c3.4-0.4,3.7-3,4.3-5.5c0.5-0.4,0.9-0.9,1.4-1.3c4.7,1,3.3-4.1,5.6-5.6
	c0.4,1.8,0.9,3.7,1.3,5.5c-1.2,4.6-5.7,6.4-8.3,9.8c-2.3,0.4-4.6,0.9-7,1.3l0,0C324.3,694.2,324.2,693.4,324.1,692.6z"/>
<path class="st9" d="M331.4,693.7c2.5-3.5,7.1-5.2,8.3-9.8c4.6-0.8,2.2-3.4,1.4-5.5c0-0.5,0-0.9,0-1.4c1.9,0.4,3.7,0.9,5.6,1.3
	c0.3,3-1.1,5.1-3.5,6.7c-2.2,1.5-3.5,3.4-3.1,6.2c-0.5,0.9-0.9,1.7-1.4,2.6C336.2,693.8,333.8,693.7,331.4,693.7z"/>
<path class="st9" d="M335.5,709.6c-2.7-0.5-2.8,1.6-3.3,3.3c-1.2,0.1-2.4,0.2-3.6,0.3c-1.3-2-5.8-3.3-2.8-6.4
	c3.1-3.4,7.3-2.7,11-0.4C335.7,707.2,335.6,708.4,335.5,709.6z"/>
<path class="st5" d="M335.5,709.6c0.2-1.2,0.2-2.4,1.3-3.2c0.9,0.4,1.9,0.9,2.8,1.3c1.5,4,4.4,7.6,2.7,12.3
	C340.7,716.1,333,716.2,335.5,709.6z"/>
<path class="st10" d="M320.1,716c-2.1-0.7-4.2-1.4-6.2-2.1c-1.3-3.6-0.3-6.3,3.3-7.9C316.9,709.8,324.4,711.2,320.1,716z"/>
<path class="st9" d="M317.2,699.4c-0.4-0.2-0.9-0.3-1.3-0.5c0-1.2,0.1-2.4,0.1-3.6c1-1,1.9-2,2.9-2.9c0.5,0,0.9-0.1,1.4-0.2
	l-0.2,0.4C321.5,695.9,317.6,696.9,317.2,699.4z"/>
<path class="st5" d="M328.6,713.2c1.2-0.1,2.4-0.2,3.6-0.3c0.2,1.5,0.3,3,0.5,4.5c-1.4-0.5-2.9-1-4.3-1.5
	C328.4,715.1,328.5,714.1,328.6,713.2z"/>
<path class="st9" d="M324.4,695c-0.2,0.2-0.4,0.4-0.6,0.6l0.1-0.4L324.4,695L324.4,695z"/>
<path class="st8" d="M300.6,688.1c4.6,1.2,4.4,4.7,4.2,8.3c-3.5,1.4-5.5,5.5-9.8,5.6c-7.3-0.9-14.5-1.9-19.3-8.4
	c3.1-1.9,5.5-0.2,7.5,2c0.6,0.7,0.1,2.5,1.9,1.6c0.7-0.3,1.4-1.3,1.5-2.1c0.9-7-4.5-5.1-8.2-5.8c-0.6-2.6,5.7-2.6,2.4-6.9
	c-0.9-1.1,2.8-1,4.4-1.5c-0.2,2.2-0.3,4.3-0.5,6.4c4,0.6,5.3-3.3,8.2-4.5c0.9,2,1.6,3.7,2.4,5.3c0.4,1.2-1.1,3.6,1.5,3.4
	c1.7-0.1,2.1-1.9,1.3-3.6l-0.1,0.1C298.8,688.2,299.7,688.1,300.6,688.1z"/>
<path class="st5" d="M271.5,674.2c-2.1-6.5-6.4-0.1-9.4-1.6c-0.8-3.1-1.7-6.2-1-9.5c2.9,0.2,5.7-0.1,7.5-2.9
	c3.4,4.1,6.8,1.8,10.1-0.1c2.7,0.3,5.2,0.9,7,3.1c-1.3,2.1-4,3.7-2,6.8C279,669.3,274.8,670.5,271.5,674.2z"/>
<path class="st7" d="M295.2,688.3c-0.7-1.7-1.5-3.3-2.4-5.3c-2.9,1.1-4.2,5-8.2,4.5c0.2-2.1,0.3-4.3,0.5-6.4c1.7-2,3.4-4,3.2-6.9
	c2.1,0.3,2.6-2,4-2.7c1.7,0.9,3.5,1.6,5.5,1.3c0.5,0,0.9,0,1.4,0c-1.6,2.3,0.5,4.6,0.1,7c-2.1-0.2-2.4,0.9-1.5,2.3
	c1.4,2.1,1.4,4.1,0,6.1l0.1-0.1C297.1,688.2,296.2,688.3,295.2,688.3z"/>
<path class="st0" d="M278.3,689.4c3.7,0.6,9.1-1.2,8.2,5.8c-0.1,0.8-0.8,1.8-1.5,2.1c-1.7,0.9-1.3-1-1.9-1.6c-2-2.2-4.3-3.8-7.5-2
	c-0.9-1-1.9-1.9-2.8-2.9c0.1-0.9,0.7-2.1,0.3-2.6c-1.8-2.3-0.7-4.3,0.5-6.3c0.1-0.2,1.3-0.2,1.8,0.1c2.3,1.6,1.1,3.6,0.6,5.6
	C275.7,689.2,277.2,689.3,278.3,689.4z"/>
<path class="st0" d="M292.4,671.4c-1.5,0.7-1.9,3-4,2.7c2.5-5.8-2.3-3.6-4.5-4.1c-2.1-3.1,0.7-4.7,2-6.8c6.3-1.5,7.3-0.7,6.4,4.7
	C292,669.1,292.3,670.2,292.4,671.4z"/>
<path class="st2" d="M488.8,590.8c2.4,2.7,4.7,5.5,7.1,8.2c-4.4,3.7-8.7,7.8-15.2,6.9l-0.5,0c-0.4-2.8,5.6-6.4-1.1-8.4
	c0-0.9,0.1-1.8,0.1-2.7c0.1-0.5,0.1-0.9,0.2-1.4l0.6,0l0.6,0C483.2,592.6,486,591.7,488.8,590.8z"/>
<path class="st7" d="M479.1,594.8c0,0.9-0.1,1.8-0.1,2.7c-2.8,2.8-2.2,7.3,1.1,8.4l0.5,0c-1.5,2.7-3,5.4-4.4,8.1
	c-7.4-0.2-3.2-6.1-4.6-9.3c0.8-1.7-0.2-2.8-1.1-3.9c0.9-3.1,4.6-4.1,5.3-7.7c0.3-1.5,3.2-3.4,4.5,0.3l-0.6,0l-0.6,0
	C478.1,593.8,478.1,594.3,479.1,594.8z"/>
<path class="st10" d="M471.7,604.7c1.3,3.2-2.9,9.1,4.6,9.3c0.5,1,1,1.9,1.4,2.9c-1.7,3.6-3.2,7.4-8.3,6.9c0-0.5,0-1,0-1.4
	c4.9-1.3,1.4-4.8,0.7-5.8c-3.1-3.6-3.2-7.8-3.4-12.1C468.3,604.6,470,604.7,471.7,604.7z"/>
<path class="st8" d="M330.2,562.4c4.7-3.4,7.4-7.5,5.3-13.5c0-0.4,0-0.8-0.1-1.3c4.1,0.5,5.2,4,7,6.9c2.1,2.1,2.1,6.6,7.1,5.5
	c1.3-0.3,1.2,2.6,1.3,4.2c-4.6,0-9.3,0.1-13.9,0.1C334,566.1,331.9,564.8,330.2,562.4z"/>
<path class="st2" d="M335.5,547.6c0,0.4,0.1,0.8,0.1,1.3c-1.1,0-2.1,0-3.2-0.1c-2.9,0.2-4.8-1-5.3-4l0.4-0.4
	C330.4,544.8,332.2,548,335.5,547.6z"/>
<path class="st2" d="M320.4,543.4c0.4-0.5,0.8-1,1.2-1.5c2.3,0,5-1,5.8,2.5l-0.4,0.4c-2.2-0.1-4.4-0.1-6.7-0.1
	C320.4,544.2,320.4,543.8,320.4,543.4z"/>
<path class="st0" d="M480.4,593.4c-1.3-3.7-4.2-1.8-4.5-0.3c-0.7,3.6-4.4,4.6-5.3,7.7c-1.3-0.2-2.6-0.3-4-0.5l0,0
	c-0.5-0.6-0.9-1.2-1.4-1.8c0-1.2,0-2.5,0-3.7c0-0.5,0-0.9,0-1.4c4-2.6,4.3-8.9,9.9-9.7c0.8,0.3,1.5,0.7,2.3,1
	c2.4,5.2,7.8,2.8,11.6,4.5c0,0.6-0.1,1.1-0.1,1.7C486,591.7,483.2,592.6,480.4,593.4z"/>
<path class="st14" d="M477.4,584.7c-0.8-0.3-1.5-0.7-2.3-1c-0.4-0.5-0.9-1-1.3-1.5c0.4-1.4,1.4-0.9,2.3-0.8
	C476.8,582.3,477.8,583.2,477.4,584.7z"/>
<path class="st12" d="M469.3,692.3c1.9,1.3,1.2,3.5,1.9,5.2l-0.5,0.4c-1,0.2-2.1,0.4-3.1,0.6c-0.7,0-1.4,0-2.1,0
	c-3.8-0.3-7.6-0.5-11.4-0.8c-0.6-0.3-1.2-0.7-1.8-1c-0.3-1.5-1.5-1.5-2.6-1.4c-0.8-0.1-1.7-0.2-2.5-0.4c-0.1-0.4-0.1-0.8-0.2-1.3
	c0-0.9,0-1.8-0.1-2.7c2.9-0.5,5.5,0.7,8,1.7C458.3,696.9,466.6,696.6,469.3,692.3z"/>
<path class="st10" d="M454.1,697.7c3.8,0.3,7.6,0.5,11.4,0.8C459.8,705.7,459.8,705.7,454.1,697.7z"/>
<path class="st10" d="M467.6,698.5c1-0.2,2.1-0.4,3.1-0.6c0,0.9,0,1.8,0.1,2.7C469.1,700.8,468.1,700,467.6,698.5z"/>
<path class="st10" d="M449.7,695.3c1.2-0.1,2.3-0.1,2.6,1.4C451.4,696.3,450.6,695.8,449.7,695.3z"/>
<path class="st10" d="M384.4,571c-0.1,1.3-0.1,2.6-0.2,3.9c-3.6-0.4-7.1-0.9-9.6-4c0.1-1.8-0.5-3-2.6-2.6c-1.1-0.6-1.5-1.5-1.4-2.7
	c1.9,0.1,3.3-0.6,4.2-2.3c1.2,0,2.5,0,3.7-0.1c1.9,2.1,3.8-0.9,5.7,0c-0.1,0.6-0.1,1.3-0.2,1.9c-1.2,1.1-1,2.2,0.2,3.2
	C384.2,569.3,384.3,570.1,384.4,571z"/>
<path class="st8" d="M374.8,563.4c-0.9,1.6-2.3,2.4-4.2,2.2c-1-0.5-2-1-3-1.5c2.3-4.8-4.6-5.7-4.2-9.7c3.6,1.8,7.7-1,11.3,1.3
	C374.7,558.2,374.7,560.8,374.8,563.4z"/>
<path class="st8" d="M396.9,568.4c-2.6,1.7-5.6,1.9-8.5,2.5c0.5-2.2,1.1-4.5,1.6-6.7C393.4,563.6,394.8,566.5,396.9,568.4z"/>
<path class="st8" d="M384.2,563.3c-1.9-1-3.8,2-5.7,0C380.4,559.9,382.3,558.3,384.2,563.3z"/>
<path class="st8" d="M384.2,568.5c-1.1-1-1.4-2.1-0.2-3.2C385.7,566.3,385.9,567.3,384.2,568.5z"/>
<path class="st0" d="M396.9,555.7c1,0.3,2.2,0.2,2.1,1.8l-0.4,0.4c-1.5,0.2-1.5-1-1.8-2L396.9,555.7z"/>
<path class="st0" d="M405.2,560c-0.5,0.5-0.9,0.9-1.4,1.4C404.3,560.9,404.8,560.4,405.2,560z"/>
<path class="st8" d="M305.9,565.8c1.2,1.5,2.9,0.9,4.4,0.9c0.4,7.5,3.2,9.7,12.7,10c0,0.5,0,0.9,0,1.4c-2,2-5,3.3-4.2,7
	c-1.7,3.2,2,3.7,2.8,5.6c-1.5,1.9-3.7,1.1-5.6,1.3c0.1-0.5,0.3-0.9,0.4-1.4l0.4-0.4c-0.1-0.3-0.3-0.5-0.4-0.8
	c-2.8-0.9-6.5,2.4-8.7-1.8c3.3-3.7-2.1-6.2-1.3-9.6C308.9,573.9,303.7,569.9,305.9,565.8z"/>
<path class="st2" d="M306.3,578c-0.8,3.4,4.6,5.9,1.3,9.6c-1.8,0.1-3.5,0.2-5.3,0.3c-0.5,0-1.1,0-1.6,0.1c-2.1-0.2-4.3-0.4-4.3,2.8
	c-0.9-0.2-1.7-1.6-2.7-0.2l0,0.1c1.3-3.2-0.9-3-2.9-3c-0.4-0.4-0.8-0.9-1.3-1.3c0.3-5,3.9-2.7,6.2-2.4c2.3,0.3,4.3,1.5,5.9-1.5
	c1.1-2,2-3.2-1.3-3.5c-7.2-0.6-7.1-4.9-5.1-10.2c0.9-0.2,1.7-0.4,2.6-0.6C297.5,574.2,301.6,576.4,306.3,578z"/>
<path class="st2" d="M323,576.7c-9.5-0.3-12.3-2.5-12.7-10c0.1-0.4,0.1-0.8,0.2-1.2c1.4,0,2.8,0,4.2,0c0.2,0.7-0.3,2,1.3,1.8
	c0.2,0,0.4-0.3,0.5-0.5c0.3-1.6-1-1.1-1.8-1.3c1-7.1,4.8-0.2,7-1.4c0,2.4-0.1,4.8,1.5,6.8C323.1,572.9,323,574.8,323,576.7z"/>
<path class="st7" d="M306.3,578c-4.7-1.6-8.8-3.8-8.3-9.9c2-1.4,3.9-3.1,6-4.3c2.3-1.3,1.8,0.7,1.9,1.9
	C303.7,569.9,308.9,573.9,306.3,578z"/>
<path class="st0" d="M367.6,564.1c1,0.5,2,1,3,1.5c-0.1,1.2,0.3,2.2,1.4,2.7c0.3,1.4,1,2.5,2.6,2.6c2.5,3.1,6,3.6,9.6,4
	c2.4,2.1,1.4,4.7,1.3,7.2c-0.8,0-1.7,0-2.5,0.1c-1.6-4.4-4.3-3.1-7-1.3c-2.3-0.1-4.6-0.2-6.8-0.4c-0.6-1.5-0.1-3.8-3.4-2.1
	c-4.9,2.6-7.3-1.1-9.5-4.7c-0.8-1.3,0.6-4.1-2.5-4l-0.1-0.2c3.7-0.4,4-5.3,7.6-5.8c-0.8,2.1-0.5,4,0.8,5.7c1.2,1.6,2.4,3.9,4.7,2.4
	c2.4-1.5-0.4-3.1-0.6-4.6C366.2,566,366.4,564.8,367.6,564.1z"/>
<path class="st0" d="M337,564.2c4.6,0,9.3-0.1,13.9-0.1c0.5,0,1,0,1.4,0c5.6,0.6-2,4.3,1.3,5.4l0.1,0.2c0,2.3-1.3,2.1-2.8,1.4
	c-1,0.4-1,0.9,0,1.4c0,0.4,0,0.9,0,1.3c-3.4,0.5-6.8,0.9-10.2,1.6c-7.8,1.7-5.6,7.6-5.2,12.8c-0.9-0.6-1.7-1.2-2.6-1.7
	c-0.6-1.9-3.1-3-2.8-5.4c-3.1-3.9,3.2-3.9,2.8-6.7c0.7-0.6,1.4-1.2,2-1.8c0.7-1.1,0-1.4-0.9-1.7c0.3-0.8,0.6-1.7,0.9-2.5
	c0.7,0,1.3,0,2,0c0.7,1,1.6,0.8,2.4,0.4c1.3-0.7,1.9,2.5,3.2,0.5c0.3-0.5,0.1-1.4-0.1-2c-0.7-2-2.1-1-3.3-0.6
	c-0.6,0.2-1.3,0.3-2,0.4C336.9,566,336.9,565.1,337,564.2z"/>
<path class="st6" d="M353.6,569.5c-3.3-1.1,4.3-4.8-1.3-5.4c0-1.1,0.2-2.2,1.3-2.8c0.6,1,1.5,1.5,2.7,1.1l0.4-0.5
	c-1-0.2-2.1-0.4-3.1-0.6c-1.2-6.2,5.8,0.5,5.8-3.8c3.1,1.4,2.6,3.7,1.7,6.2l0.1,0C357.6,564.3,357.3,569.2,353.6,569.5z"/>
<path class="st14" d="M361.2,563.8L361.2,563.8c2.9-0.7,3.4,2.2,4.9,3.5c0.2,1.6,3,3.1,0.6,4.6c-2.4,1.5-3.6-0.8-4.7-2.4
	C360.7,567.8,360.4,565.8,361.2,563.8z"/>
<path class="st3" d="M432.9,681.4c-2-2.6-4.3-5.1-7.2-6.8c2-7,5.9-8.8,15.8-7.3c3.8,0.9,7.2,1,8-4c1.9-2.1,3-4.3,1.4-7.1
	c2.7-0.9,0.6-3.5,2-5.4c0.9,1.5,1.7,2.8,2.5,4.1c2.9,2.9,4,6,1.4,9.7c0,0.5,0.1,1,0.1,1.5c-0.4,0.4-0.9,0.8-1.3,1.2
	c-3.6,0.1-2.7,4-4.6,5.6c-2.1-0.9-3.9-4.2-6.6-1.7c-2.3,2.1-2.4,4.8-0.3,7.4c0,0.5,0,1,0,1.5c0,1.4,0.1,2.8,0.1,4.2
	c0,0.4-0.2,0.8-0.4,1.2c-1.3,0.1-2.8,0-3.5,1.5c-0.7,1.5-1.1,3.1-3.2,2.5c-2.5-0.7-0.8-2.1-0.7-3.5
	C436.6,683.7,434.5,682.5,432.9,681.4z"/>
<path class="st7" d="M443.9,685.3c0.2-0.4,0.4-0.8,0.4-1.2c1.4-0.5,2.7-1.1,4.1-1.6c3.5,3.4,7.1,6.6,12.6,4.3
	c-0.1,3.9-4.7,3.2-5.9,6c-2.6-1.1-5.1-2.2-8-1.7c-0.9-1-1.8-2-2.7-2.9C444.1,687.2,444,686.2,443.9,685.3z"/>
<path class="st10" d="M444.3,688.1c0.9,1,1.8,2,2.7,2.9c0,0.9,0,1.8,0.1,2.7c-1.7-0.3-3.9,0.8-4.8-1.2
	C441.4,690.8,442.8,689.2,444.3,688.1z"/>
<path class="st12" d="M268.6,660.3c-1.8,2.8-4.6,3-7.5,2.9c-1.3-0.9-2.7-1.9-4-2.8c0.1-1.9,0.2-3.7,0.4-5.6c2-0.1,4.1,0.1,4.2-2.8
	c0-1.4,0-2.8,0-4.2c0.6-1.1,1.6-1.4,2.7-1.4c1.4,2.8,2.8,5.6,4.2,8.4c0,0.5,0,0.9,0,1.4C268.6,657.5,268.6,658.9,268.6,660.3z"/>
<path class="st4" d="M257.5,654.7c-0.1,1.9-0.2,3.7-0.4,5.6c-5.2,1.5-4.6-3-5.9-5.6c-1-2-3.8-4.2,0.6-5.7l0.3,0.2
	c0,2.6,1.3,3.9,3.9,4.1C256.5,653.7,257,654.2,257.5,654.7L257.5,654.7z"/>
<path class="st9" d="M310.2,696.2c-0.6-2.1-2.8-4.6,1.5-5.2c1,1.3,2,2.6,3.1,3.9c-3.2,0.3-3,2-1.6,4.1c-0.9,0-1.8,0.1-2.7,0.1
	C310.4,698.2,310.3,697.2,310.2,696.2z"/>
<path class="st7" d="M261.6,635.1c3.6,0.5,3,3.9,4.2,6c-0.4,0.8-0.9,1.7-1.3,2.5c-3.4,1.1-5.5-1.9-8.2-2.8
	C255.8,636.7,259.1,636.2,261.6,635.1z"/>
<path class="st2" d="M256.3,640.8c2.7,1,4.8,3.9,8.2,2.8c0,0.9-0.1,1.8-0.1,2.7c-1.1,0-2.1,0.3-2.7,1.4c-2.7-0.2-3.8-2.7-5.7-4.1
	c0-0.6-0.1-1.3-0.1-1.9C255.8,641.3,256,641,256.3,640.8z"/>
<path class="st4" d="M255.9,641.7c0,0.6,0.1,1.3,0.1,1.9c-3.9,0-1.8,4.3-4,5.6l-0.3-0.2C252.4,646.2,250.5,641.9,255.9,641.7z"/>
<path class="st6" d="M336.9,568.3c-0.7,0-1.3,0-2,0c-1.9-0.1-4-0.3-2.1,2.6c-2.8,0.1-5.6,0.2-8.4,0.2c-0.4-0.1-0.9-0.1-1.3-0.2
	c-1.6-2.1-1.5-4.5-1.5-6.8c-0.9-1.9-1.8-3.7-2.7-5.6c4.3-0.4,8,1.2,11.3,3.8c1.8,2.5,3.8,3.8,6.8,1.8c0,0.9,0,1.8,0,2.7
	C336.9,567.4,336.9,567.8,336.9,568.3z"/>
<path class="st12" d="M320.4,544.6c2.2,0,4.4,0.1,6.7,0.1c0.5,3,2.3,4.2,5.3,4c0.1,2.7-1.5,2.7-3.5,2.4c-2.4-0.4-4.8-0.7-7.1-1
	C322.1,548.1,321.1,546.4,320.4,544.6z"/>
<path class="st6" d="M317.5,555.7c0-0.9,0-1.8-0.1-2.6c2.2,0,4.4,0,6.8,0C323.1,557.3,319.8,555.1,317.5,555.7z"/>
<path class="st3" d="M313.2,699c-1.3-2.1-1.6-3.8,1.6-4.1c0.4,0.1,0.8,0.2,1.3,0.4c0,1.2-0.1,2.4-0.1,3.6
	C315,698.9,314.1,699,313.2,699z"/>
<path class="st2" d="M342.4,704.9c3.5-0.5,7.5-6,10.1,1.1c-1.6,0.9-2.2,3.3-4.6,3.1C345.1,709,342.2,709,342.4,704.9z"/>
<path class="st4" d="M348,709c2.4,0.2,2.9-2.2,4.6-3.1c1.8,0,3.5,0,5.3,0c0.3,3.3-3.6,4.4-4.1,7.3c-0.5,0.1-1,0.3-1.5,0.4
	c-0.6-0.4,1.1-2.7-1.3-1.6C349.9,711,349,710,348,709z"/>
<path class="st12" d="M350.9,712c2.4-1.1,0.7,1.2,1.3,1.6c-0.5,0.3-0.9,0.7-1.4,1C350.8,713.7,350.9,712.9,350.9,712z"/>
<path class="st7" d="M475.4,661.2c3.8,1,6.5,3.6,9.3,6.1c0,0.9,0,1.8,0,2.7c-1.7,2.1-2.5,6.4-6.5,2.6c-1.1,2.4,2.1,2.7,1.3,4.7
	c-2.1-0.2-4.1-0.4-6.1-0.6c0-2,5.3-5.1-1.2-5.7c-0.9-0.1-1.4-1.5-0.6-2.1C473.9,666.8,472.6,663,475.4,661.2z"/>
<path class="st0" d="M473.3,676.7c2,0.2,4.1,0.4,6.1,0.6c0.8-1.9-2.4-2.3-1.3-4.7c4,3.8,4.7-0.4,6.5-2.6c4.8,2.7-0.9,8.3,3.1,11.3
	l-0.2,0c-0.5,0.4-0.9,0.9-1.4,1.3c-0.4,0-0.9,0.1-1.3,0.1c-2.7-1.2-5.2-3.5-8.4-1.6c-0.6-1.1-1.7-1.4-2.8-1.5
	c-0.1-0.9-0.1-1.9-0.2-2.8L473.3,676.7z"/>
<path class="st10" d="M484.7,666.8c0.4,0,0.8-0.1,1.3-0.1l-0.6,0.3L484.7,666.8z"/>
<path class="st2" d="M473.5,679.7c1.2,0.1,2.2,0.3,2.8,1.5c-2,4.1,5.5,5.5,2.7,9.8c-4.5,1.9-8.1-3.4-12.6-1.5c-2-0.7-3.1-3-5.6-2.7
	c-5.5,2.3-9.1-0.9-12.6-4.3c0-0.4,0.1-0.8,0.2-1.2c5.2,0,4.5-2.6,2.6-5.8c0-0.9,0-1.9,0-2.8c1.9-1.5,1-5.4,4.6-5.6
	c-0.2,1.9-0.4,3.8-0.6,5.8c-0.2,3.4,1.4,5.5,4.4,6.7c-2.2,6,1.8,5.7,5.3,4.9c2.4-0.5,4.5-2.4,7.2-2c-0.3,1.2-1.7,2.3-0.4,3.6
	c0.7,0.7,1.7,0.7,2.4-0.1c1.2-1.4-0.2-2.4-0.6-3.6C473.5,681.6,473.5,680.6,473.5,679.7z"/>
<path class="st8" d="M460.9,686.8c2.4-0.3,3.6,2,5.6,2.7c0.9,0.9,1.9,1.9,2.8,2.8c-2.7,4.3-11,4.6-14.3,0.5
	C456.2,690,460.8,690.7,460.9,686.8z"/>
<path class="st12" d="M353.7,713.2c0.5-2.9,4.4-3.9,4.1-7.3c0-0.3,0-0.6,0-0.9c2-2.1,3.2-4.5,4.2-7.2c0.9,0,1.8-0.1,2.7-0.1
	c0.1,1.6,0.1,3.1,0.2,4.7c-0.1,0.8-0.2,1.6-0.4,2.4c-1.8,3.1-4.2,5.8-3.3,10.1c0.6,2.8-0.1,2.9-6,1.4
	C355,715,354.9,713.8,353.7,713.2z"/>
<path class="st4" d="M486.1,682.7c0.5-0.4,0.9-0.9,1.4-1.3C487,681.8,486.6,682.2,486.1,682.7z"/>
<path class="st4" d="M277.3,586.3c-1.9,0-3.8,0.1-5.7,0.1c-0.3-1.1-0.4-2.2,0.7-3.1C273.9,584.5,277.8,581.6,277.3,586.3z"/>
<path class="st12" d="M446.8,608.7c0.1-0.4,0.2-0.8,0.3-1.3c0.9-0.5,1.8-1.1,2.7-1.6c1.6,0,3.2,0,4.8,0.2c2.1,0.3,5.1-1.2,6,1.7
	c0.9,2.9-2.6,2.5-4,3.6c-3.1,2.4-2.2,5.7-2.7,8.8c-3.2,0-6.5-0.6-9.5,1.3c-0.5-0.5-1.1-1.1-1.6-1.6c0.2-2.3,1.6-4.1,3.5-4.7
	C452.1,613.2,449.5,611,446.8,608.7z"/>
<path class="st5" d="M444.2,621.2c3-1.9,6.3-1.3,9.5-1.3c2.1,2.2,4.8,1.2,7.2,1.3c1.7,0.8,2.6,2.1,2.6,4c-1.6,1.3-3,3.1-5.4,3
	c-3-2.1-6.5-1.4-9.8-1.4c-1.4-1-2.7-1.9-4.1-2.9C444.3,623.1,444.3,622.2,444.2,621.2z"/>
<path class="st7" d="M451.2,601.7c-2.6-3.5-3.2-8.3-6.9-11.1c3.7-0.1,7.2-0.1,10.6,1.8c4.5,2.5,2.3,6.9,2.8,10.3
	c0.4,2.6-3.1,1.5-5,1.6c-0.1-1-0.3-2-1.4-2.5L451.2,601.7z"/>
<path class="st9" d="M463.6,625.2c0-1.9-0.9-3.2-2.6-4c3.8-6.5,5.5,1.7,8.4,1.2c0,0.5,0,1,0,1.4
	C467.5,624.3,465.5,624.8,463.6,625.2z"/>
<path class="st6" d="M461.1,593.2c-2.1-2.8-0.8-4.7,1.8-6c2.1-1,3.6-0.6,3.5,2.2C463.3,588.7,464.6,594.3,461.1,593.2z"/>
<path class="st7" d="M461.1,593.2c3.5,1.1,2.2-4.5,5.4-3.8c-0.5,1.3-0.9,2.7-1.4,4c0,0.5,0,0.9,0,1.4c-1.3,0.4-1.5,2.7-3.1,2.1
	C460.4,596.2,461.1,594.5,461.1,593.2z"/>
<path class="st5" d="M466.6,600.3c1.3,0.2,2.6,0.3,4,0.5c0.9,1.2,1.9,2.3,1.1,3.9c-1.7,0-3.3-0.1-5-0.1
	C466.6,603.2,466.6,601.7,466.6,600.3z"/>
<path class="st4" d="M449.7,605.8c-0.9,0.5-1.8,1.1-2.7,1.6c-0.6-3.4,1.6-4.6,4.1-5.7l0.1,0.1c0,0.8-0.1,1.7-0.1,2.5
	C450.7,604.8,450.2,605.3,449.7,605.8z"/>
<path class="st8" d="M451.1,604.3c0-0.8,0.1-1.7,0.1-2.5c1.1,0.5,1.3,1.5,1.4,2.5C452.2,604.3,451.6,604.3,451.1,604.3z"/>
<path class="st5" d="M465.2,598.5c0.5,0.6,0.9,1.2,1.4,1.8C466.1,599.7,465.6,599.1,465.2,598.5z"/>
<path class="st8" d="M402.6,585.1c0,0.9,0.1,1.7,0.1,2.6c1.3,2.3,2.7,4.7,4,7c-0.6,1.5-2.3,3.1,0.2,4.5c-0.9,6.6-6.2,5.1-10.4,5.6
	c-0.3,0-0.5-0.1-0.8-0.3c-2.2-1.1,0.8-9.7-5.9-4c-3.8-1.4-4.6-4.9-5.6-8.2c0.7-2.4,0.7-6.2,3.8-6.1c4.8,0.2,2.7-1.9,2-3.9
	c1.5-0.1,3.1-0.2,4.1,1.3c-0.1,0.2-0.2,0.4-0.4,0.6c0.1-0.2,0.2-0.4,0.3-0.6C396.9,584.3,400.8,578.6,402.6,585.1z"/>
<path class="st7" d="M389.9,582.3c0.7,2,2.8,4.1-2,3.9c-3.1-0.1-3.1,3.6-3.8,6.1c-2.6-0.9-3.7,1.1-5.1,2.6c-3.9-1-5.9-4.5-8.7-6.9
	c3.6-1,4.2-4.3,5.5-7c2.7-1.8,5.4-3.2,7,1.3c0.2,1.7,0.3,3.6,2.7,1.6C387.1,583.3,388.5,582.8,389.9,582.3z M381.2,584.9l-0.3-0.4
	l-0.4,0.4c0.2,0.2,0.3,0.4,0.5,0.6L381.2,584.9z"/>
<path class="st4" d="M392.6,578c0.3-1.3-0.3-3.7-0.1-3.6c3.6,3.3,4.8-4.8,8.1-1.7c1.5,1.4,2.3,2.5,0.1,4.4c-2.6,2.3-5.2,0.7-7.8,1.1
	L392.6,578z"/>
<path class="st8" d="M385.6,583.8c-2.4,1.9-2.5,0.1-2.7-1.6c0.8,0,1.7,0,2.5-0.1C385.5,582.7,385.6,583.2,385.6,583.8z"/>
<path class="st4" d="M392.8,578.2c-0.2,0.2-0.5,0.4-0.7,0.5c0.2-0.2,0.4-0.5,0.5-0.7L392.8,578.2z"/>
<path class="st4" d="M446.8,608.7c2.7,2.3,5.3,4.5-0.6,6.2c-1.9,0.6-3.3,2.4-3.5,4.7c-0.9,0.2-1.9,0.3-2.8,0.5
	c-0.4-0.4-0.8-0.8-1.3-1.2c-1-3.5-8.3,0.4-6.8-5.9c1.3-0.6,1.4-1.8,1.6-3c0.3,0,0.7,0,1,0C438.9,612.5,442.9,610.8,446.8,608.7z"/>
<path class="st12" d="M427.5,608.6c0-1.3,0-2.6,0-3.9c3.1-0.3,5.4,0.3,5.4,4.1c-0.9,0.9-1.7,1.9-2.6,2.8l-0.3-0.2
	C430.5,609.2,429.1,608.8,427.5,608.6z"/>
<path class="st0" d="M427.4,604.1c-1.6,0.6-3.1,0.5-4.3-0.9c1.9-0.4,0.9-4.2,3.4-3.4C428.2,600.3,427.3,602.6,427.4,604.1z"/>
<path class="st5" d="M430.4,611.6c0.9-0.9,1.7-1.9,2.6-2.8c0.1,0.4,0.3,0.8,0.5,1.2c-0.2,1.2-0.3,2.4-1.6,3
	C431.3,612.5,430.8,612,430.4,611.6z"/>
<path class="st12" d="M430.4,611.6c0.5,0.5,0.9,0.9,1.4,1.4c-1.4,6.3,5.9,2.4,6.8,5.9c-1.4-0.3-2.7-0.5-3.9,0.6
	c-4.6,4.2-8.7,4.8-12-1.6c-0.9-1.7-2.4-1.3-3.9-1.7c-8.2-2.3-17.4-2.9-22.5-11.4c4.2-0.5,9.5,1,10.4-5.6c1.3,0.4,2.6,0.8,3.9,1.2
	l0,0c0.7,2.1,2.2,3.5,4.3,4.2c3.2,2.5,8.6,1.6,9.8,7.3c0.3,1.7,2.7,0,4.2-0.5l0.6,0l0.5-0.1L430.4,611.6z"/>
<path class="st4" d="M410.7,600.4c-1.3-0.4-2.6-0.8-3.9-1.2c-2.5-1.4-0.7-3-0.2-4.5c0.5-0.1,0.9-0.2,1.3-0.4
	c2.5,0.5,5.5,0.6,6.2,3.4C414.7,599.4,411.4,598.7,410.7,600.4z"/>
<path class="st12" d="M408,594.3c-0.4,0.2-0.8,0.3-1.3,0.4c-1.3-2.3-2.7-4.7-4-7c2-0.1,3.8,0.7,5.4,1.7c0.3,1.3,0.7,2.6,1.1,3.9
	C408.8,593.7,408.4,594,408,594.3z"/>
<path class="st4" d="M415.1,604.6c-2.1-0.7-3.6-2.1-4.3-4.2C414.2,599.8,415.3,601.5,415.1,604.6z"/>
<path class="st4" d="M409.2,593.3c-0.4-1.3-0.7-2.6-1.1-3.9c1.3,0.9,2.6,1.8,3.9,2.7C411.4,593.3,410.3,593.4,409.2,593.3z"/>
<path class="st0" d="M430.1,611.3l-0.5,0.1l-0.6,0c-0.5-0.9-1-1.9-1.5-2.8C429.1,608.8,430.5,609.2,430.1,611.3z"/>
<path class="st2" d="M461,576.7c0.1-0.2,0.2-0.4,0.3-0.6C461.2,576.3,461,576.5,461,576.7L461,576.7z"/>
<path class="st9" d="M448.4,626.9c3.3,0,6.8-0.7,9.8,1.4c-0.4,3.2,1.1,4.4,4.1,4.1c-0.1,0.5-0.2,0.9-0.3,1.4
	c-2.5,0.5-5.4,0.5-5.4,4.2c-0.4,0-0.8,0.1-1.2,0.2c-1.8-0.2-3.8-1.1-5.4-0.6c-3.9,1.1-10.8,0.9-10.5,4.9c0.8,9.4-4.3,3.8-6,2.6
	c-3-2.2-4.5-1.4-6,1.3c0,0.5,0,1,0,1.5c-0.9,0-1.9,0-2.8,0c0-0.5,0-1,0-1.5c0.5-0.9,1-1.9,1.5-2.8c2.4-3.4,9.5-0.3,9.7-6.9
	c0.4-3.5,1.8-5.7,5.9-5.8C444.5,630.8,447,629.6,448.4,626.9z"/>
<path class="st12" d="M456.9,664.5c2.6-3.7,1.5-6.8-1.4-9.7c3.6-1.2,6-2.6,1.8-6.1c-1.8-1.5-0.9-2.1,0.9-2.2c3,0,2.1-2.6,2.8-4.1
	c4.1,1,4.6-3.6,7.3-4.7c4,4.3,5.7,9.2,5.3,14.8c-0.9,1.7-3.6,1.4-4.1,3.6c-0.5,0-1,0.1-1.6,0.1c-2.3,1.8-6.9,0.8-7,5.6
	C460.2,663.4,458.9,664.4,456.9,664.5z"/>
<path class="st4" d="M473.6,652.3c0.4-5.6-1.3-10.5-5.3-14.8c-2.7,1.1-3.3,5.8-7.3,4.7c-0.1-1.8-0.2-3.7-0.2-5.5
	c0.1-0.2,0.3-0.4,0.4-0.6c0.7,0.3,1.4,0.5,2.1,0.8c0.1-0.6,0.1-1.1,0.2-1.7c-0.5-0.5-0.9-1-1.4-1.5c0.1-0.5,0.2-0.9,0.3-1.4
	c4.8-1.2,9.9-4.2,12.8,3c0.6,1.4,2,2.8,0.3,4.3C471.2,643.3,482,649.2,473.6,652.3z"/>
<path class="st2" d="M467.9,656.1c0.5,0,1-0.1,1.6-0.1c2.8,0.9,3.9,3.6,5.9,5.3c-2.8,1.8-1.5,5.6-3.9,7.7c-0.8,0.7-0.3,2.1,0.6,2.1
	c6.5,0.7,1.2,3.8,1.2,5.7l0,0.1c-1.5,0.1-3.1-0.1-4,1.5v0c-1.9-0.2-4,0.6-5.5-1.4c2.5-0.1,6.6-2.1,5-3.2c-4.2-3-0.2-6.7-2.2-9.5
	C472.3,662.4,467.2,658.8,467.9,656.1z"/>
<path class="st10" d="M458.2,646.4c-1.8,0.2-2.6,0.8-0.9,2.2c4.2,3.5,1.8,5-1.8,6.1c-0.8-1.3-1.6-2.5-2.5-4.1c-1.4,2,0.7,4.6-2,5.4
	c-3.6,0.7-6.1,2.7-7.7,5.9c-1.2,1.5-2.1,3.2-1.7,5.2c-9.9-1.5-13.8,0.3-15.8,7.3c-2.2-4.1-5.1-8-5.2-13l0.6,0.1l0.6-0.2
	c2.9-0.1,3.3,5.5,7.1,3.2c1.6-3,7.2-2.8,6.2-7.9c-0.1-0.4,1.6-1.5,2.6-1.8c1.4-0.4,3.5,0.2,3.4-2.3c-0.1-1.9-2.2-1.1-3.1-2.1
	c-2.2-2.3-5.1-1.4-7.8-1.5c0-1.8-1-2.7-2.8-2.7c1.5-2.7,3-3.5,6-1.3c1.6,1.2,6.7,6.8,6-2.6c-0.3-4.1,6.6-3.8,10.5-4.9
	c1.6-0.5,3.6,0.4,5.4,0.6c-0.1,1.9-1,4.5,2.7,3.8C458.1,643.4,458.2,644.9,458.2,646.4z"/>
<path class="st0" d="M418,658.3c-3.2,1.3-4.4,6.2-9,4.9c-0.4-0.9-0.8-1.8-1.2-2.8c-0.2-2.6-1.1-5.4,1.8-7.3c2.7-0.4,3.7,3.8,6.7,2.4
	c0.5,0.9,1,1.8,1.4,2.6L418,658.3z"/>
<path class="st2" d="M398,689.4c0.1-2.3,3.3-2.9,3-5.5l0,0c1.9,0,5,1.7,4.2-2.6c2.7,3.3,2.7-1.2,4.2-1.5c0,2,1,3.3,2.8,4.1
	c0,1.4-0.1,2.7-0.1,4.1c-0.5,0.5-0.9,1-1.4,1.5C406.5,687.7,402.3,688.3,398,689.4z"/>
<path class="st0" d="M412.1,688.1c0-1.4,0.1-2.7,0.1-4.1c6.2-1.3,9.7,1.1,10.7,8C419.1,690.6,415.6,689.3,412.1,688.1z"/>
<path class="st0" d="M409.4,679.9c-1.5,0.3-1.5,4.7-4.2,1.5c-1.7-1.1-1.2-2.8-1.1-4.4c0.9-0.1,2.4,0.1,2.6-0.3
	c0.7-1.4-0.9-0.9-1.4-1.3c-1.2-0.8-0.1-1.6,0-2.4c0.9-0.6,1.9-1.1,2.8-1.7C412.2,673.6,411.9,676.6,409.4,679.9z"/>
<path class="st5" d="M408,671.3c-0.9,0.6-1.9,1.1-2.8,1.7c-0.5-0.6-0.9-1.1-1.4-1.7c0.4-2.2,0.8-4.5,1.2-6.7
	c0.2-1.9,0.8-3.5,2.8-4.2c0.4,0.9,0.8,1.8,1.2,2.8C410.3,666.1,408.4,668.6,408,671.3z"/>
<path class="st14" d="M418,658.3l-0.2-0.1c0.9-0.6,1.8-1.3,2.7-1.9c0.9,0,1.8,0,2.7,0c-0.4,1.7-0.9,3.4-1.3,5l-0.6,0.2l-0.6-0.1
	C419.7,660.5,418.9,659.4,418,658.3z"/>
<path class="st2" d="M405.2,710.4c0.2-0.2,0.4-0.4,0.6-0.6l-0.1,0.4L405.2,710.4L405.2,710.4z"/>
<path class="st5" d="M384.4,689.5c3.4,1.2,4.7,3.5,4.1,7c-2.8,3.4-6.3,2.5-9.8,1.4l0,0c0-1,0-2.1,0-3.1c-0.1-0.4-0.1-0.8,0-1.1
	C380.6,692.3,382.5,690.9,384.4,689.5z"/>
<path class="st2" d="M378.7,693.7c-0.1,0.4-0.1,0.8,0,1.1c-3.3,0.1-6.7,1.5-9.8-1c0-1.4,0-2.8,0-4.2
	C371.9,691.5,376.9,688.8,378.7,693.7z"/>
<path class="st5" d="M378.7,697.9c-0.2,0.2-0.4,0.4-0.6,0.5l0.1-0.3L378.7,697.9L378.7,697.9z"/>
<path class="st12" d="M378.7,693.7c-1.8-4.8-6.8-2.2-9.8-4.1c-2.9,0-3.8-4.5-7.2-2c-0.3-4,5.6-3.9,3-7.8c2.8-1.7,5.7-2.5,9-1.7
	c9.6,2.1,14.2-1.9,13.9-12.4c-0.1-2.9,1.4-3.6,3.6-3.9c1.4,0,2.8,0.1,4.3,0.1c0.5,3.7-5.3,4.2-4.2,8.2l-0.1,0.2
	c-1,0.6-1.2,1.5-1.2,2.6c-2.3,1.8-1.9,4.9-3.7,7.1c-1.5,1.8-1.3,5,2.3,5.7c1.1,4-3.1,2.4-4.2,4C382.5,690.9,380.6,692.3,378.7,693.7
	z"/>
<path class="st2" d="M388.7,685.5c-3.7-0.7-3.8-3.9-2.3-5.7c1.8-2.2,1.5-5.3,3.7-7.1c0.4-0.9,0.8-1.7,1.2-2.6l0.1-0.1
	c1.8,0.4,3.9-0.6,6,0.9c-1.7,1-4.5,1-3.6,4.2c3.2-2.2,6.7-2.8,10.1-3.7c0.5,0.6,0.9,1.1,1.4,1.7c-0.1,0.8-1.2,1.6,0,2.4
	c0.6,0.4,2.1-0.1,1.4,1.3c-0.2,0.4-1.7,0.2-2.6,0.3c-3.6,1.2-3.1,4.2-3.1,7l0,0C396.9,684.4,392.8,685,388.7,685.5z"/>
<path class="st2" d="M272.7,635.2c0.4-1.2,2.4-1.5,1.9-3.4c-1.2-4.9,1.6-6.2,5.7-6.1c1.5,3.6,4.4,5.5,7.9,6.7l0.5,0.1
	c-1.1,1.6-3.8,2.6-2.1,5.3c-0.5,0.5-0.9,1-1.4,1.5c-0.9,0.2-1.8,0.4-2.7,0.6c-3.2-0.7-6.5-1.3-9.7-2
	C272.8,637,272.8,636.1,272.7,635.2z"/>
<path class="st9" d="M281.1,606.1c0.8,1.6-2.7,4.3,0.7,5c2.7,0.5,1.9-2.4,2.2-4.1c4.5,1.5,1.8,5.6,3.1,8.3c-2.9,3.2-3.3,7.3,0.3,9.3
	c3.8,2.1,3.5,4.7,3.4,7.8c-0.7,0-1.4,0.1-2.1,0.1l-0.5-0.1c1.3-4.2-4-4.7-4.4-8c-1.8-2.2,0.4-6.6-4.1-7.4c-0.4-0.5-0.9-1-1.3-1.5
	C279.3,612.4,276,608.1,281.1,606.1z"/>
<path class="st5" d="M272.7,635.2c0,0.9,0.1,1.8,0.1,2.7c0.1,1,0.1,2,0.2,3c0.2,4.5-3.4,8.1-2.8,12.7c0,0.3-1.1,0.7-1.6,1
	c-1.4-2.8-2.8-5.6-4.2-8.4c0-0.9,0.1-1.8,0.1-2.7c0.4-0.8,0.9-1.7,1.3-2.5c4.2-0.2,1.9-4.5,3.8-6.1
	C270.7,635,271.7,635.1,272.7,635.2z"/>
<path class="st14" d="M283.8,624.5c0.4,3.2,5.8,3.7,4.4,8c-3.5-1.2-6.4-3.1-7.9-6.7c0.3-0.4,0.6-0.8,0.9-1.1
	C282.1,624.6,283,624.5,283.8,624.5z"/>
<path class="st10" d="M283.8,624.5c-0.8,0-1.7,0.1-2.5,0.1c-2.4-2.1-2.7-4.6-1.6-7.5C284.2,617.8,282,622.3,283.8,624.5z"/>
<path class="st6" d="M291,605.8c-3-5.7,0.6-9.1,4.3-12.6c0.5,0.5,0.9,1.1,1.4,1.6c-0.1,2,0.3,3.9,1.6,5.6c-2.4,1.9-4.9,3.8-7.3,5.7
	L291,605.8z"/>
<path class="st13" d="M296.7,594.9c-0.5-0.5-0.9-1.1-1.4-1.6c-0.1-0.4-0.2-0.8-0.3-1.2c0.6-0.1,1.2-0.1,1.8-0.2
	c3.3,0.7,3.4-1.9,4.1-3.9c0.5,0,1,0,1.6-0.1c-0.1,1.8-0.2,3.7-0.3,5.5C300.5,594.9,298.6,594.9,296.7,594.9z"/>
<path class="st14" d="M290.9,587.6c2,0,4.2-0.2,2.9,3C292.2,590.2,291.4,589.1,290.9,587.6z"/>
<path class="st14" d="M296.7,591.9c-0.6,0.1-1.2,0.1-1.8,0.2c-0.8-0.2-1.3-0.6-1.2-1.5c1-1.4,1.8,0,2.7,0.2
	C296.5,591.1,296.5,591.5,296.7,591.9z"/>
<path class="st3" d="M290.8,632.4c0.1-3.1,0.4-5.7-3.4-7.8c-3.6-2-3.2-6.1-0.3-9.3c1.2,0.7,2.3,1.4,3.5,2l0.2-0.1
	c1.9,3.7,4.8,6.3,8.5,8c1.8,2.2,4.2,3,7,2.8c0.8,6.1-0.8,12-1.7,18c-3,1.3-6.1-2.2-9.2,0.1c-0.2-0.4-0.3-0.7-0.4-1.1
	C293.5,640.9,297.2,635,290.8,632.4z"/>
<path class="st12" d="M291,606.1c2.4-1.9,4.9-3.8,7.3-5.7c3.1-0.4,4-2.5,3.9-5.3c0.5-0.1,0.9-0.2,1.4-0.4c1.3,1.7,0.8,4.3,2.9,5.6
	c2.3,2.6,4.8,4.9,8.3,5.8c0,0.9-0.1,1.7-0.1,2.6c-1.4,0-2.7,0-4.1,0c-0.2-0.1-0.4-0.2-0.6-0.3c0.2,0.1,0.4,0.2,0.6,0.3
	c0,2.1,0,4.1-2.9,4.2c-0.5-0.6-1-1.1-1.5-1.7c0.6-4.1-2-2.4-3.7-2c-0.5-1.4-1.6-1.8-3-1.8c-3.4-0.3-3,5.4-6.9,4.3
	C288,610.9,291.3,608,291,606.1z"/>
<path class="st4" d="M292.4,611.7c3.9,1.1,3.5-4.6,6.9-4.3c-0.3,2.4,1.1,5.2-1.6,7.1c-2.8-0.3-4.3,2.8-7,2.8l-0.2,0.1
	C291.2,615.5,291.8,613.6,292.4,611.7z"/>
<path class="st5" d="M326,674.4c-4.9,1.4-9.8,3.8-15.2-1.1c6.9-0.9,4.9-4.9,3.9-8.7c1.7,1.2,3.2,2.5,5,3.5c2.1,1.1,4.4,0.8,5.2-1.4
	c0.9-2.4-1.8-2.2-3.1-2.5c-6-1.7-6-7.8-8.4-11.9c-1.4-2.3,1.7-3,3.9-3c4.9,3.9,10.3,5.9,16.6,4c0.6,0.1,1.2,0.3,1.7,0.4
	c-2.8,5,4.2,6.6,3.8,10.8c-3.4,1.2-4.6,3.6-4.1,7.1C331.9,670.9,327.7,668.7,326,674.4z"/>
<path class="st12" d="M317.4,649.1c-2.2,0-5.3,0.7-3.9,3c2.4,4.1,2.4,10.2,8.4,11.9c1.3,0.4,4,0.1,3.1,2.5c-0.8,2.2-3.2,2.5-5.2,1.4
	c-1.8-0.9-3.3-2.3-5-3.5c-3.5-5.9-4.6-6.3-7.2-2.7c-0.8,0-1.7-0.1-2.5-0.1c-1.8-5.2,0.3-10.5-0.6-15.8c0.9-6,2.5-11.9,1.7-18
	c0-1.5,0.3-3.1-1.4-4c0-0.5,0-0.9,0-1.4c1.3,0,2.7,0,4-0.1c0.5,0.9,1,1.9,1.5,2.8c-2.2,1.4-0.2,2.8-0.1,4.2
	c2.2,5.3-0.1,10.6-1.1,16.7c3.3-1.8,4.1-4.6,6.8-4.3C316.5,644.5,317,646.8,317.4,649.1z"/>
<path class="st12" d="M326,674.4c1.7-5.7,5.8-3.4,9.5-2.9c0.5,0.5,0.9,0.9,1.4,1.4c0.9,1.8,1.9,3.7,2.8,5.5c-0.4,0-0.9,0-1.3,0.1
	c-2.2,1.5-0.9,6.6-5.6,5.6C330.7,680.7,335.1,672.8,326,674.4z"/>
<path class="st5" d="M320.3,692.2c-0.4,0.1-0.9,0.1-1.4,0.2c-3.1-1-1.3-8.2-7.1-5.6c-1.6,0.1-3.1,0.2-4.7,0.2c4,0.5,1.4-9.2,7.9-5.1
	C319.1,684.4,322.4,686.8,320.3,692.2z"/>
<path class="st4" d="M305.1,661.8c0.8,0,1.7,0.1,2.5,0.1c-0.6,5.3-2.7,9.4-8.3,10.9c-0.5,0-0.9,0-1.4,0c-0.8-3.3,3.7-4.9,2.8-8.2
	c1.9-0.2,3.4-0.8,4.2-2.7L305.1,661.8z"/>
<path class="st7" d="M311.8,686.8c5.9-2.6,4.1,4.6,7.1,5.6c-1,1-1.9,2-2.9,2.9c-0.4-0.2-0.8-0.3-1.3-0.4c-1-1.3-2-2.6-3.1-3.9
	C311.8,689.6,311.8,688.2,311.8,686.8z"/>
<path class="st12" d="M331.4,685.3c-0.6,2.5-0.9,5.2-4.3,5.5c-0.1-2.3-0.2-4.7,1.4-6.6C330.5,681.8,331,683.5,331.4,685.3z"/>
<path class="st14" d="M297.9,688.2c1.4-2,1.4-4,0-6.1c-0.9-1.4-0.6-2.5,1.5-2.3c1,2.7,3.6,5.2,1.3,8.4
	C299.7,688.1,298.8,688.2,297.9,688.2z"/>
<path class="st5" d="M310.9,677.8l-0.4,0.3c-0.1-0.2-0.2-0.4-0.4-0.7c0.2,0,0.4-0.1,0.5-0.1L310.9,677.8z"/>
<path class="st8" d="M391.2,661.6c-2.3,0.3-3.7,1-3.6,3.9c0.3,10.6-4.2,14.5-13.9,12.4c-3.3-0.7-6.2,0-9,1.7c-0.4,0-0.8,0-1.2-0.1
	c0-2.7,0-5.3,0-8c0.5-0.1,0.9-0.2,1.4-0.2c8.1,1.5,4.3-5.1,5-8c1-4.4-2.9-2.7-5.1-3c-1.3,0.4-2.7,0.9-4,1.3
	c-1.1-0.6-1.4-1.7-1.4-2.8c2.2-3.6,7.1-2.7,9.6-5.8c4.3,0,5.9-4.9,9.9-5.4c0.9,0,1.9,0,2.8,0c0.9,0.4,1.9,0.9,2.8,1.3
	c0.4,3.1,1.7,3.7,4.1,1.5c1.8,0,3.7,0,5.5,0.1C391.4,653.9,386.8,656.6,391.2,661.6z"/>
<path class="st2" d="M359.3,658.9c0,1.2,0.3,2.2,1.4,2.8c0.2,1.1,0.2,2.4,1.7,2.1c1.8-0.3,2.2-1.9,2.3-3.5c2.2,0.3,6.1-1.4,5.1,3
	c-0.7,2.9,3.1,9.5-5,8c-2.5-2.4-4.3-8.9-8.4-1.4l-0.1,0c-0.2-1.4,0.5-3.7-1.8-3.6c-1.5,0.1-4,0.7-3.1,3.3c0.6,1.8,0,3-0.7,4.4
	c-1.4-0.9-2.9-1.7-4.3-2.6c-0.4-0.1-0.9-0.1-1.3-0.1c-0.5-0.4-1-0.9-1.4-1.3c-1-0.7-1.3-1.7-1.3-2.9c3-2.9,0.8-6.5,1.3-9.7
	c2,0.1,0.5-4.3,3.5-2.8c4.1,2.1,3.5-0.7,3.3-3.1c-0.2-1.6-2.4-3.9,0.3-4.6c2.5-0.6,4,1.4,4.1,4.2C355.1,654.6,355.1,658,359.3,658.9
	z"/>
<path class="st10" d="M342.6,667.3c0,1.2,0.3,2.2,1.3,2.9c0.5,0.4,1,0.9,1.4,1.3c0.4,0,0.9,0.1,1.3,0.1c0.1,2.2,0.1,4.5,0.2,6.7
	c-1.9-0.4-3.7-0.9-5.6-1.3c-0.5-2.3,1.2-7-4.3-4.1c-0.5-0.5-0.9-0.9-1.4-1.4c-0.5-3.4,0.7-5.9,4.1-7
	C340.6,665.4,341.6,666.3,342.6,667.3z"/>
<path class="st6" d="M364.7,697.7c-0.9,0-1.8,0.1-2.7,0.1c-4.4,0.4-7.3-1.4-8.7-5.7C361.2,688.6,364.6,690.2,364.7,697.7z"/>
<path class="st2" d="M363.5,671.6c0,2.7,0,5.3,0,8c-4,0.5-6.5-2.8-9.9-4c1.9-1.4-1.5-5.4,2.8-5.7l0.1,0
	C358.4,672.4,361.2,670.9,363.5,671.6z"/>
<path class="st7" d="M353.4,692.2c1.3,4.3,4.3,6,8.7,5.7c-1,2.7-2.2,5.1-4.2,7.2c-0.5,0-1.1,0-1.6,0c-0.4-0.5-0.8-1-1.3-1.5
	C352,700.1,348.8,696.7,353.4,692.2z"/>
<path class="st12" d="M356.4,670c-4.3,0.2-0.9,4.3-2.8,5.7c-1.1-0.1-2.2-0.3-2.8-1.5c0.7-1.4,1.3-2.7,0.7-4.4
	c-0.9-2.6,1.5-3.2,3.1-3.3C356.9,666.3,356.2,668.5,356.4,670z"/>
<path class="st2" d="M355,703.5c0.4,0.5,0.8,1,1.3,1.5C355.8,704.5,355.4,704,355,703.5z"/>
<path class="st10" d="M338.4,678.4c0.4,0,0.9,0,1.3-0.1c0.5,0,1,0,1.4,0c0.7,2.2,3.2,4.8-1.4,5.5
	C339.2,682.1,338.8,680.3,338.4,678.4z"/>
<path class="st5" d="M341.1,678.4c-0.5,0-1,0-1.4,0c-0.9-1.8-1.9-3.7-2.8-5.5c5.5-2.8,3.8,1.8,4.3,4.1
	C341.1,677.5,341.1,677.9,341.1,678.4z"/>
<path class="st14" d="M295.2,688.3c0.9-0.1,1.8-0.1,2.7-0.2c0.8,1.7,0.4,3.5-1.3,3.6C294.2,691.9,295.7,689.5,295.2,688.3z"/>
<path class="st2" d="M300.7,664.5c0.8,3.3-3.7,4.9-2.8,8.2c-2,0.3-3.8-0.4-5.5-1.3c-0.1-1.1-0.4-2.3-0.2-3.4
	c0.9-5.4-0.1-6.2-6.4-4.7c-1.8-2.2-4.3-2.8-7-3.1c-0.2-0.5-0.5-0.9-0.7-1.4c1.2-3.2-0.4-6.2-0.5-9.3c1.2-0.7,2.5-1.3,3.7-2
	c1.8,0.1,3.7,0.2,5.5,0.2c0.5,1.1,0.9,1.1,1.4,0c0.5-0.5,1-0.9,1.4-1.4c0.4,0,0.9-0.1,1.3-0.2c1.4-0.3,2.7-0.7,4.1-1
	c0.1,0.4,0.3,0.7,0.4,1.1c3.2,4.6,2.9,10.5,5.4,15.4C300.8,662.5,300.8,663.5,300.7,664.5z"/>
<path class="st10" d="M278,658.7c0.2,0.5,0.5,0.9,0.7,1.4c-3.4,1.9-6.7,4.2-10.1,0.1c0-1.4,0-2.7,0-4.1
	C272,656,274.5,659.5,278,658.7z"/>
<path class="st0" d="M480.2,605.9c-3.3-1.1-3.9-5.5-1.1-8.4C485.8,599.5,479.8,603.1,480.2,605.9z"/>
<path class="st0" d="M479.1,594.8c-1-0.6-1-1.1,0.2-1.4C479.2,593.9,479.2,594.4,479.1,594.8z"/>
<path class="st14" d="M374.6,570.9c-1.6-0.1-2.3-1.2-2.6-2.6C374.1,568,374.7,569.1,374.6,570.9z"/>
<path class="st7" d="M335.3,588.2c-0.4-5.1-2.6-11.1,5.2-12.8c3.4-0.7,6.8-1.1,10.2-1.6c0,0.8-1.1,2.2,0,2.4c6.2,1,7.6,2.8,2,7.1
	c-1.9,1.4-2.6,4.3-1.7,6.4c1.7,4-0.4,5.9-3,7.9c-1.3,0-2.7,0-4,0.1c-1-0.1-1.9-0.1-2.9-0.2c-0.8-0.9-2-1.8-2.9-0.9
	c-1.3,1.4-0.1,3.2,0.7,4.3c1.8,2.6,4.2,4.8-0.7,6.5c-1.4-0.5-2.7-1.1-4.1-1.6c-2.3-0.4-4.6-0.8-6.8-1.2c-1.9-4.6-4.6-8-10-8.4
	c-0.4-0.5-0.8-1-1.2-1.5c0-0.5,0-1-0.1-1.5c0-0.4,0-0.8,0-1.2c1.9-0.2,4.1,0.6,5.6-1.3c4.3,0.2,8.7,0.5,13,0.5
	C334.9,591.2,335.1,589.2,335.3,588.2z"/>
<path class="st2" d="M335.3,588.2c-0.2,1.1-0.5,3.1-0.7,3.1c-4.3,0-8.7-0.3-13-0.5c-0.8-1.9-4.5-2.4-2.8-5.6c4.3,3.9,9.6-1.4,14,1.4
	C333.6,587,334.5,587.6,335.3,588.2z"/>
<path class="st7" d="M332.8,586.4c-4.4-2.7-9.7,2.5-14-1.4c-0.8-3.7,2.2-5,4.2-7c0.5,0,0.9,0,1.4,0c2.1,0.6,3.2,3,5.6,3
	C329.7,583.5,332.1,584.5,332.8,586.4z"/>
<path class="st0" d="M316,592c0,0.4,0,0.8,0,1.2c-0.9,0.5-1.9,0.9-2.8,1.4c-0.4,0-0.8,0-1.2-0.2c-0.4-0.4-0.8-0.9-1.3-1.3
	c-3.2-3.4-4.6,2-7.2,1.5c-0.5,0.1-0.9,0.2-1.4,0.4c0-0.6-0.1-1.2-0.1-1.7c0.1-1.8,0.2-3.7,0.3-5.5c1.8-0.1,3.5-0.2,5.3-0.3
	c2.2,4.2,5.9,0.9,8.7,1.8c0,0.4,0,0.8,0.1,1.2C316.2,591.1,316.1,591.6,316,592z"/>
<path class="st4" d="M324.4,578c-0.5,0-0.9,0-1.4,0c0-0.5,0-0.9,0-1.4c0-1.9,0.1-3.8,0.1-5.7c0.5,0,0.9,0.1,1.3,0.2
	c-0.4,6.3,3.4-0.5,4.4,1.4c0.8,0.5,1.6,1,2.4,1.5C329.2,575.8,326,575.6,324.4,578z"/>
<path class="st7" d="M316.4,590.6c-0.1-0.4-0.1-0.8-0.1-1.2c0.2,0.3,0.4,0.5,0.4,0.8L316.4,590.6z"/>
<path class="st4" d="M296.7,591.9c-0.2-0.4-0.2-0.8-0.2-1.2c0-3.2,2.2-2.9,4.3-2.8C300.1,590,300,592.6,296.7,591.9z"/>
<path class="st8" d="M314.6,565.5c0.7,0.2,2-0.3,1.8,1.3c0,0.2-0.3,0.4-0.5,0.5C314.4,567.5,314.9,566.3,314.6,565.5L314.6,565.5z"
	/>
<path class="st8" d="M348,597.7c2.6-2,4.8-4,3-7.9c-0.9-2.1-0.2-5,1.7-6.4c5.6-4.3,4.2-6.2-2-7.1c-1.1-0.2,0-1.5,0-2.4
	c0-0.4,0.1-0.9,0-1.3c0-0.5,0-0.9,0-1.4c1.5,0.7,2.8,0.9,2.8-1.4c3.2-0.2,1.7,2.7,2.5,4c2.2,3.6,4.6,7.4,9.5,4.7
	c3.2-1.7,2.8,0.6,3.4,2.1c-4.2,3.3,1,4.9,1.3,7.4c2.8,2.5,4.8,5.9,8.7,6.9c-0.9,2.3-0.4,4.5-0.1,6.8c-1.9,0.8-2.3,2.8-3.1,4.3
	c-1.3-0.6-1.5-3.1-3.8-2.2c-2.3,0.9-1.5,3-1.9,4.7c-3.5,1.2-5.5-4.1-9.2-2.2c2.2-3.6,0.4-7.9,2.2-11.6c1.2-2.5-0.1-3.8-2.6-4.2
	c-0.2-0.1-0.4-0.2-0.7-0.3c0.2,0.1,0.4,0.2,0.5,0.4c1.5,4.7-4.8,5.7-4.7,9.8C353.5,599,348.5,604.8,348,597.7z"/>
<path class="st12" d="M370.4,588c-0.3-2.5-5.5-4.1-1.3-7.4c2.3,0.1,4.6,0.2,6.8,0.4C374.6,583.7,374,587,370.4,588z"/>
<path class="st14" d="M324.4,578c1.6-2.5,4.8-2.3,6.9-4c0.5,0.1,1,0.2,1.6,0.2c0.4,2.8-5.9,2.8-2.8,6.7
	C327.6,581.1,326.5,578.7,324.4,578z"/>
<path class="st2" d="M328.9,572.6c-1-1.8-4.8,5-4.4-1.4c2.8-0.1,5.6-0.2,8.4-0.2l0.6,0l0.6-0.1c0.8,0.3,1.6,0.6,0.9,1.7
	C332.8,572.5,330.8,572.5,328.9,572.6z"/>
<path class="st8" d="M336.9,568.3c0-0.4,0.1-0.9,0.1-1.3c0.7-0.1,1.4-0.2,2-0.4c1.2-0.4,2.6-1.3,3.3,0.6c0.2,0.6,0.4,1.5,0.1,2
	c-1.3,2-1.9-1.2-3.2-0.5C338.5,569.1,337.5,569.3,336.9,568.3z"/>
<path class="st5" d="M328.9,572.6c2,0,4,0,6,0c-0.7,0.6-1.4,1.2-2,1.8c-0.5-0.1-1-0.2-1.6-0.2C330.4,573.6,329.7,573.1,328.9,572.6z
	"/>
<path class="st14" d="M334,570.8l-0.6,0.1l-0.6,0c-2-3,0.2-2.7,2.1-2.6C334.6,569.2,334.3,570,334,570.8z"/>
<path class="st7" d="M350.9,571.1c0,0.5,0,0.9,0,1.4C349.9,572,349.9,571.5,350.9,571.1z"/>
<path class="st0" d="M353.6,561.3c1,0.2,2.1,0.4,3.1,0.6l-0.4,0.5C355.2,562.8,354.3,562.3,353.6,561.3L353.6,561.3z"/>
<path class="st0" d="M466.6,664.4c1.9,2.7-2,6.4,2.2,9.5c1.6,1.1-2.5,3.1-5,3.2c-0.5,0-1.1,0-1.6,0c-1.3-1.5-2.6-3.1-3.9-4.6
	c0-0.8-0.1-1.6-0.2-2.4c1.7-1.2,3.8-2.5,0.2-4c-0.4-0.1-0.9-0.1-1.3-0.1c0-0.5-0.1-1-0.1-1.5c2-0.1,3.3-1.1,4.1-2.9
	C463.4,661.5,464.6,663.8,466.6,664.4z"/>
<path class="st9" d="M451.1,672.7c0,0.9,0,1.9,0,2.8c-2.8-0.3-5.2,0.6-6.9,2.9c-2.1-2.6-2-5.3,0.3-7.4
	C447.2,668.6,449,671.8,451.1,672.7z"/>
<path class="st12" d="M443.3,662c1.6-3.2,4.1-5.3,7.7-5.9c1.5,2.8,0.4,5-1.4,7.1C447.5,662.8,445.4,662.4,443.3,662z"/>
<path class="st7" d="M443.3,662c2.1,0.4,4.2,0.8,6.3,1.2c-0.8,5-4.1,5-8,4C441.2,665.2,442.1,663.6,443.3,662z"/>
<path class="st5" d="M444.2,678.4c1.8-2.3,4.1-3.1,6.9-2.9c1.9,3.2,2.6,5.8-2.6,5.8c-1.1-1.7-2.8-1.5-4.4-1.4
	C444.1,679.4,444.1,678.9,444.2,678.4z"/>
<path class="st6" d="M458.1,670c0.1,0.8,0.1,1.6,0.2,2.4c-1,0.2-2.1,0.3-3.1,0.5c0.2-1.9,0.4-3.8,0.6-5.8c0.4-0.4,0.9-0.8,1.3-1.2
	c0.4,0,0.9,0,1.3,0.1C458.4,667.4,455.3,668.5,458.1,670z"/>
<path class="st10" d="M444.1,679.8c1.6-0.1,3.3-0.3,4.4,1.4c-0.1,0.4-0.2,0.8-0.2,1.2c-1.4,0.5-2.7,1.1-4.1,1.6
	C444.2,682.6,444.2,681.2,444.1,679.8z"/>
<path class="st3" d="M278,658.7c-3.6,0.7-6-2.7-9.4-2.6c0-0.5,0-0.9,0-1.4c0.6-0.4,1.7-0.8,1.6-1c-0.6-4.6,3-8.2,2.8-12.7
	c4.4,1.3,2.2,6.1,4.5,8.5C277.7,652.5,279.2,655.6,278,658.7z"/>
<path class="st7" d="M252,649.2c2.2-1.2,0.1-5.5,4-5.6c1.9,1.3,3,3.8,5.7,4.1c0,1.4,0,2.8,0,4.2c-1.7-0.6-3.7-2.4-4.2,1.1
	c-0.5,0.1-1,0.2-1.5,0.2C253.4,653.1,252,651.8,252,649.2z M255.7,647.8c-0.1-0.2-0.2-0.4-0.3-0.6l-0.4,0.5c0,0.2,0.2,0.4,0.3,0.6
	L255.7,647.8z"/>
<path class="st2" d="M257.5,653c0.6-3.6,2.5-1.8,4.2-1.1c-0.1,2.9-2.3,2.7-4.2,2.8l0,0C257.5,654.2,257.5,653.6,257.5,653z"/>
<path class="st12" d="M257.5,653c0,0.6,0,1.1,0,1.7c-0.5-0.5-1-1-1.5-1.5C256.4,653.2,257,653.1,257.5,653z"/>
<path class="st7" d="M462.2,677c0.5,0,1.1,0,1.6,0c1.5,1.9,3.6,1.1,5.5,1.4c0.4,0.4-0.6,1.9,1.1,1.5c-0.4-0.5-0.7-1-1.1-1.5
	c1-1.5,2.5-1.4,4-1.5c0.1,0.9,0.1,1.9,0.2,2.8c0,0.9,0,1.9,0,2.8c-0.5,0-0.9,0.1-1.4,0.1c-2.7-0.4-4.8,1.5-7.2,2
	c-3.5,0.7-7.6,1-5.3-4.9C461.5,679.9,462.7,679.3,462.2,677z"/>
<path class="st14" d="M462.2,677c0.6,2.3-0.7,2.9-2.6,2.7c-3-1.2-4.6-3.4-4.4-6.7c1-0.2,2.1-0.3,3.1-0.5
	C459.6,674,460.9,675.5,462.2,677z"/>
<path class="st4" d="M472.1,682.6c0.5,0,0.9,0,1.4-0.1c0.4,1.2,1.8,2.2,0.6,3.6c-0.7,0.8-1.7,0.7-2.4,0.1
	C470.4,684.9,471.8,683.8,472.1,682.6z"/>
<path class="st9" d="M439.9,620.1c0.9-0.2,1.9-0.3,2.8-0.5c0.5,0.5,1,1.1,1.6,1.6c0,0.9,0,1.8,0,2.8
	C441.6,624,440.3,622.6,439.9,620.1z"/>
<path class="st3" d="M439.9,620.1c0.4,2.5,1.8,4,4.4,3.9c1.4,1,2.7,1.9,4.1,2.9c-1.3,2.7-3.9,4-6.6,4c-4.1,0.1-5.5,2.3-5.9,5.8
	c-3.3-0.3-6-4.7-9.8-1.3c-0.6-1.2-1.2-2.5-2.7-2.3c-1.4,0.1-1.3,1.4-1.5,2.5c-1.4-0.6-2.8-1.1-4.2-1.7c-1.9-5.9-3.7-0.9-5.5,0
	c-2.2-1-4.2-2.3-5.6-4.3c-3.7-3.5-2.2-10.6-8.6-12.2c-1.7-0.1-2.5-1.1-2.9-2.7c0.2-3.7-2.8-3.8-5.2-4.5c0.1-2.2,1-4.1,2.8-5.5
	c1,0,2,0,2.9,0c0.2,0.2,0.5,0.3,0.8,0.3c5,8.6,14.2,9.2,22.5,11.5c1.5,0.4,3.1,0,3.9,1.7c3.2,6.3,7.4,5.7,12,1.6
	c1.2-1.1,2.5-0.9,3.9-0.6C439,619.2,439.5,619.7,439.9,620.1z"/>
<path class="st9" d="M392.7,604.5c-1.8,1.4-2.6,3.3-2.8,5.5c-0.5,0.1-1.1,0.1-1.6,0.2c-0.4,0.5-0.8,1.1-1.3,1.5
	c-1.6,1.2-0.2,5.3-3.8,4.6c-3.1-0.6-2.9-3.5-3.1-6c-0.3-2.9,1-5.9-1.1-8.6c-0.4-2.3-0.9-4.5,0.1-6.8c1.3-1.5,2.5-3.5,5.1-2.6
	c1,3.3,1.8,6.7,5.6,8.2C390.7,601.8,391.7,603.2,392.7,604.5z"/>
<path class="st12" d="M392.7,604.5c-1-1.4-2-2.7-3-4.1c6.7-5.7,3.7,3,5.9,4C394.7,604.5,393.7,604.5,392.7,604.5z"/>
<path class="st12" d="M394,583.6c-0.1,0.2-0.2,0.4-0.3,0.6C393.9,584,394,583.8,394,583.6L394,583.6z"/>
<path class="st8" d="M381.2,584.9l-0.2,0.5c-0.2-0.2-0.4-0.4-0.5-0.6l0.4-0.4L381.2,584.9z"/>
<path class="st2" d="M423.2,656.4c-0.9,0-1.8,0-2.7,0c0.1-1.9,0.1-3.8,0.2-5.7l0.1,0c1.9-0.1,3.9,0,3.9-2.8c0.9,0,1.9,0,2.8,0
	c0.6,1.2,1.6,1.3,2.8,1.2c2.7,0.2,5.6-0.8,7.8,1.5c0.9,1,3,0.2,3.1,2.1c0.1,2.5-2,1.8-3.4,2.3c-1,0.3-2.7,1.4-2.6,1.8
	c1,5.1-4.6,5-6.2,7.9c-0.3-1.4-2.1-3,0.2-4.1c5.6-2.6-5.2-4.4-0.3-6.9C426.3,653.2,423.8,652.8,423.2,656.4z"/>
<path class="st2" d="M426.2,643.6c-0.5,0.9-1,1.9-1.5,2.8c-2.3,0-4.7,0.1-7,0.1c-2-0.3-4.1,0.1-5.9-1.2c2.3-1.3,0.1-3.1,0.4-4.6
	c2.5-0.1,5-0.2,7.5-0.3c2.4,0.9,3.5-1.2,4.9-2.4C425.1,639.9,425.7,641.7,426.2,643.6z"/>
<path class="st10" d="M426.2,643.6c-0.5-1.8-1-3.7-1.6-5.5c0-0.5,0-0.9,0-1.4c0.5-0.5,1-0.9,1.5-1.4c3.8-3.4,6.5,1,9.8,1.3
	C435.7,643.2,428.6,640.2,426.2,643.6z"/>
<path class="st5" d="M417.7,646.5c2.3,0,4.7-0.1,7-0.1c0,0.5,0,1,0,1.5c0,2.8-2,2.7-3.9,2.8C420.7,648.6,418.9,647.8,417.7,646.5z"
	/>
<path class="st1" d="M462,633.7c0.5,0.5,0.9,1,1.4,1.5c-0.7,0.3-1.5,0.6-2.2,0.9c-0.2,0.2-0.3,0.4-0.4,0.6c-0.7,0.6-1.5,1.2-2.2,1.7
	c-0.6-0.2-1.3-0.3-1.9-0.5C456.6,634.2,459.5,634.2,462,633.7z"/>
<path class="st4" d="M456.6,638c0.6,0.2,1.3,0.3,1.9,0.5c-0.1,1.2-0.3,2.3-0.4,3.5c-3.7,0.7-2.7-1.9-2.7-3.8
	C455.8,638.1,456.2,638,456.6,638z"/>
<path class="st5" d="M430.3,649c-1.1,0.1-2.2,0-2.8-1.2c0-0.5,0-1,0-1.5C429.3,646.4,430.3,647.2,430.3,649z"/>
<path class="st4" d="M466.6,664.4c-2.1-0.6-3.3-2.9-5.7-2.7c0-4.7,4.6-3.7,7-5.6C467.2,658.8,472.3,662.4,466.6,664.4z"/>
<path class="st5" d="M458.1,642c0.1-1.2,0.3-2.3,0.4-3.5c0.7-0.6,1.5-1.1,2.2-1.7c0.1,1.8,0.2,3.7,0.2,5.5c-0.7,1.5,0.2,4.2-2.8,4.1
	C458.2,644.9,458.1,643.4,458.1,642z"/>
<path class="st14" d="M461.1,636.1c0.8-0.3,1.5-0.6,2.2-0.9c-0.1,0.6-0.1,1.1-0.2,1.7C462.5,636.6,461.8,636.4,461.1,636.1z"/>
<path class="st4" d="M423.2,656.4c0.6-3.6,3.1-3.2,5.7-2.7c-4.8,2.5,5.9,4.3,0.3,6.9c-2.3,1.1-0.5,2.7-0.2,4.1
	c-3.9,2.3-4.2-3.3-7.1-3.2C422.3,659.7,422.7,658.1,423.2,656.4z"/>
<path class="st2" d="M391.2,661.6c-4.4-5,0.2-7.8,2.8-11c1-1,2-2,3-3c2.1,1.4,1.5,9.8,6.9,2.7c1.1,2.5,6.4-3.1,5.6,2.9
	c-2.9,1.9-2,4.6-1.8,7.3c-2,0.6-2.6,2.3-2.8,4.2c-3.5,0.1-5.8-3.6-9.5-2.9C394.1,661.7,392.6,661.6,391.2,661.6z"/>
<path class="st10" d="M409.6,653.2c0.7-6-4.6-0.4-5.6-2.9c-0.4-0.4-0.9-0.8-1.3-1.3c0-1.3,0-2.7,0-4c1.1-1,2.1-2,3.8-1.5
	c1.1,1.6,2.8,1.5,4.4,1.5c0.3,0.1,0.7,0.2,1,0.2c1.8,1.3,3.9,0.9,5.9,1.2c1.2,1.3,3,2.1,3.1,4.2l-0.1,0c-3.5-0.2-4.4,2-4.4,4.9
	C413.3,657,412.3,652.8,409.6,653.2z"/>
<path class="st5" d="M416.3,655.6c0-3,0.8-5.1,4.4-4.9c-0.1,1.9-0.1,3.8-0.2,5.7c-0.9,0.6-1.8,1.3-2.7,1.9
	C417.3,657.4,416.8,656.5,416.3,655.6z"/>
<path class="st10" d="M401,684c-0.1-2.8-0.5-5.8,3.1-7c-0.2,1.6-0.7,3.3,1.1,4.4C406,685.6,402.9,683.9,401,684z"/>
<path class="st4" d="M395.5,661.7c3.7-0.7,6,3.1,9.5,2.9c-0.4,2.2-0.8,4.5-1.2,6.7c-3.4,0.8-6.9,1.5-10.1,3.7
	c-0.8-3.2,1.9-3.1,3.6-4.2c-2.1-1.6-4.2-0.5-6-0.9C390.2,665.9,396,665.4,395.5,661.7z"/>
<path class="st4" d="M391.2,670.1c-0.4,0.9-0.8,1.7-1.2,2.6C390,671.6,390.2,670.7,391.2,670.1z"/>
<path class="st5" d="M294.9,645c-1.4,0.3-2.7,0.7-4.1,1c-0.4-0.4-0.9-0.8-1.3-1.1c0-1.4,0-2.8,0-4.2c0.9-0.4,1.1-0.9,0-1.3
	c-0.4,0-0.9-0.1-1.3-0.1c-0.5-0.5-1-1-1.6-1.5c-1.7-2.7,1-3.7,2.1-5.3c0.7,0,1.4-0.1,2.1-0.1C297.2,635,293.5,640.9,294.9,645z"/>
<path class="st9" d="M288.2,639.3c0.4,0,0.9,0.1,1.3,0.1c0,0.4,0,0.9,0,1.3c0,1.4,0,2.8,0,4.2c0,0.5,0,0.9,0,1.4
	c-0.5,0.5-1,0.9-1.4,1.4c-0.5,0-0.9,0-1.4,0c-1.8-0.1-3.7-0.2-5.5-0.2c0-2.6-0.6-5.3,1.3-7.6c0.9-0.2,1.8-0.4,2.7-0.6
	C286.2,639.3,287.2,639.3,288.2,639.3z"/>
<path class="st10" d="M282.6,639.9c-1.9,2.3-1.3,5-1.3,7.6c-1.2,0.7-2.5,1.3-3.7,2c-2.3-2.4-0.1-7.2-4.5-8.5c-0.1-1-0.1-2-0.2-3
	C276.1,638.6,279.3,639.2,282.6,639.9z"/>
<path class="st10" d="M288.2,639.3c-1,0-2,0-2.9,0c0.5-0.5,0.9-1,1.4-1.5C287.2,638.3,287.7,638.8,288.2,639.3z"/>
<path class="st2" d="M302,593.4c0,0.6,0.1,1.2,0.1,1.7c0.2,2.8-0.7,4.9-3.9,5.3c-1.3-1.6-1.7-3.5-1.6-5.6
	C298.6,594.9,300.5,594.9,302,593.4z"/>
<path class="st10" d="M300.8,661.6c-2.6-4.9-2.2-10.8-5.4-15.4c3-2.3,6.1,1.2,9.2-0.1c0.9,5.2-1.2,10.6,0.6,15.8l-0.1,0
	C303.6,661.8,302.2,661.7,300.8,661.6z"/>
<path class="st2" d="M290.8,617.3c2.7,0,4.1-3.1,7-2.8c-3,3.7,1.2,6.1,1.6,9.2c0,0.5,0,1.1,0,1.6
	C295.6,623.6,292.7,620.9,290.8,617.3z"/>
<path class="st5" d="M299.3,625.3c0-0.5,0-1.1,0-1.6c1.4,0.1,2.8,0.2,4.2,0.4l0.7,0l0.7,0c1.7,0.9,1.4,2.5,1.4,4
	C303.5,628.3,301.2,627.4,299.3,625.3z"/>
<path class="st2" d="M317.3,596.2c5.4,0.3,8.2,3.8,10,8.4c-0.5,1-1,1.9-1.4,2.9c-0.5-0.1-0.9-0.2-1.4-0.3c-2.1-0.6-2-5.6-4.7-3.3
	c-1.9,1.6-4.1,5.5,0.5,7.9c-0.9,0.4-1.8,0.8-2.7,1.2c-0.6-1.2-1.7-1.4-2.8-1.4c0-0.9,0-1.9,0-2.8c0-0.9,0.1-1.7,0.1-2.6
	C314.4,602.5,316.7,599.6,317.3,596.2z"/>
<path class="st8" d="M303.5,624c-1.4-0.1-2.8-0.2-4.2-0.4c-0.4-3.1-4.5-5.6-1.6-9.2c2.7-1.9,1.3-4.7,1.6-7c1.3,0,2.5,0.4,3,1.8
	c-0.4,3.7,2.7,1,3.8,2c0.5,0.6,1,1.1,1.6,1.7c-1.2,3.3-4.4,5.8-4.1,9.7C303.5,623.1,303.5,623.6,303.5,624z"/>
<path class="st10" d="M317.3,596.2c-0.6,3.4-2.9,6.3-2.6,9.9c-3.5-0.9-6-3.2-8.3-5.8c0.4-2.6,0.9-5.2,4.1-5.7c0.5,0,1-0.1,1.5-0.1
	c0.4,0.1,0.8,0.2,1.2,0.2l-0.1,0.3c0.6,1,1.1,0.6,1.6-0.1c0.4,0,0.9-0.1,1.3-0.2C316.5,595.2,316.9,595.7,317.3,596.2z"/>
<path class="st5" d="M303.5,622.6c-0.3-3.9,2.9-6.4,4.1-9.7c2.9-0.1,2.9-2.1,2.9-4.2l0,0c1.4,0,2.7,0,4.1,0c0,0.9,0,1.9,0,2.8
	c0,0.4-0.1,0.8-0.1,1.2c-0.5,0.5-0.9,0.9-1.4,1.4c-3.4,1.8-3.9,5.1-4.3,8.5c-1.3,0-2.7,0-4,0C304.4,622.6,304,622.6,303.5,622.6z"/>
<path class="st2" d="M310.5,594.6c-3.2,0.6-3.7,3.1-4.1,5.7c-2.1-1.3-1.6-3.9-2.9-5.6c2.6,0.4,4-4.9,7.2-1.5
	C310.7,593.7,310.6,594.2,310.5,594.6z"/>
<path class="st14" d="M306.1,611.2c-1.1-1-4.1,1.7-3.8-2C304.1,608.9,306.7,607.1,306.1,611.2z"/>
<path class="st5" d="M310.5,608.7c-0.2-0.1-0.4-0.2-0.6-0.3C310.1,608.5,310.3,608.6,310.5,608.7L310.5,608.7z"/>
<path class="st2" d="M317.4,649.1c-0.5-2.3-0.9-4.7-1.4-7c1.4-2.2,2.8-0.4,4.1,0.1c2.7,5.3,8.5,3.4,12.7,5.4c0.5,0.5,0.9,1,1.4,1.4
	c-0.1,1.4-0.1,2.7-0.1,4.1C327.7,655.1,322.3,653,317.4,649.1z"/>
<path class="st9" d="M342.6,667.3c-1-1-2-1.9-3-2.9c0.4-4.2-6.5-5.8-3.8-10.8c0.5-0.4,1-0.9,1.5-1.3c1.3-0.1,2.5-0.1,3.8-0.2
	c0,0.4,0,0.8,0.1,1.2c-0.1,2,0.9,3.4,2.6,4.2C343.3,660.8,345.6,664.4,342.6,667.3z"/>
<path class="st12" d="M337.3,652.3c-0.5,0.4-1,0.9-1.5,1.3c-0.6-0.1-1.2-0.3-1.7-0.4c0-1.4,0.1-2.7,0.1-4.1
	C336.2,649.1,336.9,650.6,337.3,652.3z"/>
<path class="st5" d="M337.3,652.3c-0.4-1.7-1-3.1-3.1-3.2c-0.5-0.5-0.9-1-1.4-1.4c0-2.5-1.9-4.1-3.2-5.9c-3.3-4.6-6.2-4.3-9.5,0.5
	c-1.4-0.5-2.7-2.3-4.1-0.1c-2.7-0.3-3.5,2.5-6.8,4.3c1-6.1,3.3-11.5,1.1-16.7c2.9,2.8,6.4,2.4,9.9,1.5c6.4,4,10.2-0.2,14.1-4.3
	c0.2,2.7-0.3,5.6,0.7,8c1,2.4-3.5,6.1,1.8,7.2c0.5,1,1.1,1.9,1.6,2.9c-1,3.1,2.8,4.4,2.7,7.2C339.8,652.2,338.5,652.2,337.3,652.3z"
	/>
<path class="st7" d="M308.9,622.6c0.4-3.3,0.9-6.6,4.3-8.5c5.9,3,8.7,8.5,11.3,14.1c-0.9,0-1.9,0-2.8,0c-3.4-2.4-7.7-1.1-11.3-2.8
	C309.9,624.5,309.4,623.5,308.9,622.6z"/>
<path class="st2" d="M310.4,625.4c3.6,1.8,7.9,0.4,11.3,2.8c0,1.2-0.4,2.3-1.5,2.9c-3.5,0.8-6.9,1.2-9.9-1.5
	C310.1,628.3,308.2,626.8,310.4,625.4z"/>
<path class="st2" d="M303.5,622.6c0.5,0,0.9,0,1.4,0c0,0.5,0,0.9,0,1.4l-0.7,0l-0.7,0C303.5,623.6,303.5,623.1,303.5,622.6z"/>
<path class="st12" d="M300.8,661.6c1.4,0.1,2.8,0.2,4.2,0.3c-0.8,1.9-2.4,2.5-4.2,2.7C300.8,663.5,300.8,662.5,300.8,661.6z"/>
<path class="st12" d="M397.1,647.6c-1,1-2,2-3,3c-1.9,0-3.7,0-5.6-0.1c-0.5-0.5-1-1-1.5-1.5c-0.5-2.3-0.9-4.5-1.4-6.8
	c3.6-2.1,2.9-8.3,8.4-8.5c1.4-2.1,2.7-4.1,4.1-6.2c1.1,0.3,2.2,0.5,3-0.8c1.8,1,2.1,5,5.5,2.7c1.4,2,3.4,3.3,5.6,4.3
	c1.9,2.8,3.7,1,5.5,0c1.4,0.6,2.8,1.1,4.2,1.7c0.6,1.1,1.7,1.1,2.7,1.3c0,0.5,0,0.9,0,1.4c-1.4,1.2-2.5,3.2-4.9,2.4
	c-3.9-4.5-8.9-4.3-14.1-3.4c-2.3,0.5-3.4-2.1-5.4-2.3C400.7,639.4,394.1,642.3,397.1,647.6z"/>
<path class="st12" d="M343.8,657.6c-1.8-0.8-2.7-2.2-2.6-4.2c4.7-3.6,9.3-7.2,8.2-14.1c0.1-0.4,0.1-0.8,0.2-1.2
	c3.3-0.2,6.7,0.3,9.7-1.5c0.2,2.2-0.6,4.1-1.6,5.9c-1.4,2.6-1.8,5.1,0.5,7.6c2.2,2.4,4.2,0.9,6.2-0.1c3.3-1.6,4.8-0.6,4.5,3
	c-2.4,3.2-7.4,2.3-9.6,5.8c-4.2-1-4.1-4.4-4.2-7.6c-0.1-2.8-1.6-4.8-4.1-4.2c-2.7,0.7-0.5,3-0.3,4.6c0.2,2.4,0.8,5.1-3.3,3.1
	C344.3,653.2,345.8,657.6,343.8,657.6z"/>
<path class="st2" d="M368.8,653.1c0.3-3.7-1.2-4.6-4.5-3c-2,1-4,2.5-6.2,0.1c-2.3-2.5-1.9-4.9-0.5-7.6c1-1.8,1.8-3.7,1.6-5.9
	c0.5-1.2,1.6-1.3,2.8-1.4c1.4,0,2.8,0,4.2,0c0.5,1.8,0.9,3.5,1.4,5.3c-0.5,4,1.9,4.4,5.1,4.4c2.3,0,5.4-1.2,6,2.7
	C374.8,648.3,373.1,653.1,368.8,653.1z"/>
<path class="st12" d="M378.7,647.7c-0.7-3.9-3.7-2.7-6-2.7c-3.2,0-5.6-0.5-5.1-4.4c3.5-1.9,8.2,1.8,11.2-2.5c1.4-0.5,2.7-1,4.1-1.5
	c1.6,1,1.4,2.7,1.4,4.3c-7.3-0.2-1.2,4.8-2.7,6.9C380.6,647.7,379.7,647.7,378.7,647.7z"/>
<path class="st5" d="M381.5,647.7c1.5-2.1-4.6-7.1,2.7-6.9c0.5,0.5,0.9,0.9,1.4,1.4c0.5,2.3,0.9,4.5,1.4,6.8c-0.9,0-1.8,0-2.6,0
	C383.4,648.6,382.5,648.2,381.5,647.7z"/>
<path class="st12" d="M363.5,671.6c-2.3-0.7-5.1,0.8-7-1.6c4.1-7.6,5.9-1,8.4,1.4C364.4,671.5,364,671.6,363.5,671.6z"/>
<path class="st12" d="M364.7,660.4c-0.1,1.6-0.5,3.2-2.3,3.5c-1.5,0.3-1.6-1.1-1.7-2.1C362,661.3,363.4,660.9,364.7,660.4z"/>
<path class="st2" d="M384.4,649.1c0.9,0,1.8,0,2.6,0c0.5,0.5,1,1,1.5,1.5C386.1,652.8,384.8,652.1,384.4,649.1z"/>
<path class="st5" d="M345.3,671.4c-0.5-0.4-1-0.9-1.4-1.3C344.3,670.6,344.8,671,345.3,671.4z"/>
<path class="st10" d="M286.8,647.7c0.5,0,0.9,0,1.4,0C287.7,648.8,287.2,648.8,286.8,647.7z"/>
<path class="st10" d="M289.6,646.3c0-0.5,0-0.9,0-1.4c0.4,0.4,0.9,0.8,1.3,1.1C290.5,646.2,290,646.3,289.6,646.3z"/>
<path class="st9" d="M336.8,642.1c-5.3-1.1-0.8-4.8-1.8-7.2c-1-2.3-0.5-5.3-0.7-8c-0.1-1.9-0.2-3.7-0.2-5.6c0.2-2,0.4-4.1-2.5-4.4
	c-1.1-0.5-1.3-1.4-1.3-2.5c0.8-0.7,0.8-1.2-0.3-1.4c-0.9-0.5-1.8-1-2.7-1.5c-0.4-1.3-0.9-2.7-1.3-4c0.5-1,1-1.9,1.4-2.9
	c2.3,0.4,4.6,0.8,6.8,1.2c-0.3,1.9-0.6,3.3,1.2,5.3c3,3.4,6.8,5.7,9.9,8.8c-1.9,2.4-3.7-0.5-5.6-0.1c-0.2-0.1-0.4-0.2-0.6-0.3
	c0.2,0.1,0.4,0.2,0.6,0.3c0.1,4.4-1,9.1,4.1,11.9c1.7,0.9,1.6,3.1,1.4,5c-2.8,0.5-5.4,1.2-6.8,4
	C337.9,641.2,337.4,641.6,336.8,642.1L336.8,642.1z"/>
<path class="st5" d="M345.3,620c-3.1-3.1-7-5.4-9.9-8.8c-1.8-2-1.4-3.4-1.2-5.3c1.4,0.5,2.7,1.1,4.1,1.6c2.2,1.1,4.5,2,6.6,3.2
	c2.1,1.1,4.1,0.5,4.3-1.5c0.5-5.8,4.2-3.1,7-3c0.1,0.8,0.2,1.7,0.3,2.5c0.1,1,0,2.3,1.5,2.2c0.5,0,1-1.1,1.5-1.7l0.2-0.2
	c0.5-0.9,1-1.7,1.5-2.6c3.7-1.9,5.7,3.4,9.2,2.2c0,1,0.1,2,0.1,3l0,0c-4.8-0.9-6.4,3.8-9.8,5.6c-0.8-0.1-1.7-0.2-2.6-0.4
	c-0.1-2.4-1.1-3.9-3.8-3.8c-2.4,0.1-3.2,1.2-3.5,3.4c-0.2,1.3-0.9,2.6-1.4,3.9C348,620.1,346.6,620,345.3,620z"/>
<path class="st2" d="M361.1,606.3c-0.5,0.9-1,1.7-1.5,2.6c-0.9-1.6-0.4-4.1-2.9-4.6c-0.1,0-0.4,1.2-0.6,1.8c-2.8-0.1-6.5-2.8-7,3
	c-0.2,2-2.2,2.6-4.3,1.5c-2.2-1.2-4.4-2.2-6.6-3.2c4.9-1.7,2.5-4,0.7-6.5c-0.8-1.1-1.9-2.9-0.7-4.3c0.8-0.9,2.1-0.1,2.9,0.9
	c0.8,1.5,1.8,1.4,2.9,0.2c1.3,0,2.7,0,4-0.1c0.4,7.1,5.4,1.3,7.9,2.8c-0.2-4.1,6.1-5.1,4.7-9.8l0.1-0.1c2.5,0.4,3.8,1.8,2.6,4.2
	C361.5,598.4,363.3,602.8,361.1,606.3z"/>
<path class="st8" d="M344,597.7c-1,1.2-2,1.3-2.9-0.2C342.1,597.6,343.1,597.6,344,597.7z"/>
<path class="st8" d="M316.1,594.7c-0.4,0.1-0.8,0.1-1.3,0.2c-0.5,0-1.1,0-1.6,0.1l0.1-0.3c0.9-0.5,1.9-0.9,2.8-1.4
	C316,593.8,316,594.2,316.1,594.7z"/>
<path class="st8" d="M310.5,594.6c0.1-0.5,0.1-0.9,0.2-1.4c0.4,0.4,0.8,0.9,1.3,1.3C311.5,594.6,311,594.6,310.5,594.6z"/>
<path class="st12" d="M379,601.7c2.1,2.6,0.8,5.7,1.1,8.6c0.2,2.6,0,5.4,3.1,6c3.6,0.7,2.1-3.3,3.8-4.6c0.5-0.4,0.9-1,1.3-1.5
	c-0.1,5.2,3.9,3.9,6.8,4.3c0.3,1.5,1.2,2.5,2.9,2.7c0,1.9,0,3.8,0,5.7c-1.3,0-2.6,0-3.9,0c-2.8-8.6-5.6,1-8.4,0
	c-2.8,0.4-5.5,0.9-8.3,1.3c2.6-5.1-3.5-9.2-1.7-14.2c0-1.3,0.1-2.6,0.1-3.9C376.8,604.5,377.1,602.5,379,601.7z"/>
<path class="st10" d="M375.9,606c0,1.3-0.1,2.6-0.1,3.9c-1.8,0.5-3.6,1-5.4,1.5c0-1-0.1-2-0.1-3c0.3-1.7-0.4-3.8,1.9-4.7
	C374.4,603,374.6,605.5,375.9,606z"/>
<path class="st2" d="M360.6,590.6c-0.2-0.1-0.4-0.2-0.5-0.4c0.2,0.1,0.4,0.2,0.7,0.3L360.6,590.6z"/>
<path class="st14" d="M458.1,670c-2.8-1.5,0.2-2.6,0.2-4C461.9,667.5,459.9,668.8,458.1,670z"/>
<path class="st2" d="M255.7,647.8l-0.4,0.5c-0.1-0.2-0.3-0.4-0.3-0.6l0.4-0.5C255.5,647.4,255.6,647.6,255.7,647.8z"/>
<path class="st4" d="M469.3,678.3c0.4,0.5,0.7,1,1.1,1.5C468.7,680.3,469.7,678.8,469.3,678.3L469.3,678.3z"/>
<path class="st9" d="M398,622.9c0-1.9,0-3.8,0-5.7c6.4,1.6,4.8,8.8,8.6,12.2c-3.4,2.4-3.7-1.7-5.5-2.7
	C400.1,625.5,399.1,624.2,398,622.9z"/>
<path class="st10" d="M395.2,614.5c-2.9-0.4-6.9,0.9-6.8-4.3c0.5-0.1,1.1-0.1,1.6-0.2C392.3,610.8,395.4,610.8,395.2,614.5z"/>
<path class="st9" d="M417.7,633.7c-1.8,1-3.7,2.8-5.5,0C414,632.8,415.9,627.9,417.7,633.7z"/>
<path class="st9" d="M424.6,636.7c-1-0.1-2.1-0.1-2.7-1.3c0.2-1,0.1-2.4,1.5-2.5c1.5-0.1,2.2,1.2,2.7,2.3
	C425.6,635.7,425.1,636.2,424.6,636.7z"/>
<path class="st4" d="M397.1,647.6c-3-5.3,3.6-8.2,3.2-12.9c2,0.2,3.1,2.8,5.4,2.3c-0.5,2.6,1,3.3,3.2,3.6c1.1,0,2.2,0.1,3.3,0.1l0,0
	c-0.3,1.5,1.9,3.2-0.4,4.6c-0.3,0-0.7-0.1-1-0.2c-1-1.9-2.7-1.6-4.4-1.5c-1.7-0.5-2.7,0.5-3.8,1.5c-1.4,0-2.8,0.3-2.8,2
	c0,1.7,1.4,2,2.8,2c0.4,0.4,0.9,0.8,1.3,1.3C398.6,657.4,399.2,649,397.1,647.6z"/>
<path class="st14" d="M408.8,640.6c-2.1-0.3-3.7-1-3.2-3.6c5.2-0.9,10.2-1.1,14.1,3.4c-2.5,0.1-5,0.2-7.5,0.3l0,0
	C411.1,639.1,410,639.4,408.8,640.6z"/>
<path class="st2" d="M402.7,649c-1.4,0-2.8-0.2-2.8-2c0-1.7,1.4-2,2.8-2C402.6,646.4,402.7,647.7,402.7,649z"/>
<path class="st2" d="M406.4,643.6c1.7,0,3.4-0.3,4.4,1.5C409.2,645.1,407.5,645.2,406.4,643.6z"/>
<path class="st10" d="M289.6,640.7c0-0.4,0-0.9,0-1.3C290.6,639.9,290.5,640.3,289.6,640.7z"/>
<path class="st5" d="M325.9,607.5c0.4,1.3,0.9,2.7,1.3,4c0.1,2.1-0.1,4.1-2.9,4.3c-2.3-0.9-5-0.9-6.8-2.9l0,0
	c0.9-0.4,1.8-0.8,2.7-1.2c3,0,3.8-2.2,4.3-4.6C325,607.3,325.4,607.4,325.9,607.5z"/>
<path class="st14" d="M324.5,607.2c-0.5,2.4-1.2,4.6-4.3,4.6c-4.6-2.4-2.3-6.3-0.5-7.9C322.5,601.5,322.4,606.6,324.5,607.2z"/>
<path class="st12" d="M314.5,612.7c0-0.4,0.1-0.8,0.1-1.2c1.2,0,2.2,0.2,2.8,1.4l0,0C316.5,612.9,315.5,612.8,314.5,612.7z"/>
<path class="st2" d="M313.1,594.9c0.5,0,1.1,0,1.6-0.1C314.3,595.6,313.7,596,313.1,594.9z"/>
<path class="st2" d="M314.5,612.7c1,0.1,2,0.1,2.9,0.2c1.9,2,4.5,2,6.8,2.9c0.6,2.4,1.2,4.9,1.9,7.3c0.6,2.2,2.2,4.5-1.7,5.2
	c-2.6-5.7-5.4-11.1-11.3-14.1C313.6,613.7,314.1,613.2,314.5,612.7z"/>
<path class="st12" d="M320.2,642.3c3.3-4.9,6.2-5.1,9.5-0.5c1.3,1.8,3.2,3.4,3.2,5.9C328.7,645.6,322.9,647.6,320.2,642.3z"/>
<path class="st10" d="M349.4,639.3c1.1,6.9-3.5,10.5-8.2,14.1c-0.1-0.4-0.1-0.8-0.1-1.2c0.1-2.8-3.7-4-2.7-7.2
	c4.6,0.9,5.2-5.2,9.3-5.2C348.2,639.6,348.8,639.4,349.4,639.3z"/>
<path class="st12" d="M324.5,628.2c3.9-0.6,2.3-3,1.7-5.2c-0.7-2.4-1.2-4.9-1.9-7.3c2.8-0.2,3-2.2,2.9-4.3c0.9,0.5,1.8,1,2.7,1.5
	c0.1,0.5,0.2,0.9,0.3,1.4c0,1,0.2,2,1.3,2.5c-0.2,2.1-0.3,4,2.5,4.4c0.1,1.9,0.1,3.7,0.2,5.6c-3.9,4.1-7.7,8.3-14.1,4.3
	c1.1-0.7,1.4-1.7,1.5-2.9C322.6,628.3,323.5,628.2,324.5,628.2z"/>
<path class="st4" d="M347.7,639.8c-4.1,0-4.7,6.1-9.3,5.2c-0.5-1-1.1-1.9-1.6-2.9l0.1,0c0.5-0.4,1-0.9,1.5-1.3c1.4-2.8,4-3.5,6.8-4
	C346,637.7,346.8,638.7,347.7,639.8z"/>
<path class="st7" d="M385.8,622.9c2.8,1,5.6-8.6,8.4,0c0.1,2.6,3.2,2.7,4,4.6c-1.4,2.1-2.7,4.1-4.1,6.2c-1.5-1.7-3.9-2.7-4.2-5.4
	C390.2,625.3,386.5,625.2,385.8,622.9z"/>
<path class="st2" d="M389.8,628.4c0.3,2.6,2.7,3.6,4.2,5.4c-5.5,0.2-4.8,6.4-8.4,8.5c-0.5-0.5-0.9-0.9-1.4-1.4
	c0-1.6,0.3-3.2-1.4-4.3C385.6,634.2,383.5,627.7,389.8,628.4z"/>
<path class="st6" d="M398.1,627.5c-0.8-2-3.9-2-4-4.6c1.3,0,2.6,0,3.9,0c1,1.3,2,2.6,3,3.9C400.4,628.1,399.2,627.9,398.1,627.5z"/>
<path class="st9" d="M358.1,616.7c0.9,0.1,1.7,0.2,2.6,0.4c2.5,2.5,5.6,1,8.4,1.3c0.5,0.5,0.9,0.9,1.4,1.4c-2,3.5-5.9,5.7-7,9.9
	c-6.1,0.4-0.9,3.7-1.4,5.6c-1.1,0.1-2.2,0.2-2.8,1.4c-3,1.8-6.4,1.2-9.7,1.5c-0.3-2.3,0.4-3.9,2.6-5.1c1-0.5,3.6,0,2.6-1.9
	c-0.6-1.1-0.3-3.8-3.4-3.4c-7,0.9-1.7-3.3-1.9-5.2C353.6,622.5,355.7,619.4,358.1,616.7z"/>
<path class="st3" d="M349.5,622.6c0.3,1.9-5.1,6.1,1.9,5.2c3.1-0.4,2.8,2.3,3.4,3.4c1,1.8-1.7,1.3-2.6,1.9c-2.2,1.2-3,2.7-2.6,5.1
	c-0.1,0.4-0.1,0.8-0.2,1.2c-0.6,0.2-1.1,0.3-1.7,0.5c-0.8-1-1.7-2-2.5-3c0.2-1.8,0.3-4-1.4-5c-5.1-2.8-3.9-7.5-4.1-11.9l0,0
	c1.9-0.4,3.7,2.5,5.6,0.1c1.4,0.1,2.7,0.2,4.1,0.2C349.4,621,349.5,621.8,349.5,622.6z"/>
<path class="st5" d="M370.5,619.8c-0.5-0.5-0.9-0.9-1.4-1.4c0.4-2.3,0.9-4.6,1.3-6.9l0,0c1.8-0.5,3.6-1,5.4-1.5
	c-1.8,5,4.3,9.1,1.7,14.2c-1.1,1.6-2.1,3.2-1.6,5.3l0,0c-1.3-0.2-2.2,0.2-2.5,1.5c-1.3,3.2-5.3,1.8-7.1,4.2c-1.4,0-2.8,0-4.2,0
	c0.6-1.8-4.7-5.1,1.4-5.6c1.6-0.1,3.4,0.2,4.8-0.3C372.9,627.9,373.9,623.1,370.5,619.8z"/>
<path class="st8" d="M366.3,635.3c1.8-2.4,5.8-0.9,7.1-4.2c1.1-0.1,2.1-0.4,2.5-1.5l0,0c9.5-0.1,1.1,6,2.9,8.5
	c-2.9,4.3-7.7,0.6-11.2,2.5C367.2,638.8,366.7,637,366.3,635.3z"/>
<path class="st0" d="M378.8,638.1c-1.8-2.5,6.6-8.6-2.9-8.5c-0.6-2.1,0.4-3.7,1.6-5.3c2.8-0.4,5.5-0.9,8.3-1.3
	c0.7,2.3,4.5,2.3,4.1,5.5c-6.3-0.7-4.2,5.8-6.9,8.2C381.5,637.1,380.2,637.6,378.8,638.1z"/>
<path class="st5" d="M334,621.3c-2.8-0.3-2.7-2.3-2.5-4.4C334.4,617.2,334.2,619.3,334,621.3z"/>
<path class="st5" d="M330.2,614.4c-0.1-0.5-0.2-0.9-0.3-1.4C331,613.3,331,613.8,330.2,614.4z"/>
<path class="st3" d="M339.7,619.9c-0.2-0.1-0.4-0.2-0.6-0.3C339.3,619.7,339.5,619.8,339.7,619.9L339.7,619.9z"/>
<path class="st5" d="M338.4,640.7c-0.5,0.4-1,0.9-1.5,1.3C337.4,641.6,337.9,641.2,338.4,640.7z"/>
<path class="st10" d="M349.5,622.6c0-0.8-0.1-1.6-0.1-2.4c0.5-1.3,1.2-2.6,1.4-3.9c0.3-2.2,1.1-3.3,3.5-3.4c2.8-0.1,3.7,1.3,3.8,3.8
	C355.7,619.4,353.6,622.5,349.5,622.6z"/>
<path class="st10" d="M370.4,611.5c-0.4,2.3-0.9,4.6-1.3,6.9c-2.8-0.3-6,1.2-8.4-1.3C363.9,615.3,365.6,610.6,370.4,611.5z"/>
<path class="st0" d="M356.2,606.1c0.2-0.6,0.6-1.8,0.6-1.8c2.5,0.6,2,3,2.9,4.6l-0.2,0.2c-1-0.2-2-0.3-2.9-0.5
	C356.4,607.8,356.3,606.9,356.2,606.1z"/>
<path class="st2" d="M356.5,608.6c1,0.2,1.9,0.3,2.9,0.5c-0.5,0.6-0.9,1.7-1.5,1.7C356.5,611,356.6,609.6,356.5,608.6z"/>
<path class="st2" d="M408.8,640.6c1.2-1.3,2.3-1.5,3.3,0.1C411,640.7,409.9,640.7,408.8,640.6z"/>
<path class="st10" d="M370.5,619.8c3.4,3.4,2.4,8.1-2.2,9.6c-1.5,0.5-3.2,0.2-4.8,0.3C364.6,625.5,368.5,623.3,370.5,619.8z"/>
<path class="st0" d="M375.9,629.6c-0.5,1.2-1.5,1.4-2.5,1.5C373.7,629.8,374.6,629.3,375.9,629.6z"/>
<path class="st15" d="M509.5,639.3c0.5,0.9,0.9,1.8,1.4,2.8c0.8,1.8,0.2,3.9,1.4,5.6c2,5.6,2.4,11.1,0,16.7
	c-2.7,12.6-9.6,23-17.8,32.6c-0.7,1.1-1.6,2.1-2.5,3.1c-5.1,4.1-10.4,7.8-15.8,11.4c-5.6,2.9-11.1,6.1-16.9,8.6
	c-6.4,2.8-13.2,4.6-19.8,7c-8.4,2.3-16.9,3.6-25.4,5.2c-1.1,0.2-2.1,0.1-3.1-0.3c-2.9-3.3,1-4.6,1.9-6.8c0.3-0.6,0.7-1.2,1-1.7
	c0.6-0.8,1.4-1.4,2.4-1.7c3-1,6.2-1.6,9.3-2.5c1.5-0.4,3-0.9,4.5-1.4c1.2-0.4,2.4-0.6,3.6-0.9c2.1-0.5,4.2-1.2,6.2-2
	c2.4-0.7,4.7-1.7,6.9-2.7c3-0.7,5.9-1.5,8.1-3.8c2.2-1.2,4.6-1.9,6.8-3c2.5-0.8,5.2-1.4,7.4-2.9c0.7-0.5,1.5-0.9,2.2-1.4
	c1-0.7,1.9-1.3,3-1.9c1.6-0.8,2.9-1.9,4.2-3.1c1.8-1.4,3.6-2.9,5.4-4.4c1.4-0.9,2.8-1.9,3.7-3.4c1.7-2.5,4-4.4,5.8-6.8
	c1-1.3,1.9-2.6,3-3.8c7.1-11.4,7.1-23.5,3.9-36c-0.3-1-0.5-2-0.7-3c-0.2-1.3-0.6-2.6-1.1-3.8c-1.7-4.9-7.1-8.6-5.1-14.8
	c0.5-1,1.3-1.6,2.5-1.7c1.7,0.9,2.6,2.2,2.6,4.2c3,1.4,3.9,4.7,6.1,6.8C506.9,632.3,508,635.9,509.5,639.3z"/>
<path class="st16" d="M242,633.7c1.9-6.7,6.6-11.4,11.3-16.1c5.7-5.8,12.7-10.7,12.3-20.2c2.6,2.4,1.8,5.5,1.7,8.5
	c-0.2,1.1-0.4,2.4-1.2,3.2c-7.8,8.3-15.4,16.9-21.9,26.3C243,635.5,242.5,634.6,242,633.7z"/>
<path class="st17" d="M495.6,700.6c0-2,0.1-4.1-2.7-4.1c9.4-9,14.8-20.3,19.5-32.1c-0.5,8.6-3.6,16.3-8.9,22.8
	C500.1,691.3,497.5,695.7,495.6,700.6z"/>
<path class="st18" d="M242,633.7c0.5,0.5,1,1,1.4,1.4c1.5,7.4-1.6,14.5-1.4,21.8c-1,2.5-0.6,5.5-2.8,7.5
	C236.3,653.8,237.2,643.6,242,633.7z"/>
<path class="st19" d="M254.5,688.1c-1.1,0.6-1.3,1.7-1.4,2.8c-4.2-5.8-9-11.1-11.2-18.1c-0.6-1.4,0.3-1.8,1.4-2.1
	C249,675.2,253.1,680.8,254.5,688.1z"/>
<path class="st20" d="M265.7,607.3c0-3.3-0.1-6.6-0.1-9.9c0.1-1.5-0.1-3.2,1.6-4c1.2,1.4,1.5,3,1.6,4.7c0.1,1,0.1,1.9,0.1,2.9
	c0.1,1.3,0.5,2.5,1.2,3.6c1.1,2.2,1.7,4.4,0.7,6.7c-0.7,1.2-1.8,1.9-3.2,1.9C265,611.8,267.2,609,265.7,607.3z"/>
<path class="st21" d="M243.4,671.3c-0.5,0.5-1,1-1.4,1.4c-2-2.4-2.6-5.3-2.8-8.4c0.4-2.3-0.9-5,1.4-7
	C242.9,661.8,245.1,666.1,243.4,671.3z"/>
<path class="st22" d="M509.5,639.3c-2.8-2.7-3.6-6.6-5.6-9.8c-0.4-0.3-0.6-0.6-0.4-0.9c0.1-0.3,0.3-0.5,0.4-0.5
	C507.6,630.9,509.3,634.8,509.5,639.3z"/>
<path class="st23" d="M503.9,628.1c0,0.5,0,0.9,0,1.4c-2.8-1.5-3.7-4.7-5.6-7C501.7,622.9,503.5,624.8,503.9,628.1z"/>
<path class="st24" d="M512.3,647.6c-1.5-1.6-2.6-3.3-1.4-5.6C513,643.5,512.1,645.7,512.3,647.6z"/>
<path class="st25" d="M243.4,671.3c-0.9-4.6-3.5-9-2.8-13.9c-0.4-7.6,0.5-15,2.9-22.3c5.2-11,14.3-19,22.3-27.9c5,0.8,0.4,4,1.5,5.8
	c0.4,3-2.1,4.8-2.9,7.3c-0.7,1.3-1.3,2.7-1.9,4c-0.5,1.1-1,2.2-1.6,3.3c-4,6.9-10.6,12.5-10.4,21.4c0.8,3.9-0.1,8,1.1,11.9
	c0.9,3.1,1.5,6.2,2.7,9.2c0.8,1.6,1.7,3.2,2.5,4.8c0.8,1.6,1.8,3,3.2,4.2c2.3,1.8,2.9,4.8,5.1,6.6c2,2.2,4.2,4.2,6.5,6.1
	c1.6,1.7,2.9,3.6,4.7,5.2c1,1,2.1,2,3.4,2.8c4.1,2,8.8,2.7,12.9,4.8c1.1,0.6,2.1,1.2,3.2,1.9c1.3,0.8,2.8,1.2,4.2,1.8
	c4.5,2.3,9.2,4.1,14.1,5.2c2,0.7,4,1.8,6.1,2.4c0.6,0.2,1.2,0.4,1.8,0.6c1.5,0.5,3,0.8,4.5,1.2c2.2,0.6,4.4,1,6.6,1.5
	c2.3,0.7,4.7,0.6,7,1.1c2.7,0.8,5.5,1,8.3,1.6c3.5,1.2,7.2,0.5,10.8,1c0.8,0.1,1.5,0.2,2.2,0.4c5.2,1.3,10.5,0.5,15.8,0.7
	c1.2-0.1,2.3-0.1,3.5,0c2.8,0.1,5.5,0,8.2,0c5.1,0.2,10.3-0.4,15.4,0.4c3.4,1.8,7.4-0.3,10.8,1.4c-0.4,2.6-4.2,2.7-4.1,5.6
	c-0.6,0.7-1.3,1.1-2.2,1.3c-7.6-0.1-14.9,2.2-22.6,2.3c-11,0-21.9-0.8-32.9-2.1c-3.9-0.4-7.7-1.1-11.5-1.5c-2.5-0.6-4.9-1.5-7.6-1.3
	c-2.9,0.2-5.4-1.8-8.4-1.4c-6.4-1.7-12.9-3.6-19.2-5.7c-3.8-1.5-7.5-3.1-11.2-4.6c-8.7-3.9-17.3-8.3-25.3-13.6
	c-2-1.6-3.5-3.6-5.8-4.9c-1.8-1.9-5.5-2.3-5.3-6c-1.4-1.8-2.9-3.7-4.3-5.5C250.8,682.5,247.1,676.9,243.4,671.3z"/>
<path class="st26" d="M501.4,640.6c4.6,13.6,4.4,26.7-4.4,38.9c-0.6-0.5-1.1-1.2-1.3-1.9c-1.8-7.7,1.7-14.7,2.8-22
	C500.6,650.8,497.3,645,501.4,640.6z"/>
<path class="st27" d="M434.3,729.8c-4.7,0.5-9.5,0.7-13.9,2.8c-0.9,0-1.9,0-2.8,0c-1.1-1.3-3.1,0-4.2-1.4c8.6-3,17.6-3.9,26.5-5.6
	c0.4,0.3,0.5,0.7,0.4,1c-0.1,0.3-0.2,0.5-0.3,0.5C438.7,729.3,435.5,727.6,434.3,729.8z"/>
<path class="st28" d="M439.9,727.1c0-0.5,0-1,0-1.5c6.2-3.2,12.9-5,19.6-6.8c0.6,0.3,1.1,0.7,1.3,1.3c0,0.5,0,0.9,0,1.4
	c-5.6,1.9-11.2,3.7-16.7,5.6C442.6,727.1,441.2,727.1,439.9,727.1z"/>
<path class="st29" d="M460.7,720.1c-0.4-0.4-0.9-0.9-1.3-1.3c5.3-3.3,10.6-6.5,16.6-8.5c0.5-0.5,1-0.5,1.5,0.1
	c0.2,2.2-2,2.7-2.8,4.2C469.2,714.4,466,719.8,460.7,720.1z"/>
<path class="st28" d="M477.5,710.3c-0.5,0-1,0-1.5-0.1c4.6-4.4,9.9-7.9,15.4-11.2C489.5,706.2,482.8,707.5,477.5,710.3z"/>
<path class="st30" d="M492.8,628.1c0.5-2.8-1.6-6,1.5-8.2c-1.4,6.2,5,9.7,5.5,15.2c-1.2,0.8-2.3,0.2-3.3-0.3c-0.5-0.3-1-0.7-1.4-1.1
	c-1.1-1.4-1.9-2.9-2.3-4.7C492.8,628.7,492.8,628.4,492.8,628.1z"/>
<path class="st31" d="M501.4,640.6c-1.3,5,1.5,10.5-1.6,15.4c-2.8-2.9-1.6-6.5-1.9-9.9c0-1.1,0-2.2,0.1-3.3c0-1.1,0.2-2.2,0.6-3.2
	c0.5-1,1.1-1.9,2.4-1.5C501.1,638.9,501.2,639.7,501.4,640.6z"/>
<path class="st32" d="M501,638c-0.4,0.4-0.9,0.7-1.3,1c-0.5,0.6-1.1,0.6-1.7,0.3c-1.4-1.6-2.5-3.3-1.2-5.5c1,0.4,2,0.8,3,1.3
	C500.9,635.8,501.2,636.8,501,638z"/>
<path class="st33" d="M413.3,731.2c1.5,0.1,3.2-0.2,4.2,1.4c-1.4,0-2.8,0-4.2,0c-1.7,0.4-3.7,2.1-4.1-1.4c0.5,0,0.9-0.1,1.3-0.1
	C411.5,731.2,412.4,731.2,413.3,731.2z"/>
<path class="st34" d="M393.9,736.8c-2.6-1.6-5.5-1.4-8.4-1.3c-4.6,2.8-9.3,3-13.9,0c-2.3,0-4.6,0-7,0c-4.9-2.9-10.2-0.7-15.3-1.4
	c0-0.5,0-0.9,0-1.4c0.7-1,2.1-0.4,2.8-1.4c19.1,2.5,38.1,1.6,57.2,0c1,1.6,2.6,1.3,4.1,1.4c-4.6,3.6-10.7-0.9-15.3,2.8
	C396.5,735.5,394.9,735.2,393.9,736.8z"/>
<path class="st35" d="M269.9,703.2c8.4,4.6,16.8,9.3,25.2,13.9c-0.2,0.9-1,1.1-1.6,1.5c-0.5,0-0.9,0-1.4,0c-4.6-2.3-9.3-4.6-13.9-7
	c-3.3-2.3-6.5-4.6-9.8-6.9C268.6,703.9,269.1,703.4,269.9,703.2z"/>
<path class="st36" d="M258.8,693.5c1.9,1.8,3.7,3.6,5.6,5.4c0.4,0.6,0.4,1.2-0.1,1.7C262.1,698.6,256.6,699,258.8,693.5z"/>
<path class="st37" d="M264.3,700.7c0-0.6,0.1-1.1,0.1-1.7c2.6,0.5,4.2,2.2,5.5,4.3c-0.5,0.5-1,1-1.5,1.6
	C266.6,703.8,265.2,702.5,264.3,700.7z"/>
<path class="st38" d="M352,731.3c-0.6,1.1-1.7,1.3-2.8,1.4c-3.2,0-6.5,0-9.7,0c0-0.5,0-0.9-0.1-1.4c0.1-0.9,1-0.9,1.4-1.4
	C344.6,730.4,348.3,730.8,352,731.3z"/>
<path class="st39" d="M306.2,721.4c6.5,1.9,12.9,3.8,19.4,5.6c0.1,2.6-1.2,2.2-2.8,1.4c-1.4,0-2.8,0-4.1,0c-2.9-2.2-6.6-1.4-9.8-2.8
	c-1-1.6-2.6-1.3-4.2-1.4c-0.5-0.5-0.9-0.9-1.4-1.4C303.2,720.2,304.6,720.7,306.2,721.4z"/>
<path class="st40" d="M306.2,721.4c-1.1,0.1-2.2,0.3-2.8,1.4c-3.7-0.4-6.5-2.8-9.8-4.2c0.5-0.5,1.1-1,1.6-1.5
	C299.2,717.5,302.7,719.6,306.2,721.4z"/>
<path class="st41" d="M340.9,729.9c-0.5,0.5-0.9,0.9-1.4,1.4c-3.2-0.5-6.8,1.2-9.8-1.4c1.1-1.4,3.1-0.1,4.2-1.3
	C336.2,729,338.6,729.4,340.9,729.9z"/>
<path class="st42" d="M333.9,728.5c-1,1.6-2.7,1.2-4.2,1.3c-1.8,0-3.7,0-5.5,0c-0.5-0.5-0.9-0.9-1.4-1.4c1.1-0.1,2.2-0.3,2.8-1.4
	C328.4,727.6,331.1,728,333.9,728.5z"/>
<path class="st43" d="M499.7,644.7c0,3.8,0.1,7.5,0.1,11.3c-0.5,7.4-3.6,14.5-3.1,22.1c-0.4-0.4-0.9-0.8-1.3-1.2
	c-0.7-0.9-1.3-2-1.5-3.2c-0.8-5.4,0.6-10.7,1.1-16.1c0.3-3.4,0-6.9,1.4-10.2C497.1,646.1,497.7,644.6,499.7,644.7z"/>
<path class="st31" d="M496.8,633.8c0.7,1.7,1.3,3.5,2,5.2c-5.6,2.3-3.2-2.3-3.7-4.4c0.2-0.3,0.4-0.7,0.6-1
	C496,633.7,496.4,633.8,496.8,633.8z"/>
<path class="st31" d="M494.2,633.7c-0.9-1.7-1.7-3.5-1.4-5.6c2.1,1.2,2.5,3.4,2.9,5.5l-0.2,0.2C495,634.3,494.5,634.3,494.2,633.7z"
	/>
<path class="st44" d="M494.2,633.7c0.4,0,0.8,0,1.3,0.1c0.5,2.1-0.8,5.4,3.3,5.2c0.3,0,0.6,0,0.9,0.1c0,1,0,2,0,3
	c-1.2,1.6-2.9,3.1-1.4,5.5c-1.8,3.1-1.3,6.5-1.3,9.8c-4.2-0.8-3.1-5.4-5.3-7.6c-0.8-2.8-1-5.4,1.1-7.8
	C494.6,639.5,494.2,636.6,494.2,633.7z"/>
<path class="st11" d="M428.1,804c22.1-7.8,37.5-16.7,46.4-41c8.2-22.3,15.9-44.7,22.4-67.5c-0.5,0-1,0-1.5,0c-2.1,0-3.4,1.3-4.7,2.6
	c-10.2,9.5-22.2,16.2-35.1,20.9c-36.6,13.2-74.2,16.3-112.5,9.8c-29.3-5-57.6-13-80.3-33.6c-11.2-10.1-19.9-21.9-22.3-37.3
	c-0.9,0-1.8,0-2.7,0c0.6,8.3,3.4,15.7,8.4,22.4c5.1,6.7,8.3,14.4,10.9,22.3c6.8,20.6,13.8,41.1,20.8,61.6c7.8,23.2,24.7,34,46.6,40
	c0,0,27.1,6,53.7,6C378.4,810.2,411.5,810.2,428.1,804z"/>
<path class="st14" d="M361.7,582c0,0-3.1,2-2.3,3c0,0,2-0.8,3.4-1.1C362.8,583.9,365.4,581,361.7,582z"/>
<path class="st14" d="M372,574.8c0,0-3.1,2-2.3,3c0,0,2-0.8,3.4-1.1C373.1,576.7,375.7,573.7,372,574.8z"/>
<path class="st14" d="M382.1,577.2c0,0-1.9,1.2-1.4,1.8c0,0,1.2-0.5,2-0.6C382.8,578.3,384.3,576.5,382.1,577.2z"/>
<path class="st14" d="M374.5,596.3c0,0-2.4,1.6-1.8,2.3c0,0,1.5-0.6,2.7-0.8C375.4,597.8,377.4,595.5,374.5,596.3z"/>
<path class="st4" d="M374.8,596.8c0,0-0.8,0.5-0.6,0.8c0,0,0.5-0.2,0.9-0.3C375.1,597.3,375.7,596.5,374.8,596.8z"/>
<path class="st14" d="M375.6,601.6c0,0,2.7,0.7,2.3,1.5c0,0-1.6-0.1-2.7,0.1C375.3,603.2,372.7,601.8,375.6,601.6z"/>
<path class="st14" d="M397.3,584.4c0,0-0.7,1.6-0.2,1.8c0,0,0.6-0.8,1.1-1.2C398.2,585,398.5,583.1,397.3,584.4z"/>
<path class="st14" d="M377.2,593.4c0,0-2.3,1.5-1.7,2.2c0,0,1.5-0.6,2.6-0.8C378.1,594.9,380,592.6,377.2,593.4z"/>
<path class="st14" d="M366.2,588c0,0-2.2,0.2-2,1c0,0,1.3,0.1,2.1,0.3C366.3,589.3,368.5,588.4,366.2,588z"/>
<path class="st14" d="M391.5,590.7c0,0-1.3,2.4-0.4,2.8c0,0,1-1.2,1.9-1.9C393,591.5,393.6,588.6,391.5,590.7z"/>
<path class="st14" d="M400.2,601.6c0,0-1,1.8-0.3,2c0,0,0.8-0.9,1.4-1.4C401.3,602.2,401.7,600.1,400.2,601.6z"/>
<path class="st14" d="M352.7,582.2c0,0-1.5,2.7-0.5,3.1c0,0,1.1-1.4,2.1-2.1C354.3,583.2,355,580,352.7,582.2z"/>
<path class="st14" d="M392.7,582.5c0,0-3,0.3-2.7,1.3c0,0,1.7,0.2,2.8,0.5C392.8,584.2,395.7,583.1,392.7,582.5z"/>
<path class="st14" d="M372.2,581.1c0,0,2.9,0.3,2.6,1.2c0,0-1.6,0.2-2.7,0.5C372.1,582.8,369.3,581.7,372.2,581.1z"/>
<path class="st14" d="M370.3,594.4c0,0-2.7,0.9-2.3,1.8c0,0,1.6-0.2,2.7-0.1C370.8,596,373.3,594.3,370.3,594.4z"/>
<path class="st14" d="M389.5,588.4c0,0-0.8,2.7,0.1,2.8c0,0,0.7-1.4,1.4-2.2C391.1,588.9,391.1,586,389.5,588.4z"/>
<path class="st14" d="M376.2,584.9c0,0-2.8,0.6-2.5,1.5c0,0,1.7,0,2.7,0.2C376.5,586.6,379.2,585.2,376.2,584.9z"/>
<path class="st14" d="M361,588.7c0,0,1.5,1,1.1,1.5c0,0-1-0.4-1.7-0.5C360.5,589.6,359.2,588.2,361,588.7z"/>
<path class="st14" d="M367.6,583.4c0,0,2.5,1.6,1.8,2.4c0,0-1.6-0.7-2.7-0.9C366.7,584.9,364.6,582.6,367.6,583.4z"/>
<path class="st14" d="M397.4,590.5c0,0,2.6,1.7,1.9,2.5c0,0-1.7-0.7-2.9-0.9C396.4,592.1,394.2,589.6,397.4,590.5z"/>
<path class="st14" d="M384.6,580.2c0,0,2.5,0.2,2.3,1c0,0-1.5,0.2-2.4,0.5C384.6,581.8,382.1,580.8,384.6,580.2z"/>
<path class="st14" d="M312.9,580.5c0,0,3.7,2.4,2.7,3.6c0,0-2.4-1-4.1-1.3C311.5,582.8,308.5,579.2,312.9,580.5z"/>
<path class="st14" d="M377.7,575c0,0,1.8,2.4,0.9,2.9c0,0-1.3-1.2-2.3-1.8C376.3,576.1,375.2,573.1,377.7,575z"/>
<path class="st14" d="M400.9,586c0,0-2.3,1.5-1.7,2.2c0,0,1.5-0.6,2.6-0.8C401.7,587.4,403.6,585.2,400.9,586z"/>
<path class="st14" d="M380.5,582.2c0,0-2.2,0.2-2,1c0,0,1.3,0.1,2.1,0.3C380.6,583.5,382.7,582.6,380.5,582.2z"/>
<path class="st14" d="M412.9,569.8c0,0-3,0.3-2.7,1.3c0,0,1.7,0.2,2.8,0.5C413,571.6,415.9,570.5,412.9,569.8z"/>
<path class="st14" d="M402.1,593.8c0,0,2.9,0.3,2.6,1.2c0,0-1.6,0.2-2.7,0.5C402,595.5,399.2,594.4,402.1,593.8z"/>
<path class="st14" d="M384.6,588.6c0,0-2.7,0.9-2.3,1.8c0,0,1.6-0.2,2.7-0.1C385,590.3,387.5,588.6,384.6,588.6z"/>
<path class="st14" d="M411.5,574.1c0,0-0.8,2.7,0.1,2.8c0,0,0.7-1.4,1.4-2.2C413,574.7,413,571.7,411.5,574.1z"/>
<path class="st14" d="M411.6,584.7c0,0,2.6,1.7,1.9,2.5c0,0-1.7-0.7-2.9-0.9C410.7,586.3,408.5,583.8,411.6,584.7z"/>
<path class="st14" d="M389.9,596.5c0,0,1.1,1.5,0.5,1.7c0,0-0.8-0.7-1.4-1.1C389.1,597.2,388.4,595.4,389.9,596.5z"/>
<path class="st14" d="M402.1,599.6c0,0,3.2,0.6,2.9,1.6c0,0-1.9,0-3.1,0.3C401.8,601.5,398.7,600,402.1,599.6z"/>
<path class="st14" d="M379.9,586.8c0,0-1.9,1.2-1.4,1.8c0,0,1.2-0.5,2-0.6C380.5,587.9,382.1,586.1,379.9,586.8z"/>
<path class="st14" d="M368.7,603.9c0,0,2.7,0.7,2.3,1.5c0,0-1.6-0.1-2.7,0.1C368.4,605.5,365.9,604.1,368.7,603.9z"/>
<path class="st14" d="M352,591.9c0,0-1,1.8-0.3,2c0,0,0.8-0.9,1.4-1.4C353.1,592.5,353.5,590.4,352,591.9z"/>
<path class="st14" d="M376.5,592c0,0-2,0.2-1.8,0.8c0,0,1.1,0.1,1.9,0.3C376.5,593.2,378.5,592.4,376.5,592z"/>
<path class="st14" d="M356.5,586.2c0,0-2.7,0.9-2.3,1.8c0,0,1.6-0.2,2.7-0.1C357,587.8,359.4,586.1,356.5,586.2z"/>
<path class="st14" d="M360.6,594.9c0,0-2.8,0.6-2.5,1.5c0,0,1.7,0,2.7,0.2C360.8,596.6,363.5,595.1,360.6,594.9z"/>
<path class="st14" d="M377,588.5c0,0,1.8,1.1,1.3,1.7c0,0-1.1-0.5-1.9-0.6C376.3,589.5,374.9,587.8,377,588.5z"/>
<path class="st14" d="M368.9,590.2c0,0,2.5,0.2,2.3,1c0,0-1.5,0.2-2.4,0.5C368.9,591.7,366.4,590.7,368.9,590.2z"/>
<path class="st14" d="M368.9,598.5c0,0-2.7,0.9-2.3,1.8c0,0,1.6-0.2,2.7-0.1C369.3,600.2,371.8,598.5,368.9,598.5z"/>
<path class="st14" d="M388.1,593.8c0,0-0.5,1.5,0.1,1.6c0,0,0.4-0.8,0.8-1.3C389,594.1,389,592.4,388.1,593.8z"/>
<path class="st14" d="M399.3,597.3c0,0,2.6,0.6,2.3,1.5c0,0-1.6-0.1-2.6,0.1C399,598.9,396.5,597.4,399.3,597.3z"/>
<path class="st14" d="M395.3,585.5c0,0-2.3,1.5-1.7,2.2c0,0,1.5-0.6,2.6-0.8C396.2,587,398.1,584.7,395.3,585.5z"/>
<path class="st14" d="M414.6,578.4c0,0-1.3,2.4-0.4,2.8c0,0,1-1.2,1.9-1.9C416,579.3,416.6,576.4,414.6,578.4z"/>
<path class="st14" d="M422.6,586.8c0,0-3,0.3-2.7,1.3c0,0,1.7,0.2,2.8,0.5C422.7,588.6,425.6,587.4,422.6,586.8z"/>
<path class="st14" d="M393,596.5c0,0-1.9,1.2-1.4,1.8c0,0,1.2-0.5,2-0.6C393.7,597.6,395.2,595.8,393,596.5z"/>
<path class="st14" d="M414.9,595.1c0,0,2.6,1.7,1.9,2.5c0,0-1.7-0.7-2.9-0.9C414,596.7,411.8,594.1,414.9,595.1z"/>
<path class="st14" d="M397.6,595.8c0,0-0.5,1.5,0.1,1.6c0,0,0.4-0.8,0.8-1.3C398.5,596.1,398.6,594.4,397.6,595.8z"/>
<path class="st14" d="M362,576.3c0,0,3.2,0.6,2.9,1.6c0,0-1.9,0-3.1,0.3C361.8,578.2,358.7,576.7,362,576.3z"/>
</svg>
