<?xml version="1.0" encoding="UTF-8"?>
<svg width="98px" height="97px" viewBox="0 0 98 97" version="1.1" xmlns="http://www.w3.org/2000/svg" xmlns:xlink="http://www.w3.org/1999/xlink">
    <!-- Generator: Sketch 43.2 (39069) - http://www.bohemiancoding.com/sketch -->
    <title>Group</title>
    <desc>Created with Sketch.</desc>
    <defs></defs>
    <g id="Page-1" stroke="none" stroke-width="1" fill="none" fill-rule="evenodd">
        <g id="bapfoodlogo" fill-rule="nonzero">
            <g id="Group">
                <path d="M96.9,56.5 C96.7,59.1 96.3,61.7 95.5,64.2 C94.7,66.7 93.5,69.1 92.1,71.3 C90.7,73.5 89.2,75.6 87.8,77.6 C87.1,78.5 86.4,79.3 85.6,79.9 C84.8,80.6 84,81.1 83.1,81.6 C81.4,82.6 79.6,83.4 78,84.2 C76.9,84.7 76,85.3 75.2,85.9 C73.9,86.8 72.6,88 71.3,89.2 C69.9,90.4 68.5,91.7 66.8,92.7 C65.7,93.4 64.5,94 63.1,94.5 C61.2,95.1 59.3,95.3 57.5,95.3 C55.9,95.3 54.3,95.2 52.7,95 C51.2,94.9 49.7,94.7 48.2,94.7 C46.6,94.7 44.7,95.1 42.7,95.5 C40.7,95.9 38.6,96.4 36.4,96.4 C35.3,96.4 34.1,96.3 32.9,95.9 C30.3,95 28,93.6 25.8,92.1 C23.7,90.6 21.7,88.9 19.9,87.6 C18.1,86.3 15.9,85 13.7,83.5 C11.5,82 9.4,80.3 7.8,78 C4.8,73.9 2.5,68.8 0.9,64 C0.4,62.4 0.2,60.8 0.2,59.2 C0.2,57.3 0.4,55.5 0.6,53.7 C0.8,51.9 1,50.2 1,48.7 C1,47.2 0.8,45.5 0.6,43.7 C0.4,41.9 0.2,40.1 0.2,38.2 C0.2,36.6 0.4,35 0.9,33.4 C1.7,30.8 3.1,28.5 4.5,26.3 C5.9,24.1 7.5,22.1 8.9,20.2 C9.6,19.3 10.3,18.5 11.1,17.9 C11.9,17.2 12.8,16.7 13.6,16.2 C15.3,15.2 17.1,14.5 18.6,13.7 C19.6,13.2 20.6,12.6 21.4,12 C23.3,10.6 25.1,9.2 27.1,7.9 C29.1,6.6 31.2,5.4 33.8,4.6 C35.9,3.9 38,3 40.4,2.1 C42.8,1.3 45.3,0.6 48.1,0.6 C50.8,0.6 53.4,1.1 55.8,1.7 C58.2,2.3 60.5,3.1 62.7,3.9 C64.2,4.4 66,4.8 67.9,5.2 C69.8,5.6 71.7,6 73.6,6.7 C74.9,7.2 76.1,7.8 77.3,8.6 C78.3,9.3 79,10.2 79.6,11.1 C80.2,12 80.7,13 81.1,14 C81.9,15.9 82.4,17.9 83.1,19.6 C83.5,20.7 84,21.7 84.5,22.4 C85.4,23.6 86.6,24.8 87.9,26.1 C89.2,27.4 90.6,28.7 91.7,30.3 C92.5,31.4 93.2,32.6 93.6,34 C94.3,36.2 95.1,38.5 95.8,41 C96.5,43.5 97,46.1 97,48.8 C97.1,51.2 97.1,53.9 96.9,56.5 Z" id="Shape" fill="#CFC6AB"></path>
                <path d="M36.4,92.5 C35.6,92.5 34.8,92.4 34.2,92.2 C32.4,91.6 30.6,90.6 28.3,89 C27.3,88.3 26.3,87.5 25.3,86.7 C24.4,86 23.4,85.2 22.4,84.5 C21.3,83.7 20.1,82.9 18.9,82.2 C18,81.6 17,81 16.1,80.4 C13.8,78.8 12.2,77.3 11.1,75.9 C8.7,72.6 6.4,67.9 4.8,63.1 C4.5,62.1 4.3,61 4.3,59.6 C4.3,58.1 4.5,56.5 4.7,54.6 L4.7,54.4 C4.9,52.7 5.1,50.9 5.1,49 C5.1,47.2 4.9,45.4 4.7,43.7 L4.7,43.6 C4.5,42 4.3,40.2 4.3,38.6 C4.3,37.2 4.5,36 4.8,35 C5.4,33.2 6.4,31.2 7.9,28.9 C8.8,27.5 9.9,26.1 10.9,24.7 C11.3,24.1 11.8,23.6 12.2,23 C12.7,22.3 13.4,21.6 14.3,21 C15.6,20.1 17.2,19.3 18.8,18.6 L18.9,18.5 C20.6,17.7 22.3,16.9 23.9,15.7 C24.5,15.3 25.1,14.8 25.6,14.4 C26.9,13.4 28.1,12.5 29.4,11.7 C31.5,10.4 33.2,9.5 35.1,8.9 C36.4,8.5 37.8,7.9 39,7.4 C40,7 40.9,6.7 41.8,6.3 C44.3,5.4 46.3,5 48.1,5 C50.1,5 52.2,5.3 54.7,6 C56.4,6.4 58.1,7 59.8,7.6 C60.3,7.8 60.8,7.9 61.3,8.1 C63,8.7 64.7,9 66.4,9.4 C67.2,9.6 68,9.7 68.7,9.9 C70,10.2 71.1,10.5 72,10.9 C73.1,11.3 73.9,11.8 74.7,12.3 C75.3,12.8 75.9,13.4 76.4,14.4 C77.1,15.6 77.6,17.3 78.2,19 L78.3,19.4 C78.7,20.5 79,21.4 79.4,22.3 C79.9,23.4 80.4,24.3 80.9,25.1 C81.7,26.3 82.7,27.3 83.4,28 C83.8,28.4 84.3,28.9 84.7,29.3 C85.6,30.2 86.4,31 87.1,31.8 C88.3,33.2 89,34.4 89.4,35.6 C89.6,36.2 89.8,36.9 90,37.5 C90.5,39.1 91.1,40.7 91.5,42.3 C92.2,44.9 92.5,47 92.5,49 C92.5,51.5 92.5,54 92.3,56.4 C92.1,59.1 91.7,61.3 91.1,63.1 C90.5,65 89.5,67.1 88.1,69.4 C86.8,71.5 85.3,73.6 84,75.4 C83.5,76.1 82.8,76.8 81.9,77.4 C80.7,78.3 79.2,79 77.4,79.9 L77.2,80 C75.6,80.8 73.9,81.6 72.3,82.8 C70.9,83.8 69.7,84.9 68.5,86 C67.9,86.5 67.3,87.1 66.7,87.5 C65.7,88.3 64.9,89 64.1,89.5 C63.2,90.1 62.3,90.5 61.4,90.8 C60.2,91.2 58.8,91.4 57.1,91.4 C55.7,91.4 54.2,91.3 52.7,91.1 L52.6,91.1 C51.1,91 49.5,90.8 47.8,90.8 C45.6,90.8 43.6,91.2 41.7,91.7 L41.5,91.8 C39.8,92.1 38,92.5 36.4,92.5 L36.4,92.5 Z" id="Shape" fill="#F8F7FA"></path>
                <circle id="Oval" fill="#CCC7A7" cx="49" cy="49.5" r="21.7"></circle>
                <circle id="Oval" fill="#ECBB23" cx="48.3" cy="48.8" r="20.9"></circle>
                <g transform="translate(30.000000, 31.000000)" fill="#F8F7FA">
                    <path d="M13.7,2.6 C14.3,2.5 14.6,2 14.5,1.4 C14.4,0.8 13.8,0.5 13.3,0.6 C7.4,2 2.8,6.6 1.3,12.4 C1.2,13 1.5,13.5 2,13.7 C2.6,13.8 3.1,13.5 3.3,13 C4.5,7.8 8.5,3.8 13.7,2.6 Z" id="Shape"></path>
                    <circle id="Oval" cx="1.8" cy="16" r="1"></circle>
                </g>
                <path d="M61.7,32.7 C64.7,36.3 66.6,41 66.6,46.1 C66.6,57.7 57.2,67 45.7,67 C40.6,67 35.9,65.2 32.3,62.1 C36.1,66.7 41.9,69.6 48.4,69.6 C60,69.6 69.3,60.2 69.3,48.7 C69.2,42.3 66.3,36.5 61.7,32.7 Z" id="Shape" fill="#E5AB45"></path>
            </g>
        </g>
    </g>
</svg>