<svg xmlns="http://www.w3.org/2000/svg" viewBox="0 0 303.36 283.46"><defs><style>.cls-1{fill:#c74f20;}.cls-2{fill:#ab9282;}.cls-3{fill:#bb4607;}.cls-4{fill:#3c110a;}.cls-5{fill:#cb8738;}.cls-6{fill:#a53b24;}.cls-7{fill:#ddb367;}.cls-8{fill:#db6a31;}.cls-9{fill:#a23324;}.cls-10{fill:#671e17;}.cls-11{fill:#8c3b23;}.cls-12{fill:#dadfe0;}.cls-13{fill:#80271f;}.cls-14{fill:#e9ebec;}.cls-15{fill:#e5d4bb;}.cls-16{fill:#fff;}.cls-17{fill:#eceded;}.cls-18{fill:#f4f5f6;}.cls-19{fill:#e9e9e9;}.cls-20{fill:#e1e1e2;}.cls-21{fill:#e9e6e1;}.cls-22{fill:#e2e2e2;}.cls-23{fill:#eceef0;}.cls-24{fill:#f4f6f9;}.cls-25{fill:#f3f5f7;}.cls-26{fill:#fefefe;}.cls-27{fill:#bdbab9;}.cls-28{fill:#d3dadf;}.cls-29{fill:#d0d7dd;}.cls-30{fill:#cbd2da;}.cls-31{fill:#d8dbd9;}.cls-32{fill:#a79588;}.cls-33{fill:#ced1d0;}.cls-34{fill:#d0d7d9;}.cls-35{fill:#dde1e4;}.cls-36{fill:#cdd0d3;}.cls-37{fill:#c4c5c9;}.cls-38{fill:#c8c7cb;}.cls-39{fill:#d5d8dd;}.cls-40{fill:#c6c8ca;}.cls-41{fill:#cacdd0;}.cls-42{fill:#d2d6db;}.cls-43{fill:#cdd0d5;}.cls-44{fill:#9a8c85;}.cls-45{fill:#a48a79;}</style></defs><title>자산 1</title><g id="레이어_2" data-name="레이어 2"><g id="레이어_1-2" data-name="레이어 1"><path class="cls-1" d="M211.93,26.92a1.64,1.64,0,0,1,1.13.23c-4.54,4.14-2,6.51,3.43,8.29-4.36-2.46,2.37-6.09-2-8.55l1.41-1.35C218,27,220.55,27,223,27.35c4,1.49,2.18,8,8.36,7.79,2.88-.09,5.33,1.08,8-1.8,3.48-3.8,9-2.88,13.53-1.65,10.32,2.8,18.76,8,23,17.59C270.46,47.22,265,45.47,259,45.35c0-.5-.05-1-.08-1.5-2.74-4.53-7.57-4.53-15.22,0l0,5.58c-6.77,2.76-5.3-2.38-6-5.3-.45-1.85.61-4.52-2.65-4.79-2-.17-7.66,8-6.41,9.54,4.58,5.47,2.92,10.07-1.68,14.52-2.73-.06-4.59,1.65-6.28,3.11-1,.87.8,1,1.54,1.23.47,3.8-2.3,4.88-5.89,6-.09-4.17.27-8.17-4.36-10.47-.06,5.71-5.37,3.07-8.16,4.47l-1.53-1.47L200.73,65l-4.49-.18c-.08-.47-.16-.94-.23-1.41,9.63.1,4.12-4.9,3.35-8.31l-1.53-1.5v0c.21-2.27-3.44-6.92,1.49-6.18s7.86-2.56,12-2.24c1.84,1.39-.18,3.71,2,5.43,2.94,2.31,5.39.85,7.49-.23s.42-3.62.83-5.47c-4.3,2.42-6-4.25-10.14-2.4-3.48-4.88-13.79-4.21-16.81,1.44-2.05,3.84-4.72,5.83-9.38,5.5l0-2.57.23-1.69a7.66,7.66,0,0,1,.39-1.14c6-1.08,7.34-3.45,4-7.37-1.45-1.69-2.94-3.77-5.79-3.95l0-9.8c4.37,2.15,7.37-.89,10.7-2.46a1.81,1.81,0,0,0,.54-3c-.55-.62-2.12-1.34-2.45-1.11-4.12,3-9.49-.65-13.56,2.22,1.34-6.27,7-8.3,12.52-10,4-1.21,10.67,7.45,10.76,13.45l1.58.73c2.48.16,4.08,1,3.56,3.63a9.69,9.69,0,0,0-2.19-.57c-1.42-.05-2.89-1.35-4.2-.08-.31.3-.13,1.5.27,1.86,1.31,1.15,2.77.67,4.16-.07.66-.34,1.35-.62,2-.93l1.5,0ZM201.52,51.68c3.46,6.83,11.28,6,16.59,9.08a1.54,1.54,0,0,0,2.51-1.38c0-1.83.39-4.1-2.48-4.26C212.61,54.81,208.16,50.79,201.52,51.68Z"/><path class="cls-2" d="M283.71,87.37c-5,8.93,1.65,15.43,4.91,23.08,6,14.15,6.85,28.67-3.86,41.9-2-4.3-3.38-8.9-7.54-12.06l.36-4.38c1.38-.59,1.44-1.48.71-2.56.07-1.46.14-2.93.22-4.39,1.11-2.67,2-6.4.44-8-4.58-4.56-3.28-8.84-1.65-13.8,1-3-2.65-6.2-.68-9.37,2.93-4.72-.94-4.47-4-4.92l-1-4.28h.5l.43-.21c3.58-.11,7.45,1.49,10.51-1.53Z"/><path class="cls-3" d="M198.59,196.06c-9.23,5.88-19.39,2-29.16,2.32.82-.42,2.15-.68,2.38-1.29.52-1.34-1-1-1.76-1.16-4.22-.64-7.13-2.16-5.64-6.76.93-.22,2-.86,2.78-.61,7.95,2.76,7.94,2.75,7.66-5a12.35,12.35,0,0,0-1.55-5.26c.6-1.2,1.18-3,3-2.06,3.41,1.82.52,4.93,1.44,8.38,2-2,4.13-2.62,6.3-1.11l0,0c.74,2.19-1.69,6.06,2.06,6.4,4.46.4-.17-3.75,2-5.26.78-.55.86-1.94,1.31-3.07,2.82,1.38,3.89,5.69,8,3.65,2.51-1.24.34-6.36,5.81-5.69,4.27.52,1-3.1,2.25-4.41l1.69,0c1.58,1.6,3.14,3.25,5.9,2.8,0,.47,0,.93,0,1.4s0,.81-.08,1.22L208.52,182c-.14-.62-.6-1.79-1-1.33-.56.75-.24,2.06-.3,3.13l-1.59,3.93-1.88,2.74C198.39,191.53,197.59,192.39,198.59,196.06Z"/><path class="cls-4" d="M164.41,189.17c-1.49,4.6,1.42,6.12,5.64,6.76.77.12,2.28-.18,1.76,1.16-.23.61-1.56.87-2.38,1.29l-19.4.15a2.37,2.37,0,0,0-3.8-.2l-4-.07c-3.75-1.47-7.7-.74-11.58-.83l-.17,0c2.13-2.32,7.7-.4,7.79-5.25l2.84-.52c2,3.77,5.39,3.64,8.83,2.26,1.42-.57,3.65-2,2.46-3.6-1.78-2.35-5-.85-7.61-1.22a4.71,4.71,0,0,0-.75,0c.08-2,.28-3.91,1.69-5.53,2.56-1.37.73-3.9,1.8-5.66.54-.48,1.27-1.48,1.58-1.38,6.23,2,14.6-1.12,18.12-6.93h4.28c.1.9.21,1.81.31,2.71l-1.43,1.31C165.48,177.84,163.36,183,164.41,189.17Z"/><path class="cls-5" d="M25.36,96.93l9-13.6C34.46,77.15,32.74,71,34,64.8l.08-.16a5.52,5.52,0,0,1,1.22.08c2.79.36,5.57,2,8.38.07,2.42,3-4,3.56-1.82,6.8,3.3-.24,6.87,1.41,10.62.17l.09,6.86L51,78.77l-3-.11c-3.86-2.33-6.17-1.67-6.26,2.83-.05,2.29.18,4.6.28,6.9a6.48,6.48,0,0,1-4.62,6.55c-5.42,1.65-4.91,5.16-4.71,8.87-3.69-1.73-3.83,2.75-6.37,3C22.45,103.85,26.58,100.16,25.36,96.93Z"/><path class="cls-4" d="M92.21,190.6l-.68.08-.61-.27a4.34,4.34,0,0,0-.3-1.28c4.68-4.86-3.52-6.29-3.19-10,.81-2.22,2.19-4.43,0-6.66.44-2.54,4.71-3.59,3.2-6.88l4.29,0c.15.83.3,1.67.46,2.5a2.93,2.93,0,0,0-.57.21c-.09.07-.09.25-.14.37l.67-.61,7.65-1.28,7.95,0c1.15,2.21-.89,4.86,1.12,7l1.69,4.12c-1.43.51-1.67,1.63-1.74,2.84L109,179.45c-4.15-2.26-8.7-3-12.12.41-3.2,3.17,1.65,4.41,3.12,6.44l-.33,2.77c-1.4.77-1.32,2.05-1.37,3.29L93.46,191A1,1,0,0,0,92.21,190.6Z"/><path class="cls-3" d="M37.12,166.71C34.5,164.48,31,163,29.5,159.8c1-5,1.18-10.45,7.79-12.56,3.62-3.72,8.19-5,13.49-4.24,2.48.54,7.75-1.75,5,4.1C56,150,54.11,152,52.29,154c-1.74.49-5.81.35-4.86,1.46,3.63,4.25-3.27,4.24-2.64,6.88-1.29-.06-2.91-.13-2.47-1.76.56-2,1.87-4-.67-5.59-.49-.31-1.81-.37-2-.12-1.3,2-2.52,4-.55,6.31.41.49-.21,1.7-.36,2.58Z"/><path class="cls-6" d="M272.55,88.38l-.43.21h-.5c-2.53,1.26-5.65-.61-8.08,1.24L262,86.92l4.86-8.13c7.15.91,11.87-3.13,16.72-6.88a4.51,4.51,0,0,0,.26-1.21,3.16,3.16,0,0,1,.8-.16l.62.08.58-.2c3.19,5.3,6.53,10.6-.37,15.69l-1.86-.5c-3.15-2,1.6-5.66-3.93-9.4C283.32,85,272.86,83,272.55,88.38Z"/><path class="cls-7" d="M120,17.47l1.07,1c-.44,2.67,1.38,4.23,3.33,5.74-3.54-.24-6,2.35-9.21,2.94-2-2.83-3.22-6.38-7.71-6.87-3.58.38-5.56-2.8-8.77-3.25-.89-3.49-3.87-2.47-6.38-2.47-.2-.19-.41-.39-.63-.58,7.6-.62,3.27-7.68,6.8-10.49-.45,3.35.79,8.82,2.67,8.61C108.65,11.33,114,15.06,120,17.47Z"/><path class="cls-3" d="M259,45.35c5.95.12,11.45,1.87,16.86,3.93L279,53.51l.09,5.91c-1.35.46-1.54,1.51-1.63,2.62L275.91,62c-4.16-1.66-10.06.75-12.69-4.51.52-1.48-.61-2.35-1.49-3.31C263.59,50.5,258.94,48.54,259,45.35Z"/><path class="cls-4" d="M257.45,175.24c-4.94,4-11.11,5.93-17.08,8.19-.49-3.32-2.63-4.51-6.17-4.19-2.35.2-5.76-.36-5.25-2.54.69-2.91-4.5-6.53,1.16-8.68l2.73.36,2.89,1.41,2,1c6.25,8,6.25,8,12.48.78l2.32,0a3,3,0,0,0,3.47,2.12l0,0Z"/><path class="cls-1" d="M155,22.8l16.84,5.66c-.54.42-1,1.05-1.65,1.23-1.94.55-4.69-1.66-5.91,1-1.7,3.74,3.76.82,3.75,3.06a14.86,14.86,0,0,1-.74,3.19l-1.77,6.73-4.35.09-.24-2.51c1.92-1.16,1.67-2.22-.18-3.21.06-.64.13-1.28.19-1.93-2-5.09-4.12-3.48-6.22,0l-4.09,0-.12-7.68C154.83,28.43,154.92,25.62,155,22.8Z"/><path class="cls-8" d="M167.28,36.93a14.86,14.86,0,0,0,.74-3.19c0-2.24-5.45.68-3.75-3.06,1.22-2.65,4-.44,5.91-1,.63-.18,1.11-.81,1.65-1.23a2.29,2.29,0,0,1,1.37,0l1.56.16c.3,1,.32,2.18,2,2a.64.64,0,0,0,.47-.43c.15-1.53-1.21-1.49-2.26-1.77l0-2.54c.57-1.31,3.62-.53,2.93-2.9,2.09,1.71,4.05-5.72,6.2-.07,0,3.27,0,6.53,0,9.8h0l-1.52,1.38c.08,3.88-7.79,1.95-6.13,7a5.88,5.88,0,0,1-1.51.05C172.66,39.26,171.11,36.37,167.28,36.93Z"/><path class="cls-7" d="M53.59,32.93a72.36,72.36,0,0,0,24.69.9c.59,1.48,1.19,3,1.78,4.46-.07.38-.14.77-.2,1.16-1.69,0-3.51.65-4.86-.89-.1-1.21.42-3.24-2.11-1.91-2.32,1.22-4.39,2.84-6.57,4.28l-2.82.59c-4.86-1.05-4.77,5.2-9,5.09-.06-3-5.18-2.36-5-5.61l.36-1.68C56.31,39.68,53.33,35.53,53.59,32.93Z"/><path class="cls-9" d="M120,17.47c-6-2.41-11.34-6.14-18.83-5.33-1.88.21-3.12-5.26-2.67-8.61l2.89-.23c.82,1.36,1.56,2.76,2.48,4.07,2.27,3.23,5.8,3.26,9.35,2.74,1.92-.28,4.37-.7,4.7-2.79.55-3.47-4.57-2.22-5.35-4.81a2.83,2.83,0,0,0-.36-.59c.25-.79-.78-2.7,1.65-1.57,8.92.6,11.51,4.41,7.52,11.2A8.15,8.15,0,0,0,120,17.47Z"/><path class="cls-8" d="M115.18,27.19c3.22-.59,5.67-3.18,9.21-2.94l4.92,2.87c7.64,2.42,1.32-4.65,4.36-5.35l4.21.5.27,4.84c-.47,4.05,7.1,4.93,4.61,9.77-1.36.71-1.55,1.93-1.64,3.18-1.73-1.32-2.21-4.24-5.49-3.57,1-2.46,1.56-4.83-1.86-6.18,0,4.25-7.73-2.41-6.36,3.76h0c-1.28.6-1.42,1.69-1.46,2.82l-1.58,0c-.08-1.59,0-4.5-1.41-4.21C117.48,33.79,117.46,29.31,115.18,27.19Z"/><path class="cls-10" d="M230.11,168c-5.66,2.15-.47,5.77-1.16,8.68-.51,2.18,2.9,2.74,5.25,2.54,3.54-.32,5.68.87,6.17,4.19a20.61,20.61,0,0,1-8.9,3c-.71-5-6.63-7.87-7.11-12.37-.57-5.27-3.13-7.62-8.05-8.92-2.79-3.28-1.28-7.18-1.87-10.77,1.71,1.19,4.05,2.34,3.85,4.41-.14,1.42-2,2.79.78,3.51,2.32.59,2.84-1,3.56-2.53s2.34-1.42,3.83-1.48l.45,2.86c-1.62,1.14-3.1,2.71-2.29,4.46.92,2,3.44.87,5.25,1.16C230,167.18,230,167.6,230.11,168Z"/><path class="cls-2" d="M19.16,147.32c-4.85-4.23-6.06-9.74-6.59-15.5.82-1.39,1.64-2.77,2.45-4.16,1.4,2.58.77,7.1,6.43,5.61q2.19,1.41,4.37,2.83c-.76,3.3.28,6.42,1.14,9.56C25.23,149.62,22,147.58,19.16,147.32Z"/><path class="cls-11" d="M66.45,182.09l-6-1.63c-.21-2.23-1.48-4.89,2.64-5.34,4.72-.1,6.9-4.24,10.79-5.64l5.89-.23c.1,1,.21,1.95.31,2.92,1,2.43-.2,4-1.81,6C75.1,182.23,69.78,179.4,66.45,182.09Z"/><path class="cls-5" d="M216.31,165.14c4.92,1.3,7.48,3.65,8.05,8.92.48,4.5,6.4,7.37,7.11,12.37-.8,1.47-2.13,1.71-3.73,1.33-3.21-.89-8,.94-8.68-4.27,4.39-5.06,4.41-6.14.18-7-5.67-2-2-6.48-3.09-9.7C216.2,166.26,216.26,165.7,216.31,165.14Z"/><path class="cls-12" d="M15,127.66c-.81,1.39-1.63,2.77-2.45,4.16-3.45-11.27-.62-21.18,7.73-29.9,1.64-1.7,3.37-3.32,5.06-5,1.22,3.23-2.91,6.92,1,9.92a4.2,4.2,0,0,0,.08,1.17c-2.83,1.13-6.39,1.63-5.86,5.66a1,1,0,0,0-.45,1c-5.87.17-3.78,4.45-4.5,7.28C10.84,123.44,13.88,125.63,15,127.66Z"/><path class="cls-1" d="M87.59,23.52l-.4-.28.18-.42,5,.11c2.61.33,5.23.61,7.84,1,2.19.33,4,.24,3.83-2.42l3.51.06c2.28,6-.75,10.16-5.86,13.53C98,32.54,94,30.89,89.27,31.31a2.6,2.6,0,0,1-1.46-2.9c2.49-.57,6.15,1.67,7.44-2.64h-7.5C87.69,25,87.64,24.27,87.59,23.52Z"/><path class="cls-13" d="M66.45,182.09c3.33-2.69,8.65.14,11.82-3.88,1.61-2.05,2.79-3.61,1.81-6L83,172l3.07-.07c.46.19.92.36,1.4.52,2.14,2.23.76,4.44,0,6.66-4,1.56-5,4.25-3.63,7.89l-.2.21C76.92,188.2,72.16,183.83,66.45,182.09Z"/><path class="cls-10" d="M112.06,180.74c.07-1.21.31-2.33,1.74-2.84h.67l.66,0c-.22,4.14,2.94,4.17,6.1,4.19l3.19,3c0,.85-.09,1.7-.13,2.55-5.54,5.08,4,5.75,3.29,9.43l-2.39,0s-.42-.43-.42-.43l-.57.28c-5.06-.45-10.15-.74-15-2.36,1.55-1.71,3.86-1,5.8-1.53C116.89,188.36,113.67,184.71,112.06,180.74Z"/><path class="cls-5" d="M277.22,140.29c4.16,3.16,5.58,7.76,7.54,12.06a5,5,0,0,1-2.57,3.46l-7.56-1.46c-4.37-2.95,1.81-8.57-3.43-11.3l0-2.71v-.54l.71.11.66-.26Z"/><path class="cls-11" d="M19.16,147.32c2.81.26,6.07,2.3,7.8-1.66,3.26,1.49,8-5,10.33,1.58-6.61,2.11-6.76,7.57-7.79,12.56A40.5,40.5,0,0,1,19.16,147.32Z"/><path class="cls-7" d="M63.09,175.12c-4.12.45-2.85,3.11-2.64,5.34-8.52-3.53-17.74-6.07-23.33-13.75l1.65-2.91,3.11,2.91C47.2,173.2,55.11,174.23,63.09,175.12Z"/><path class="cls-7" d="M138.15,27.11l-.27-4.84c5.74-.91,11.49-1.86,17.11.53-.07,2.82-.16,5.63-4.49,5.63C146.63,26.09,142.09,28.93,138.15,27.11Z"/><path class="cls-11" d="M219.06,183.49c.66,5.21,5.47,3.38,8.68,4.27-3.34,2.54-7.33,3.38-11.54,3.61-2.12-4.57-6.56-3.55-10.53-3.65l1.59-3.94c.47-.09.94-.17,1.42-.22C212.16,185.87,215.58,181.23,219.06,183.49Z"/><path class="cls-3" d="M49.54,41c-.22,3.25,4.9,2.57,5,5.61-2.43.81-4.81,2.07-7.3,2.3s-5.44,3.65-7.27-.75l.15-5.79a.84.84,0,0,0,.26-1.07c.32-.57.63-1.14.95-1.7l.6,0C44.22,41.1,46.84,41.24,49.54,41Z"/><path class="cls-5" d="M274.83,163.06a10.67,10.67,0,0,1-4.78,4.21,5.19,5.19,0,0,0-5-3.32l0,0c3.07-4.28-5.12-5.75-2.94-9.81,3.58-1.89,6.3.43,9.26,1.59C270.84,158.86,272.52,161.08,274.83,163.06Z"/><path class="cls-9" d="M87.59,23.52c0,.75.1,1.5.16,2.25l.06,2.64a2.6,2.6,0,0,0,1.45,2.9c1,1.86,2,3.72,3,5.59-2.4,1.18-6.56-5.77-7.65,1.39l0,0-4.58,0c-.59-1.49-1.19-3-1.78-4.46l2-1,1.42-1.17Z"/><path class="cls-9" d="M184.05,22.91c-2.15-5.65-4.11,1.78-6.2.07-1.19-1.1-.07-1.93.38-2.84l1.07-1.55h0c4.07-2.87,9.44.77,13.56-2.22.33-.23,1.9.49,2.45,1.11a1.81,1.81,0,0,1-.54,3C191.42,22,188.42,25.06,184.05,22.91Z"/><path class="cls-8" d="M267.67,169.4,263.48,172c-2-2-4.76-.62-7-1.49-.82-1.7,0-4-2.09-5.23l-3.11-2.8c4.91-1.89,8.89,3.41,13.8,1.48l0,0C265.5,165.94,263.77,168.79,267.67,169.4Z"/><path class="cls-6" d="M127.58,197.09c.75-3.68-8.83-4.35-3.29-9.43l1.53-1,1.68-.43c1.31.67,1.48,1.85,1.64,3,.78,7,5.84,2.64,9.17,2.87-.09,4.85-5.66,2.93-7.79,5.25Z"/><path class="cls-13" d="M274.83,163.06c-2.31-2-4-4.2-3.43-7.3.47,0,1,0,1.42-.08l1.54-1.3.27,0,7.56,1.46A21.91,21.91,0,0,1,274.83,163.06Z"/><path class="cls-14" d="M34,64.8c-1.27,6.2.45,12.35.36,18.53C28.13,75.16,28.05,71.39,34,64.8Z"/><path class="cls-10" d="M205.67,187.72c4,.1,8.41-.92,10.53,3.65-3.91,1.49-7.88,2.67-12.21,2.11-.07-1-.13-2-.2-3Z"/><path class="cls-3" d="M115,193c-1.93.5-4.24-.18-5.79,1.53a3,3,0,0,1-3.13-.64l-1.66-3.36-.54-4.55c.5-1.76.67-3.81,3.63-3.33C104.82,189.26,113.23,189.14,115,193Z"/><path class="cls-14" d="M40.08,42.37l-.15,5.78c-2.25,2.37-1.37,5.31-1.75,8a2.44,2.44,0,0,0-.71,3.08l-2.16,5.47a5.52,5.52,0,0,0-1.22-.08c1.11-6.74,2.19-13.48,3.32-20.21C37.64,43.11,38.8,42.64,40.08,42.37Z"/><path class="cls-3" d="M129.31,27.12l-4.92-2.87c-2-1.51-3.77-3.07-3.33-5.74l6.2,2.42C129.88,22.46,130.7,24.48,129.31,27.12Z"/><path class="cls-15" d="M53.59,32.93c-.26,2.6,2.72,6.75-3.7,6.39-.66-1.38-1.32-2.75-2-4.13C48.44,31.58,51.17,32.59,53.59,32.93Z"/><path class="cls-11" d="M203.79,190.46c.07,1,.13,2,.2,3-1,2.27-3.71,1.53-5.4,2.58C197.59,192.39,198.39,191.53,203.79,190.46Z"/><path class="cls-7" d="M214.47,26.89c4.39,2.46-2.34,6.09,2,8.55-5.45-1.78-8-4.15-3.43-8.29A5.24,5.24,0,0,1,214.47,26.89Z"/><path class="cls-1" d="M47.9,35.19c.67,1.38,1.33,2.75,2,4.13-.11.56-.23,1.12-.35,1.68-2.7.24-5.32.1-7.65-1.36a2,2,0,0,1-.1-1.36l1.37-1.45Z"/><path class="cls-7" d="M129.31,27.12c1.39-2.64.57-4.66-2-6.19l6.41.84C130.63,22.47,137,29.54,129.31,27.12Z"/><path class="cls-10" d="M104.42,190.56l1.66,3.36c-2.57-.64-5.47.07-7.8-1.56,0-1.24,0-2.52,1.37-3.29Z"/><path class="cls-7" d="M92.36,22.93l-5-.11a13.22,13.22,0,0,1,3-7.18l.57.46a6.44,6.44,0,0,0,0,1.24C91.66,19.15,92.78,20.87,92.36,22.93Z"/><path class="cls-7" d="M223,27.35c-2.47-.31-5-.39-7.14-1.81C219.83,21,221.2,24.9,223,27.35Z"/><path class="cls-3" d="M267.67,169.4c-3.9-.61-2.17-3.46-2.61-5.45a5.19,5.19,0,0,1,5,3.32,1.21,1.21,0,0,1-1,.89,1.21,1.21,0,0,0-1,.87Z"/><path class="cls-13" d="M256.48,170.52c2.24.88,5-.47,7,1.5l-3.73,1.87-3.77-.21,0,0L255.9,171Z"/><path class="cls-6" d="M130.69,197.43c3.88.09,7.83-.64,11.58.83A35.76,35.76,0,0,1,130.69,197.43Z"/><path class="cls-7" d="M207.77,26.64c-.68.31-1.37.59-2,.93-1.39.74-2.85,1.22-4.16.07-.4-.36-.58-1.56-.27-1.86,1.31-1.27,2.78,0,4.2.08a9.69,9.69,0,0,1,2.19.57S207.77,26.64,207.77,26.64Z"/><path class="cls-13" d="M90.62,189.13a4.34,4.34,0,0,1,.3,1.28c-2.78-.41-5.72-.49-7.32-3.16l.19-.21Z"/><path class="cls-6" d="M146.23,198.33a2.37,2.37,0,0,1,3.8.2Z"/><path class="cls-1" d="M174.76,28.6l-1.56-.16c.57-.85,1.15-1.7,1.72-2.56l0,2.54Z"/><path class="cls-11" d="M256,173.68l3.77.21-2.3,1.35Z"/><path class="cls-7" d="M81.71,31.66l-1.42,1.17Z"/><path class="cls-6" d="M124.2,196.92l.57-.28s.43.43.42.43l-.56.22Z"/><path class="cls-11" d="M92.21,190.6a1,1,0,0,1,1.25.41Z"/><path class="cls-14" d="M43.16,36.83l-1.37,1.45Z"/><path class="cls-1" d="M179.3,18.59l-1.07,1.55Z"/><path class="cls-14" d="M41.29,39.6c-.32.56-.63,1.13-.95,1.7C40.66,40.73,41,40.16,41.29,39.6Z"/><path class="cls-7" d="M204.14,22.8l-1.58-.73Z"/><path class="cls-8" d="M268,169a1.21,1.21,0,0,1,1-.87Z"/><path class="cls-7" d="M211.93,26.92l-2.66-.32A1.81,1.81,0,0,1,211.93,26.92Z"/><path class="cls-7" d="M90.4,15.64,91.69,14c.22.19.43.39.63.58L91,16.1Z"/><path class="cls-3" d="M226.91,63.38c4.6-4.44,6.26-9,1.68-14.51-1.25-1.51,4.37-9.71,6.41-9.54,3.26.27,2.2,2.94,2.65,4.79.72,2.92-.75,8.06,6,5.31l1.55,0,0,0c3.29,4.76,9.54,3.26,14,5.51l1.48,1.5c-6.19.89-6.55,7.18-10.89,9.77.5-1.35,1-2.69,1.52-4,.06-2.76-1.58-3.21-3.89-2.16-2.85,1.28-4.35,3.14-2,6,0,1.31-.75,3,1,3.64s2-1.68,3.45-2.06l0,3.76,1.55,1.83v0c0,1.45.05,2.9.08,4.35.25,4.27.37,8.43,3.76,12.08.85.92,4.61,4.44-.72,5.77-3.22.5-5.12-7.67-9.24-1.16-2.71-.13-5.64.89-7.95-1.31.58-3-.46-6.41,2.95-8.78,1.57-1.1,5.38-.68,4.41-3.61s-4.26-1.39-6.55-1.67c-1.72-.21-3.49-.13-5.23-.17l1.54-1.43,1.71,0c2.08-.15,5.89.91,5.5-1.65-.51-3.41,1.85-7.82-3.08-10.35-3.73-1.92-7.65-1.92-11.66-1.79Z"/><path class="cls-13" d="M174.88,41.13a5.88,5.88,0,0,0,1.51-.05c3.49.1,6.77.77,9.49,3a7.66,7.66,0,0,0-.39,1.14c-1,.47-1.05,1-.23,1.69,0,.86,0,1.71,0,2.57-1.61,1-1.05,2.55-1.19,3.93-.1,2,.25,4.23-3,4.54-2-6.51-6.29-.79-9.38-1.49l.05,0c-1.13-1.54-2.85-1.39-4.55-1.32l-4.74,1.48c-.07-.56-.13-1.12-.2-1.68.16-2.52,1.2-5.18-1.41-7.26.08-1.3.15-2.61.23-3.92l4.35-.09C168.71,43.08,172.05,42.88,174.88,41.13ZM170.36,51c2.84-.34,5.72,1.24,8.59-1.07,2.41-1.94,1.53-3-.08-4.41-3.6-3.09-4.89,5-8.86,1.68-.13-.12.51,2.36.16,3.62-.19.24-.39.47-.58.7Z"/><path class="cls-9" d="M184.11,53.35c.14-1.37-.42-2.92,1.19-3.92,4.66.33,7.33-1.66,9.38-5.5,3-5.65,13.33-6.32,16.81-1.44-.06.89-.11,1.78-.17,2.67-4.14-.32-7.06,3-12,2.24s-1.28,3.91-1.49,6.18c-3.35,5-8.11.49-12.06,1.49Z"/><path class="cls-8" d="M203.76,67.72c2.79-1.4,8.1,1.24,8.16-4.47,4.63,2.3,4.27,6.3,4.36,10.47,3.59-1.11,6.36-2.19,5.89-6a11.26,11.26,0,0,1,2.09.77c1.71,1,5.26-.41,5.22,2.74,0,2.52-3.17,1.63-4.7,2.63-3.66,2.37-8.94,3.42-8.65,9a7.23,7.23,0,0,1-1.14,0c-.19-.41-.37-.82-.53-1.24,0-3.78-2.57-4.4-5.93-4.07l-.1-.57c-.12-1.52.82-3.77-1-4.31-2.67-.79-1.61,2.95-3.69,3.38C200.57,73.25,203.76,70.49,203.76,67.72Z"/><path class="cls-3" d="M203.76,67.72c0,2.77-3.19,5.53,0,8.31,1.3,1.44,2.92,1.5,4.69.93l.1.57c0,1.3,0,2.6-.05,3.9.55.94,1.11,1.87,1.67,2.81-1.55.52-4.18,2.19-4.56.47-1.28-5.69-7.27-4.78-10.73-7.26.29-3.15-1-4.84-4.71-4.22l-.05,0c.75-1.63,4.32-1,3.83-2.67-.8-2.81-4.15-2.9-6.86-3.39l1.32-1c1.24,0,2.43-.08,3.17-1.19,1.57.19,3.19,2.11,4.68-.13l4.49.18,1.5,1.23Z"/><path class="cls-9" d="M216.13,82.84c-.29-5.55,5-6.6,8.65-9,1.53-1,4.67-.11,4.7-2.63,0-3.15-3.51-1.72-5.22-2.74a11.26,11.26,0,0,0-2.09-.77c-.74-.25-2.55-.36-1.54-1.23,1.69-1.46,3.55-3.17,6.28-3.11h0c4.06,2.85,4.72,7.63,7.6,11.16-2.75,1.1-5.24,2.36-4.54,5.73a9.36,9.36,0,0,1-.3,1.27C225.35,83.71,221,85.4,216.13,82.84Z"/><path class="cls-8" d="M259.21,55c-4.48-2.25-10.73-.75-14-5.51.12-.19.25-.37.37-.55-.11.19-.22.39-.34.58l-1.55,0c0-1.87,0-3.73,0-5.59h15.22c0,.5.05,1,.08,1.5-.07,3.19,4.58,5.15,2.72,8.8C260.73,54,259.6,53.51,259.21,55Z"/><path class="cls-9" d="M185.88,44c-2.72-2.18-6-2.85-9.49-3-1.66-5,6.21-3.1,6.13-7L184,32.72h0c2.85.18,4.34,2.26,5.79,3.95C193.22,40.58,191.83,43,185.88,44Z"/><path class="cls-9" d="M201.52,51.68c6.64-.89,11.09,3.13,16.62,3.44,2.87.16,2.53,2.43,2.48,4.26a1.54,1.54,0,0,1-2.51,1.38C212.8,57.73,205,58.51,201.52,51.68Z"/><path class="cls-5" d="M185.77,55.07c3.95-1,8.71,3.53,12.06-1.49v0l1.53,1.5c.77,3.41,6.28,8.41-3.35,8.31Z"/><path class="cls-6" d="M185.77,55.07,196,63.43c.07.47.15.94.23,1.41-1.49,2.24-3.11.32-4.68.13l-4.32-2.74a11,11,0,0,0-6-1.74c0-.86-.07-1.73-.1-2.59,3.2-.31,2.85-2.55,3-4.54Z"/><path class="cls-7" d="M211.32,45.16c.06-.89.11-1.78.17-2.67,4.13-1.85,5.84,4.82,10.14,2.4-.41,1.85,1.28,4.39-.83,5.47s-4.55,2.54-7.49.23C211.14,48.87,213.16,46.55,211.32,45.16Z"/><path class="cls-9" d="M258.93,43.85H243.71C251.36,39.32,256.19,39.32,258.93,43.85Z"/><path class="cls-9" d="M199.36,55.12l-1.53-1.5Z"/><path class="cls-9" d="M185.26,46.86c-.82-.66-.72-1.22.23-1.69C185.41,45.73,185.34,46.3,185.26,46.86Z"/><path class="cls-5" d="M202.23,66.25,200.73,65Z"/><path class="cls-4" d="M277.22,140.29l-4.61-.63-1.37.14v.54c-3.06-2.53-6.06-5.13-10.22-6.14-2.18-1.74-3.4-4.43-6.43-5.31.51-2.21,3.46-1.93,4.47-3.63,9.21-3.08-2.64-9,2.05-12.73,1.8-1.45.24-2.87-.38-4.29-3.11-7.18-8.78-4.19-14-3-3.36.35-5-.9-4.54-4.09,2.66.08,4.16-1.71,5.95-3.05l6.35-1.36c5.54.43,7.22-3.34,9.06-6.94,2.43-1.85,5.55,0,8.08-1.24l1,4.28a3,3,0,0,0-1.35,3.7c3.44,7.75-.09,15-1.6,22.4a12,12,0,0,0-.05,2.08c-.19,5.59,1.89,9.06,8.9,7.91-.08,1.46-.15,2.93-.21,4.39-1,0-1.93.26-1.92,1.29,0,.43.78.85,1.2,1.27Z"/><path class="cls-11" d="M278.51,129c-7,1.15-9.09-2.32-8.9-7.91a12,12,0,0,1,.05-2.08c1.51-7.4,5-14.65,1.6-22.4a3,3,0,0,1,1.35-3.7c3.07.45,6.94.2,4,4.92-2,3.17,1.65,6.4.68,9.37-1.63,5-2.93,9.24,1.65,13.8C280.55,122.56,279.62,126.29,278.51,129Z"/><path class="cls-10" d="M283.59,85.61a5.21,5.21,0,0,0-.53,1.24c-3.06,3-6.93,1.42-10.51,1.53.31-5.43,10.77-3.4,7.11-12.17C285.19,80,280.44,83.64,283.59,85.61Z"/><path class="cls-9" d="M216.31,165.14c-.05.56-.11,1.12-.16,1.68-8.88.11-10.72,1.81-9,8.33l-1.69,0c-2.06-.42-.68-4-3.75-3.47-7.88,1.29-10.36-3.22-11.64-9l1.52-1.51L203.38,165c-1-6.84-4.91-9.31-11.7-8-1.94-.8-3.05-2.11-3.06-4.1,2.77-3.34,3.12-6.32-1.5-8.58.36-2.7,2.45-5.21,1.11-8.11,5.05,1.31,6.34-3.65,9.85-4.92l2.82,3.22c0,5,3.25,8.88,5.68,13a27.68,27.68,0,0,1,7.86,6.83C215,158,213.52,161.86,216.31,165.14Z"/><path class="cls-1" d="M190.08,162.63c1.28,5.81,3.76,10.32,11.64,9,3.07-.5,1.69,3.05,3.75,3.47-1.22,1.31,2,4.93-2.25,4.41-5.47-.67-3.3,4.45-5.81,5.69-4.13,2-5.2-2.27-8-3.65-.45,1.13-.53,2.52-1.31,3.07-2.14,1.51,2.49,5.66-2,5.26-3.75-.34-1.32-4.21-2.06-6.4a1.89,1.89,0,0,0,.52-.22c.09-.07.07-.25.1-.38l-.64.58c-2.17-1.51-4.3-.94-6.3,1.11-.92-3.45,2-6.56-1.44-8.38-1.81-1-2.39.86-3,2.05-2.2-.92-1.15-3.5-2.87-4.67l1.43-1.31c3.18-2.52,2.56-4.9-.31-7.21l4.6-2.65C180.82,161.29,185.47,160.7,190.08,162.63Z"/><path class="cls-11" d="M170.43,173.6c1.72,1.17.67,3.75,2.87,4.67a12.44,12.44,0,0,1,1.55,5.27c.28,7.77.29,7.78-7.66,5-.74-.25-1.85.39-2.78.61C163.36,183,165.48,177.84,170.43,173.6Z"/><path class="cls-13" d="M207.16,175.15c-1.73-6.52.11-8.22,9-8.33,1.08,3.22-2.58,7.7,3.09,9.7-1.61,2.11-4.07,1.13-6.18,1.43C210.3,178.4,208.74,176.75,207.16,175.15Z"/><path class="cls-6" d="M213.06,178c2.11-.3,4.57.68,6.18-1.43,4.23.83,4.21,1.91-.18,7-3.48-2.26-6.9,2.38-10.38.07-.05-.52-.11-1.05-.16-1.57l4.45-1.42c1.23-.34,1.11-.76.08-1.22C213.05,178.88,213.05,178.42,213.06,178Z"/><path class="cls-13" d="M208.52,182c0,.52.11,1,.16,1.57-.48.05-1,.13-1.42.22.06-1.06-.26-2.37.3-3.12C207.92,180.2,208.38,181.37,208.52,182Z"/><path class="cls-13" d="M213.05,179.35c1,.46,1.15.88-.08,1.22C213,180.16,213,179.75,213.05,179.35Z"/><path class="cls-10" d="M167.27,169.59c-3.52,5.81-11.89,9-18.12,6.93-.31-.1-1,.9-1.58,1.38l-1.73-1.61c-2.66-2.86-5.54-5.69-1.62-9.49,3.32,2.53,7.09,1.15,10.71,1l.06,3.09a2.22,2.22,0,0,0-.53.19c-.09.06-.1.22-.14.34l.65-.54c3.82,1.14,7.6,2,10.72-1.39Z"/><path class="cls-9" d="M138.31,192.16c-3.33-.23-8.39,4.15-9.17-2.87,6.47,1.53,7.22,1.39,6.58-1.39-1-4.28,1.72-7,3.65-10.08a17,17,0,0,1,6.4,5.74c-1.41,1.62-1.61,3.56-1.69,5.53l-2.93,2.55Z"/><path class="cls-11" d="M167.27,169.59l-1.58-.05c.67-3.48-.77-5.84-4.45-7,1.24-1.63,5.82-.07,4.63-4l13.6-1.54c.34,2.56-3.18,3.16-3.32,5.48l-4.6,2.65c-3.23,1.5-.07,3,0,4.5Z"/><path class="cls-10" d="M141.15,191.64l2.93-2.55a4.71,4.71,0,0,1,.75,0c2.58.37,5.83-1.13,7.61,1.22,1.19,1.58-1,3-2.46,3.6C146.54,195.28,143.16,195.41,141.15,191.64Z"/><path class="cls-1" d="M145.77,183.56a17,17,0,0,0-6.4-5.74c.14-.8.28-1.59.41-2.38,2.19-.71,4.08.33,6.06.85l1.73,1.61C146.5,179.66,148.33,182.19,145.77,183.56Z"/><path class="cls-7" d="M171.55,169.58c-.07-1.5-3.23-3,0-4.5,2.87,2.31,3.49,4.69.31,7.21C171.76,171.39,171.65,170.48,171.55,169.58Z"/><path class="cls-1" d="M38.18,56.17c.38-2.71-.5-5.65,1.75-8,1.83,4.41,4.92,1,7.27.76s4.87-1.49,7.3-2.3c4.23.11,4.14-6.14,9-5.09-2.22,5.26-2.35,9.61,5.59,10.18,3.54.26,2.57,1.46,1.38,3.47-1.74,3-4,1.74-6.46,1.48S57.61,54,57.22,59.1C54.58,63,52.16,67,52.49,71.76c-3.75,1.24-7.32-.41-10.62-.17-2.16-3.24,4.24-3.77,1.82-6.8,0-1.89,0-3.78,0-5.67C44.24,54.41,39.9,57.33,38.18,56.17Z"/><path class="cls-13" d="M32.73,103.81c-.2-3.71-.71-7.22,4.71-8.87a6.48,6.48,0,0,0,4.62-6.55l2.83.07L46.31,90C45,92.84,45.45,95.37,48,97.49c-.35.37-.69.75-1,1.13-4.54,0-7.6,1.23-6.26,6.14.5,1.85-1.64,2.13-2.13,3.36l-3.34-.24C35.87,105.77,35.63,104.1,32.73,103.81Z"/><path class="cls-8" d="M52.49,71.76C52.16,67,54.58,63,57.22,59.1l1.38,1.31a4,4,0,0,0,3.17,3l-.05-.06c-.16.91.39,1.32,1.27,1.51.13.4.25.8.37,1.2-4,3.47-7.94,6.94-4.67,12.64l-6.11-.07Z"/><path class="cls-7" d="M32.73,103.81c2.9.29,3.14,2,2.55,4.07-2.12,1.64.4,5.92-4.2,6.14-1.34-2.13-.68-5.55-4.64-6a4.2,4.2,0,0,1-.08-1.17C28.9,106.56,29,102.08,32.73,103.81Z"/><path class="cls-3" d="M52.58,78.62l6.11.07,0,.27c.34,1.92-3.29,4.8,1.62,5.61l-2,5.64-3.8-2c-1.44-2.67,1.5-6.83-3.4-8.31,0-.36,0-.72-.07-1.08Z"/><path class="cls-13" d="M43.68,59.12c0,1.89,0,3.78,0,5.67-2.81,1.89-5.59.29-8.38-.07l2.16-5.47Z"/><path class="cls-11" d="M44.89,88.46l-2.83-.07c-.1-2.3-.33-4.61-.28-6.9.09-4.5,2.4-5.16,6.26-2.82l-.26.24C42.26,80.94,45.86,85.28,44.89,88.46Z"/><path class="cls-11" d="M51,78.77c0,.36,0,.72.07,1.08-.42,1.61.47,4.56-2.47,4.06-3.78-.65.11-3.37-.82-5l.26-.24Z"/><path class="cls-3" d="M79.77,169.25l-5.89.23c.26-3.61.39-7.16-4.62-8.34,2.58-3.22-.28-5.68-1.39-8.38.47-2.33-1.78-4.64-.06-7,6.16-1.45,8.45-5.59,9.09-10.88,2.83-3.65,4-3.27,7.87,2.66,1.13,3.75,3.27,7.81-4.3,8.7,5.94,4.94,11.32,2.53,16.65,1.11,10-1.6,5.12,6.33,7.44,9.65L103,158.36c-.45-1.83-1-3.59-3.17-1.11-1.68,1.94-1.6,4.32-1.51,6.65-.7,1.26-2.09,1.38-3.37,1.69l-4.29,0,.17-.38c2.32-5.4-1.37-7.76-5.71-10.26-7.14-4.13-4.35,5.52-8.72,5.06l5.11-.24c0,1.43-.06,2.85-.08,4.28C76.64,164.65,79.07,167.19,79.77,169.25Zm.8-18.49c-.09-.14-.15-.37-.29-.42a1.38,1.38,0,0,0-.59.06l.39.66Z"/><path class="cls-6" d="M145.84,176.29c-2-.52-3.87-1.56-6.06-.86l-.21-4.67c-.16-7.5-3.82-9.14-12.44-5.55-5,4.51-1.46,7.93,1.75,11.39l1.39,1.46,1.76,0a2.26,2.26,0,0,0,0,.86l-5.77,0c-2.93-7.08-7.32-1.53-11.12-1.07l-.66,0h-.67l-1.69-4.12c7-1.4,11.39-4.79,13.09-11.63.5-2,.21-3.93-.48-4.62-1.46-1.43-3.12.15-4.47,1.22-2.46,1.95-4.17,4.78-7.71,5.46-.36-2.76,1-4.72,3.43-6.18,2.64-1.59,4.25-3.66,3.88-6.7-.06-2.25-.13-4.5-.19-6.75l4.71,2.59a3.24,3.24,0,0,0,3,1.47c3.69,1.17,6.45,4.46,10.86,4a12,12,0,0,0,1.34.08c2.9,3.93-3.61,3.87-3.27,7.86,3.69-2.48,4.71,2,7.89,2v4.23C140.3,170.6,143.18,173.43,145.84,176.29Z"/><path class="cls-3" d="M112.54,164.21c3.54-.68,5.25-3.51,7.71-5.46,1.35-1.07,3-2.65,4.47-1.22.69.69,1,2.61.48,4.62-1.7,6.84-6.08,10.23-13.09,11.63-2-2.1,0-4.75-1.12-7C111.5,166,112,165.08,112.54,164.21Z"/><path class="cls-6" d="M95,165.59c1.28-.31,2.67-.43,3.37-1.69,3.68-.35,4.06-3,4.68-5.54l1.54-1.34c5.17,1,3.65-4.12,6.11-5.6.48,1.84,1,3.68,1.45,5.52-1.32,4.59-6.29,6.37-9.08,9.84l-7.65,1.28,0,0C95.27,167.26,95.12,166.42,95,165.59Z"/><path class="cls-10" d="M103,166.78c2.79-3.47,7.76-5.25,9.08-9.84,5.07-.76,2.39-3.37,1.58-5.53,0-.46,0-.92,0-1.39l6.11,1.31c.37,3-1.24,5.11-3.88,6.7-2.41,1.46-3.79,3.42-3.43,6.18-.52.87-1,1.74-1.55,2.61Z"/><path class="cls-10" d="M107.51,182.68c-3-.48-3.13,1.57-3.62,3.33l-3.91.29c-1.47-2-6.32-3.27-3.12-6.44,3.42-3.38,8-2.67,12.13-.42C107.71,180.23,107.67,181.48,107.51,182.68Z"/><path class="cls-6" d="M107.51,182.68c.16-1.2.2-2.45,1.48-3.24l3.07,1.3c1.61,4,4.83,7.62,3,12.29C113.23,189.14,104.82,189.26,107.51,182.68Z"/><path class="cls-11" d="M90.62,189.13,83.79,187c-1.4-3.64-.36-6.33,3.64-7.89C87.1,182.84,95.3,184.27,90.62,189.13Z"/><path class="cls-10" d="M87.48,172.49c-.48-.16-.94-.33-1.4-.52,0-1.21.08-2.42.11-3.64l3.17-2.94a12.34,12.34,0,0,0,1.49-.16l-.17.38C92.19,168.9,87.92,170,87.48,172.49Z"/><path class="cls-6" d="M100,186.3l3.91-.29c.17,1.52.35,3,.53,4.55l-4.77-1.49Z"/><path class="cls-10" d="M95.39,168.06l-.67.61c0-.12,0-.3.14-.37a2.93,2.93,0,0,1,.57-.21Z"/><path class="cls-9" d="M69.26,161.14c5,1.18,4.88,4.73,4.62,8.34-3.89,1.4-6.07,5.54-10.79,5.64-8-.89-15.89-1.92-21.21-8.41,3.44-1.87,6-.22,8.18,2,.66.66.16,2.47,2,1.62a3.23,3.23,0,0,0,1.65-2.13c1-7-5-5.15-9-5.78-.63-2.64,6.27-2.63,2.64-6.88-1-1.11,3.12-1,4.86-1.46q-.27,3.26-.54,6.47c4.39.55,5.83-3.36,9-4.48,1,2,1.78,3.66,2.58,5.32.46,1.21-1.2,3.62,1.61,3.41,1.82-.14,2.29-1.95,1.38-3.61l-.08.06Z"/><path class="cls-6" d="M37.29,147.24c-2.34-6.55-7.07-.09-10.33-1.58-.86-3.14-1.9-6.26-1.13-9.56,3.22.15,6.26-.1,8.25-2.88,3.77,4.06,7.45,1.8,11.13-.14,2.95.26,5.73.88,7.73,3.11-1.41,2.09-4.43,3.75-2.16,6.81C45.48,142.28,40.91,143.52,37.29,147.24Z"/><path class="cls-8" d="M63.34,161.35c-.8-1.66-1.61-3.31-2.58-5.32-3.18,1.12-4.62,5-9,4.48q.27-3.21.54-6.47c1.82-2,3.74-4,3.48-6.94,2.35.29,2.81-2,4.42-2.72a10.73,10.73,0,0,0,6.08,1.35l1.54.05c-1.72,2.34.53,4.65.06,7-2.25-.21-2.67.92-1.64,2.34a4.69,4.69,0,0,1,0,6.11l.08-.06Z"/><path class="cls-1" d="M44.79,162.38c4,.63,10-1.23,9,5.78a3.23,3.23,0,0,1-1.65,2.13c-1.88.85-1.38-1-2-1.62-2.15-2.18-4.74-3.83-8.18-2l-3.11-2.91c.15-.88.77-2.09.36-2.58-2-2.34-.75-4.34.55-6.31.16-.25,1.48-.19,2,.12,2.54,1.59,1.23,3.56.67,5.59C41.88,162.25,43.5,162.32,44.79,162.38Z"/><path class="cls-1" d="M60.19,144.38c-1.61.72-2.07,3-4.42,2.72,2.76-5.85-2.51-3.56-5-4.1-2.27-3.06.75-4.72,2.15-6.81,6.9-1.46,8-.68,7,4.75A13.48,13.48,0,0,0,60.19,144.38Z"/><path class="cls-3" d="M275.78,63.67l7.78,8.24c-4.85,3.75-9.57,7.79-16.72,6.88l-.54,0c-.44-2.79,6.15-6.43-1.23-8.38l.09-2.72.18-1.41h.6l.61,0Z"/><path class="cls-8" d="M265.16,67.67l-.09,2.72c-3,2.82-2.38,7.31,1.23,8.38l.54,0L262,86.92c-8.16-.23-3.54-6.16-5-9.36.89-1.66-.27-2.77-1.24-3.93,1-3.12,5.1-4.13,5.86-7.72.32-1.48,3.53-3.37,5,.32l-.61,0h-.61C264.07,66.6,264.05,67.08,265.16,67.67Z"/><path class="cls-11" d="M257,77.56c1.48,3.2-3.14,9.13,5,9.36l1.56,2.91c-1.84,3.6-3.52,7.37-9.06,6.94,0-.48,0-1,0-1.45,5.33-1.33,1.57-4.85.72-5.77-3.39-3.65-3.51-7.81-3.76-12.08Z"/><path class="cls-9" d="M101.68,35.11c5.11-3.37,8.14-7.49,5.86-13.53,0-.42,0-.84-.07-1.26,4.49.49,5.71,4,7.71,6.87,2.28,2.12,2.3,6.6,7.78,5.46,1.43-.29,1.33,2.62,1.41,4.21l-15.26.08C105.88,38.88,103.61,37.58,101.68,35.11Z"/><path class="cls-3" d="M107.47,20.32c0,.42.06.84.07,1.26L104,21.52c-3.23.22-5.24-1-5.81-4l.48-.43C101.91,17.52,103.89,20.7,107.47,20.32Z"/><path class="cls-3" d="M91,16.1l1.35-1.5c2.51,0,5.49-1,6.38,2.47l-.47.42-7.31-.15A6.44,6.44,0,0,1,91,16.1Z"/><path class="cls-1" d="M266.55,66.23c-1.44-3.69-4.65-1.8-5-.32-.76,3.59-4.87,4.6-5.85,7.71l-4.35-.5v0l-1.55-1.83,0-3.76c0-.45,0-.9,0-1.36,4.34-2.59,4.7-8.88,10.88-9.77l2.55,1c2.63,5.26,8.53,2.85,12.69,4.51,0,.56-.09,1.13-.13,1.7Z"/><path class="cls-15" d="M263.22,57.46l-2.55-1c-.48-.5-1-1-1.47-1.5.4-1.44,1.53-1,2.53-.8C262.61,55.11,263.74,56,263.22,57.46Z"/><path class="cls-13" d="M254.39,165.3c2.11,1.27,1.27,3.53,2.09,5.23l-.58.42-3.41.59-2.32,0-12.48-.78-2-1c-.35-1.51-1.6-1.49-2.89-1.41l-2.73-.36c-.09-.42-.16-.84-.24-1.26l-.06-2.68c3.19-.46,6,.66,8.84,1.73C242.26,169.94,251.41,169.65,254.39,165.3Z"/><path class="cls-11" d="M237.69,170.79l12.48.78C243.94,178.79,243.94,178.79,237.69,170.79Z"/><path class="cls-11" d="M252.49,171.54l3.41-.59.06,2.71A3,3,0,0,1,252.49,171.54Z"/><path class="cls-11" d="M232.84,168.38c1.29-.08,2.54-.1,2.89,1.41Z"/><path class="cls-11" d="M161.16,43.75c-.08,1.31-.15,2.62-.23,3.93-3.91-.39-7.79-.88-10.48-4,.06-1.8-.55-3-2.86-2.62A2.55,2.55,0,0,1,146,38.37a4.72,4.72,0,0,0,4.61-2.26l4.09,0c2.06,2.08,4.16-.94,6.22,0-.06.65-.13,1.29-.19,1.93-1.32,1.14-1.07,2.2.18,3.21Z"/><path class="cls-9" d="M150.62,36.11A4.72,4.72,0,0,1,146,38.37l-3.25-1.49c2.49-4.84-5.08-5.72-4.61-9.77,3.94,1.82,8.48-1,12.35,1.32Z"/><path class="cls-9" d="M174.88,41.13c-2.83,1.75-6.17,1.95-9.37,2.53l1.77-6.73C171.11,36.37,172.66,39.26,174.88,41.13Z"/><path class="cls-9" d="M160.93,36.1c-2.06-1-4.16,2-6.22,0C156.81,32.62,158.9,31,160.93,36.1Z"/><path class="cls-9" d="M160.92,41.24c-1.25-1-1.5-2.07-.18-3.21C162.59,39,162.84,40.08,160.92,41.24Z"/><path class="cls-1" d="M175,28.42c1.05.28,2.41.24,2.26,1.77a.64.64,0,0,1-.47.43c-1.66.16-1.68-1.05-2-2Z"/><path class="cls-1" d="M184,32.72l-1.52,1.38Z"/><path class="cls-9" d="M75,38.57c1.35,1.53,3.17.92,4.86.88.49,7.53,3.5,9.7,14,10,0,.47,0,.93,0,1.39-2.24,2-5.5,3.35-4.65,7-1.85,3.2,2.2,3.7,3.1,5.65-1.67,1.92-4.06,1.09-6.16,1.33l.41-1.42c.15-.14.44-.31.41-.4a3.8,3.8,0,0,0-.49-.81c-3.11-.93-7.18,2.36-9.55-1.81,3.59-3.72-2.34-6.23-1.46-9.6C78.28,46.64,72.64,42.72,75,38.57Z"/><path class="cls-3" d="M75.44,50.81c-.88,3.37,5,5.88,1.46,9.6l-5.78.28-1.72.07c-2.34-.16-4.73-.41-4.71,2.77-1-.17-1.87-1.56-3-.19l.05.06c1.45-3.21-1-3-3.17-3L57.22,59.1c.39-5.06,4.24-2.72,6.79-2.45s4.72,1.48,6.46-1.48c1.19-2,2.16-3.21-1.38-3.47-7.94-.57-7.81-4.92-5.59-10.18l2.82-.59C65.78,47,70.26,49.16,75.44,50.81Z"/><path class="cls-3" d="M93.81,49.46c-10.45-.31-13.46-2.48-14-10,.06-.39.13-.78.2-1.16l4.58,0c.25.75-.32,2,1.41,1.79a.74.74,0,0,0,.51-.46c.3-1.58-1.13-1.08-1.94-1.31,1.09-7.16,5.25-.21,7.65-1.39,0,2.4-.07,4.8,1.64,6.86C93.87,45.66,93.84,47.56,93.81,49.46Z"/><path class="cls-8" d="M75.44,50.81c-5.18-1.65-9.66-3.83-9.12-9.88,2.18-1.44,4.25-3.06,6.57-4.28,2.53-1.33,2,.7,2.11,1.91C72.64,42.72,78.28,46.64,75.44,50.81Z"/><path class="cls-1" d="M142.76,36.88,146,38.37a2.57,2.57,0,0,0,1.58,2.73,2.89,2.89,0,0,0,2.86,2.61c2.69,3.09,6.57,3.58,10.48,4,2.61,2.07,1.57,4.73,1.41,7.25l-2.77.07c-1.76-4.46-4.67-3.12-7.68-1.27l-7.5-.37c-.67-1.48-.15-3.86-3.69-2.12-5.38,2.65-8-1.13-10.44-4.73-.91-1.33.7-4.16-2.76-4l-.12-.21c4.06-.38,4.37-5.28,8.33-5.78a5.32,5.32,0,0,0,.89,5.76c1.29,1.62,2.6,3.94,5.19,2.42s-.42-3.07-.67-4.64C141.21,38.81,141.4,37.59,142.76,36.88Z"/><path class="cls-1" d="M109.11,36.94l15.26-.08,1.58,0c6.11.57-2.22,4.32,1.43,5.43l.12.21c0,2.31-1.46,2-3.09,1.37-1.11.43-1.07.89,0,1.39a9.86,9.86,0,0,1,0,1.33c-3.74.52-7.52.87-11.21,1.59-8.57,1.69-6.16,7.65-5.75,12.79l-2.82-1.75c-.7-2-3.37-3-3-5.4-3.4-3.93,3.54-3.92,3.07-6.73l2.23-1.81c.78-1.07,0-1.4-.94-1.68.33-.85.67-1.7,1-2.55L109,41a2,2,0,0,0,2.63.41c1.4-.66,2.07,2.5,3.46.49.32-.46.1-1.37-.14-2-.79-2-2.29-1-3.65-.64-.71.19-1.46.25-2.2.37C109.11,38.77,109.11,37.85,109.11,36.94Z"/><path class="cls-7" d="M127.38,42.31c-3.65-1.11,4.68-4.86-1.43-5.43,0-1.13.18-2.22,1.46-2.82a2.52,2.52,0,0,0,3,1.11c.18-.05.27-.34.41-.52l-3.39-.58c-1.37-6.17,6.37.49,6.36-3.76,3.42,1.35,2.81,3.72,1.86,6.18l.08,0C131.75,37,131.44,41.93,127.38,42.31Z"/><path class="cls-15" d="M135.71,36.53l-.08,0c3.28-.67,3.76,2.25,5.49,3.57.25,1.58,3.26,3.14.67,4.65s-3.9-.8-5.19-2.42A5.32,5.32,0,0,1,135.71,36.53Z"/><path class="cls-4" d="M214.44,154.37a27.77,27.77,0,0,0-7.85-6.83c2.2-7,6.51-8.81,17.38-7.29,4.17.93,7.88,1,8.73-4.05,2-2.1,3.26-4.35,1.58-7.14,3-.86.66-3.47,2.18-5.43l2.77,4.09c3.19,2.89,4.42,6.05,1.55,9.75l.12,1.48-1.44,1.2c-4,.11-3,4-5.05,5.57-2.35-.95-4.32-4.18-7.28-1.72-2.52,2.08-2.63,4.83-.35,7.39l0,1.46c.05,1.41.09,2.81.14,4.22a2.84,2.84,0,0,1-.43,1.21c-1.49.06-3.13,0-3.83,1.48s-1.24,3.12-3.56,2.53c-2.79-.72-.92-2.09-.78-3.51C218.49,156.71,216.15,155.56,214.44,154.37Z"/><path class="cls-8" d="M226.46,158.28a2.84,2.84,0,0,0,.43-1.22l4.46-1.58c3.85,3.45,7.79,6.66,13.82,4.34-.11,3.87-5.17,3.26-6.53,6-2.82-1.08-5.64-2.2-8.83-1.74l-2.9-2.94Z"/><path class="cls-11" d="M226.91,161.14l2.9,2.94.06,2.68c-1.81-.29-4.33.84-5.25-1.16C223.81,163.85,225.29,162.28,226.91,161.14Z"/><path class="cls-13" d="M34.07,133.22c-2,2.78-5,3-8.24,2.88l-4.38-2.83c.14-1.86.28-3.72.41-5.58,2.17-.1,4.55.07,4.65-2.85v-4.22a3.3,3.3,0,0,1,3-1.41q2.28,4.23,4.57,8.46c0,.47,0,1,0,1.42C34.09,130.47,34.08,131.84,34.07,133.22Z"/><path class="cls-5" d="M21.86,127.7c-.13,1.85-.27,3.71-.41,5.57-5.66,1.49-5-3-6.43-5.61-1.14-2-4.18-4.22.61-5.73l.29.19c0,2.62,1.46,3.93,4.27,4.09l1.7,1.48Z"/><path class="cls-10" d="M79.77,169.25c-.7-2.06-3.13-4.6,1.68-5.18l3.36,3.86c-3.51.31-3.28,2-1.8,4.11l-2.93.13C80,171.2,79.87,170.23,79.77,169.25Z"/><path class="cls-8" d="M26.44,108c4,.45,3.3,3.87,4.64,6l-1.47,2.51c-3.78,1.08-6-1.88-9-2.85C20.05,109.65,23.61,109.15,26.44,108Z"/><path class="cls-3" d="M20.58,113.68c3,1,5.25,3.93,9,2.85l-.12,2.68a3.29,3.29,0,0,0-3,1.41c-3-.24-4.12-2.75-6.22-4.08-.05-.63-.1-1.26-.16-1.89A1,1,0,0,1,20.58,113.68Z"/><path class="cls-5" d="M20.13,114.65c.06.63.11,1.26.16,1.89-4.23,0-2,4.33-4.37,5.58l-.29-.19C16.35,119.1,14.26,114.82,20.13,114.65Z"/><path class="cls-7" d="M109,41l-2.14,0c-2.07-.06-4.43-.34-2.26,2.63L95.38,44c-.49-.07-1-.14-1.47-.19-1.71-2.06-1.66-4.46-1.64-6.86-1-1.87-2-3.73-3-5.59,4.76-.42,8.76,1.23,12.42,3.8,1.93,2.47,4.2,3.77,7.43,1.83,0,.91,0,1.83,0,2.74C109.07,40.13,109,40.58,109,41Z"/><path class="cls-13" d="M90.92,17.34l7.31.15c.56,3,2.57,4.25,5.8,4,.12,2.66-1.64,2.75-3.83,2.42-2.61-.4-5.23-.68-7.84-1C92.78,20.87,91.66,19.15,90.92,17.34Z"/><path class="cls-7" d="M87.81,28.41l-.06-2.64h7.5C94,30.08,90.3,27.84,87.81,28.41Z"/><path class="cls-4" d="M83,172c-1.48-2.13-1.71-3.8,1.8-4.11.47.11.93.25,1.38.4,0,1.22-.07,2.43-.11,3.64Z"/><path class="cls-3" d="M115.13,177.92c3.8-.46,8.19-6,11.12,1.08-1.79.89-2.42,3.32-5,3.11C118.07,182.09,114.91,182.06,115.13,177.92Z"/><path class="cls-5" d="M121.23,182.11c2.6.21,3.23-2.22,5-3.11l5.77,0c.28,3.36-4,4.39-4.52,7.3l-1.68.42c-.64-.4,1.23-2.67-1.4-1.57Z"/><path class="cls-13" d="M124.42,185.11c2.63-1.1.76,1.17,1.4,1.57l-1.53,1C124.33,186.81,124.37,186,124.42,185.11Z"/><path class="cls-8" d="M261,134.19c4.16,1,7.16,3.62,10.22,6.15,0,.91,0,1.81,0,2.71-1.91,2.14-2.74,6.38-7.09,2.58-1.17,2.42,2.27,2.75,1.44,4.68l-6.74-.56c-.05-2,5.81-5.06-1.36-5.73a1.24,1.24,0,0,1-.7-2.15C259.38,139.81,258,136,261,134.19Z"/><path class="cls-1" d="M258.8,149.75l6.75.56c.83-1.93-2.61-2.26-1.44-4.68,4.35,3.8,5.18-.44,7.09-2.58,5.24,2.73-.94,8.35,3.43,11.3l-.27,0-1.54,1.3c-.47,0-.95.07-1.42.08-3-1.16-5.68-3.48-9.27-1.59-.67-1.14-1.86-1.38-3.12-1.48-.08-.93-.15-1.87-.23-2.8Z"/><path class="cls-11" d="M271.24,139.8l1.37-.14-.66.25Z"/><path class="cls-3" d="M259,152.69c1.26.1,2.45.34,3.12,1.48-2.17,4.06,6,5.53,2.95,9.81-4.91,1.93-8.89-3.37-13.8-1.48-2.15-.68-3.44-3-6.11-2.68-6,2.32-10-.89-13.82-4.34a6.18,6.18,0,0,1,.22-1.2c5.68,0,4.93-2.61,2.81-5.77l0-2.79c2.09-1.55,1.06-5.46,5.05-5.57q-.33,2.9-.64,5.78c-.26,3.37,1.5,5.53,4.83,6.75-2.43,6,2,5.67,5.87,4.93,2.65-.51,4.95-2.39,7.94-2-.3,1.21-1.91,2.35-.41,3.65a1.82,1.82,0,0,0,2.61-.08c1.27-1.39-.27-2.46-.7-3.65C259,154.58,259,153.63,259,152.69Z"/><path class="cls-9" d="M245.17,159.82c2.67-.31,4,2,6.11,2.68l3.11,2.8c-3,4.35-12.13,4.64-15.74.51C240,163.08,245.06,163.69,245.17,159.82Z"/><path class="cls-13" d="M127.5,186.26c.57-2.91,4.8-3.94,4.52-7.3a2.26,2.26,0,0,1,0-.86,19.18,19.18,0,0,0,4.61-7.21l2.93-.13.21,4.67c-.13.8-.27,1.59-.41,2.39-1.93,3.12-4.62,5.8-3.65,10.08.64,2.78-.11,2.92-6.58,1.39C129,188.11,128.81,186.93,127.5,186.26Z"/><path class="cls-5" d="M272.82,155.68l1.54-1.3Z"/><path class="cls-5" d="M43.68,59.12l-6.21.13a2.44,2.44,0,0,1,.71-3.08C39.9,57.33,44.24,54.41,43.68,59.12Z"/><path class="cls-13" d="M229.66,81.54a9.36,9.36,0,0,0,.3-1.27l2.93-1.65c1.74,0,3.51,0,5.23.17,2.29.28,5.6-1.21,6.55,1.67s-2.84,2.51-4.41,3.61c-3.41,2.37-2.37,5.76-2.94,8.78-3.54,0-7.17-.64-10.44,1.26l-1.73-1.64A5.3,5.3,0,0,1,229,87.8C235.52,86.06,232.64,83.89,229.66,81.54Z"/><path class="cls-6" d="M226.88,94.11c3.27-1.9,6.9-1.28,10.44-1.26,2.3,2.2,5.23,1.18,7.94,1.31a4.11,4.11,0,0,1,2.87,4c-1.79,1.34-3.29,3.13-5.95,3.05-3.34-2.09-7.11-1.43-10.78-1.42l-4.47-2.87C226.92,96,226.9,95,226.88,94.11Z"/><path class="cls-8" d="M234.5,74.54c-2.88-3.53-3.54-8.31-7.6-11.16,4-.13,7.93-.13,11.66,1.79,4.93,2.53,2.57,6.94,3.08,10.35.39,2.56-3.42,1.5-5.5,1.65a2.66,2.66,0,0,0-1.57-2.53Z"/><path class="cls-10" d="M248.13,98.13a4.11,4.11,0,0,0-2.87-4c4.12-6.51,6,1.66,9.24,1.16,0,.48,0,1,0,1.45Z"/><path class="cls-7" d="M245.39,66c-2.32-2.84-.82-4.7,2-6,2.31-1.05,4-.6,3.89,2.16C247.8,61.48,249.21,67.12,245.39,66Z"/><path class="cls-8" d="M245.39,66c3.82,1.12,2.41-4.52,5.92-3.82-.51,1.35-1,2.69-1.52,4,0,.46,0,.91,0,1.36-1.4.38-1.64,2.75-3.45,2.06S245.35,67.31,245.39,66Z"/><path class="cls-6" d="M251.38,73.12l4.35.5c1,1.17,2.12,2.28,1.23,3.94l-5.5-.09C251.43,76,251.41,74.57,251.38,73.12Z"/><path class="cls-5" d="M232.89,78.62,230,80.27c-.7-3.37,1.79-4.63,4.54-5.73l.07.1c0,.85-.09,1.7-.14,2.55Z"/><path class="cls-9" d="M234.43,77.19c0-.85.09-1.7.14-2.55a2.66,2.66,0,0,1,1.57,2.53Z"/><path class="cls-6" d="M249.84,71.34l1.55,1.83Z"/><path class="cls-9" d="M181.16,57.9c0,.86.07,1.73.1,2.59l4.39,7c-.63,1.53-2.55,3.11.18,4.53-1,6.62-6.85,5.07-11.45,5.59a2.54,2.54,0,0,1-.85-.3c-2.37-1.06.93-9.71-6.47-4-4.13-1.42-5-4.87-6.13-8.17.78-2.44.76-6.23,4.18-6.09,5.29.2,3-1.93,2.17-3.9,1.7-.07,3.42-.22,4.55,1.32l-.39.56.34-.6C174.87,57.11,179.18,51.39,181.16,57.9Z"/><path class="cls-8" d="M167.28,55.13c.81,2,3.12,4.1-2.17,3.9-3.42-.14-3.4,3.65-4.18,6.09-2.85-.91-4.1,1.06-5.58,2.6-4.3-1-6.47-4.49-9.52-6.95,3.91-1,4.64-4.27,6.06-7,3-1.85,5.92-3.19,7.68,1.27.26,1.66.36,3.56,3,1.61Zm-9.59,2.61-.35-.43c-.14.12-.28.24-.43.35l.58.56Z"/><path class="cls-5" d="M170.17,50.77c.35-1.26-.29-3.74-.16-3.62,4,3.32,5.26-4.77,8.86-1.68,1.61,1.37,2.49,2.47.08,4.41-2.87,2.31-5.75.73-8.59,1.07Z"/><path class="cls-9" d="M162.54,56.61c-2.61,2-2.71,0-3-1.61l2.77-.07C162.41,55.49,162.47,56.05,162.54,56.61Z"/><path class="cls-5" d="M170.36,51l-.77.52c.19-.23.39-.46.58-.7Z"/><path class="cls-5" d="M229.66,81.54c3,2.35,5.86,4.52-.65,6.26a5.3,5.3,0,0,0-3.86,4.68l-3.06.46-1.38-1.22c-1.07-3.48-9.06.39-7.51-5.89,1.45-.57,1.55-1.82,1.79-3a7.23,7.23,0,0,0,1.14,0C221,85.4,225.35,83.71,229.66,81.54Z"/><path class="cls-13" d="M208.48,81.43c0-1.3,0-2.6.05-3.9,3.36-.33,5.95.29,5.93,4.07l-2.81,2.82-.3-.25C211.75,82.07,210.25,81.63,208.48,81.43Z"/><path class="cls-1" d="M208.43,77c-1.77.57-3.39.51-4.69-.93,2.08-.43,1-4.17,3.69-3.38C209.25,73.19,208.31,75.44,208.43,77Z"/><path class="cls-6" d="M211.65,84.42l2.81-2.82c.16.42.34.83.53,1.24-.24,1.17-.34,2.42-1.79,3Z"/><path class="cls-13" d="M211.65,84.42l1.55,1.41c-1.55,6.28,6.44,2.41,7.51,5.89-1.51-.34-2.93-.48-4.24.61-5,4.19-9.6,4.8-13.14-1.57-1-1.71-2.68-1.26-4.31-1.67-9-2.26-19.11-2.89-24.64-11.47,4.6-.52,10.42,1,11.45-5.59l4.27,1.16.05,0a6.88,6.88,0,0,0,4.71,4.22c3.46,2.48,9.45,1.57,10.73,7.26.38,1.72,3,.05,4.56-.47h.6l.6-.08Z"/><path class="cls-5" d="M190.1,73.19,185.83,72c-2.73-1.42-.81-3-.18-4.53a5.31,5.31,0,0,0,1.42-.37c2.71.49,6.06.58,6.86,3.39C194.42,72.23,190.85,71.56,190.1,73.19Z"/><path class="cls-13" d="M187.07,67.13a5.31,5.31,0,0,1-1.42.37l-4.39-7a11,11,0,0,1,6,1.74c.38,1.3.77,2.62,1.15,3.93Z"/><path class="cls-5" d="M194.86,77.45a6.88,6.88,0,0,1-4.71-4.22C193.89,72.61,195.15,74.3,194.86,77.45Z"/><path class="cls-5" d="M188.39,66.16c-.38-1.31-.77-2.63-1.15-3.93L191.56,65C190.82,66.08,189.63,66.18,188.39,66.16Z"/><path class="cls-1" d="M211.35,84.17l-.6.08h-.6c-.56-.94-1.12-1.87-1.67-2.81C210.25,81.63,211.75,82.07,211.35,84.17Z"/><path class="cls-3" d="M245.22,49.47c.12-.19.23-.39.34-.58-.12.18-.25.36-.37.55Z"/><path class="cls-10" d="M231.4,99.76c3.67,0,7.44-.67,10.78,1.42-.46,3.19,1.18,4.44,4.54,4.09-.12.45-.24.91-.37,1.36-2.76.5-6,.47-5.89,4.25-.43,0-.85.1-1.27.18-2-.24-4.18-1.07-6-.61-4.24,1.08-11.9.86-11.54,4.92.85,9.44-4.77,3.8-6.55,2.63-3.32-2.18-4.93-1.4-6.63,1.28,0,.49,0,1,0,1.49l-3.09,0c0-.5,0-1,0-1.5l1.62-2.83c2.68-3.4,10.46-.3,10.61-6.93.49-3.51,2-5.7,6.53-5.77A8,8,0,0,0,231.4,99.76Z"/><path class="cls-13" d="M240.78,137.47c2.87-3.7,1.64-6.86-1.55-9.75,4-1.16,6.61-2.64,2-6.14-1.93-1.47-1-2.08,1-2.26,3.29,0,2.29-2.61,3.05-4.15,4.45,1,5.09-3.62,8-4.74,4.38,4.3,6.3,9.18,5.81,14.83-1,1.7-4,1.42-4.47,3.63l-1.7.14c-2.57,1.85-7.63.83-7.66,5.57A4.68,4.68,0,0,1,240.78,137.47Z"/><path class="cls-5" d="M259.06,125.26c.49-5.65-1.43-10.53-5.81-14.83-2.95,1.12-3.59,5.78-8,4.74-.08-1.84-.17-3.68-.25-5.52a3.92,3.92,0,0,1,.45-.62l2.25.77.21-1.71-1.52-1.46c.13-.45.25-.91.37-1.36,5.23-1.22,10.9-4.21,14,3,.62,1.42,2.18,2.84.38,4.29C256.42,116.28,268.27,122.18,259.06,125.26Z"/><path class="cls-3" d="M252.89,129l1.7-.14c3,.88,4.25,3.57,6.43,5.31-3.06,1.77-1.64,5.61-4.27,7.67a1.24,1.24,0,0,0,.7,2.15c7.17.67,1.31,3.76,1.36,5.73l0,.14c-1.63.08-3.37-.08-4.43,1.46h0c-2.07-.23-4.42.56-6-1.36,2.77-.07,7.23-2.06,5.52-3.19-4.6-3-.25-6.76-2.37-9.48C257.66,135.39,252.05,131.74,252.89,129Z"/><path class="cls-11" d="M242.16,119.32c-1.94.18-2.89.79-1,2.26,4.64,3.5,2,5-2,6.14l-2.77-4.09c-1.52,2,.8,4.57-2.18,5.43a11.17,11.17,0,0,0-8.46,6c-1.32,1.53-2.25,3.19-1.85,5.23-10.87-1.52-15.18.29-17.38,7.29-2.44-4.15-5.64-8-5.69-13l.71.08.67-.2c3.21-.15,3.59,5.48,7.84,3.19,1.74-3,7.85-2.82,6.8-7.94-.09-.44,1.79-1.48,2.9-1.8,1.55-.45,3.86.24,3.76-2.27-.08-1.92-2.41-1.11-3.41-2.09-2.42-2.35-5.66-1.35-8.6-1.52,0-1.82-1.12-2.66-3.06-2.68,1.7-2.68,3.31-3.46,6.63-1.28,1.78,1.17,7.4,6.81,6.55-2.63-.36-4.06,7.3-3.84,11.54-4.92,1.78-.46,4,.37,6,.61-.07,2-1.13,4.52,2.93,3.84C242.13,116.37,242.15,117.85,242.16,119.32Z"/><path class="cls-1" d="M198.08,131.29c-3.51,1.27-4.8,6.23-9.84,4.92l-1.35-2.75c-.23-2.63-1.19-5.41,1.94-7.29,2.95-.43,4.08,3.79,7.4,2.43.52.88,1.05,1.76,1.58,2.64Z"/><path class="cls-3" d="M176.15,162.43c.14-2.32,3.66-2.92,3.32-5.48l-.05,0c2.11,0,5.44,1.68,4.59-2.64,3,3.26,3-1.17,4.61-1.45,0,2,1.12,3.3,3.06,4.1,0,1.37-.06,2.75-.08,4.12l-1.52,1.51C185.47,160.7,180.82,161.29,176.15,162.43Z"/><path class="cls-1" d="M191.6,161.12c0-1.37.05-2.75.08-4.12,6.79-1.32,10.65,1.15,11.7,8Z"/><path class="cls-1" d="M188.62,152.9c-1.61.28-1.66,4.71-4.61,1.45-1.92-1.12-1.37-2.8-1.2-4.4,1-.07,2.59.15,2.84-.28.79-1.37-.94-.91-1.55-1.28-1.34-.79-.09-1.57,0-2.35l3.06-1.72C191.74,146.58,191.39,149.56,188.62,152.9Z"/><path class="cls-6" d="M187.12,144.32,184.06,146l-1.55-1.68c.43-2.24.87-4.49,1.3-6.73.27-1.86.85-3.52,3.08-4.16l1.35,2.75C189.57,139.11,187.48,141.62,187.12,144.32Z"/><path class="cls-15" d="M198.08,131.29l-.27-.06,3-1.91h2.93l-1.47,5.06-.67.2-.71-.08Z"/><path class="cls-3" d="M184,183.49l.64-.58c0,.13,0,.31-.1.38a1.89,1.89,0,0,1-.52.22Z"/><path class="cls-6" d="M161.24,162.52c3.68,1.18,5.12,3.54,4.45,7-3.12,3.37-6.9,2.53-10.72,1.39h0l-.06-3.09a2.32,2.32,0,0,1,0-1.14Z"/><path class="cls-3" d="M154.94,166.71a2.32,2.32,0,0,0,0,1.14c-3.62.1-7.39,1.48-10.71-1,0-1.41,0-2.82,0-4.23C147.52,164.53,153,161.86,154.94,166.71Z"/><path class="cls-6" d="M155,170.93l-.65.54c0-.12.05-.28.14-.34a2.22,2.22,0,0,1,.53-.19Z"/><path class="cls-13" d="M154.94,166.71c-2-4.85-7.42-2.18-10.73-4.14-3.18,0-4.2-4.49-7.89-2-.34-4,6.17-3.93,3.27-7.86a13.87,13.87,0,0,1,9.88-1.75c10.57,2.11,15.55-1.88,15.22-12.47-.09-2.86,1.51-3.59,4-3.9l4.69.09c.55,3.71-5.8,4.24-4.58,8.26l-.13.15a2.38,2.38,0,0,0-1.28,2.58c-2.49,1.77-2.06,4.89-4.09,7.11-1.61,1.77-1.48,5,2.58,5.72,1.19,4-3.39,2.4-4.63,4Z"/><path class="cls-3" d="M165.87,158.49c-4.06-.73-4.19-4-2.58-5.72,2-2.22,1.6-5.34,4.09-7.11l1.28-2.58.13-.15c2,.37,4.25-.65,6.59.91-1.84,1-4.91,1-4,4.19,3.5-2.18,7.34-2.83,11.11-3.68l1.55,1.68c-.05.79-1.3,1.57,0,2.36.61.37,2.34-.09,1.55,1.28-.25.43-1.85.21-2.84.28-3.94,1.22-3.45,4.22-3.39,7l.05,0Z"/><path class="cls-3" d="M38.62,108.12c.49-1.23,2.63-1.51,2.13-3.36-1.34-4.91,1.72-6.18,6.25-6.14,1.61,3.6,4.8,5.5,8.63,6.72l.57.1C55,107.06,52,108,53.9,110.73l-1.52,1.49-3,.6-10.67-1.95C38.7,110,38.66,109,38.62,108.12Z"/><path class="cls-10" d="M47.78,78.91c.93,1.63-3,4.35.82,5,2.94.5,2-2.45,2.47-4.06,4.9,1.48,2,5.64,3.4,8.31-3.21,3.24-3.59,7.34.31,9.33,4.18,2.12,3.8,4.73,3.7,7.84l-2.28.11-.57-.1c1.47-4.22-4.4-4.72-4.84-8-2-2.23.42-6.65-4.48-7.39l-1.42-1.52C45.86,85.28,42.26,80.94,47.78,78.91Z"/><path class="cls-6" d="M38.62,108.12c0,.91.08,1.83.13,2.75s.14,2,.2,3c.2,4.47-3.76,8.11-3.08,12.71,0,.27-1.17.7-1.81,1l-4.56-8.46c0-.89.07-1.79.11-2.68L31.08,114c4.6-.22,2.08-4.5,4.2-6.14Z"/><path class="cls-15" d="M50.79,97.37c.44,3.25,6.31,3.75,4.84,8-3.83-1.22-7-3.12-8.63-6.72.35-.38.69-.76,1-1.13Z"/><path class="cls-11" d="M50.79,97.37,48,97.49c-2.59-2.12-3-4.65-1.73-7.51C51.21,90.72,48.83,95.14,50.79,97.37Z"/><path class="cls-7" d="M58.69,78.69c-3.27-5.7.7-9.17,4.67-12.63l1.55,1.63a7.68,7.68,0,0,0,1.75,5.58l-8,5.69Z"/><path class="cls-14" d="M64.91,67.69l-1.55-1.63c-.12-.41-.24-.81-.37-1.21l1.93-.16c3.6.69,3.77-1.88,4.48-3.93l1.72-.07c-.12,1.84-.24,3.68-.37,5.51C69.13,67.76,67,67.73,64.91,67.69Z"/><path class="cls-15" d="M58.6,60.41c2.22,0,4.62-.22,3.17,3A4,4,0,0,1,58.6,60.41Z"/><path class="cls-15" d="M64.92,64.69,63,64.85c-.88-.19-1.43-.6-1.27-1.51,1.1-1.37,2,0,3,.19A2.73,2.73,0,0,0,64.92,64.69Z"/><path class="cls-4" d="M58.48,105.33c.1-3.11.48-5.72-3.7-7.84-3.9-2-3.52-6.09-.31-9.33l3.8,2,.17-.06a18.55,18.55,0,0,0,9.38,8A8.76,8.76,0,0,0,75.45,101c.83,6.15-.91,12.08-1.91,18.06-3.34,1.27-6.71-2.22-10.05.06A5.64,5.64,0,0,1,63,118C61.44,113.78,65.46,107.91,58.48,105.33Z"/><path class="cls-13" d="M58.64,79l8-5.69c3.43-.43,4.42-2.48,4.23-5.32l1.49-.36c1.46,1.69.89,4.35,3.24,5.6,2.54,2.58,5.27,4.9,9.09,5.79,0,.88-.1,1.75-.14,2.62l-4.53,0-.63-.31.63.32c0,2.07,0,4.11-3.14,4.2l-1.7-1.68c.66-4.14-2.14-2.36-4.11-2-.56-1.38-1.79-1.79-3.26-1.82-3.71-.31-3.33,5.38-7.57,4.3C55.35,83.76,59,80.88,58.64,79Z"/><path class="cls-5" d="M60.26,84.57c4.24,1.08,3.86-4.61,7.57-4.3-.35,2.4,1.17,5.19-1.75,7.06C63,87,61.4,90.15,58.44,90.15l-.17.06Z"/><path class="cls-6" d="M97.12,147.37c-5.33,1.42-10.71,3.83-16.65-1.11,7.57-.89,5.43-4.95,4.3-8.7a56.32,56.32,0,0,0,5.5,3.46c2.26,1.09,4.84.81,5.76-1.44,1-2.44-2-2.16-3.36-2.52-6.57-1.74-6.6-7.81-9.26-12-1.5-2.34,1.86-3,4.27-3,5.41,3.89,11.3,6,18.25,4.05l1.92.39c-3,5,4.62,6.66,4.16,10.87-3.76,1.16-5,3.64-4.5,7.07C103.54,143.92,99,141.66,97.12,147.37Z"/><path class="cls-13" d="M87.68,122.07c-2.41,0-5.77.69-4.27,3,2.66,4.15,2.69,10.22,9.26,12,1.38.36,4.35.08,3.36,2.52-.92,2.25-3.5,2.53-5.76,1.44a56.32,56.32,0,0,1-5.5-3.46c-3.89-5.93-5-6.31-7.87-2.66l-2.73-.1c-2-5.2.32-10.55-.63-15.79,1-6,2.74-11.91,1.91-18.05,0-1.51.3-3.11-1.53-4V95.54l4.38-.06c.54,1,1.09,1.9,1.64,2.85-2.41,1.39-.25,2.83-.06,4.25,2.38,5.29-.09,10.64-1.22,16.78,3.61-1.79,4.5-4.57,7.49-4.29Z"/><path class="cls-13" d="M97.12,147.37c1.87-5.71,6.42-3.45,10.39-2.92.52.47,1,.94,1.55,1.42,1,1.83,2,3.66,3.07,5.5l-1.46,0c-2.46,1.48-.94,6.59-6.11,5.6C102.24,153.7,107.1,145.77,97.12,147.37Z"/><path class="cls-6" d="M90.85,165.23a12.34,12.34,0,0,1-1.49.16c-3.39-1-1.38-8.22-7.83-5.6l-5.11.24c4.37.46,1.58-9.19,8.72-5.06C89.48,157.47,93.17,159.83,90.85,165.23Z"/><path class="cls-5" d="M74.18,134.8l2.72.1c-.64,5.29-2.93,9.43-9.09,10.88l-1.54-.05c-.92-3.36,4-4.87,3.1-8.22,2-.18,3.77-.82,4.65-2.68Z"/><path class="cls-8" d="M81.53,159.79c6.45-2.62,4.44,4.64,7.83,5.6l-3.17,2.94c-.45-.15-.91-.29-1.38-.4l-3.36-3.86C81.47,162.64,81.5,161.22,81.53,159.79Z"/><path class="cls-13" d="M103,158.36c-.62,2.5-1,5.19-4.68,5.54-.09-2.33-.17-4.71,1.51-6.65C102,154.77,102.57,156.53,103,158.36Z"/><path class="cls-15" d="M66.25,161.21a4.69,4.69,0,0,0,0-6.11c-1-1.42-.61-2.55,1.64-2.34,1.11,2.7,4,5.16,1.39,8.38Z"/><path class="cls-6" d="M80.57,150.76l-.49.3-.39-.66a1.38,1.38,0,0,1,.59-.06C80.42,150.39,80.48,150.62,80.57,150.76Z"/><path class="cls-9" d="M168.68,134.58c-2.48.31-4.08,1-4,3.9C165,149.07,160,153.06,149.47,151a13.87,13.87,0,0,0-9.88,1.75,12,12,0,0,1-1.34-.08c0-2.67,0-5.33,0-8l1.52-.23c8.92,1.53,4.74-5.12,5.47-8,1.11-4.36-3.21-2.74-5.64-3l-4.42,1.35a2.89,2.89,0,0,1-1.57-2.83c2.43-3.55,7.83-2.66,10.51-5.84,4.72,0,6.5-4.86,10.87-5.41h3.08l3.11,1.35c.47,3.09,1.92,3.72,4.51,1.49l6.09.07C168.92,126.81,163.81,129.53,168.68,134.58Z"/><path class="cls-3" d="M133.6,131.9a2.87,2.87,0,0,0,1.57,2.82c.18,1.08.26,2.44,1.91,2.15,2-.33,2.45-1.86,2.51-3.49,2.43.25,6.75-1.37,5.64,3-.73,2.9,3.45,9.55-5.47,8-2.72-2.41-4.7-9-9.2-1.37l-.09,0c-.19-1.45.58-3.68-2-3.58-1.67.07-4.34.73-3.35,3.32.67,1.76-.05,3-.78,4.45l-4.71-2.6a13.46,13.46,0,0,0-1.41-.14l-1.57-1.31a3.07,3.07,0,0,1-1.42-2.88c3.31-2.9.86-6.49,1.38-9.73,2.16.06.57-4.34,3.88-2.8,4.48,2.08,3.84-.69,3.59-3.07-.16-1.61-2.61-3.93.36-4.58,2.74-.6,4.41,1.43,4.49,4.25C129.05,127.52,129,130.93,133.6,131.9Z"/><path class="cls-11" d="M115.26,140.24a3.07,3.07,0,0,0,1.42,2.88l1.57,1.31a13.46,13.46,0,0,1,1.41.14c.06,2.26.13,4.51.19,6.76L113.74,150c-.55-2.33,1.37-7-4.68-4.15-.51-.48-1-1-1.55-1.42-.52-3.43.74-5.91,4.5-7.07Z"/><path class="cls-7" d="M139.57,170.76l-2.93.13c-4.79.37-8-1.39-9.51-5.68C135.75,161.62,139.41,163.26,139.57,170.76Z"/><path class="cls-3" d="M138.24,144.62c0,2.67,0,5.33,0,8-4.41.48-7.17-2.81-10.86-4,2.11-1.4-1.62-5.44,3.08-5.66l.09,0C132.65,145.43,135.72,143.92,138.24,144.62Z"/><path class="cls-8" d="M127.13,165.21c1.46,4.29,4.72,6,9.51,5.68A19.18,19.18,0,0,1,132,178.1l-1.76,0-1.39-1.46C125.67,173.14,122.16,169.72,127.13,165.21Z"/><path class="cls-13" d="M130.47,143c-4.7.22-1,4.26-3.08,5.66a3.24,3.24,0,0,1-3-1.47c.73-1.41,1.45-2.69.78-4.45-1-2.59,1.68-3.25,3.35-3.32C131.05,139.3,130.28,141.53,130.47,143Z"/><path class="cls-3" d="M128.88,176.6l1.39,1.46Z"/><path class="cls-11" d="M110.67,151.42l1.46,0,1.57,0c.81,2.16,3.49,4.77-1.58,5.53C111.64,155.1,111.15,153.26,110.67,151.42Z"/><path class="cls-6" d="M113.7,151.41l-1.57,0c-1-1.84-2-3.67-3.07-5.5,6-2.83,4.13,1.82,4.68,4.15C113.72,150.49,113.71,151,113.7,151.41Z"/><path class="cls-15" d="M63.34,161.35l3-.2c.91,1.66.44,3.47-1.38,3.61C62.14,165,63.8,162.56,63.34,161.35Z"/><path class="cls-3" d="M69.37,137.51c.93,3.35-4,4.86-3.1,8.22a10.73,10.73,0,0,1-6.08-1.35,13.48,13.48,0,0,1-.26-3.44c1-5.43-.1-6.21-7-4.75-2-2.23-4.77-2.85-7.73-3.11l-.75-1.38c1.29-3.17-.41-6.2-.53-9.3l4.08-2,6,.24c.51,1.13,1,1.11,1.51,0l1.57-1.42a4.33,4.33,0,0,0,1.43-.23L63,118a5.64,5.64,0,0,0,.48,1.1c3.55,4.65,3.14,10.57,6,15.46Z"/><path class="cls-11" d="M44.45,131.7l.75,1.38c-3.67,1.94-7.35,4.2-11.12.14,0-1.38,0-2.75,0-4.13C37.85,129,40.52,132.44,44.45,131.7Z"/><path class="cls-1" d="M266.3,78.77c-3.61-1.07-4.27-5.56-1.23-8.38C272.45,72.34,265.86,76,266.3,78.77Z"/><path class="cls-1" d="M265.16,67.67c-1.11-.59-1.09-1.07.17-1.41C265.28,66.73,265.22,67.2,265.16,67.67Z"/><path class="cls-15" d="M150.45,43.71a2.89,2.89,0,0,1-2.86-2.61C149.9,40.73,150.51,41.91,150.45,43.71Z"/><path class="cls-8" d="M107.35,61c-.41-5.14-2.82-11.1,5.75-12.79,3.69-.72,7.47-1.07,11.21-1.59,0,.82-1.26,2.18,0,2.36,6.82,1,8.3,2.84,2.18,7.16a5.31,5.31,0,0,0-1.87,6.41c1.91,4-.44,5.94-3.34,7.95l-4.38.05-3.13-.2c-.85-1-2.22-1.8-3.14-.9-1.38,1.37-.11,3.18.74,4.28,2,2.58,4.64,4.85-.79,6.54l-4.5-1.6-7.51-1.22c-2-4.59-5.09-8.06-11-8.4l-1.35-1.48c0-.49-.05-1-.07-1.47a10.28,10.28,0,0,1,0-1.24c2.1-.24,4.49.59,6.16-1.33,4.77.23,9.53.5,14.3.54C106.82,64.07,107.09,62.06,107.35,61Z"/><path class="cls-3" d="M107.35,61c-.26,1.07-.53,3.08-.77,3.07-4.77,0-9.53-.31-14.3-.54-.9-2-5-2.45-3.1-5.65,4.75,3.9,10.48-1.38,15.35,1.37Z"/><path class="cls-8" d="M104.53,59.24c-4.87-2.75-10.6,2.53-15.35-1.37-.85-3.67,2.41-5.06,4.65-7l1.48,0c2.28.62,3.53,3,6.18,3C101.16,56.27,103.83,57.29,104.53,59.24Z"/><path class="cls-1" d="M86.12,64.85a10.43,10.43,0,0,0,0,1.25L83,67.51a3.93,3.93,0,0,1-1.32-.17l-1.4-1.29c-3.55-3.38-5.07,2-7.94,1.54L70.89,68c0-.59-.09-1.17-.14-1.75.13-1.83.25-3.67.37-5.51l5.78-.28c2.37,4.17,6.44.88,9.55,1.81a3.3,3.3,0,0,0,.08,1.21Z"/><path class="cls-5" d="M95.31,50.83l-1.48,0c0-.46,0-.92,0-1.39,0-1.9.06-3.8.1-5.7.49.05,1,.12,1.47.19-.4,6.35,3.71-.46,4.85,1.39l2.61,1.53C100.57,48.57,97.09,48.36,95.31,50.83Z"/><path class="cls-8" d="M86.53,63.43a3.3,3.3,0,0,1-.08-1.21,3.8,3.8,0,0,1,.49.81C87,63.12,86.68,63.29,86.53,63.43Z"/><path class="cls-5" d="M64.92,64.69a2.73,2.73,0,0,1-.23-1.16c0-3.18,2.37-2.93,4.71-2.77C68.69,62.81,68.52,65.38,64.92,64.69Z"/><path class="cls-9" d="M84.62,38.29c.81.23,2.24-.27,1.94,1.31a.74.74,0,0,1-.51.46c-1.73.25-1.16-1-1.41-1.79Z"/><path class="cls-9" d="M121.25,70.49c2.9-2,5.25-4,3.34-7.95a5.31,5.31,0,0,1,1.87-6.41c6.12-4.32,4.64-6.19-2.18-7.16-1.23-.18,0-1.54,0-2.36a9.86,9.86,0,0,0,0-1.33c0-.46,0-.93,0-1.39,1.63.68,3,.94,3.09-1.37,3.46-.17,1.85,2.66,2.76,4,2.47,3.6,5.06,7.38,10.44,4.73,3.54-1.74,3,.64,3.69,2.12-4.64,3.3,1.13,4.91,1.44,7.41,3,2.46,5.22,5.93,9.52,6.95-1,2.27-.45,4.55-.06,6.83-2.11.81-2.49,2.76-3.42,4.34-1.47-.58-1.69-3.08-4.11-2.21s-1.67,3-2,4.71c-3.87,1.21-6-4.13-10.07-2.2,2.38-3.59.44-7.91,2.36-11.62,1.28-2.47-.08-3.84-2.85-4.22l-.72-.26.6.37c1.6,4.71-5.29,5.73-5.12,9.81C127.23,71.8,121.74,77.65,121.25,70.49Z"/><path class="cls-13" d="M145.83,60.77c-.31-2.5-6.08-4.11-1.44-7.41l7.5.37C150.47,56.5,149.74,59.78,145.83,60.77Z"/><path class="cls-15" d="M95.31,50.83c1.78-2.47,5.26-2.26,7.53-4l1.72.25c.47,2.81-6.47,2.8-3.07,6.73C98.84,53.85,97.59,51.45,95.31,50.83Z"/><path class="cls-3" d="M100.23,45.34c-1.14-1.85-5.25,5-4.85-1.39l9.22-.25.63,0,.62-.12c.9.28,1.72.61.94,1.68Z"/><path class="cls-9" d="M109,41c0-.45.07-.9.1-1.35.74-.12,1.49-.18,2.2-.37,1.36-.37,2.86-1.36,3.65.64.24.61.46,1.52.14,2-1.39,2-2.06-1.15-3.46-.49A2,2,0,0,1,109,41Z"/><path class="cls-6" d="M100.23,45.34l6.56,0-2.23,1.81-1.72-.25Z"/><path class="cls-15" d="M105.85,43.62l-.62.12-.63,0c-2.17-3,.19-2.69,2.26-2.63C106.52,41.92,106.18,42.77,105.85,43.62Z"/><path class="cls-8" d="M124.41,43.89c0,.46,0,.93,0,1.39C123.34,44.78,123.3,44.32,124.41,43.89Z"/><path class="cls-1" d="M127.41,34.07l3.39.58c-.14.18-.23.47-.41.52a2.52,2.52,0,0,1-3-1.11Z"/><path class="cls-1" d="M251.46,137.33c2.12,2.72-2.23,6.44,2.37,9.48,1.71,1.13-2.75,3.12-5.52,3.19l-1.75,0q-2.15-2.31-4.3-4.6c0-.81-.11-1.62-.16-2.43,1.91-1.24,4.16-2.46.22-4a11.24,11.24,0,0,0-1.42-.06l-.12-1.48a4.68,4.68,0,0,0,4.45-2.87C247.87,134.43,249.2,136.76,251.46,137.33Z"/><path class="cls-10" d="M234.41,145.72l0,2.79a8.39,8.39,0,0,0-7.6,2.88c-2.28-2.56-2.17-5.31.35-7.39C230.09,141.54,232.06,144.77,234.41,145.72Z"/><path class="cls-13" d="M225.82,135a11.17,11.17,0,0,1,8.46-6c1.68,2.79.46,5-1.58,7.14Z"/><path class="cls-8" d="M225.82,135l6.88,1.18c-.85,5.05-4.56,5-8.73,4.05C223.57,138.21,224.5,136.55,225.82,135Z"/><path class="cls-6" d="M226.78,151.39a8.39,8.39,0,0,1,7.6-2.88c2.12,3.16,2.87,5.77-2.81,5.77-1.17-1.72-3-1.48-4.82-1.43Z"/><path class="cls-7" d="M242.1,143c.05.81.11,1.62.16,2.43l-3.44.51q.31-2.88.64-5.78l1.44-1.2a11.24,11.24,0,0,1,1.42.06C242.37,140.34,239,141.51,242.1,143Z"/><path class="cls-11" d="M226.75,152.85c1.79,0,3.65-.29,4.82,1.43a6.18,6.18,0,0,0-.22,1.2l-4.46,1.58C226.84,155.66,226.8,154.26,226.75,152.85Z"/><path class="cls-4" d="M44.45,131.7c-3.93.74-6.6-2.75-10.36-2.61,0-.47,0-1,0-1.42.63-.35,1.84-.78,1.8-1-.68-4.6,3.28-8.24,3.08-12.71,4.82,1.29,2.44,6.09,5,8.49C44,125.5,45.74,128.53,44.45,131.7Z"/><path class="cls-8" d="M15.92,122.12c2.4-1.25.14-5.54,4.37-5.58,2.1,1.33,3.26,3.84,6.22,4.08v4.22c-1.85-.63-4-2.42-4.64,1.14l-1.68.23C17.38,126.05,15.9,124.74,15.92,122.12Zm4-1.42-.31-.56c-.14.16-.38.32-.4.49s.19.37.29.55Z"/><path class="cls-3" d="M21.87,126c.61-3.56,2.79-1.77,4.64-1.14-.1,2.92-2.48,2.75-4.65,2.85h0C21.88,127.12,21.88,126.55,21.87,126Z"/><path class="cls-13" d="M21.87,126c0,.57,0,1.14,0,1.71l-1.7-1.48Z"/><path class="cls-8" d="M246.56,150l1.75,0c1.62,1.92,4,1.13,6,1.36.45.45-.64,1.91,1.17,1.47l-1.17-1.48c1.06-1.54,2.8-1.38,4.43-1.46.08.93.15,1.87.23,2.8s0,1.89-.05,2.83l-1.5.08c-3-.38-5.29,1.5-7.94,2-3.88.74-8.3,1-5.87-4.93C245.81,152.87,247.18,152.35,246.56,150Z"/><path class="cls-15" d="M246.56,150c.62,2.33-.75,2.85-2.91,2.66-3.33-1.22-5.09-3.38-4.83-6.75l3.44-.51Q244.42,147.71,246.56,150Z"/><path class="cls-5" d="M257.46,155.6l1.5-.08c.43,1.19,2,2.26.7,3.65a1.82,1.82,0,0,1-2.61.08C255.55,158,257.16,156.81,257.46,155.6Z"/><path class="cls-10" d="M222.09,92.94l3.06-.46,1.73,1.63c0,.93,0,1.85.05,2.78C224,96.9,222.54,95.45,222.09,92.94Z"/><path class="cls-4" d="M222.09,92.94c.45,2.51,1.93,4,4.84,4l4.47,2.87a8,8,0,0,1-7.19,4c-4.5.07-6,2.26-6.53,5.77-3.59-.3-6.56-4.75-10.7-1.35-.63-1.19-1.32-2.46-3-2.35s-1.45,1.45-1.64,2.48l-4.56-1.69c-2.06-5.87-4.05-.89-6.06,0a14.86,14.86,0,0,1-6.19-4.36c-4.08-3.48-2.37-10.65-9.39-12.25A3.14,3.14,0,0,1,173,87.42c.22-3.75-3.09-3.76-5.71-4.51a7.13,7.13,0,0,1,3-5.55l3.21,0a2.54,2.54,0,0,0,.85.3C179.91,86.2,190,86.83,199,89.09c1.63.41,3.35,0,4.31,1.67,3.54,6.37,8.11,5.76,13.14,1.57,1.31-1.09,2.73-1,4.24-.61Z"/><path class="cls-10" d="M170.32,77.36a7.13,7.13,0,0,0-3,5.55l-1.79.18A9.53,9.53,0,0,1,164,84.61c-1.81,1.25-.2,5.32-4.12,4.57-3.43-.65-3.19-3.48-3.45-6-.29-2.87,1.07-6-1.18-8.59-.39-2.28-.95-4.56.06-6.83,1.48-1.54,2.73-3.51,5.58-2.6,1.12,3.3,2,6.75,6.13,8.17C168.15,74.65,169.23,76,170.32,77.36Z"/><path class="cls-13" d="M170.32,77.36c-1.09-1.35-2.17-2.71-3.26-4.07,7.4-5.68,4.1,3,6.47,4Z"/><path class="cls-13" d="M171.78,56.41l-.34.6.39-.56Z"/><path class="cls-9" d="M157.69,57.74l-.2.48-.58-.56c.15-.11.29-.23.43-.35Z"/><path class="cls-3" d="M203.75,129.33h-2.93c.07-1.89.14-3.78.2-5.67l.12,0c2.09-.1,4.31,0,4.3-2.82l3.09,0c.66,1.15,1.8,1.27,3,1.19,2.94.17,6.18-.83,8.6,1.52,1,1,3.33.17,3.41,2.09.1,2.51-2.21,1.82-3.76,2.27-1.11.32-3,1.36-2.9,1.8,1.05,5.12-5.06,5-6.8,7.93-.31-1.38-2.29-3,.23-4.07,6.16-2.65-5.66-4.4-.35-6.92C207.19,126.12,204.41,125.71,203.75,129.33Z"/><path class="cls-3" d="M207.07,116.48l-1.62,2.83-7.73.14c-2.17-.29-4.49.1-6.44-1.18,2.53-1.35.07-3.06.41-4.57l8.26-.34c2.67.85,3.81-1.18,5.39-2.38C205.92,112.82,206.49,114.65,207.07,116.48Z"/><path class="cls-11" d="M207.07,116.48c-.58-1.83-1.15-3.66-1.73-5.5v-1.4L207,108.2c4.14-3.4,7.11,1,10.7,1.35C217.53,116.18,209.75,113.08,207.07,116.48Z"/><path class="cls-6" d="M197.71,119.45l7.74-.14c0,.5,0,1,0,1.5,0,2.78-2.21,2.72-4.3,2.82C201,121.52,199,120.74,197.71,119.45Z"/><path class="cls-2" d="M246.35,106.63l1.52,1.47-2.46.93a3.92,3.92,0,0,0-.45.62l-2.4,1.72-2.1-.49C240.39,107.1,243.59,107.13,246.35,106.63Z"/><path class="cls-5" d="M240.46,110.88l2.1.49c-.15,1.18-.3,2.35-.44,3.53-4.06.68-3-1.89-2.93-3.84C239.61,111,240,110.92,240.46,110.88Z"/><path class="cls-6" d="M211.57,122c-1.24.08-2.38,0-3-1.19,0-.5,0-1,0-1.49C210.45,119.3,211.52,120.14,211.57,122Z"/><path class="cls-5" d="M251.46,137.33c-2.26-.57-3.59-2.9-6.23-2.73,0-4.74,5.09-3.72,7.66-5.57C252.05,131.74,257.66,135.39,251.46,137.33Z"/><path class="cls-6" d="M242.12,114.9c.14-1.18.29-2.35.44-3.53l2.4-1.72c.08,1.84.17,3.68.25,5.52-.76,1.54.24,4.16-3.05,4.15C242.15,117.85,242.13,116.37,242.12,114.9Z"/><path class="cls-15" d="M245.41,109l2.46-.93-.21,1.7Z"/><path class="cls-5" d="M203.75,129.33c.66-3.62,3.44-3.21,6.25-2.75-5.31,2.52,6.51,4.27.35,6.92-2.52,1.08-.54,2.69-.23,4.07-4.25,2.3-4.63-3.33-7.84-3.18Z"/><path class="cls-3" d="M168.68,134.58c-4.87-5.05.24-7.77,3.09-11l3.34-3c2.32,1.36,1.62,9.79,7.54,2.67,1.17,2.54,7-3.08,6.18,2.93-3.13,1.88-2.17,4.66-1.94,7.29-2.23.64-2.81,2.3-3.08,4.16-3.86.15-6.4-3.62-10.44-3Z"/><path class="cls-11" d="M188.83,126.17c.8-6-5-.39-6.19-2.93l-1.4-1.27,0-4c1.19-1,2.33-2,4.15-1.47,1.21,1.57,3,1.48,4.83,1.54a4.59,4.59,0,0,0,1.09.22c1.95,1.27,4.27.88,6.44,1.17,1.29,1.29,3.31,2.07,3.42,4.18l-.12,0c-3.87-.19-4.83,2-4.79,4.95C192.91,130,191.78,125.74,188.83,126.17Z"/><path class="cls-6" d="M196.23,128.6c0-3,.92-5.14,4.79-4.95-.06,1.89-.13,3.78-.2,5.67l-3,1.91C197.28,130.36,196.75,129.48,196.23,128.6Z"/><path class="cls-11" d="M179.42,157c-.06-2.82-.55-5.82,3.39-7-.17,1.6-.72,3.28,1.2,4.4C184.86,158.67,181.53,157,179.42,157Z"/><path class="cls-5" d="M173.37,134.67c4-.67,6.58,3.1,10.44,3-.43,2.24-.87,4.49-1.3,6.73-3.77.85-7.61,1.5-11.11,3.68-.93-3.2,2.14-3.15,4-4.19-2.34-1.56-4.57-.54-6.59-.91C167.57,138.91,173.92,138.38,173.37,134.67Z"/><path class="cls-5" d="M168.66,143.08l-1.28,2.58A2.38,2.38,0,0,1,168.66,143.08Z"/><path class="cls-6" d="M63,118l-4.46,1-1.44-1.14c0-1.4,0-2.8,0-4.21,1-.43,1.19-.87,0-1.31l-1.47-.13-1.72-1.49C52,108,55,107.06,56.2,105.44l2.28-.11C65.46,107.91,61.44,113.78,63,118Z"/><path class="cls-10" d="M55.62,112.22l1.47.13c0,.44,0,.88,0,1.31,0,1.41,0,2.81,0,4.21,0,.45,0,.91,0,1.36l-1.57,1.42a12.68,12.68,0,0,0-1.51,0l-6-.24c0-2.61-.62-5.31,1.42-7.6l3-.6Z"/><path class="cls-11" d="M49.42,112.82c-2,2.29-1.44,5-1.42,7.6l-4.08,2c-2.53-2.4-.15-7.2-5-8.49-.06-1-.13-2-.2-3Z"/><path class="cls-11" d="M55.62,112.22H52.38l1.52-1.49Z"/><path class="cls-3" d="M70.75,66.2c0,.58.09,1.16.14,1.75.19,2.84-.8,4.89-4.23,5.32a7.68,7.68,0,0,1-1.75-5.58C67,67.73,69.13,67.76,70.75,66.2Z"/><path class="cls-11" d="M69.46,134.53c-2.83-4.89-2.42-10.81-6-15.46,3.34-2.28,6.71,1.21,10.05-.06.95,5.24-1.35,10.59.63,15.79l-.15,0Z"/><path class="cls-3" d="M58.44,90.15c3,0,4.53-3.14,7.64-2.82-3.25,3.67,1.3,6.13,1.73,9.23,0,.54,0,1.07,0,1.61A18.55,18.55,0,0,1,58.44,90.15Z"/><path class="cls-6" d="M67.82,98.17c0-.54,0-1.07,0-1.6l4.58.36h1.53c1.83.93,1.53,2.53,1.53,4A8.8,8.8,0,0,1,67.82,98.17Z"/><path class="cls-3" d="M87.53,69c5.92.34,9,3.81,11,8.4L97,80.35,95.44,80c-2.3-.57-2.19-5.66-5.21-3.34-2,1.56-4.53,5.56.51,7.93l-3,1.17a3.21,3.21,0,0,0-3.12-1.4l0-2.79c0-.87.09-1.74.14-2.62C84.34,75.36,86.86,72.42,87.53,69Z"/><path class="cls-9" d="M72.39,96.92l-4.58-.35c-.43-3.11-5-5.57-1.73-9.24,2.92-1.87,1.4-4.66,1.75-7.06,1.47,0,2.7.44,3.26,1.82-.4,3.7,2.92,1,4.11,2l1.7,1.68c-1.27,3.34-4.82,5.81-4.51,9.76Z"/><path class="cls-11" d="M87.53,69c-.67,3.38-3.19,6.32-2.82,9.94-3.82-.89-6.55-3.21-9.09-5.79.41-2.62,1-5.16,4.5-5.74l1.6-.11a4.21,4.21,0,0,0,1.32.18l-.07.25c.64,1,1.23.64,1.81-.06a6.59,6.59,0,0,0,1.4-.15Z"/><path class="cls-6" d="M72.39,95.53c-.31-4,3.24-6.42,4.51-9.76,3.15-.09,3.16-2.13,3.14-4.2h0l4.53,0c0,.93,0,1.86,0,2.79,0,.41-.08.81-.1,1.22L83,87c-3.71,1.85-4.27,5.16-4.71,8.51l-4.38,0Z"/><path class="cls-3" d="M80.12,67.45c-3.54.58-4.09,3.12-4.5,5.74-2.35-1.25-1.78-3.91-3.24-5.6,2.87.42,4.39-4.92,7.94-1.54C80.25,66.52,80.18,67,80.12,67.45Z"/><path class="cls-15" d="M75.2,84.09c-1.19-1-4.51,1.7-4.11-2C73.06,81.73,75.86,80,75.2,84.09Z"/><path class="cls-6" d="M80,81.57l-.63-.32.63.31Z"/><path class="cls-3" d="M87.68,122.07l-1.53-7c1.57-2.15,3-.38,4.53.11,3,5.34,9.38,3.39,13.92,5.39l1.49,1.44c0,1.37-.1,2.74-.16,4.1C99,128,93.09,126,87.68,122.07Z"/><path class="cls-10" d="M115.26,140.24,112,137.38c.46-4.21-7.18-5.84-4.16-10.87l1.61-1.3,4.2-.17a6.68,6.68,0,0,0,.09,1.26c-.11,2,.93,3.38,2.89,4.21C116.12,133.75,118.57,137.34,115.26,140.24Z"/><path class="cls-13" d="M109.46,125.21l-1.61,1.3-1.92-.39c.06-1.37.11-2.74.16-4.11C108.34,122.09,109.07,123.5,109.46,125.21Z"/><path class="cls-6" d="M109.46,125.21c-.39-1.71-1.12-3.12-3.37-3.2l-1.49-1.44c0-2.54-2.09-4.15-3.5-5.92-3.66-4.62-6.84-4.34-10.42.53-1.5-.49-3-2.26-4.53-.11-3-.28-3.88,2.5-7.49,4.29,1.13-6.14,3.6-11.49,1.23-16.78,3.22,2.77,7,2.38,10.81,1.54,7,4,11.2-.21,15.45-4.32.19,2.69-.32,5.66.78,8s-3.8,6.13,2,7.2l1.76,2.89c-1.11,3.12,3.12,4.39,3,7.18Z"/><path class="cls-8" d="M78.3,95.48c.44-3.35,1-6.66,4.71-8.5,6.48,3,9.59,8.46,12.39,14.15l-3.1,0c-3.7-2.46-8.46-1.08-12.36-2.84C79.39,97.38,78.84,96.43,78.3,95.48Z"/><path class="cls-3" d="M79.94,98.33c3.9,1.76,8.66.38,12.36,2.84a3.15,3.15,0,0,1-1.6,3c-3.83.84-7.59,1.23-10.81-1.54C79.69,101.16,77.53,99.72,79.94,98.33Z"/><path class="cls-3" d="M72.39,95.53h1.53v1.4H72.39Z"/><path class="cls-13" d="M69.46,134.53l4.56.3c-.88,1.86-2.61,2.5-4.65,2.68Z"/><path class="cls-13" d="M175.11,120.57l-3.34,3-6.09-.07L164.07,122q-.76-3.41-1.52-6.79c3.93-2.07,3.2-8.35,9.23-8.51l4.46-6.23c1.25.32,2.47.53,3.25-.78,2,1,2.31,5,6,2.66a14.86,14.86,0,0,0,6.19,4.36c2,2.78,4.05,1,6.06,0l4.56,1.69c.65,1.11,1.85,1.12,3,1.25V111c-1.58,1.2-2.72,3.23-5.39,2.38-4.25-4.51-9.75-4.3-15.43-3.4-2.57.5-3.72-2.06-5.94-2.29C179.1,112.34,171.83,115.28,175.11,120.57Z"/><path class="cls-13" d="M116.64,130.51c-2-.83-3-2.19-2.89-4.21,5.14-3.56,10.15-7.19,9-14.1q.12-.58.21-1.17c3.59-.23,7.31.31,10.65-1.46a10.07,10.07,0,0,1-1.74,5.91c-1.53,2.64-2,5.09.54,7.59s4.56.91,6.76-.06c3.63-1.59,5.26-.62,4.94,3-2.68,3.18-8.08,2.29-10.51,5.84-4.6-1-4.55-4.38-4.64-7.59-.08-2.82-1.75-4.85-4.49-4.25-3,.65-.52,3-.36,4.58.25,2.38.89,5.15-3.59,3.07C117.21,126.17,118.8,130.57,116.64,130.51Z"/><path class="cls-3" d="M144.11,126.06c.32-3.67-1.31-4.64-4.94-3-2.2,1-4.34,2.46-6.76.06s-2.07-4.95-.54-7.59a10.07,10.07,0,0,0,1.74-5.91c.59-1.22,1.8-1.35,3-1.41l4.63,0c.5,1.76,1,3.53,1.49,5.29-.49,4,2.13,4.46,5.61,4.45,2.5,0,5.89-1.17,6.6,2.71C150.61,121.2,148.83,126.08,144.11,126.06Z"/><path class="cls-13" d="M155,120.65c-.71-3.88-4.1-2.71-6.6-2.71-3.48,0-6.1-.47-5.61-4.45,3.83-1.88,9,1.82,12.27-2.51l4.48-1.51c1.79,1,1.52,2.7,1.5,4.28-8-.2-1.29,4.84-3,6.9Z"/><path class="cls-6" d="M158.06,120.65c1.67-2.06-5-7.1,3-6.9l1.52,1.43,1.53,6.79-2.9,0Z"/><path class="cls-13" d="M138.24,144.62c-2.52-.7-5.59.81-7.68-1.6,4.5-7.59,6.48-1,9.2,1.37Z"/><path class="cls-13" d="M139.59,133.38c-.06,1.63-.55,3.16-2.51,3.49-1.65.29-1.73-1.07-1.91-2.15Z"/><path class="cls-3" d="M161.17,122l2.9,0,1.61,1.52C163.09,125.72,161.64,125.09,161.17,122Z"/><path class="cls-6" d="M118.25,144.43l-1.57-1.31Z"/><path class="cls-11" d="M54,120.66a12.68,12.68,0,0,1,1.51,0C55.06,121.77,54.55,121.79,54,120.66Z"/><path class="cls-11" d="M57.12,119.23c0-.45,0-.91,0-1.36L58.55,119A4.59,4.59,0,0,1,57.12,119.23Z"/><path class="cls-10" d="M108.93,115c-5.8-1.07-.85-4.81-2-7.2s-.59-5.29-.78-8c-.08-1.87-.17-3.74-.25-5.6.17-2,.4-4.09-2.74-4.39a2.38,2.38,0,0,1-1.41-2.49c.86-.68.86-1.18-.37-1.4l-3-1.55-1.45-4,1.59-2.91,7.51,1.22c-.28,1.92-.65,3.33,1.29,5.36,3.28,3.45,7.48,5.7,10.91,8.83-2.08,2.38-4-.54-6.1-.11l-.61-.31.62.31c.13,4.38-1.1,9.09,4.46,11.92,1.85,1,1.74,3.12,1.52,5-3,.5-5.92,1.21-7.42,4.05L109,115Z"/><path class="cls-6" d="M118.25,92.85c-3.43-3.13-7.63-5.38-10.91-8.83-1.94-2-1.57-3.44-1.29-5.36l4.5,1.6c2.43,1.07,4.9,2,7.27,3.23s4.48.49,4.67-1.51c.57-5.85,4.66-3.12,7.71-3,.13.84.25,1.69.38,2.53.12,1,0,2.35,1.59,2.23.59,0,1.08-1.12,1.62-1.73l.25-.2c.53-.86,1.07-1.72,1.6-2.59,4.05-1.93,6.2,3.41,10.07,2.2l.09,3h0c-5.31-.93-7.07,3.81-10.7,5.56l-2.81-.36c-.13-2.44-1.16-3.86-4.2-3.77-2.6.08-3.5,1.21-3.82,3.39a17.81,17.81,0,0,1-1.55,3.9Z"/><path class="cls-3" d="M135.64,79.19c-.53.87-1.07,1.73-1.6,2.59-.93-1.64-.46-4.07-3.16-4.65-.06,0-.44,1.19-.68,1.82-3-.09-7.14-2.82-7.71,3-.19,2-2.36,2.66-4.67,1.51s-4.84-2.16-7.27-3.23c5.43-1.69,2.77-4,.79-6.54-.85-1.1-2.12-2.91-.74-4.28.92-.9,2.29,0,3.14.9.93,1.53,2,1.45,3.13.2l4.38-.05c.49,7.16,6,1.31,8.66,2.78-.17-4.08,6.72-5.1,5.12-9.81l.12-.11c2.77.38,4.13,1.75,2.85,4.22C136.08,71.28,138,75.6,135.64,79.19Z"/><path class="cls-9" d="M116.87,70.54c-1.14,1.25-2.2,1.33-3.13-.2Z"/><path class="cls-9" d="M86.18,67.56a6.59,6.59,0,0,1-1.4.15L83,67.77l.07-.25,3.07-1.42C86.13,66.58,86.16,67.07,86.18,67.56Z"/><path class="cls-9" d="M80.12,67.45c.06-.47.13-.93.2-1.4l1.4,1.29Z"/><path class="cls-13" d="M155.29,74.55c2.25,2.64.89,5.72,1.18,8.59.26,2.56,0,5.39,3.45,6,3.92.75,2.31-3.32,4.12-4.57a9.53,9.53,0,0,0,1.45-1.52c-.11,5.23,4.28,3.92,7.5,4.33a3.14,3.14,0,0,0,3.15,2.65l0,5.71-4.3,0c-3.08-8.61-6.13,1-9.19,0l-9.1,1.3c2.89-5.15-3.81-9.24-1.87-14.28.06-1.31.11-2.62.16-3.94C152.8,77.31,153.18,75.36,155.29,74.55Z"/><path class="cls-11" d="M151.87,78.89c-.05,1.32-.1,2.63-.16,3.94l-5.91,1.54-.09-3c.38-1.68-.49-3.8,2-4.71S150.4,78.31,151.87,78.89Z"/><path class="cls-3" d="M135,63.46l-.6-.37.72.26Z"/><path class="cls-15" d="M242.1,143c-3.08-1.48.27-2.65.22-4C246.26,140.53,244,141.75,242.1,143Z"/><path class="cls-3" d="M20,120.7l-.42.48c-.1-.18-.3-.37-.29-.55s.26-.33.4-.49Z"/><path class="cls-5" d="M254.35,151.35l1.17,1.48c-1.81.44-.72-1-1.17-1.47Z"/><path class="cls-10" d="M176.17,95.78l0-5.71c7,1.6,5.31,8.77,9.39,12.25-3.73,2.37-4.08-1.68-6-2.66Z"/><path class="cls-11" d="M173,87.42c-3.22-.41-7.61.9-7.5-4.33l1.79-.18C169.9,83.66,173.21,83.67,173,87.42Z"/><path class="cls-10" d="M197.78,106.64c-2,1-4,2.82-6.06,0C193.73,105.75,195.72,100.77,197.78,106.64Z"/><path class="cls-10" d="M205.34,109.58c-1.15-.13-2.35-.14-3-1.25.19-1,.06-2.38,1.64-2.48s2.37,1.16,3,2.35Z"/><path class="cls-5" d="M175.11,120.57c-3.28-5.29,4-8.23,3.47-12.9,2.22.23,3.37,2.79,5.94,2.29-.55,2.56,1.13,3.35,3.46,3.61l3.68.11,0,0c-.34,1.51,2.12,3.22-.41,4.57a4.12,4.12,0,0,1-1.09-.21c-1.09-1.86-3-1.58-4.83-1.54-1.82-.54-3,.51-4.15,1.47-1.53,0-3.08.26-3.06,2s1.54,2,3.09,2l1.4,1.27C176.73,130.36,177.43,121.93,175.11,120.57Z"/><path class="cls-15" d="M188,113.57c-2.33-.26-4-1-3.46-3.61,5.68-.9,11.18-1.11,15.43,3.4l-8.26.34,0,0C190.49,112,189.26,112.3,188,113.57Z"/><path class="cls-3" d="M181.24,122c-1.55,0-3.08-.22-3.09-2s1.53-2,3.06-2Z"/><path class="cls-3" d="M185.36,116.52c1.82,0,3.74-.32,4.83,1.54C188.41,118,186.57,118.09,185.36,116.52Z"/><path class="cls-11" d="M57.09,113.66c0-.43,0-.87,0-1.31C58.28,112.79,58.11,113.23,57.09,113.66Z"/><path class="cls-6" d="M97,80.35l1.45,4c.09,2.13-.12,4.08-3.16,4.29-2.55-.86-5.46-.93-7.5-2.89v0l3-1.17c3.33,0,4.15-2.19,4.7-4.59Z"/><path class="cls-15" d="M95.44,80c-.55,2.4-1.37,4.56-4.7,4.59-5-2.37-2.54-6.37-.51-7.93C93.25,74.37,93.14,79.46,95.44,80Z"/><path class="cls-13" d="M84.51,85.61c0-.41.06-.81.1-1.22a3.21,3.21,0,0,1,3.12,1.4v0Z"/><path class="cls-3" d="M83,67.77l1.81-.06C84.2,68.41,83.61,68.81,83,67.77Z"/><path class="cls-3" d="M84.51,85.61l3.23.16c2,2,5,2,7.5,2.89.67,2.43,1.27,4.89,2,7.3.69,2.17,2.38,4.54-1.88,5.17C92.6,95.44,89.49,90,83,87Z"/><path class="cls-13" d="M90.68,115.18c3.58-4.87,6.76-5.15,10.42-.53,1.41,1.77,3.52,3.38,3.5,5.92C100.06,118.57,93.68,120.52,90.68,115.18Z"/><path class="cls-11" d="M122.75,112.2c1.15,6.91-3.86,10.54-9,14.1a6.68,6.68,0,0,1-.09-1.26c.15-2.78-4.08-4.05-3-7.17,5,.95,5.74-5.17,10.18-5.18Z"/><path class="cls-13" d="M95.4,101.13c4.26-.63,2.57-3,1.88-5.17-.77-2.41-1.37-4.87-2-7.3,3-.21,3.25-2.16,3.16-4.29l3,1.55c.12.46.24.93.37,1.4a2.38,2.38,0,0,0,1.41,2.49c-.24,2.06-.32,4,2.74,4.39.08,1.86.17,3.73.25,5.6-4.25,4.11-8.47,8.33-15.45,4.32a3.15,3.15,0,0,0,1.6-3Z"/><path class="cls-5" d="M120.86,112.69c-4.44,0-5.15,6.13-10.18,5.18L108.93,115h.1l1.69-1.3c1.5-2.84,4.39-3.55,7.42-4.05Z"/><path class="cls-8" d="M162.68,95.81c3.06,1,6.11-8.62,9.19,0,.09,2.61,3.47,2.66,4.37,4.64l-4.46,6.23c-1.64-1.73-4.26-2.75-4.65-5.38C167.57,98.15,163.48,98.1,162.68,95.81Z"/><path class="cls-3" d="M167.13,101.29c.39,2.63,3,3.65,4.65,5.38-6,.16-5.3,6.44-9.23,8.51L161,113.75c0-1.58.29-3.23-1.5-4.28C162.51,107.09,160.18,100.59,167.13,101.29Z"/><path class="cls-7" d="M176.24,100.44c-.9-2-4.28-2-4.37-4.64l4.3,0,3.32,3.88C178.71,101,177.49,100.76,176.24,100.44Z"/><path class="cls-10" d="M132.3,89.55l2.81.37c2.73,2.52,6.16,1,9.27,1.33l1.55,1.4c-2.23,3.53-6.5,5.73-7.73,9.91-6.67.45-.94,3.75-1.55,5.6-1.24.06-2.45.19-3,1.41-3.34,1.77-7.06,1.23-10.65,1.46-.37-2.32.49-3.91,2.88-5.07,1-.51,3.94,0,2.89-1.86-.62-1.08-.35-3.79-3.72-3.39-7.72.92-1.85-3.28-2.13-5.2C127.4,95.34,129.73,92.29,132.3,89.55Z"/><path class="cls-4" d="M122.88,95.51c.28,1.92-5.59,6.12,2.13,5.2,3.37-.4,3.1,2.31,3.72,3.39,1.05,1.83-1.84,1.35-2.89,1.86-2.39,1.16-3.25,2.75-2.88,5.07q-.09.59-.21,1.17l-1.89.49-2.72-3.06c.22-1.85.33-4-1.52-5-5.56-2.83-4.33-7.54-4.46-11.92h0c2-.43,4,2.49,6.1.11l4.48.22Z"/><path class="cls-6" d="M145.93,92.65l-1.55-1.4q.7-3.45,1.43-6.89h0l5.91-1.54c-1.94,5,4.76,9.13,1.86,14.27-1.23,1.61-2.34,3.25-1.7,5.35v0c-1.43-.24-2.4.2-2.78,1.54-1.41,3.25-5.85,1.79-7.81,4.19l-4.63,0c.61-1.85-5.12-5.15,1.55-5.6,1.78-.07,3.69.23,5.31-.26C148.52,100.78,149.62,96,145.93,92.65Z"/><path class="cls-9" d="M141.28,108.2c2-2.4,6.4-.94,7.81-4.19,1.18-.13,2.28-.38,2.78-1.54v0c10.41-.06,1.19,6,3.17,8.53-3.23,4.33-8.44.63-12.27,2.51C142.28,111.73,141.78,110,141.28,108.2Z"/><path class="cls-1" d="M155,111c-2-2.55,7.24-8.59-3.17-8.53-.64-2.1.47-3.74,1.7-5.35l9.11-1.29c.8,2.29,4.89,2.34,4.45,5.48-6.95-.7-4.62,5.8-7.61,8.18Z"/><path class="cls-6" d="M105.9,94.2c-3.06-.34-3-2.33-2.74-4.39C106.3,90.11,106.07,92.17,105.9,94.2Z"/><path class="cls-6" d="M101.75,87.32c-.13-.47-.25-.94-.37-1.4C102.61,86.14,102.61,86.64,101.75,87.32Z"/><path class="cls-4" d="M112.16,92.74l-.62-.31.61.31Z"/><path class="cls-6" d="M110.72,113.68,109,115Z"/><path class="cls-11" d="M122.88,95.51l-.15-2.44a17.54,17.54,0,0,0,1.55-3.89c.32-2.18,1.22-3.31,3.82-3.39,3-.09,4.07,1.33,4.2,3.77C129.73,92.29,127.4,95.34,122.88,95.51Z"/><path class="cls-11" d="M145.81,84.36q-.72,3.44-1.43,6.89c-3.11-.33-6.54,1.19-9.27-1.33C138.74,88.17,140.5,83.43,145.81,84.36Z"/><path class="cls-1" d="M130.2,79c.24-.63.62-1.84.68-1.82,2.7.58,2.23,3,3.16,4.65l-.25.2-3.21-.5C130.45,80.64,130.33,79.79,130.2,79Z"/><path class="cls-3" d="M130.58,81.48l3.21.5c-.54.61-1,1.69-1.62,1.73C130.58,83.83,130.7,82.49,130.58,81.48Z"/><path class="cls-3" d="M188,113.57c1.28-1.27,2.51-1.54,3.68.11Z"/><path class="cls-11" d="M145.93,92.65c3.69,3.39,2.59,8.13-2.42,9.65-1.62.49-3.53.19-5.31.26C139.43,98.38,143.7,96.18,145.93,92.65Z"/><path class="cls-1" d="M151.87,102.47c-.5,1.16-1.6,1.41-2.78,1.54C149.47,102.67,150.44,102.23,151.87,102.47Z"/><path class="cls-16" d="M298.53,112.21l1.52,2.78c.89,1.78.21,3.91,1.53,5.58,2.15,5.59,2.59,11.18,0,16.76C298.64,150,291,160.34,282,170a20.08,20.08,0,0,1-2.75,3.09c-5.58,4.06-11.43,7.77-17.36,11.4-6.14,2.94-12.18,6.08-18.54,8.63-7.07,2.78-14.51,4.6-21.73,7-9.18,2.3-18.57,3.65-27.9,5.24a6.35,6.35,0,0,1-3.4-.35c-3.15-3.26,1.09-4.63,2.09-6.83a12,12,0,0,1,1.15-1.69,6.39,6.39,0,0,1,2.6-1.74c3.35-1,6.82-1.61,10.19-2.54,1.65-.45,3.3-.89,4.94-1.39,1.3-.38,2.65-.63,4-.89a60.64,60.64,0,0,0,6.79-2,71.21,71.21,0,0,0,7.59-2.7c3.26-.72,6.46-1.55,8.92-3.83,2.38-1.21,5-1.91,7.44-3,2.78-.79,5.66-1.36,8.13-2.89.82-.46,1.64-.92,2.44-1.41a34.37,34.37,0,0,1,3.26-1.92,19.21,19.21,0,0,0,4.61-3.1c2-1.42,3.92-2.95,5.89-4.4a11.52,11.52,0,0,0,4.07-3.4c1.82-2.52,4.39-4.46,6.41-6.82,1.09-1.28,2.13-2.58,3.26-3.83,7.76-11.4,7.81-23.57,4.26-36.08a19.23,19.23,0,0,1-.77-3,13.9,13.9,0,0,0-1.26-3.78c-1.86-5-7.77-8.65-5.58-14.87a3.35,3.35,0,0,1,2.7-1.71,4.35,4.35,0,0,1,2.83,4.19c3.33,1.39,4.28,4.72,6.69,6.86C295.59,105.25,296.8,108.85,298.53,112.21Z"/><path class="cls-17" d="M4.87,106.6c2-6.72,7.28-11.41,12.4-16.16,6.24-5.79,13.9-10.76,13.52-20.23,2.82,2.45,2,5.56,1.89,8.55A5.68,5.68,0,0,1,31.37,82a230.72,230.72,0,0,0-24,26.39C6,108.42,5.4,107.55,4.87,106.6Z"/><path class="cls-18" d="M283.21,173.63c0-2,.15-4.06-3-4.13,10.29-9,16.28-20.32,21.38-32.17a37.56,37.56,0,0,1-9.72,22.88A50.74,50.74,0,0,0,283.21,173.63Z"/><path class="cls-19" d="M4.87,106.6,6.45,108c1.67,7.41-1.79,14.52-1.56,21.85-1.11,2.46-.63,5.48-3.08,7.48A39.27,39.27,0,0,1,4.87,106.6Z"/><path class="cls-20" d="M18.6,161.09a2.86,2.86,0,0,0-1.49,2.8c-4.56-5.78-9.87-11.13-12.25-18.14-.63-1.4.35-1.79,1.54-2.06C12.6,148.24,17.07,153.81,18.6,161.09Z"/><path class="cls-21" d="M30.9,80.13c0-3.31-.08-6.61-.11-9.92.16-1.5-.15-3.17,1.76-4a6.62,6.62,0,0,1,1.71,4.73c.07,1,.06,2,.11,2.92a8.57,8.57,0,0,0,1.27,3.58c1.24,2.16,1.89,4.38.71,6.75A3.8,3.8,0,0,1,32.81,86C30.11,84.63,32.61,81.81,30.9,80.13Z"/><path class="cls-22" d="M6.43,144.31l-1.57,1.44a13,13,0,0,1-3.05-8.38c.42-2.35-1-5,1.5-7C5.85,134.74,8.33,139.12,6.43,144.31Z"/><path class="cls-23" d="M298.53,112.21c-3.08-2.72-4-6.58-6.14-9.78-.46-.32-.61-.63-.45-1s.31-.47.47-.47A14,14,0,0,1,298.53,112.21Z"/><path class="cls-24" d="M292.41,101c0,.47,0,.95,0,1.42-3.12-1.54-4-4.69-6.1-7Q291.74,96,292.41,101Z"/><path class="cls-25" d="M301.58,120.57c-1.65-1.59-2.8-3.31-1.53-5.58C302.3,116.46,301.37,118.65,301.58,120.57Z"/><path class="cls-26" d="M6.43,144.31c-1-4.65-3.8-9-3.12-13.94A55.08,55.08,0,0,1,6.45,108C12.21,97,22.17,89,30.9,80.13c5.49.76.44,4,1.65,5.8.43,3-2.28,4.78-3.19,7.26-.73,1.33-1.43,2.67-2.12,4-.56,1.11-1.14,2.2-1.74,3.29C21.12,107.39,13.9,113,14.08,122c.87,3.94-.11,8,1.18,11.91,1,3.07,1.68,6.24,2.94,9.24.84,1.64,1.85,3.21,2.8,4.8a13.42,13.42,0,0,0,3.47,4.21c2.5,1.76,3.19,4.79,5.59,6.62a57.6,57.6,0,0,0,7.16,6.1,70.11,70.11,0,0,0,5.12,5.23,17.87,17.87,0,0,0,3.72,2.76c4.53,2.05,9.6,2.75,14.12,4.8,1.21.56,2.33,1.24,3.48,1.88a35.59,35.59,0,0,0,4.65,1.76,67.08,67.08,0,0,0,15.5,5.23c2.25.74,4.36,1.78,6.67,2.36.66.15,1.3.36,1.93.57a41.71,41.71,0,0,0,4.94,1.17c2.39.58,4.81,1,7.23,1.55,2.49.74,5.12.6,7.66,1.05,3,.83,6.07,1,9.08,1.58,3.85,1.2,7.9.51,11.83,1a15.32,15.32,0,0,1,2.42.42c5.72,1.35,11.54.46,17.31.66a34.78,34.78,0,0,1,3.82,0c3,.12,6,0,9.06,0,5.62.17,11.26-.39,16.85.4,3.76,1.82,8.09-.34,11.86,1.41-.46,2.57-4.63,2.66-4.53,5.62a4.32,4.32,0,0,1-2.36,1.28c-8.34-.1-16.38,2.23-24.77,2.26a341.55,341.55,0,0,1-36.07-2.06c-4.23-.4-8.43-1.1-12.67-1.5-2.73-.64-5.41-1.5-8.29-1.31-3.19.16-6-1.83-9.2-1.42-7.08-1.72-14.12-3.58-21-5.76-4.15-1.46-8.21-3.11-12.34-4.62a197.57,197.57,0,0,1-27.74-13.62c-2.17-1.55-3.88-3.63-6.32-4.9-2-2-6-2.33-5.83-6l-4.7-5.5Z"/><path class="cls-27" d="M289.58,113.52c5.06,13.67,4.8,26.79-4.8,39a4.72,4.72,0,0,1-1.47-1.94c-2-7.69,1.84-14.69,3.07-22C288.74,123.75,285.08,117.9,289.58,113.52Z"/><path class="cls-28" d="M215.94,203c-5.19.52-10.45.72-15.3,2.79l-3.07,0c-1.23-1.34-3.4,0-4.62-1.39,9.44-3,19.35-3.93,29.08-5.65q.6.5.42,1c-.13.34-.25.51-.38.51C220.74,202.44,217.26,200.71,215.94,203Z"/><path class="cls-29" d="M222.07,200.19c0-.5,0-1,0-1.5,6.79-3.25,14.15-5,21.47-6.84a2.47,2.47,0,0,1,1.47,1.32l0,1.41-18.36,5.58Z"/><path class="cls-30" d="M245,193.17l-1.47-1.32a88.92,88.92,0,0,1,18.21-8.49,1,1,0,0,1,1.65,0c.25,2.18-2.14,2.73-3.08,4.19C254.32,187.48,250.79,192.94,245,193.17Z"/><path class="cls-29" d="M263.36,183.41l-1.65,0a95.83,95.83,0,0,1,16.91-11.18C276.52,179.3,269.24,180.57,263.36,183.41Z"/><path class="cls-31" d="M280.14,101c.51-2.76-1.74-6,1.67-8.26-1.57,6.25,5.44,9.68,6,15.22-1.31.77-2.49.22-3.68-.29a6.59,6.59,0,0,1-1.52-1.09,10.89,10.89,0,0,1-2.52-4.7C280.13,101.62,280.13,101.33,280.14,101Z"/><path class="cls-32" d="M289.58,113.52c-1.46,5,1.64,10.54-1.73,15.42-3.07-2.9-1.74-6.56-2.07-9.94,0-1.11,0-2.23.11-3.34a10.35,10.35,0,0,1,.64-3.2c.55-1,1.17-1.87,2.64-1.5C289.31,111.81,289.45,112.67,289.58,113.52Z"/><path class="cls-33" d="M289.17,111,287.72,112a1.45,1.45,0,0,1-1.91.27c-1.55-1.64-2.76-3.34-1.28-5.56l3.31,1.28A2.52,2.52,0,0,1,289.17,111Z"/><path class="cls-34" d="M193,204.34c1.67.08,3.5-.26,4.62,1.39l-4.56.05c-1.84.43-4.11,2.06-4.55-1.37a14.53,14.53,0,0,0,1.48-.14Z"/><path class="cls-35" d="M171.59,209.92c-2.85-1.64-6-1.42-9.18-1.35-5.1,2.85-10.2,3-15.3,0l-7.63,0c-5.36-2.94-11.24-.66-16.83-1.39,0-.46,0-.92,0-1.37.71-1,2.27-.45,3-1.37,20.93,2.53,41.86,1.59,62.79,0,1.09,1.62,2.9,1.27,4.55,1.36-5.08,3.64-11.76-.88-16.84,2.77C174.49,208.59,172.69,208.29,171.59,209.92Z"/><path class="cls-36" d="M35.57,176.29l27.67,14c-.17.92-1.12,1.08-1.76,1.54H60l-15.3-7-10.72-7A1.89,1.89,0,0,1,35.57,176.29Z"/><path class="cls-37" d="M23.31,166.59,29.48,172a1.09,1.09,0,0,1-.14,1.7C26.92,171.63,20.9,172.07,23.31,166.59Z"/><path class="cls-38" d="M29.34,173.71c0-.56.09-1.13.14-1.7a9.18,9.18,0,0,1,6.08,4.28l-1.63,1.56A9.76,9.76,0,0,1,29.34,173.71Z"/><path class="cls-39" d="M125.67,204.41c-.66,1.12-1.81,1.31-3,1.37l-10.67,0-.06-1.36c.1-.86,1.09-.88,1.56-1.39Z"/><path class="cls-40" d="M75.32,194.55l21.31,5.64c.16,2.61-1.35,2.19-3.07,1.4l-4.54,0c-3.18-2.19-7.3-1.36-10.71-2.79-1.1-1.59-2.88-1.36-4.55-1.42L72.2,196C72.07,193.31,73.62,193.79,75.32,194.55Z"/><path class="cls-41" d="M75.32,194.55c-1.26.07-2.44.26-3.12,1.4-4-.41-7.13-2.81-10.72-4.17l1.76-1.54C67.71,190.63,71.49,192.65,75.32,194.55Z"/><path class="cls-42" d="M113.46,203l-1.56,1.39c-3.56-.53-7.47,1.17-10.72-1.39,1.2-1.4,3.35-.08,4.59-1.35Z"/><path class="cls-43" d="M105.77,201.65c-1.12,1.6-2.94,1.24-4.59,1.35l-6.06,0-1.56-1.37c1.25-.06,2.42-.27,3.07-1.4Z"/><path class="cls-44" d="M287.7,117.64l.15,11.3c-.59,7.45-4,14.54-3.39,22.14L283,149.84a6.5,6.5,0,0,1-1.61-3.16c-.88-5.44.64-10.73,1.15-16.08.33-3.42,0-6.93,1.59-10.19C284.89,119,285.56,117.54,287.7,117.64Z"/><path class="cls-32" d="M284.53,106.72l2.16,5.23c-6.12,2.25-3.53-2.31-4.11-4.38l.7-1A8.71,8.71,0,0,0,284.53,106.72Z"/><path class="cls-32" d="M281.68,106.63c-1-1.75-1.83-3.54-1.53-5.58,2.3,1.24,2.72,3.38,3.13,5.52l-.23.2A.81.81,0,0,1,281.68,106.63Z"/><path class="cls-45" d="M281.68,106.63a5.74,5.74,0,0,1,1.37.14c.6,2.09-.9,5.4,3.64,5.18.34,0,.69,0,1,.07,0,1,0,2,0,3-1.36,1.62-3.15,3.14-1.52,5.46-1.92,3.11-1.41,6.53-1.48,9.87-4.62-.84-3.35-5.4-5.8-7.62-.88-2.77-1.13-5.45,1.24-7.78C282.16,112.39,281.72,109.48,281.68,106.63Z"/><path class="cls-12" d="M209.2,277.27c24.31-7.77,41.21-16.74,51-41.1,9-22.34,17.42-44.77,24.57-67.63l-1.59,0c-2.28,0-3.7,1.34-5.21,2.63-11.15,9.53-24.33,16.27-38.52,20.95C199.31,205.33,158,208.46,115.92,202c-32.21-5-63.21-13.06-88.18-33.66-12.28-10.13-21.86-22-24.43-37.44l-2.93,0a39.37,39.37,0,0,0,9.25,22.42c5.61,6.75,9.12,14.44,12,22.37,7.47,20.63,15.18,41.19,22.8,61.77C53,260.69,71.55,271.54,95.61,277.5c0,0,29.76,6,59,6C154.58,283.46,191,283.46,209.2,277.27Z"/><path class="cls-15" d="M136.25,54.83s-3.43,2.05-2.49,3a24.32,24.32,0,0,1,3.74-1.07S140.31,53.75,136.25,54.83Z"/><path class="cls-15" d="M147.53,47.55s-3.43,2-2.49,3a25.62,25.62,0,0,1,3.74-1.07S151.59,46.46,147.53,47.55Z"/><path class="cls-15" d="M158.69,50s-2.06,1.23-1.5,1.79a14.7,14.7,0,0,1,2.25-.64S161.12,49.33,158.69,50Z"/><path class="cls-15" d="M150.31,69.16s-2.67,1.59-1.94,2.32a19.91,19.91,0,0,1,2.91-.83S153.46,68.32,150.31,69.16Z"/><path class="cls-5" d="M150.65,69.65s-.89.53-.65.77a6.64,6.64,0,0,1,1-.28S151.69,69.37,150.65,69.65Z"/><path class="cls-15" d="M151.52,74.46s3,.67,2.57,1.54a19.6,19.6,0,0,0-2.94.09S148.36,74.61,151.52,74.46Z"/><path class="cls-15" d="M175.36,57.21s-.8,1.61-.16,1.84a9.9,9.9,0,0,1,1.18-1.25S176.67,55.9,175.36,57.21Z"/><path class="cls-15" d="M153.34,66.27s-2.57,1.53-1.87,2.23a18.94,18.94,0,0,1,2.8-.8S156.37,65.46,153.34,66.27Z"/><path class="cls-15" d="M141.25,60.77s-2.41.24-2.19,1a15.48,15.48,0,0,1,2.29.34S143.7,61.19,141.25,60.77Z"/><path class="cls-15" d="M169,63.47s-1.47,2.46-.49,2.78a16.3,16.3,0,0,1,2-1.92S171.29,61.45,169,63.47Z"/><path class="cls-15" d="M178.57,74.4s-1.08,1.81-.36,2A12.24,12.24,0,0,1,179.72,75S180.22,72.91,178.57,74.4Z"/><path class="cls-15" d="M126.4,55.05s-1.62,2.71-.54,3.07A18.6,18.6,0,0,1,128.13,56S128.89,52.81,126.4,55.05Z"/><path class="cls-15" d="M170.32,55.25s-3.25.28-3,1.26a21.27,21.27,0,0,1,3.08.51S173.63,55.87,170.32,55.25Z"/><path class="cls-15" d="M147.8,53.93s3.13.27,2.87,1.22a20.15,20.15,0,0,0-3,.49S144.61,54.53,147.8,53.93Z"/><path class="cls-15" d="M145.71,67.2s-3,.9-2.5,1.77a20,20,0,0,1,3-.12S149,67.13,145.71,67.2Z"/><path class="cls-15" d="M166.81,61.2s-.9,2.66.13,2.79a16.29,16.29,0,0,1,1.57-2.25S168.55,58.81,166.81,61.2Z"/><path class="cls-15" d="M152.25,57.76s-3.09.59-2.7,1.5a20,20,0,0,1,3,.18S155.48,58,152.25,57.76Z"/><path class="cls-15" d="M135.55,61.5s1.69,1,1.23,1.47a12.6,12.6,0,0,0-1.84-.53S133.55,61,135.55,61.5Z"/><path class="cls-15" d="M142.76,56.22s2.75,1.64,2,2.4a19.42,19.42,0,0,0-3-.86S139.5,55.35,142.76,56.22Z"/><path class="cls-15" d="M175.42,63.29s2.9,1.72,2.11,2.52a21.6,21.6,0,0,0-3.17-.91S172,62.37,175.42,63.29Z"/><path class="cls-15" d="M161.43,53s2.8.17,2.58,1a17.57,17.57,0,0,0-2.62.5S158.62,53.62,161.43,53Z"/><path class="cls-15" d="M82.69,53.28s4.12,2.45,3,3.58a30.31,30.31,0,0,0-4.49-1.29S77.83,52,82.69,53.28Z"/><path class="cls-15" d="M153.85,47.75s2,2.42,1,2.89a18.41,18.41,0,0,0-2.48-1.77S151.14,45.89,153.85,47.75Z"/><path class="cls-15" d="M179.25,58.83s-2.56,1.53-1.86,2.23a18.53,18.53,0,0,1,2.8-.8S182.29,58,179.25,58.83Z"/><path class="cls-15" d="M156.9,55s-2.41.24-2.19,1a15.48,15.48,0,0,1,2.29.34S159.35,55.43,156.9,55Z"/><path class="cls-15" d="M192.47,42.62s-3.25.28-3,1.26a20.42,20.42,0,0,1,3.08.52S195.78,43.24,192.47,42.62Z"/><path class="cls-15" d="M180.61,66.65s3.13.26,2.87,1.21a20.15,20.15,0,0,0-3,.49S177.42,67.24,180.61,66.65Z"/><path class="cls-15" d="M161.36,61.44s-3,.9-2.5,1.77a20,20,0,0,1,3-.12S164.61,61.37,161.36,61.44Z"/><path class="cls-15" d="M190.89,46.91s-.89,2.65.13,2.79a15.8,15.8,0,0,1,1.58-2.25S192.63,44.52,190.89,46.91Z"/><path class="cls-15" d="M191.07,57.53s2.9,1.72,2.11,2.52a21.6,21.6,0,0,0-3.17-.91S187.64,56.61,191.07,57.53Z"/><path class="cls-15" d="M167.22,69.32s1.18,1.46.58,1.74A11.77,11.77,0,0,0,166.31,70S165.59,68.21,167.22,69.32Z"/><path class="cls-15" d="M180.59,72.4s3.56.56,3.16,1.62a22.28,22.28,0,0,0-3.44.32S176.9,72.81,180.59,72.4Z"/><path class="cls-15" d="M156.22,59.57s-2.06,1.23-1.5,1.79a14.7,14.7,0,0,1,2.25-.64S158.65,58.93,156.22,59.57Z"/><path class="cls-15" d="M144,76.76s3,.66,2.57,1.54a19.62,19.62,0,0,0-2.94.09S140.85,76.91,144,76.76Z"/><path class="cls-15" d="M125.64,64.67s-1.08,1.81-.36,2a13.11,13.11,0,0,1,1.51-1.41S127.3,63.18,125.64,64.67Z"/><path class="cls-15" d="M152.5,64.84s-2.17.18-2,.83a13.09,13.09,0,0,1,2,.35S154.7,65.24,152.5,64.84Z"/><path class="cls-15" d="M130.56,59s-3,.89-2.5,1.77a19.4,19.4,0,0,1,3-.13S133.81,58.9,130.56,59Z"/><path class="cls-15" d="M135,67.7s-3.08.59-2.7,1.51a19.39,19.39,0,0,1,3,.17S138.26,68,135,67.7Z"/><path class="cls-15" d="M153,61.27s1.93,1.15,1.4,1.68a14.58,14.58,0,0,0-2.11-.61S150.75,60.66,153,61.27Z"/><path class="cls-15" d="M144.21,63s2.79.17,2.58,1a17.84,17.84,0,0,0-2.63.5S141.39,63.57,144.21,63Z"/><path class="cls-15" d="M144.14,71.38s-3,.9-2.5,1.77a20,20,0,0,1,3-.12S147.38,71.31,144.14,71.38Z"/><path class="cls-15" d="M165.25,66.6s-.51,1.52.08,1.6a9,9,0,0,1,.9-1.29S166.25,65.23,165.25,66.6Z"/><path class="cls-15" d="M177.58,70.12s2.87.65,2.48,1.5a17.77,17.77,0,0,0-2.84.08S174.52,70.27,177.58,70.12Z"/><path class="cls-15" d="M173.18,58.34s-2.57,1.52-1.87,2.23a19.36,19.36,0,0,1,2.8-.81S176.21,57.53,173.18,58.34Z"/><path class="cls-15" d="M194.33,51.2s-1.47,2.46-.48,2.78a16.3,16.3,0,0,1,2.05-1.92S196.59,49.18,194.33,51.2Z"/><path class="cls-15" d="M203.09,59.6s-3.26.27-3,1.26a19.86,19.86,0,0,1,3.08.51S206.4,60.21,203.09,59.6Z"/><path class="cls-15" d="M170.63,69.29s-2.06,1.22-1.5,1.79a14.81,14.81,0,0,1,2.24-.64S173.06,68.64,170.63,69.29Z"/><path class="cls-15" d="M194.7,67.88s2.91,1.73,2.12,2.53a20.33,20.33,0,0,0-3.17-.91S191.27,67,194.7,67.88Z"/><path class="cls-15" d="M175.73,68.62s-.51,1.52.08,1.6a9.1,9.1,0,0,1,.91-1.29S176.74,67.25,175.73,68.62Z"/><path class="cls-15" d="M136.64,49.09s3.56.56,3.16,1.63a23.12,23.12,0,0,0-3.44.31S133,49.5,136.64,49.09Z"/></g></g></svg>